<svg width="276" height="189" viewBox="0 0 276 189" fill="none" xmlns="http://www.w3.org/2000/svg">
<path fill-rule="evenodd" clip-rule="evenodd" d="M76.8471 89.9192L58.1697 148.009L18.9823 146.094L1.10196 37.7272C-1.8602 19.7744 11.99 3.45164 30.1855 3.45165L54.4301 3.45165L56.1052 0.833595L64.244 3.45167C70.7486 3.45922 76.6381 5.52904 81.4117 8.97408L246.089 61.9466C271.556 70.1389 283.011 99.7073 269.709 122.919L244.517 166.879C231.44 189.698 200.866 195.06 180.805 178.052L76.8471 89.9192Z" fill="#00ADB5"/>
<path d="M76.8471 89.9192L77.301 89.3839L76.5003 88.7051L76.179 89.7043L76.8471 89.9192ZM58.1697 148.009L58.1354 148.71L58.673 148.736L58.8378 148.224L58.1697 148.009ZM18.9823 146.094L18.2898 146.209L18.3821 146.768L18.948 146.795L18.9823 146.094ZM1.10196 37.7272L1.79438 37.6129L1.10196 37.7272ZM30.1855 3.45165V4.15343V4.15343V3.45165ZM54.4301 3.45165V4.15343H54.8142L55.0212 3.82987L54.4301 3.45165ZM56.1052 0.833595L56.3201 0.16553L55.8054 -2.29649e-05L55.514 0.455369L56.1052 0.833595ZM64.244 3.45167L64.0291 4.11973L64.1335 4.15332L64.2432 4.15345L64.244 3.45167ZM81.4117 8.97408L81.001 9.54314L81.0911 9.60814L81.1968 9.64214L81.4117 8.97408ZM246.089 61.9466L245.874 62.6147L246.089 61.9466ZM269.709 122.919L269.1 122.57V122.57L269.709 122.919ZM244.517 166.879L243.908 166.53L244.517 166.879ZM180.805 178.052L180.351 178.588L180.805 178.052ZM76.8471 89.9192L76.179 89.7043L57.5016 147.794L58.1697 148.009L58.8378 148.224L77.5152 90.134L76.8471 89.9192ZM58.1697 148.009L58.2039 147.308L19.0165 145.393L18.9823 146.094L18.948 146.795L58.1354 148.71L58.1697 148.009ZM18.9823 146.094L19.6747 145.98L1.79438 37.6129L1.10196 37.7272L0.409543 37.8414L18.2898 146.209L18.9823 146.094ZM1.10196 37.7272L1.79438 37.6129C-1.09726 20.0876 12.4232 4.15342 30.1855 4.15343V3.45165V2.74987C11.5568 2.74986 -2.62314 19.4613 0.409543 37.8414L1.10196 37.7272ZM30.1855 3.45165V4.15343L54.4301 4.15343V3.45165V2.74987L30.1855 2.74987V3.45165ZM54.4301 3.45165L55.0212 3.82987L56.6963 1.21182L56.1052 0.833595L55.514 0.455369L53.8389 3.07342L54.4301 3.45165ZM56.1052 0.833595L55.8903 1.50166L64.0291 4.11973L64.244 3.45167L64.4589 2.7836L56.3201 0.16553L56.1052 0.833595ZM64.244 3.45167L64.2432 4.15345C70.5958 4.16082 76.3427 6.18135 81.001 9.54314L81.4117 8.97408L81.8224 8.40502C76.9334 4.87673 70.9014 2.75762 64.2449 2.74989L64.244 3.45167ZM81.4117 8.97408L81.1968 9.64214L245.874 62.6147L246.089 61.9466L246.304 61.2786L81.6266 8.30601L81.4117 8.97408ZM246.089 61.9466L245.874 62.6147C270.917 70.6703 282.18 99.7455 269.1 122.57L269.709 122.919L270.318 123.268C283.842 99.669 272.196 69.6075 246.304 61.2786L246.089 61.9466ZM269.709 122.919L269.1 122.57L243.908 166.53L244.517 166.879L245.126 167.228L270.318 123.268L269.709 122.919ZM244.517 166.879L243.908 166.53C231.049 188.969 200.986 194.241 181.259 177.517L180.805 178.052L180.351 178.588C200.747 195.879 231.831 190.428 245.126 167.228L244.517 166.879ZM180.805 178.052L181.259 177.517L77.301 89.3839L76.8471 89.9192L76.3933 90.4545L180.351 178.588L180.805 178.052Z" fill="black"/>
</svg>
