<svg width="180" height="102" viewBox="0 0 180 102" fill="none" xmlns="http://www.w3.org/2000/svg">
<path d="M5.29083 36.6573C14.5098 32.265 21.9624 25.003 29.4562 18.1548C35.3459 12.7724 41.5226 7.45394 48.0225 2.80917C49.3051 1.89267 51.117 0.0482334 52.8508 0.834329C54.5689 1.6133 55.5594 3.73418 56.9173 4.99009C60.2613 8.08296 63.2682 11.8625 66.0175 15.4971C69.0441 19.4981 64.5054 21.7126 61.6997 24.3322C58.5127 27.3078 55.469 30.3763 51.9878 33.002C48.6788 35.4978 46.0201 38.9378 42.9909 41.7632C38.3742 46.0692 34.0562 50.6535 29.4529 54.9638C26.7126 57.5297 23.5686 59.6245 20.9297 62.2816C20.0051 63.2126 19.1498 64.4432 18.0835 65.2185C17.227 65.8411 16.0417 63.4466 15.7368 62.9957C13.3168 59.4163 9.568 56.9679 7.19833 53.2241C5.70841 50.8702 4.70588 47.9651 2.92248 45.8155C2.07113 44.7893 -0.0572932 42.4795 0.875236 40.9804C1.82736 39.4499 4.5309 38.7166 6.00555 37.6204C7.15507 36.7659 8.55246 35.7109 9.86075 35.1168C10.8116 34.6849 11.745 33.9195 12.5954 33.3301C14.8333 31.7787 12.4618 32.4418 10.9482 33.0183" stroke="#00ADB5" stroke-opacity="0.2" stroke-width="1.28667" stroke-linecap="round" stroke-linejoin="round"/>
<path d="M6.69936 43.6843C12.3116 47.1587 17.3459 52.1866 21.7272 57.1452C21.8382 57.2708 22.9045 58.014 22.7419 58.289C22.4281 58.8201 18.7854 56.4229 18.4374 56.1828" stroke="#00ADB5" stroke-opacity="0.2" stroke-width="1.28667" stroke-linecap="round" stroke-linejoin="round"/>
<path d="M12.2639 38.6615C16.8141 39.9644 19.5257 42.4435 23.1994 45.096C24.8358 46.2775 26.5026 47.3439 27.9714 48.7333C28.6611 49.3857 29.1524 50.2449 29.7896 50.9484C30.663 51.9127 27.0963 49.829 26.6761 49.589" stroke="#00ADB5" stroke-opacity="0.2" stroke-width="1.28667" stroke-linecap="round" stroke-linejoin="round"/>
<path d="M18.8735 34.7676C22.0576 37.6412 25.2584 40.4752 28.5424 43.2334C29.79 44.2812 31.2062 45.2428 32.2837 46.477C34.1965 48.6677 31.6915 45.825 30.8407 45.0225" stroke="#00ADB5" stroke-opacity="0.2" stroke-width="1.28667" stroke-linecap="round" stroke-linejoin="round"/>
<path d="M23.3364 32.0283C25.6983 33.4641 28.1653 34.8556 30.1651 36.7918C30.9854 37.586 31.666 38.5221 32.543 39.2579C33.6235 40.1643 34.5699 41.2217 35.6575 42.1027C37.2062 43.3572 37.439 43.7235 35.5993 42.1489" stroke="#00ADB5" stroke-opacity="0.2" stroke-width="1.28667" stroke-linecap="round" stroke-linejoin="round"/>
<path d="M29.0866 27.8116C31.6922 29.8508 34.1038 31.9216 36.2826 34.4091C37.2476 35.5109 38.0252 36.7826 39.2499 37.6278C40.3719 38.4021 41.1583 38.6259 39.8449 37.3675" stroke="#00ADB5" stroke-opacity="0.2" stroke-width="1.28667" stroke-linecap="round" stroke-linejoin="round"/>
<path d="M34.6238 23.5142C36.9181 25.2381 39.18 26.8118 41.0126 29.0321C41.8515 30.0486 42.5138 31.2168 43.4507 32.1544C45.3532 34.0581 44.0449 33.0984 42.6686 31.8063" stroke="#00ADB5" stroke-opacity="0.2" stroke-width="1.28667" stroke-linecap="round" stroke-linejoin="round"/>
<path d="M39.7313 19.0553C42.9523 22.1366 45.6499 25.7456 48.8766 28.7891C51.0493 30.8384 47.9363 27.5545 47.427 26.9711" stroke="#00ADB5" stroke-opacity="0.2" stroke-width="1.28667" stroke-linecap="round" stroke-linejoin="round"/>
<path d="M45.9655 15.5105C48.6766 14.4036 51.489 13.0841 52.946 10.3792C53.3477 9.63325 53.8654 8.98393 54.0305 8.14333C54.2572 6.98891 54.2128 7.48412 53.3572 8.23118" stroke="#00ADB5" stroke-opacity="0.2" stroke-width="1.28667" stroke-linecap="round" stroke-linejoin="round"/>
<path d="M50.3319 19.2337C52.4812 17.2392 54.884 15.0605 56.459 12.5287C57.2445 11.2658 58.7409 9.72441 56.6489 11.5509" stroke="#00ADB5" stroke-opacity="0.2" stroke-width="1.28667" stroke-linecap="round" stroke-linejoin="round"/>
<path d="M57.2218 23.4141C59.1802 21.2859 60.9229 19.3066 62.7256 17.0813C63.308 16.3623 65.0824 15.4293 62.9476 15.9998" stroke="#00ADB5" stroke-opacity="0.2" stroke-width="1.28667" stroke-linecap="round" stroke-linejoin="round"/>
<path d="M55.6634 22.3389C57.7133 20.5823 60.0315 18.5371 61.6559 16.319C62.0892 15.7273 62.4226 15.0682 62.8194 14.4534C63.4841 13.4236 63.5261 13.7713 62.5181 13.8771" stroke="#00ADB5" stroke-opacity="0.2" stroke-width="1.28667" stroke-linecap="round" stroke-linejoin="round"/>
<path d="M12.2328 47.233C22.4454 43.0845 24.9652 31.8255 33.2875 25.458C34.2999 24.6835 35.1223 23.8225 36.3029 23.2863C37.0923 22.9278 38.0672 22.7562 38.7857 22.2974C39.2241 22.0176 42.8639 19.2369 40.3344 20.3857" stroke="#00ADB5" stroke-opacity="0.2" stroke-width="1.28667" stroke-linecap="round" stroke-linejoin="round"/>
<path d="M7.47856 44.2221C8.62458 42.8285 9.64206 41.6358 11.096 40.6279C11.3345 40.4626 11.7024 40.4347 11.8985 40.2139C12.287 39.7765 12.8756 39.1371 13.0254 38.573C13.6151 36.3512 16.4964 36.762 18.0264 35.648C19.4819 34.5883 20.8832 33.5154 22.367 32.4683C24.0018 31.3147 24.7581 30.3031 26.071 28.8249C27.2771 27.4672 28.4479 26.0937 29.7245 24.8083C30.7689 23.7567 32.4099 22.8003 33.0746 21.4544C33.8249 19.9355 35.7423 18.197 37.4681 18.4785C38.061 18.5752 42.4166 21.0992 39.5696 19.4853" stroke="#00ADB5" stroke-opacity="0.2" stroke-width="1.28667" stroke-linecap="round" stroke-linejoin="round"/>
<path d="M146.329 100.559C147.475 99.1654 148.493 97.9727 149.947 96.9648C150.185 96.7995 150.553 96.7716 150.749 96.5508C151.138 96.1134 151.726 95.474 151.876 94.9099C152.466 92.6881 155.347 93.0989 156.877 91.9849C158.333 90.9252 159.734 89.8523 161.218 88.8053C162.852 87.6517 163.609 86.64 164.922 85.1619C166.128 83.8041 167.299 82.4307 168.575 81.1452C169.62 80.0936 171.261 79.1372 171.925 77.7913C172.676 76.2724 174.593 74.5339 176.319 74.8154C176.912 74.9121 181.267 77.4361 178.42 75.8223" stroke="#00ADB5" stroke-opacity="0.2" stroke-width="1.28667" stroke-linecap="round" stroke-linejoin="round"/>
<path d="M16.7197 49.6527C24.394 45.6046 28.6531 36.7789 33.8365 30.1119C35.7457 27.6562 38.4741 26.0244 40.4726 23.6115C41.3274 22.5795 43.2151 21.4832 41.0196 21.5009" stroke="#00ADB5" stroke-opacity="0.2" stroke-width="1.28667" stroke-linecap="round" stroke-linejoin="round"/>
<path d="M19.4596 52.1525C26.4133 47.8775 30.8659 39.9237 35.9252 33.6206C38.2269 30.753 40.4484 27.8254 42.7784 24.9812C43.8407 23.6844 45.6929 22.8744 43.3161 24.2021" stroke="#00ADB5" stroke-opacity="0.2" stroke-width="1.28667" stroke-linecap="round" stroke-linejoin="round"/>
<path d="M22.1987 56.6138C26.5379 52.3823 30.0412 47.816 33.5916 42.9213C35.7505 39.9451 37.6167 36.5997 40.1517 33.9198C41.6062 32.3822 42.726 30.5817 44.0465 28.9516C44.5785 28.2949 44.9455 27.5298 45.4922 26.8786C46.7237 25.4118 45.8651 26.7388 45.0076 27.5345" stroke="#00ADB5" stroke-opacity="0.2" stroke-width="1.28667" stroke-linecap="round" stroke-linejoin="round"/>
<path d="M23.2203 58.4684C25.3797 56.3532 28.5435 54.3172 29.9841 51.5733C30.5071 50.5771 31.8014 48.1719 32.709 47.5623C33.9088 46.7565 34.4806 45.0422 35.3539 43.9641C36.2634 42.8414 37.1537 41.7458 38.1406 40.6779C39.066 39.6765 39.3622 37.919 40.5078 37.0572C41.784 36.0972 42.4049 34.6112 43.4229 33.4651C44.304 32.4731 45.9814 31.4452 47.0744 30.6875C47.6801 30.2676 48.1031 29.6953 48.7901 29.3833C50.1824 28.751 49.2788 29.0747 48.0043 29.027" stroke="#00ADB5" stroke-opacity="0.2" stroke-width="1.28667" stroke-linecap="round" stroke-linejoin="round"/>
<path d="M45.7901 16.3031C47.5764 16.774 49.7789 17.0974 51.4068 18.0709C52.4574 18.6992 53.3721 19.3299 51.459 18.1859" stroke="#00ADB5" stroke-opacity="0.2" stroke-width="1.28667" stroke-linecap="round" stroke-linejoin="round"/>
<path d="M47.6456 13.3213C50.1938 13.987 51.9946 14.7333 54.0726 16.0881C55.4312 16.9739 55.2132 16.7286 53.798 15.876" stroke="#00ADB5" stroke-opacity="0.2" stroke-width="1.28667" stroke-linecap="round" stroke-linejoin="round"/>
<path d="M50.7374 10.313C52.9256 11.5436 55.0485 12.9421 57.3112 14.0135C58.642 14.6437 57.9435 14.5996 56.9163 14.1037" stroke="#00ADB5" stroke-opacity="0.2" stroke-width="1.28667" stroke-linecap="round" stroke-linejoin="round"/>
<path d="M52.4972 7.90837C54.798 8.95598 56.9191 9.99925 59.0375 11.3171C60.0035 11.918 59.1268 11.9569 58.394 11.4706" stroke="#00ADB5" stroke-opacity="0.2" stroke-width="1.28667" stroke-linecap="round" stroke-linejoin="round"/>
<path d="M46.9206 15.2556C48.659 13.1889 50.4027 11.2306 51.9854 9.11224C52.4351 8.51038 55.1738 5.15946 53.9902 6.87447" stroke="#00ADB5" stroke-opacity="0.2" stroke-width="1.28667" stroke-linecap="round" stroke-linejoin="round"/>
<path d="M48.7465 18.8837C51.0083 16.8841 54.2678 14.2181 54.9979 11.2308C55.2127 10.3516 55.6787 9.4729 56.3615 8.86814C57.0541 8.25481 57.7781 7.9778 56.7437 9.01158" stroke="#00ADB5" stroke-opacity="0.2" stroke-width="1.28667" stroke-linecap="round" stroke-linejoin="round"/>
<path d="M46.9313 18.8161C49.343 16.2185 51.4043 14.4726 52.7668 11.2727C53.1207 10.4417 53.5265 9.75288 54.1073 9.09893C54.7229 8.40592 55.6065 7.75692 54.4179 8.99752" stroke="#00ADB5" stroke-opacity="0.2" stroke-width="1.28667" stroke-linecap="round" stroke-linejoin="round"/>
<path d="M55.8938 20.0954C57.0044 20.7995 58.1179 21.452 59.2721 22.0379C59.7487 22.2799 59.1591 21.8116 58.9564 21.7355" stroke="#00ADB5" stroke-opacity="0.2" stroke-width="1.28667" stroke-linecap="round" stroke-linejoin="round"/>
<path d="M58.0579 16.6163C58.1329 16.6801 62.4989 20.421 61.7247 19.5867" stroke="#00ADB5" stroke-opacity="0.2" stroke-width="1.28667" stroke-linecap="round" stroke-linejoin="round"/>
<path d="M60.6498 15.2601C61.6128 16.1867 64.5624 18.8968 63.5239 18.0555" stroke="#00ADB5" stroke-opacity="0.2" stroke-width="1.28667" stroke-linecap="round" stroke-linejoin="round"/>
<path d="M54.6026 21.5726C56.1986 20.0863 59.6989 17.1417 60.5565 14.8571C60.8945 13.9568 62.4426 12.7999 60.9867 14.0377" stroke="#00ADB5" stroke-opacity="0.2" stroke-width="1.28667" stroke-linecap="round" stroke-linejoin="round"/>
<path d="M54.804 22.0162C54.9555 22.1375 58.0082 25.4255 58.6592 23.8312C58.9915 23.0174 59.4243 21.9575 60.2394 21.5089C61.6694 20.722 61.9333 18.2435 63.3972 17.5787C65.0579 16.8245 64.9027 15.5598 63.3562 15.1111C62.7486 14.9349 63.2279 13.7375 62.5968 13.8316C62.0192 13.9177 61.7132 13.7045 61.0674 13.8229" stroke="#00ADB5" stroke-opacity="0.2" stroke-width="1.28667" stroke-linecap="round" stroke-linejoin="round"/>
<path d="M45.5902 15.8597C46.6372 17.8604 46.8352 18.5858 48.5246 19.4202C48.9805 19.6454 49.5757 19.3331 49.9218 19.5087C50.6065 19.8563 51.9597 19.8636 52.4708 19.2327C53.4985 17.964 53.8768 17.1452 55.4513 16.3735C56.4447 15.8866 57.2436 14.7379 57.7033 13.7857C58.2085 12.7392 59.1183 11.9506 59.6516 10.9001C59.8787 10.4528 58.0456 9.30064 58.029 8.52677C58.0243 8.30734 55.8476 8.30076 55.4854 8.11691C55.0466 7.89413 54.8454 7.58013 54.6349 7.11646C54.3273 6.43922 53.7819 7.2801 52.9554 7.3443" stroke="#00ADB5" stroke-opacity="0.2" stroke-width="1.28667" stroke-linecap="round" stroke-linejoin="round"/>
<path d="M9.33419 41.2402C11.8071 42.1801 13.9637 43.392 16.1901 44.7333C18.1231 45.8978 20.3075 46.5183 22.2282 47.647C23.5956 48.4505 25.0146 50.285 26.0238 51.4899C26.3601 51.8914 26.6112 52.267 26.8497 52.7195C27.3968 53.7576 26.8276 51.248 26.7696 50.9729" stroke="#00ADB5" stroke-opacity="0.2" stroke-width="1.28667" stroke-linecap="round" stroke-linejoin="round"/>
<path d="M33.2136 22.3716C33.8994 23.0916 36.6762 27.0666 36.1284 24.0788" stroke="#00ADB5" stroke-opacity="0.2" stroke-width="1.28667" stroke-linecap="round" stroke-linejoin="round"/>
</svg>
