<svg width="17" height="22" viewBox="0 0 17 22" fill="none" xmlns="http://www.w3.org/2000/svg">
<path d="M11.979 8.67508C11.7252 9.0511 5.35306 19.3782 8.17987 15.7437C9.00975 14.6767 11.0353 11.3621 8.67304 14.1181C4.3782 19.1288 14.1575 9.02576 6.93784 15.214C5.58641 16.3724 7.99596 13.6843 8.28947 13.2779C8.99203 12.3051 5.05808 16.5547 4.3807 17.2597C2.69827 19.0108 7.88746 13.8991 9.60456 12.182C11.006 10.7806 7.07585 14.2947 6.536 15.1044C5.09229 17.27 15.9419 9.77773 9.80548 14.1181C9.24045 14.5178 4.99373 18.0254 6.60906 15.8716C7.71482 14.3972 11.7479 10.5866 10.4448 11.8898C9.0992 13.2353 5.26724 17.277 9.02008 14.8487C9.8704 14.2985 1.82206 7.10062 1.20255 6.11794C0.796745 5.47426 0.208058 4.27602 1.16602 5.60651C2.92728 8.05271 4.94132 10.2825 6.88304 12.5838C8.57118 14.5846 10.2274 16.9548 11.3215 14.0633C12.1513 11.8703 13.14 9.81469 14.2805 7.76181C14.4005 7.54576 15.7911 4.15866 15.5225 4.21835C14.912 4.35403 13.2882 9.43108 12.8923 10.0632C11.6621 12.0277 10.4132 14.515 8.76436 16.1638C8.49411 16.4341 8.6913 13.3983 8.6913 12.7482C8.6913 10.3223 8.51023 7.9765 8.34426 5.56998C8.29552 4.8632 7.70498 -1.36291 7.70498 1.31418C7.70498 6.62364 6.96641 11.5602 7.63192 16.9675C7.67171 17.2908 7.44811 21.3512 7.70498 21.3512C8.12517 21.3512 9.02008 18.1095 9.02008 17.552" stroke="#00ADB5" stroke-opacity="0.2" stroke-width="1.28667" stroke-linecap="round" stroke-linejoin="round"/>
</svg>
