<svg width="13" height="13" viewBox="0 0 13 13" fill="none" xmlns="http://www.w3.org/2000/svg">
<path d="M6.53122 3.56017C2.47026 22.2406 16.7425 4.73061 9.73629 1.30205C4.7668 -1.12983 -3.35718 7.19693 3.49611 10.0189C8.84829 12.2227 8.33167 1.51829 3.47183 4.55569C-0.693705 7.15915 2.24405 15.2506 5.53571 8.17353C7.95087 2.98094 1.74192 6.17867 3.32615 9.58182C6.23758 15.836 11.1731 -0.450431 5.65711 5.06558C-0.170197 10.8929 14.1522 9.34924 11.5816 3.75442C9.53409 -0.702021 3.05765 13.6522 8.47369 9.72751C14.1726 5.59789 10.4585 -0.289767 6.4341 5.98826C1.23018 14.1064 17.8949 6.62073 9.95482 4.09435C2.49714 1.72145 4.11419 14.9611 8.27944 10.7959C14.4896 4.58575 5.58508 0.603155 4.88012 6.59528C4.28684 11.6382 10.8547 6.50427 6.72547 4.2886C5.02484 3.37606 2.23896 7.89154 2.98622 7.7122C3.98594 7.47226 7.20223 3.37089 6.77403 3.31736C6.05335 3.22728 4.80933 4.68944 4.17598 5.0413C4.02896 5.12298 4.90068 4.37153 5.89992 4.5314C8.80263 4.99584 6.43654 6.70515 4.34594 6.1825" stroke="#00ADB5" stroke-opacity="0.5" stroke-width="1.66333" stroke-linecap="round" stroke-linejoin="round"/>
</svg>
