<svg width="41" height="24" viewBox="0 0 41 24" fill="none" xmlns="http://www.w3.org/2000/svg">
<path d="M9.27394 3.56973C15.203 2.95514 21.1043 1.93485 27.0254 1.44143C29.6364 1.22385 32.1536 1.18216 34.7668 1.14908C35.2772 1.14262 38.7619 0.231307 39.0351 0.880123C39.3711 1.67811 39.1181 3.18203 39.228 4.04919C39.4337 5.67172 39.7943 7.22079 39.9238 8.85541C40.0739 10.7501 41.2188 15.0342 39.0117 16.1758C37.6478 16.8813 36.0187 17.4474 34.5329 17.8188C32.7058 18.2756 30.8697 19.0789 29.0134 19.3566C26.5979 19.7179 24.1233 20.3471 21.6988 20.5143C20.0408 20.6286 18.5016 20.9179 16.9218 21.4381C14.5853 22.2074 11.8471 22.3035 9.42596 22.3035C8.40625 22.3035 7.40158 22.3944 6.38553 22.4087C5.6902 22.4185 4.79321 22.8237 4.1169 22.5607C2.66572 21.9964 2.62944 19.0016 2.36865 17.7779C1.81796 15.1939 1.16344 12.6351 0.854281 10.0073C0.74591 9.08611 0.372819 7.38372 1.0063 6.56924C2.21574 5.01424 4.55742 5.01551 6.32121 4.46432C7.07042 4.2302 7.73972 3.88028 8.47875 3.66913C10.1554 3.1901 7.93214 3.31913 7.16902 3.46449" stroke="#00ADB5" stroke-opacity="0.2" stroke-width="1.28667" stroke-linecap="round" stroke-linejoin="round"/>
<path d="M2.74932 8.51615C7.06763 7.8764 11.5251 7.13734 18.5362 4.9378C20.2518 4.39957 22.4685 4.21397 24.2662 4.08998C25.9177 3.97609 27.5434 3.64769 29.166 3.87949C31.1309 4.1602 33.3414 2.7338 35.2235 3.67485C37.2159 4.67108 37.4804 7.98585 37.4804 9.93112C37.4804 10.8479 37.9014 11.7282 37.9014 12.6441C37.9014 13.2972 37.6865 14.8216 37.0594 15.17C35.9292 15.7979 34.7795 16.7685 33.4752 17.0294C32.1928 17.2858 30.5363 16.5863 29.3706 16.9943C26.9981 17.8247 24.388 18.2326 21.904 18.5086C19.4645 18.7797 17.2842 18.8564 14.9344 19.6956C12.8069 20.4554 10.5279 20.2056 8.32734 20.52C7.71816 20.607 6.30873 21.3767 5.93008 20.6194C5.58452 19.9283 5.66854 19.11 5.35707 18.4092C4.97857 17.5576 4.56433 15.7668 3.80762 15.1992C3.1524 14.7078 2.81385 13.4995 2.85456 12.726C2.89232 12.0086 2.74932 11.4191 2.74932 10.7263C2.74932 10.449 2.60013 10.1865 2.54467 9.93697C2.46935 9.59799 2.83525 9.42208 2.74347 9.10085C2.62419 8.68337 4.43263 9.31814 4.74899 9.6797C5.18821 10.1817 5.3718 10.9214 5.77806 11.463C6.2382 12.0766 6.87124 13.0056 7.16964 13.6966C7.71877 14.9682 8.22209 16.3203 8.22209 17.7193C8.22209 18.44 8.37137 19.4115 9.27455 19.4617C9.80197 19.491 9.93978 20.3613 10.0113 19.146C10.0168 19.0521 9.98349 18.3826 10.2218 18.5613C10.3624 18.6668 9.97383 16.7956 9.91187 16.6201C9.49723 15.4453 9.48755 13.9744 8.90034 12.8838C8.40129 11.957 6.96155 8.9932 7.88297 8.07178C7.98327 7.97148 8.54771 8.10247 8.80094 7.98992C9.03121 7.88758 9.2373 7.46369 9.43242 7.46369C9.60858 7.46369 10.2235 7.43521 10.327 7.30582C10.4668 7.13114 10.5499 7.82739 10.5609 7.88467C10.6576 8.38745 10.9484 8.87302 11.1163 9.35811C11.9223 11.6866 12.6424 13.6194 12.6424 16.1406C12.6424 17.1712 12.6532 18.1059 13.1453 19.0407C13.3198 19.3723 14.0007 19.2926 13.9872 19.2746C13.8451 19.0851 14.4619 19.0491 14.5368 18.8244C14.9143 17.6921 14.1648 16.4671 13.7884 15.4214C13.2307 13.8721 12.9581 12.1937 12.4845 10.6152C12.2565 9.85495 12.1206 9.04741 12.2273 8.24719C12.2679 7.94263 12.3643 7.18926 12.6424 7.01932C13.6077 6.42945 13.7119 7.13095 14.3497 8.11855C15.6488 10.1301 16.5687 12.1541 17.4954 14.3748C18.0224 15.6375 18.6355 17.0484 18.9572 18.3859C19.05 18.7718 19.4343 19.8082 19.8517 19.298C20.5264 18.4734 19.8887 16.9831 19.5302 16.1465C18.3504 13.3936 16.9649 11.06 17.7468 8.01916C17.9836 7.09838 18.2115 6.21667 18.5362 5.3237C18.7116 4.84122 19.5294 6.33592 19.5419 6.36446C20.0597 7.55366 20.5559 8.79246 20.9042 10.0422C21.432 11.9361 22.392 13.5441 23.4886 15.1525C24.3525 16.4196 25.5624 16.341 25.4648 14.4391C25.339 11.9858 23.3282 9.98246 23.2722 7.46369C23.2618 6.99343 22.9508 6.00761 23.3307 5.62774C23.9624 4.99599 24.7576 6.1607 25.0497 6.56326C25.8616 7.68208 26.4798 8.74023 26.95 10.0539C27.4058 11.3275 27.547 12.7094 28.1369 13.9305C28.5462 14.7776 29.4352 16.2577 30.3237 16.7019C30.742 16.9111 30.8294 15.8425 30.8499 15.6962C31.0389 14.3501 30.5002 13.3207 29.9495 12.1296C29.2667 10.6529 28.0875 8.42473 28.4877 6.70943C28.7549 5.56453 29.2217 5.50791 30.0664 6.32353C31.4766 7.68511 32.1511 10.6857 32.8437 12.5038C33.17 13.3601 33.4364 14.295 34.323 14.7256C35.2982 15.1993 35.6203 13.7209 35.5626 13.0534C35.3949 11.1158 33.9363 9.37993 33.0835 7.67418C32.6618 6.83089 31.7076 5.76608 32.3701 4.80916C32.4324 4.71919 37.4276 5.00644 33.8845 6.56326C30.4845 8.0572 26.4655 8.74503 22.8454 9.51598C20.9045 9.92932 19.0479 10.4264 17.1797 11.1005C15.6617 11.6482 14.1706 11.6323 12.6015 11.8431C10.7764 12.0882 9.2646 13.0467 7.49707 13.4042C6.55178 13.5954 5.50283 13.6988 4.64374 14.176C4.37892 14.3232 3.68936 15.0437 3.69653 15.3805C3.76469 18.5842 9.13288 16.6309 10.7948 16.1523C15.3439 14.8422 20.0536 13.8505 24.5001 12.1939C26.4222 11.4778 28.1583 10.2945 30.1541 9.78494C31.1746 9.52439 36.9274 9.11362 34.8843 11.7203C33.131 13.9573 29.6933 13.8055 27.1429 14.328C23.46 15.0826 20.0533 15.4401 16.5014 16.7721C15.1817 17.267 13.9204 17.7125 12.6366 18.2923C11.6437 18.7407 10.6386 18.5448 9.59029 18.6431C9.34929 18.6657 5.62501 19.0582 6.56155 19.9645C8.84425 22.1736 13.2038 19.7301 15.5074 18.9238C17.1939 18.3335 18.9884 18.1607 20.6996 17.6608C22.3995 17.1642 24.0482 16.5083 25.7397 15.9886C28.3996 15.1713 31.0127 13.8466 33.6915 13.1703C34.2162 13.0379 34.9321 12.863 35.4749 12.8838C35.608 12.889 35.8547 12.8312 35.5217 12.8488C34.3568 12.9101 33.1594 13.1868 32.0076 13.3575" stroke="#00ADB5" stroke-opacity="0.2" stroke-width="1.28667" stroke-linecap="round" stroke-linejoin="round"/>
</svg>
