<svg width="43" height="22" viewBox="0 0 43 22" fill="none" xmlns="http://www.w3.org/2000/svg">
<path d="M5.75249 9.07641C3.71835 9.37732 1.32496 9.5361 0.8405 11.9584C0.465065 13.8356 0.607167 15.7676 1.73238 17.3962C3.65514 20.1791 6.51184 21.8033 9.95231 21.2299C13.0286 20.7172 17.2537 17.9296 17.2537 14.4676C17.2537 12.5153 15.8479 10.5506 14.6846 9.08973C13.4377 7.52389 12.3605 5.87747 10.7909 4.59705C8.67394 2.87002 6.96383 2.70048 5.06029 4.73682C4.01865 5.85113 3.03357 7.37126 2.57767 8.83015C2.35293 9.54931 2.51777 10.1258 2.51777 10.8469C2.51777 11.8078 2.33945 10.3905 2.51777 9.91505" stroke="#00ADB5" stroke-opacity="0.2" stroke-width="1.28667" stroke-linecap="round" stroke-linejoin="round"/>
<path d="M16.2961 14.5769C18.0272 16.1138 19.4944 17.5039 22.5553 17.5789C24.6986 17.6314 26.8409 17.0965 28.8493 16.5207C30.287 16.1086 34.8971 13.9253 31.1617 13.7488" stroke="#00ADB5" stroke-opacity="0.2" stroke-width="1.28667" stroke-linecap="round" stroke-linejoin="round"/>
<path d="M34.1457 1.16925C31.8615 3.69184 28.7085 8.63507 29.8926 12.4242C30.309 13.7567 30.9138 14.6538 31.6964 15.7921C33.2713 18.0829 35.7122 17.3689 37.9262 16.7705C39.5313 16.3367 41.4384 14.9701 42.0528 13.4159C42.9008 11.2709 41.1335 7.91747 39.6567 6.44066C38.0078 4.79177 36.7016 2.78573 34.8645 1.3423C34.3757 0.958227 34.0045 0.541696 33.367 0.683376C32.6503 0.842645 32.3552 1.52866 33.3071 1.52866" stroke="#00ADB5" stroke-opacity="0.2" stroke-width="1.28667" stroke-linecap="round" stroke-linejoin="round"/>
</svg>
