<svg width="51" height="57" viewBox="0 0 51 57" fill="none" xmlns="http://www.w3.org/2000/svg">
<path d="M37.9097 6.13302C38.6622 3.84994 39.0781 2.27114 41.248 1.17375C42.0507 0.767773 42.6357 0.579899 43.0776 1.44659C43.6697 2.60801 43.4331 4.16796 43.222 5.4108C42.7302 8.30731 42.8097 11.3282 42.4196 14.254C42.1243 16.4685 41.3003 23.7781 44.2652 24.7664C45.4201 25.1513 47.846 23.4817 47.6998 22.1664C47.633 21.5652 47.3612 18.897 46.143 19.7429C44.0242 21.2144 46.6858 25.4947 47.443 27.2541C49.0429 30.9715 50.274 36.7572 49.8665 40.8319C49.6572 42.9246 48.585 44.4835 47.2665 45.9998C46.4028 46.993 45.2335 50.0136 43.3344 49.0813C41.4783 48.1701 39.7575 45.5699 40.1084 43.464C40.3233 42.1748 40.873 43.8673 40.0763 41.9553" stroke="#00ADB5" stroke-opacity="0.5" stroke-width="1.66333" stroke-linecap="round" stroke-linejoin="round"/>
<path d="M14.5096 8.58846C13.8011 6.91637 13.5363 5.52673 11.8133 4.94524C10.8339 4.61469 9.94525 4.36204 8.90838 4.28721C6.61568 4.12176 4.65769 5.96561 5.26516 8.29957C6.22746 11.9968 7.96551 15.0196 8.00961 18.9885C8.03479 21.2549 8.05784 23.5473 7.60837 25.7774C7.19793 27.8138 7.02134 30.8968 5.48985 32.486C4.61022 33.3989 2.99845 34.9335 1.62194 34.4441C0.323835 33.9825 0.877378 32.2246 1.50959 31.3465C2.75046 29.6231 4.50426 33.7258 4.68738 34.733C5.28715 38.0317 5.78728 41.4355 6.19602 44.7638C6.49604 47.2069 6.52467 49.8026 7.6485 52.0503C8.40079 53.5549 9.83005 56.3403 11.8855 56.1589C13.0254 56.0584 14.8116 54.9992 15.1436 53.8558C15.6443 52.131 14.976 51.8906 13.9318 51.0552" stroke="#00ADB5" stroke-opacity="0.5" stroke-width="1.66333" stroke-linecap="round" stroke-linejoin="round"/>
</svg>
