<svg width="65" height="68" viewBox="0 0 65 68" fill="none" xmlns="http://www.w3.org/2000/svg">
<path d="M5.89691 26.0905C13.901 21.9511 22.0619 16.5384 29.2182 11.0038C33.0475 8.04233 37.1684 5.50295 40.8742 2.43746C41.3964 2.00545 42.6825 -0.0318734 43.458 0.635566C44.6822 1.68905 45.8686 3.51849 46.6172 4.94217C48.7917 9.07781 51.7921 13.228 54.8658 16.7108C57.304 19.4735 59.2837 21.8068 61.1372 25.0172C62.151 26.7731 64.6685 29.1693 64.4879 31.1215C63.9847 36.5641 58.8991 41.6049 55.4087 45.1657C50.2797 50.398 45.2548 55.6563 39.1559 59.6778C35.3728 62.1724 31.1075 63.4897 27.2383 65.7236C23.6742 67.7813 23.9668 67.5052 20.5725 64.515C17.2294 61.5697 15.1607 58.374 12.8926 54.4456C11.7119 52.4005 9.60108 50.6346 7.95904 48.945C6.71536 47.6653 6.26349 45.4805 5.59334 43.8702C4.89047 42.1812 4.95208 37.3377 3.40949 36.3288C1.89753 35.3399 0.143323 33.166 0.567707 31.2187C0.914224 29.6288 14.1552 20.3086 3.09678 30.7128" stroke="#00ADB5" stroke-opacity="0.5" stroke-linecap="round" stroke-linejoin="round"/>
<path d="M1.68427 33.676C4.69676 35.1389 7.62824 37.2397 10.6109 38.6126C11.6022 39.0689 13.2938 38.9833 14.0934 39.6076C16.258 41.2979 22.5096 40.2714 25.1643 40.5152C28.1611 40.7903 36.3736 44.9011 37.4748 39.8484C39.5447 30.3505 41.8614 20.8959 43.9229 11.4364C44.3125 9.64913 43.7864 7.88474 44.142 6.2528C45.2247 1.28488 40.4583 4.41981 38.8466 5.3503" stroke="#00ADB5" stroke-opacity="0.5" stroke-linecap="round" stroke-linejoin="round"/>
</svg>
