<svg width="10" height="12" viewBox="0 0 10 12" fill="none" xmlns="http://www.w3.org/2000/svg">
<path d="M5.86643 0.842474C5.83793 1.00757 3.78382 9.71857 5.43966 9.61508C6.69447 9.53666 7.7565 6.81737 8.04773 5.91636C9.17173 2.43898 5.03612 3.66453 3.73255 5.29991C3.41234 5.70163 0.269974 10.4266 0.934802 10.8006C1.84668 11.3135 4.83509 6.89378 5.15514 6.22459C6.71756 2.95771 -0.101937 12.5226 3.1161 10.9903C5.21396 9.99127 7.37305 6.82605 8.07144 4.73087C8.66048 2.96376 5.90777 7.885 5.5345 9.70992C4.81722 13.2166 10.4128 2.76191 7.71579 5.39475C6.20249 6.87202 5.79744 8.59776 5.01288 10.4686C4.1553 12.5136 8.37967 6.94841 8.37967 4.73087C8.37967 2.57888 3.12429 11.4953 4.60981 7.41008C5.22657 5.714 7.8723 0.992245 7.26531 2.69184C6.62448 4.48615 5.85732 6.40879 5.01288 8.09766" stroke="#00ADB5" stroke-opacity="0.5" stroke-width="1.66333" stroke-linecap="round" stroke-linejoin="round"/>
</svg>
