<svg width="35" height="38" viewBox="0 0 35 38" fill="none" xmlns="http://www.w3.org/2000/svg">
<path d="M14.4465 5.92985C9.21339 6.93442 5.40886 8.44526 2.09206 12.7097C-0.00991118 15.4123 0.450967 19.6661 1.8284 22.5311C4.09798 27.2519 9.6766 29.9176 14.7102 30.1491C20.5738 30.4187 28.7253 28.6957 29.9272 21.7025C30.5716 17.9536 26.99 14.4092 25.3131 11.3349C23.9489 8.8339 21.8945 5.46235 19.0229 4.40438C17.8507 3.97252 15.1299 4.12245 14.277 5.28953C13.896 5.81091 13.4056 6.36121 13.1282 6.94683C12.9034 7.42133 13.1447 5.73939 13.0905 5.25186" stroke="#00ADB5" stroke-opacity="0.2" stroke-width="1.28667" stroke-linecap="round" stroke-linejoin="round"/>
<path d="M16.6491 18.8118C15.2369 19.5375 12.9454 20.0186 14.182 21.6085C14.4637 21.9708 14.8659 21.951 15.2084 21.6085C15.5011 21.3157 16.9774 19.7781 15.8863 19.4144C13.6623 18.6731 14.4755 23.1109 16.0653 21.1471C16.9191 20.0923 15.724 19.0542 14.6528 19.6969C13.3765 20.4627 14.3862 21.7998 15.3873 20.6386C16.1417 19.7634 15.5393 19.0929 14.7187 19.9135C13.9837 20.6485 14.7303 21.8209 15.4532 20.8269C16.1946 19.8074 15.3492 18.944 14.455 19.8382C13.42 20.8732 14.5404 20.7645 15.2743 20.083C16.0142 19.3959 14.702 19.4974 14.2761 20.0359C13.287 21.2869 14.8364 21.109 15.0859 20.0359C15.4525 18.4595 13.8262 22.0813 14.6151 19.3203" stroke="#00ADB5" stroke-opacity="0.2" stroke-width="1.28667" stroke-linecap="round" stroke-linejoin="round"/>
<path d="M10.8863 13.5574C12.3918 15.5441 13.9349 17.4279 15.199 19.4144C15.5494 19.965 15.2697 20.5175 15.4627 20.5067C16.1759 20.4671 16.9064 20.3372 17.6661 20.3372C19.4048 20.3372 20.774 19.4898 22.4497 19.4898C24.4789 19.4898 27.4601 18.9628 24.107 17.2863" stroke="#00ADB5" stroke-opacity="0.2" stroke-width="1.28667" stroke-linecap="round" stroke-linejoin="round"/>
<path d="M9.19133 5.76048C8.87478 4.15794 7.32755 0.273454 10.2083 0.684991C11.242 0.83266 11.9355 1.90204 12.5436 2.57771C14.1257 4.33556 13.9565 6.45728 11.3948 6.60797C10.7238 6.64744 9.77896 7.97812 9.02183 7.03171C8.16456 5.96012 9.03973 6.03213 9.19133 4.7435C9.29052 3.90039 8.7404 3.97036 8.50393 3.1427C8.32252 2.50779 8.69933 1.81259 8.85234 1.35356" stroke="#00ADB5" stroke-opacity="0.2" stroke-width="1.28667" stroke-linecap="round" stroke-linejoin="round"/>
<path d="M10.2088 3.89595C10.1937 4.3008 9.56943 7.94884 10.8962 7.3518C11.3405 7.15188 11.724 6.86126 11.9038 6.40073C12.0779 5.95451 11.8928 5.68795 11.6966 5.25192C11.1911 4.12853 9.72457 2.38249 10.1711 4.91293C10.4529 6.50953 12.236 6.13642 12.3746 4.6116C12.4804 3.44716 11.0121 1.88713 10.077 3.21796C9.41549 4.15928 10.5935 6.23508 11.2823 4.7811C11.632 4.04284 10.7958 2.16609 9.90746 3.08613C8.99667 4.02944 10.3655 6.01933 11.2634 5.21426C12.1513 4.41821 11.5478 1.98988 10.5854 2.91663C9.70512 3.76435 11.026 5.4512 11.6966 4.15961C12.4447 2.7189 10.7967 1.63333 10.2841 3.14263C9.8265 4.49006 11.2535 5.93935 11.5836 4.10311C11.8349 2.70543 9.26714 1.9623 9.26714 3.63229C9.26714 5.17072 10.6419 5.01332 10.6419 3.61345C10.6419 2.15437 9.17265 2.48282 9.78505 3.70762C10.3975 4.93248 11.2184 2.75862 10.5289 2.06915C9.72411 1.2643 8.65861 2.50863 9.60613 3.28387C10.252 3.81231 11.135 1.61962 10.0487 1.21225C9.11052 0.860427 9.62944 2.7757 9.95454 2.34223C10.4585 1.6703 9.68601 1.22044 10.2182 1.35349C10.6872 1.47075 11.8268 1.72131 12.1486 2.13506C12.4019 2.46074 13.4292 4.27296 13.4292 4.74343C13.4292 6.1832 11.2272 6.9594 9.96396 6.59848C9.05736 6.33945 8.7891 6.97995 9.10706 6.76798C9.87832 6.2538 10.0393 4.91272 10.0393 5.42142" stroke="#00ADB5" stroke-opacity="0.2" stroke-width="1.28667" stroke-linecap="round" stroke-linejoin="round"/>
<path d="M10.0401 29.9987C9.16736 31.8502 8.3928 33.7105 7.3658 35.4602C7.13451 35.8543 6.70116 36.6584 6.65015 37.1175C6.51275 38.3541 7.75482 34.1684 8.00612 33.5581" stroke="#00ADB5" stroke-opacity="0.2" stroke-width="1.28667" stroke-linecap="round" stroke-linejoin="round"/>
<path d="M27.159 26.4392C29.3056 29.1497 31.6725 31.0827 33.3456 34.0571C33.5104 34.35 33.796 34.5828 34.0236 34.8104C34.7851 35.5719 32.6102 33.1854 31.9049 32.3716" stroke="#00ADB5" stroke-opacity="0.2" stroke-width="1.28667" stroke-linecap="round" stroke-linejoin="round"/>
</svg>
