<svg width="49" height="38" viewBox="0 0 49 38" fill="none" xmlns="http://www.w3.org/2000/svg">
<path d="M4.1666 33.4165C4.8601 32.535 6.1882 30.9038 4.32672 30.6154C3.90564 30.5502 3.51233 30.3027 3.09914 30.49C1.82647 31.0668 0.64399 32.3367 0.64399 33.8466C0.64399 36.2582 3.28895 36.7805 5.21034 36.7493C8.45204 36.6966 9.43828 33.5381 10.5832 30.9797C11.7398 28.3954 13.0244 25.8529 14.2244 23.287C15.5823 20.3837 17.8091 18.0709 19.2178 15.1942C19.8218 13.9606 20.6105 12.8743 21.3883 11.748C22.5947 10.0008 23.4549 8.23821 24.3178 6.30098C25.0258 4.71159 25.8108 3.26019 26.6781 1.75583C27.0288 1.14749 26.897 0.21554 27.5677 0.865918C28.0768 1.35973 28.8868 1.68411 29.5721 1.80959C32.568 2.35818 35.323 2.93884 38.4083 2.69353C41.5286 2.44543 44.6473 1.99835 47.7189 1.40345C48.7631 1.20121 48.318 1.44468 47.8256 2.07835C46.9904 3.15315 46.2774 4.29218 45.4772 5.3812C44.4337 6.80138 44.0665 8.51175 43.4491 10.1354C42.7704 11.9202 41.9626 13.625 41.3141 15.439C40.0609 18.945 38.2329 22.1423 35.9709 25.0848C34.66 26.7901 33.0408 29.7684 30.5862 29.6478C26.7876 29.4612 29.3526 21.9839 31.1674 20.5217C32.1443 19.7346 33.2127 20.582 33.3319 21.6386C33.4957 23.0904 32.9977 25.0799 31.5884 25.7895C30.1015 26.5383 28.9616 26.4485 30.1058 24.5174C30.7981 23.349 31.2098 24.6349 31.4935 24.0635" stroke="#00ADB5" stroke-opacity="0.2" stroke-width="1.28667" stroke-linecap="round" stroke-linejoin="round"/>
</svg>
