<svg width="21" height="29" viewBox="0 0 21 29" fill="none" xmlns="http://www.w3.org/2000/svg">
<path d="M15.5228 11.2405C15.1938 11.7278 6.93738 25.1087 10.6001 20.3995C11.6754 19.017 14.2999 14.7222 11.2391 18.2932C5.67425 24.7855 18.3454 11.6949 8.9908 19.7132C7.23974 21.2141 10.3618 17.7311 10.7421 17.2045C11.6525 15.9441 6.55518 21.4503 5.67749 22.3638C3.49754 24.6327 10.2212 18.0094 12.4461 15.7845C14.262 13.9686 9.16963 18.5219 8.47014 19.5712C6.5995 22.3771 20.6575 12.6693 12.7064 18.2932C11.9743 18.811 6.4718 23.3558 8.5648 20.5652C9.99755 18.6548 15.2233 13.7173 13.5348 15.4059C11.7913 17.1493 6.82618 22.3862 11.6888 19.2398C12.7906 18.5269 2.36223 9.2005 1.55951 7.92723C1.03371 7.0932 0.270939 5.54062 1.51218 7.26456C3.79427 10.4341 6.40389 13.3234 8.9198 16.3052C11.1071 18.8976 13.2532 21.9687 14.6708 18.2222C15.7459 15.3807 17.027 12.7172 18.5047 10.0572C18.6603 9.77728 20.4621 5.38857 20.1141 5.46591C19.323 5.6417 17.2191 12.2201 16.7061 13.0392C15.112 15.5845 13.4939 18.8073 11.3575 20.9438C11.0073 21.294 11.2628 17.3605 11.2628 16.5182C11.2628 13.3749 11.0282 10.3354 10.8131 7.21723C10.75 6.30144 9.9848 -1.76581 9.9848 1.70293C9.9848 8.58246 9.02782 14.9789 9.89013 21.9851C9.94169 22.4041 9.65197 27.6651 9.9848 27.6651C10.5293 27.6651 11.6888 23.4649 11.6888 22.7425" stroke="#00ADB5" stroke-opacity="0.5" stroke-width="1.66333" stroke-linecap="round" stroke-linejoin="round"/>
</svg>
