<svg width="48" height="48" viewBox="0 0 48 48" fill="none" xmlns="http://www.w3.org/2000/svg">
<g clip-path="url(#clip0_1_10616)">
<rect width="48" height="48" rx="24" fill="#393E46"/>
<rect width="48" height="48" rx="24" fill="#393E46"/>
<rect width="48" height="48" rx="24" fill="#393E46"/>
<path d="M29 14H19C16.2386 14 14 16.2386 14 19V29C14 31.7614 16.2386 34 19 34H29C31.7614 34 34 31.7614 34 29V19C34 16.2386 31.7614 14 29 14Z" stroke="#EEEEEE" stroke-opacity="0.75" stroke-width="2" stroke-linecap="round" stroke-linejoin="round"/>
<path d="M27.9997 23.3698C28.1231 24.2021 27.981 25.052 27.5935 25.7988C27.206 26.5456 26.5929 27.1512 25.8413 27.5295C25.0898 27.9077 24.2382 28.0394 23.4075 27.9057C22.5768 27.7721 21.8095 27.3799 21.2145 26.785C20.6196 26.1901 20.2274 25.4227 20.0938 24.592C19.9601 23.7614 20.0918 22.9097 20.47 22.1582C20.8483 21.4067 21.4539 20.7936 22.2007 20.4061C22.9475 20.0186 23.7975 19.8764 24.6297 19.9998C25.4786 20.1257 26.2646 20.5213 26.8714 21.1281C27.4782 21.735 27.8738 22.5209 27.9997 23.3698Z" stroke="#EEEEEE" stroke-opacity="0.75" stroke-width="2" stroke-linecap="round" stroke-linejoin="round"/>
<path d="M29.5 18.5H29.51" stroke="#EEEEEE" stroke-opacity="0.75" stroke-width="2" stroke-linecap="round" stroke-linejoin="round"/>
</g>
<defs>
<clipPath id="clip0_1_10616">
<rect width="48" height="48" rx="24" fill="white"/>
</clipPath>
</defs>
</svg>
