<svg width="11" height="20" viewBox="0 0 11 20" fill="none" xmlns="http://www.w3.org/2000/svg">
<path d="M10.6439 18.4482C10.7284 18.5327 10.7954 18.633 10.8411 18.7433C10.8868 18.8537 10.9103 18.972 10.9103 19.0914C10.9103 19.2109 10.8868 19.3291 10.8411 19.4395C10.7954 19.5499 10.7284 19.6501 10.6439 19.7346C10.5594 19.8191 10.4592 19.8861 10.3488 19.9318C10.2384 19.9775 10.1202 20.001 10.0007 20.001C9.88127 20.001 9.76298 19.9775 9.65263 19.9318C9.54227 19.8861 9.442 19.8191 9.35753 19.7346L0.266624 10.6437C0.1821 10.5593 0.115047 10.459 0.0692974 10.3486C0.0235481 10.2383 0 10.12 0 10.0005C0 9.88104 0.0235481 9.76274 0.0692974 9.65238C0.115047 9.54202 0.1821 9.44175 0.266624 9.35732L9.35753 0.266415C9.52812 0.0958321 9.75947 -4.75542e-09 10.0007 0C10.242 4.75542e-09 10.4733 0.0958321 10.6439 0.266415C10.8145 0.436997 10.9103 0.668356 10.9103 0.909596C10.9103 1.15084 10.8145 1.3822 10.6439 1.55278L2.19503 10.0005L10.6439 18.4482Z" fill="#5DA96A"/>
</svg>
