<svg width="32" height="32" viewBox="0 0 32 32" fill="none" xmlns="http://www.w3.org/2000/svg">
<path d="M27.8748 7.126C26.5162 5.77082 24.6763 5.00873 22.7574 5.00639C20.8385 5.00405 18.9967 5.76164 17.6348 7.1135L15.9998 8.63225L14.3636 7.1085C13.002 5.75076 11.1569 4.9895 9.23404 4.99219C7.3112 4.99489 5.46819 5.76132 4.11045 7.12287C2.75271 8.48443 1.99145 10.3296 1.99415 12.2524C1.99684 14.1752 2.76327 16.0183 4.12483 17.376L15.2936 28.7085C15.3866 28.803 15.4975 28.878 15.6199 28.9292C15.7422 28.9805 15.8735 29.0068 16.0061 29.0068C16.1387 29.0068 16.27 28.9805 16.3923 28.9292C16.5146 28.878 16.6255 28.803 16.7186 28.7085L27.8748 17.376C29.2335 16.0165 29.9968 14.1731 29.9968 12.251C29.9968 10.3289 29.2335 8.48551 27.8748 7.126ZM26.4561 15.971L15.9998 26.576L5.53733 15.961C4.55271 14.9764 3.99956 13.641 3.99956 12.2485C3.99956 10.856 4.55271 9.52062 5.53733 8.536C6.52194 7.55138 7.85737 6.99823 9.24983 6.99823C10.6423 6.99823 11.9777 7.55138 12.9623 8.536L12.9873 8.561L15.3186 10.7297C15.5036 10.902 15.747 10.9977 15.9998 10.9977C16.2526 10.9977 16.496 10.902 16.6811 10.7297L19.0123 8.561L19.0373 8.536C20.0226 7.55205 21.3584 6.99979 22.7509 7.00073C24.1433 7.00167 25.4784 7.55572 26.4623 8.541C27.4463 9.52628 27.9985 10.8621 27.9976 12.2545C27.9967 13.647 27.4426 14.982 26.4573 15.966L26.4561 15.971Z" fill="black"/>
</svg>
