<svg width="64" height="49" viewBox="0 0 64 49" fill="none" xmlns="http://www.w3.org/2000/svg">
<path d="M5.44333 43.6452C6.34911 42.4938 8.08373 40.3634 5.65246 39.9866C5.1025 39.9014 4.58879 39.5782 4.04913 39.8228C2.3869 40.5762 0.84247 42.2348 0.84247 44.2069C0.84247 47.3567 4.29704 48.0388 6.80655 47.998C11.0405 47.9293 12.3286 43.804 13.824 40.4625C15.3346 37.0871 17.0125 33.7663 18.5798 30.4151C20.3533 26.6231 23.2618 23.6023 25.1016 19.845C25.8905 18.2339 26.9207 16.8151 27.9364 15.344C29.5122 13.062 30.6357 10.7599 31.7628 8.2297C32.6874 6.15381 33.7127 4.25814 34.8455 2.29331C35.3036 1.49876 35.1314 0.281544 36.0073 1.131C36.6724 1.77596 37.7303 2.19963 38.6253 2.36352C42.5383 3.08003 46.1366 3.83843 50.1662 3.51804C54.2417 3.19399 58.315 2.61006 62.3268 1.83307C63.6906 1.56892 63.1093 1.88692 62.4662 2.71456C61.3753 4.11834 60.444 5.60602 59.3989 7.02838C58.036 8.88328 57.5564 11.1172 56.7499 13.2378C55.8635 15.5689 54.8085 17.7955 53.9615 20.1649C52.3247 24.744 49.9371 28.9199 46.9828 32.7631C45.2706 34.9904 43.1558 38.8804 39.9498 38.7229C34.9886 38.4792 38.3387 28.713 40.7089 26.8033C41.9848 25.7753 43.3803 26.8821 43.536 28.2621C43.75 30.1582 43.0995 32.7567 41.2588 33.6836C39.3168 34.6616 37.8279 34.5442 39.3224 32.0221C40.2267 30.4961 40.7644 32.1755 41.1349 31.4292" stroke="#00ADB5" stroke-opacity="0.5" stroke-width="1.66333" stroke-linecap="round" stroke-linejoin="round"/>
</svg>
