<svg width="11" height="22" viewBox="0 0 11 22" fill="none" xmlns="http://www.w3.org/2000/svg">
<path d="M3.43137 0.644684C4.44034 1.79404 5.40636 2.95042 6.47843 4.03826C7.35458 4.92729 7.74221 6.21196 8.23297 7.32733C8.74224 8.48476 9.25201 9.44323 10.004 10.4459C10.093 10.5645 10.356 10.8582 10.356 11.0124C10.356 11.0865 10.0011 11.0845 9.94351 11.0922C9.74748 11.1183 9.51384 11.2844 9.3495 11.3864C6.3688 13.2365 4.35359 15.9106 2.60085 18.8721C2.30133 19.3782 2.07953 20.1105 1.64658 20.5001C1.36708 20.7517 1.13905 21.0825 0.807812 21.2481C0.496264 21.4039 0.717172 20.8527 0.75831 20.5441" stroke="#00ADB5" stroke-opacity="0.2" stroke-width="1.28667" stroke-linecap="round" stroke-linejoin="round"/>
</svg>
