<svg width="39" height="45" viewBox="0 0 39 45" fill="none" xmlns="http://www.w3.org/2000/svg">
<path d="M8.80689 38.4915C9.01492 35.2181 8.83815 33.7471 5.75369 32.6324C4.60012 32.2155 2.87533 32.4363 2.00888 33.3281C0.241602 35.1472 0.805963 37.2294 1.51969 39.3968C3.55269 45.5703 13.5265 45.7297 16.5158 40.0003C17.9687 37.2156 18.7128 33.7674 19.7377 30.7967C21.0094 27.1105 23.0787 23.6996 24.2922 19.9837C25.5441 16.1502 26.4219 12.2309 27.784 8.43311C28.4068 6.69661 28.9297 2.95145 30.3817 1.66871C33.565 -1.14335 36.373 3.82789 36.5809 6.5136C36.7817 9.10753 37.5002 11.9332 37.5002 14.4347C37.5002 15.3794 37.1177 16.3003 36.7412 17.1422C36.4331 17.8309 35.0495 17.4972 34.9278 16.832C34.572 14.8874 37.1006 11.9642 33.2494 12.3895" stroke="#00ADB5" stroke-opacity="0.5" stroke-width="1.66333" stroke-linecap="round" stroke-linejoin="round"/>
</svg>
