<svg width="54" height="44" viewBox="0 0 54 44" fill="none" xmlns="http://www.w3.org/2000/svg">
<path d="M6.06815 29.7956C8.95001 23.0002 7.76969 17.0791 7.76969 10.0368C7.76969 8.66691 7.52113 4.49391 8.96077 3.74703C11.2312 2.56917 13.3529 1.78321 16.0316 1.78321C17.8126 1.78321 19.6019 1.83451 21.382 1.78321C23.1624 1.73189 24.887 1.00765 26.6474 0.792028C29.9226 0.390832 33.3293 0.949505 36.5636 0.949505C39.1316 0.949505 41.7882 1.28299 44.2583 1.28299C44.6969 1.28299 46.4847 1.49209 46.7728 1.74615C47.6545 2.52373 47.402 3.77072 48.0962 4.45105" stroke="#00ADB5" stroke-opacity="0.2" stroke-width="1.28667" stroke-linecap="round" stroke-linejoin="round"/>
<path d="M47.9286 5.05315C48.0407 7.05845 48.0827 9.87244 48.9078 11.8319C49.4424 13.1016 49.0161 14.7915 49.1243 16.1439C49.332 18.7399 48.9454 21.2702 48.9454 23.7888C48.9454 27.1673 49.1149 30.5026 49.1149 33.8627C49.1149 36.7468 46.297 36.2639 44.0685 35.8587C42.1434 35.5087 39.5599 36.2105 37.5534 36.2353C33.6825 36.2831 29.7935 36.5742 25.9166 36.5742C22.6787 36.5742 20.2743 35.6339 17.2925 34.5029C15.7003 33.899 14.7379 34.0322 13.0276 34.0322C11.4078 34.0322 10.0757 33.779 8.45195 34.2864C7.50195 34.5833 5.80066 34.327 5.26031 33.3543C4.61237 32.188 5.90052 31.6823 5.90052 30.7276C5.90052 29.926 5.79976 27.6337 6.06999 29.7955" stroke="#00ADB5" stroke-opacity="0.2" stroke-width="1.28667" stroke-linecap="round" stroke-linejoin="round"/>
<path d="M25.3879 9.45934C25.3879 9.45934 26.0658 9.79828 26.7437 10.4762C27.4216 10.9846 28.8485 10.7304 30.0483 10.7304C30.6796 10.7304 31.3464 10.2382 31.9125 9.98663C33.0592 9.47695 32.3753 10.4356 32.1008 10.9846C31.7969 11.5923 32.1439 12.7222 32.6939 13.103C33.6013 13.7312 34.4991 13.1889 35.3866 12.7452C35.755 12.561 35.6538 12.4755 35.7679 12.7264C35.9225 13.0666 35.895 13.5602 35.895 13.9315C35.895 14.7763 35.8395 16.1799 35.3866 16.9159C34.7907 17.8842 34.1887 18.5109 33.2305 19.2226C32.284 19.9258 31.0334 21.1527 29.7753 21.1527C27.3166 21.1527 24.707 20.6169 23.4767 18.2247C22.9552 17.2106 21.9986 16.3804 21.9986 15.2213C21.9986 14.2542 21.6786 13.0953 21.9986 12.1708C22.3865 11.0503 23.3543 9.98663 23.0154 9.98663C23.1882 10.036 24.7101 9.12041 25.3879 9.45934Z" stroke="#00ADB5" stroke-opacity="0.2" stroke-width="1.28667" stroke-linecap="round" stroke-linejoin="round"/>
<path d="M28.1857 8.8662C29.1391 8.51332 31.3167 7.77399 31.8292 6.62075C32.2254 5.72948 30.9161 5.56157 30.2193 5.56157C29.3742 5.56157 28.3728 6.72949 28.148 7.46809C28.023 7.87883 27.9042 8.29919 27.7808 8.71556C27.7214 8.91628 27.8008 9.06179 27.842 9.2475C27.8735 9.38895 29.1663 8.71013 29.1177 8.51571" stroke="#00ADB5" stroke-opacity="0.2" stroke-width="1.28667" stroke-linecap="round" stroke-linejoin="round"/>
<path d="M44.9632 27.935L7.78761 28.7515C3.81846 28.8387 0.6463 32.0813 0.6463 36.0514C0.6463 40.084 3.91536 43.353 7.94794 43.353H45.1325C49.3906 43.353 52.8425 39.9012 52.8425 35.6431C52.8425 31.3187 49.2866 27.84 44.9632 27.935Z" fill="#00ADB5" fill-opacity="0.2" stroke="#00ADB5" stroke-opacity="0.2" stroke-width="1.28667"/>
<path d="M16.0063 28.5467C16.5691 29.4195 17.055 30.4668 17.7008 31.2741C18.0257 31.6801 17.9735 31.5975 18.6032 31.3643C19.6544 30.975 20.8455 31.254 21.9422 31.254C22.905 31.254 24.0245 30.7514 24.9603 31.0033C26.0444 31.2952 27.3225 30.738 28.3895 30.7126C29.6753 30.6819 30.901 30.8028 32.1797 30.8028C32.9507 30.8028 33.7022 30.3516 34.4157 30.3516C34.8297 30.3516 36.0097 30.6797 36.0401 29.9204C36.0549 29.5505 36.2206 29.1913 36.2206 28.8175C36.2206 28.3118 35.9179 28.5308 35.4084 28.276" stroke="#00ADB5" stroke-opacity="0.2" stroke-width="1.28667" stroke-linecap="round" stroke-linejoin="round"/>
</svg>
