<svg width="12" height="6" viewBox="0 0 12 6" fill="none" xmlns="http://www.w3.org/2000/svg">
<path d="M0.654672 0.655418C0.693573 0.904382 0.734047 2.58541 1.40522 2.58541C1.76661 2.58541 1.93284 2.36625 2.26299 2.54966C2.65129 2.76538 3.01546 3.27316 3.38683 3.57025C3.71413 3.83209 4.68549 3.79974 4.87205 4.12622C5.17686 4.65963 5.79563 4.95159 6.37315 5.01576C7.12195 5.09896 7.39888 5.47483 8.19592 5.29771C8.43954 5.24357 8.46412 5.08724 8.69231 5.08724C9.04465 5.08724 9.1967 5.25574 9.46272 4.96016C9.75715 4.63302 10.2382 4.47981 10.3801 3.98326C10.573 3.30812 11.2801 2.9529 10.2331 3.3717" stroke="#00ADB5" stroke-opacity="0.2" stroke-width="1.28667" stroke-linecap="round" stroke-linejoin="round"/>
</svg>
