<svg width="77" height="57" viewBox="0 0 77 57" fill="none" xmlns="http://www.w3.org/2000/svg">
<path d="M1.19908 30.3469C1.58072 32.3096 2.5509 33.5847 3.30294 35.3708C3.81498 36.5869 4.77229 37.5286 5.30541 38.7218C5.88117 40.0104 6.74331 41.524 7.54615 42.6709C8.2344 43.6542 8.6854 44.5858 9.55369 45.4541C11.0886 46.989 12.2498 48.8181 13.7918 50.331C16.0333 52.5302 19.8288 55.3995 23.0944 55.218C24.1434 55.1598 25.3049 55.4849 26.3339 55.3296C27.2165 55.1964 28.2884 55.1517 29.1728 55.3042C30.6262 55.5548 32.2032 55.3027 33.5934 55.6033C34.3438 55.7656 35.1606 55.5285 35.9204 55.6692C36.9054 55.8516 38.0595 55.8974 39.0635 55.8974C42.3491 55.8974 45.6264 55.8775 48.9034 55.4614C50.679 55.2359 52.4383 55.8246 54.196 55.5121C55.8459 55.2188 58.0435 55.5217 59.5951 54.8429C61.5022 54.0086 63.3994 52.6964 64.8725 51.2233C65.6114 50.4844 66.172 49.6018 66.6722 48.6885C67.3292 47.4887 67.6949 46.1947 68.3553 44.9979C70.6582 40.8239 71.9708 36.178 73.8354 31.8272C74.2749 30.8018 74.9973 29.9711 75.5236 29.0237C75.6567 28.7841 75.7171 28.478 75.9342 28.2481C76.7472 27.3874 75.1899 27.2959 74.4742 26.9706" stroke="#00ADB5" stroke-opacity="0.5" stroke-width="1.66333" stroke-linecap="round" stroke-linejoin="round"/>
<path d="M0.834656 30.5294C2.46541 28.3957 3.84878 26.8284 6.21851 25.622C8.20293 24.6118 10.2608 23.4119 12.0535 22.0936C14.8087 20.0678 18.6002 19.165 21.9544 18.5551C25.6052 17.8913 29.1986 17.1154 32.9147 17.1154C34.0643 17.1154 35.2021 17.4615 36.3519 17.4804C37.7284 17.5029 39.1084 17.5463 40.4785 17.6629C42.5813 17.8418 44.7396 17.7996 46.8458 17.8454C49.7842 17.9092 52.597 19.4303 55.535 19.6653C57.2826 19.8051 59.3207 20.0665 61.0202 20.5424C61.6567 20.7206 62.3829 20.8418 62.9771 21.1304C63.7162 21.4894 64.2345 22.0969 64.9136 22.5195C67.1059 23.8836 69.5566 24.5251 71.9248 25.5612C72.6506 25.8788 73.8991 26.423 74.7029 26.423C75.8095 26.423 75.7523 28.4658 75.7523 26.423" stroke="#00ADB5" stroke-opacity="0.5" stroke-width="1.66333" stroke-linecap="round" stroke-linejoin="round"/>
<path d="M75.5707 27.7007C74.2172 29.5146 73.2526 30.2052 71.3325 31.2645C69.8252 32.0962 68.1554 32.6844 66.4658 32.9933C64.8891 33.2815 63.1667 33.5092 61.5686 33.6371C60.2382 33.7435 58.8816 33.5888 57.5231 33.7435C54.4509 34.0935 51.3509 34.8854 48.3878 35.7511C44.1575 36.9869 40.0726 37.1162 35.7038 37.3531C30.9344 37.6116 26.1521 37.2472 21.4787 36.2783C19.9027 35.9516 18.2366 36.2449 16.6322 36.182C14.8652 36.1127 13.134 35.6258 11.4714 35.0515C10.7716 34.8097 10.1268 34.438 9.39289 34.2708C8.53368 34.075 7.66032 34.1522 6.80743 33.9463C5.61902 33.6595 4.23167 33.1404 3.22833 32.4457C2.79175 32.1435 2.13625 31.8937 1.79365 31.4369C1.69371 31.3036 1.56552 31.0073 1.56552 30.8488C1.56552 30.4711 1.25607 30.5665 1.74802 30.8945" stroke="#00ADB5" stroke-opacity="0.5" stroke-width="1.66333" stroke-linecap="round" stroke-linejoin="round"/>
<path d="M36.3324 46.2247C37.443 46.1013 38.9107 46.1225 38.4515 44.6937C38.304 44.235 37.9326 44.1862 37.5389 44.0549C36.3652 43.6637 34.2641 44.4213 33.823 45.6468C33.0313 47.8459 34.5296 50.2211 36.885 49.4591C37.5257 49.2518 38.6626 48.7989 39.0699 48.217C39.559 47.5184 38.8248 47.7248 38.3399 47.046" stroke="#00ADB5" stroke-opacity="0.5" stroke-width="1.66333" stroke-linecap="round" stroke-linejoin="round"/>
<path d="M32.9545 43.8522C34.7247 43.1419 35.6304 42.8484 37.4207 42.8484C38.1424 42.8484 38.5032 42.7975 39.1393 43.2134C40.1901 43.9005 40.5517 45.2064 40.4422 46.3565C40.3497 47.3277 40.0283 48.6588 39.6868 49.5807C39.4328 50.2665 38.8042 50.3849 38.1609 50.5135C37.5729 50.6311 36.2912 50.3024 35.8289 50.5592C35.3382 50.8318 33.8362 50.9237 33.4564 50.4172C33.1069 49.9513 32.7322 49.7504 32.4779 49.1853C32.2352 48.6458 32.1256 48.1303 31.9304 47.5935C31.6624 46.8563 31.1806 44.8433 32.1788 44.3997C32.7639 44.1397 33.0144 43.984 33.6845 43.984C33.8747 43.984 34.0376 44.1259 34.232 44.1259C34.5124 44.1259 33.6912 43.9434 33.4107 43.9434" stroke="#00ADB5" stroke-opacity="0.5" stroke-width="1.66333" stroke-linecap="round" stroke-linejoin="round"/>
<path d="M36.1489 36.552C37.436 34.8876 38.6106 33.1713 39.9409 31.5534C40.6555 30.6842 41.5432 29.9366 42.3134 29.1048C44.5187 26.7231 46.766 24.1165 48.4476 21.3332C50.104 18.5914 52.3647 15.6056 54.82 13.5464C56.1169 12.4586 57.2758 11.2564 58.4041 10.0028C59.4989 8.7864 60.0031 7.08529 61.0403 5.80012C61.8435 4.80488 67.1009 -1.96801 68.016 2.15006C68.3756 3.76811 66.797 4.90006 65.8057 5.89138C64.6807 7.01631 63.5504 8.44553 62.5916 9.72395C61.6672 10.9564 60.5439 12.0398 59.6462 13.2828C58.4248 14.9739 56.2026 16.1835 55.3117 18.0988C54.5768 19.6788 53.3575 20.9487 52.4424 22.413C51.174 24.4424 49.688 26.1372 48.1941 27.9946C47.0103 29.4663 45.155 30.6762 44.3159 32.3544C43.615 33.7562 42.3726 34.347 41.2387 35.2541C40.745 35.6491 40.1451 35.8682 39.7077 36.4151C39.5622 36.597 39.3017 36.8073 39.1652 36.6026C39.0875 36.486 38.7906 36.7475 38.8459 36.8764C39.0404 37.3303 38.5672 35.7845 38.5214 35.6394" stroke="#00ADB5" stroke-opacity="0.5" stroke-width="1.66333" stroke-linecap="round" stroke-linejoin="round"/>
<path d="M35.42 37.0082C35.7697 37.1855 37.975 38.8597 37.975 37.5101C37.975 37.1016 38.4998 36.4206 38.6848 36.0044C38.8246 35.6898 37.5645 35.9913 37.3768 36.2326C37.1317 36.5477 36.6565 36.8037 37.4275 36.8257C38.0199 36.8426 38.4828 36.5879 38.9332 36.2376C39.0626 36.137 40.8035 36.4125 39.2526 36.3694C38.4278 36.3465 37.6262 36.3694 36.8344 36.3694C36.1499 36.3694 37.5369 36.1869 37.7368 36.1869C37.8963 36.1869 36.5801 36.9699 36.3528 36.7142C36.2975 36.652 36.2015 36.4805 36.4238 36.3694" stroke="#00ADB5" stroke-opacity="0.5" stroke-width="1.66333" stroke-linecap="round" stroke-linejoin="round"/>
<path d="M6.40099 30.2556C6.50363 30.31 9.76491 32.0175 9.77731 31.8069C9.79232 31.5517 9.61052 31.3293 9.73675 31.0769C10.2885 29.9734 11.0025 30.5025 11.9521 30.9299C12.693 31.2632 11.5687 27.5717 13.8025 29.1302C14.9567 29.9354 15.2646 29.8072 15.075 28.4559C14.9314 27.4327 15.2847 27.4298 16.1649 27.5383C16.7633 27.6121 17.1921 27.7427 17.5337 27.1733C17.9482 26.4825 18.4152 26.0895 19.2624 26.3875C19.9649 26.6347 20.5888 27.3297 21.0722 26.4433C21.2849 26.0534 21.1055 24.8862 21.7769 25.11C22.1978 25.2503 22.7522 25.7998 23.2319 25.6271C23.5953 25.4963 23.8745 24.3692 24.2863 24.5473C24.7159 24.7331 25.1538 25.5484 25.6957 25.3534C25.9573 25.2592 26.4426 24.404 25.9289 24.5067" stroke="#00ADB5" stroke-opacity="0.5" stroke-width="1.66333" stroke-linecap="round" stroke-linejoin="round"/>
<path d="M19.2676 28.6131C20.3987 29.5334 24.6348 34.4492 25.8783 30.7778C26.101 30.1203 26.1364 28.8179 26.7604 29.8957C27.2747 30.784 28.0489 31.4005 28.8896 30.5598C29.4467 30.0027 29.6948 29.057 30.4916 28.7652C31.2227 28.4974 31.7595 29.8721 32.3673 29.0694C32.8575 28.422 32.6203 27.3087 31.9009 26.9199C31.6649 26.7923 31.5991 27.2319 31.4954 27.3356" stroke="#00ADB5" stroke-opacity="0.5" stroke-width="1.66333" stroke-linecap="round" stroke-linejoin="round"/>
<path d="M29.0308 22.9554C30.7931 22.6527 33.0131 22.0364 34.3538 23.6145C34.9752 24.346 34.9164 25.2799 34.5059 26.1087C34.2058 26.7144 33.3988 27.0166 32.8836 26.423C32.461 25.9361 33.3324 25.1333 33.644 24.8362C34.7121 23.8178 36.2955 25.4485 36.63 26.5548C36.9094 27.479 34.383 29.6203 34.6884 28.7043" stroke="#00ADB5" stroke-opacity="0.5" stroke-width="1.66333" stroke-linecap="round" stroke-linejoin="round"/>
<path d="M58.6882 26.058C59.212 25.8781 62.5792 24.7937 61.9327 26.5853C61.6011 27.5044 60.3321 27.9976 59.4994 28.2988C59.1055 28.4412 58.0883 28.4166 58.7491 27.8425C59.3211 27.3455 60.1271 27.1123 60.8783 27.1733C63.8065 27.4114 59.7116 30.7752 58.8707 31.2391C57.237 32.1405 55.0145 33.0888 53.3044 31.9894" stroke="#00ADB5" stroke-opacity="0.5" stroke-width="1.66333" stroke-linecap="round" stroke-linejoin="round"/>
<path d="M40.7114 20.6742C41.406 21.8042 42.242 22.9395 42.8355 24.1265C43.0398 24.5351 42.1559 23.4891 41.9483 23.0822C41.8933 22.9744 41.513 21.7764 41.4769 21.7844C41.0324 21.8832 40.9279 23.9181 40.8077 24.2938C40.2392 26.0704 38.8345 25.3898 37.4567 25.257C35.7888 25.0963 35.0428 26.7415 34.121 27.7918C33.3833 28.6321 33.0934 28.89 33.5937 29.8906C33.9985 30.7002 34.1668 31.4852 33.5937 32.2175C33.1465 32.789 32.5866 33.1501 32.0475 33.6218C31.5536 34.054 32.2619 33.9828 32.1692 33.7232C31.9161 33.0144 30.3539 33.1621 29.8423 33.1959C27.9432 33.3215 26.0086 32.8451 24.1441 32.9627C23.1535 33.0252 22.2211 33.5777 21.2393 33.7232C20.2421 33.8709 21.5602 34.7364 21.9338 34.9855C22.5766 35.414 20.6753 34.0739 19.9769 33.7434C18.8057 33.1891 17.7239 32.7599 17.1177 31.5331C16.5101 30.3034 15.9751 29.465 14.948 28.5624C14.5938 28.2511 14.5519 27.7778 14.7249 27.3558C15.1255 26.3782 16.0141 25.5826 16.8947 25.0542" stroke="#00ADB5" stroke-opacity="0.5" stroke-width="1.66333" stroke-linecap="round" stroke-linejoin="round"/>
<path d="M40.5297 24.3243C38.2423 22.7279 36.3548 22.0404 33.6655 21.678C32.7201 21.5506 31.7118 20.896 31.0953 20.1723C30.5482 19.5301 30.8583 19.7 30.2132 20.5728C29.332 21.765 28.6776 20.6948 27.5517 21.0088C25.826 21.49 24.3449 23.0941 22.5937 23.3915C22.1141 23.4729 22.2297 22.6706 21.6305 23.0163C20.6213 23.5985 19.8494 24.1494 18.6698 24.3344C17.9565 24.4463 16.6045 24.9161 16.713 25.7843" stroke="#00ADB5" stroke-opacity="0.5" stroke-width="1.66333" stroke-linecap="round" stroke-linejoin="round"/>
<path d="M56.0415 24.3243C58.2487 24.5371 60.4851 24.5096 62.6826 24.7451C63.4564 24.828 63.8518 25.1407 64.3961 25.6475C64.8871 26.1046 65.6535 27.1806 66.358 27.2393C67.3738 27.3239 67.8987 26.902 68.8472 26.6056C69.4181 26.4272 71.24 26.6056 70.6418 26.6056" stroke="#00ADB5" stroke-opacity="0.5" stroke-width="1.66333" stroke-linecap="round" stroke-linejoin="round"/>
<path d="M54.3986 26.7881C52.026 28.3516 50.7585 30.7229 48.2188 32.1466C47.716 32.4285 46.1766 32.9742 46.2924 33.9007C46.3762 34.5711 51.517 32.4721 52.2998 32.0807" stroke="#00ADB5" stroke-opacity="0.5" stroke-width="1.66333" stroke-linecap="round" stroke-linejoin="round"/>
<path d="M63.2517 28.9781C64.5418 29.9384 65.6541 31.311 67.2668 30.8234C67.7032 30.6915 68.6162 30.64 68.9093 30.3469" stroke="#00ADB5" stroke-opacity="0.5" stroke-width="1.66333" stroke-linecap="round" stroke-linejoin="round"/>
</svg>
