<svg width="20" height="10" viewBox="0 0 20 10" fill="none" xmlns="http://www.w3.org/2000/svg">
<path d="M19.7336 1.42322L10.6431 9.75562C10.5587 9.83309 10.4585 9.89455 10.3481 9.93649C10.2378 9.97842 10.1195 10 10 10C9.88054 10 9.76225 9.97842 9.65189 9.93649C9.54153 9.89455 9.44127 9.83309 9.35685 9.75562L0.266401 1.42322C0.0958273 1.26687 0 1.05482 0 0.833703C0 0.612592 0.0958273 0.400535 0.266401 0.244186C0.436975 0.0878359 0.668323 0 0.90955 0C1.15078 0 1.38213 0.0878359 1.5527 0.244186L10 7.98811L18.4473 0.244186C18.5318 0.166769 18.632 0.105359 18.7424 0.0634615C18.8527 0.021564 18.971 0 19.0904 0C19.2099 0 19.3282 0.021564 19.4385 0.0634615C19.5489 0.105359 19.6491 0.166769 19.7336 0.244186C19.8181 0.321602 19.8851 0.413509 19.9308 0.514659C19.9765 0.615808 20 0.72422 20 0.833703C20 0.943187 19.9765 1.0516 19.9308 1.15275C19.8851 1.2539 19.8181 1.3458 19.7336 1.42322Z" fill="black"/>
</svg>
