<svg width="53" height="30" viewBox="0 0 53 30" fill="none" xmlns="http://www.w3.org/2000/svg">
<path d="M11.9438 4.59695C19.579 3.80551 27.1784 2.49163 34.8033 1.85623C38.1656 1.57603 41.4071 1.52236 44.7722 1.47976C45.4295 1.47144 49.9169 0.297893 50.2687 1.13341C50.7014 2.16101 50.3757 4.09769 50.5172 5.21437C50.7821 7.30378 51.2465 9.29859 51.4132 11.4036C51.6065 13.8434 53.0809 19.3603 50.2386 20.8304C48.4823 21.7389 46.3844 22.4679 44.4711 22.9462C42.1183 23.5344 39.7538 24.5688 37.3633 24.9265C34.2528 25.3918 31.0661 26.202 27.9439 26.4173C25.8089 26.5645 23.8267 26.9371 21.7924 27.6069C18.7836 28.5976 15.2574 28.7213 12.1396 28.7213C10.8265 28.7213 9.53272 28.8384 8.2243 28.8568C7.32889 28.8694 6.17379 29.3913 5.30288 29.0526C3.43412 28.3259 3.3874 24.4693 3.05157 22.8935C2.34242 19.566 1.49957 16.2709 1.10144 12.8869C0.961889 11.7007 0.481441 9.5084 1.29721 8.45956C2.85467 6.45711 5.87016 6.45874 8.14148 5.74896C9.10627 5.44746 9.96816 4.99686 10.9198 4.72495C13.0789 4.10808 10.2159 4.27424 9.23325 4.46142" stroke="#00ADB5" stroke-opacity="0.5" stroke-width="1.66333" stroke-linecap="round" stroke-linejoin="round"/>
<path d="M3.54113 10.9668C9.10204 10.143 14.8422 9.19123 23.8706 6.35877C26.0799 5.66567 28.9344 5.42666 31.2495 5.267C33.3762 5.12033 35.4696 4.69744 37.5592 4.99594C40.0895 5.35742 42.936 3.52058 45.3597 4.73241C47.9255 6.01531 48.2661 10.2839 48.2661 12.7889C48.2661 13.9694 48.8082 15.1031 48.8082 16.2826C48.8082 17.1235 48.5315 19.0866 47.7239 19.5353C46.2685 20.3439 44.7879 21.5938 43.1084 21.9297C41.4569 22.26 39.3238 21.3591 37.8227 21.8845C34.7675 22.9538 31.4064 23.4792 28.2076 23.8346C25.066 24.1837 22.2584 24.2824 19.2325 25.3631C16.4927 26.3416 13.558 26.0199 10.7242 26.4247C9.93976 26.5368 8.12476 27.528 7.63715 26.5527C7.19216 25.6628 7.30036 24.6091 6.89927 23.7066C6.41185 22.6099 5.87841 20.3038 4.90396 19.573C4.0602 18.9401 3.62424 17.3841 3.67666 16.388C3.72529 15.4641 3.54113 14.7051 3.54113 13.8129C3.54113 13.4558 3.34901 13.1178 3.2776 12.7964C3.1806 12.3599 3.65179 12.1334 3.5336 11.7197C3.38 11.1821 5.70881 11.9996 6.1162 12.4652C6.68181 13.1116 6.91824 14.0641 7.44139 14.7616C8.03393 15.5517 8.84914 16.748 9.2334 17.6379C9.94054 19.2755 10.5887 21.0166 10.5887 22.8181C10.5887 23.7462 10.7809 24.9973 11.944 25.0619C12.6232 25.0997 12.8006 26.2204 12.8927 24.6553C12.8998 24.5344 12.8569 23.6723 13.1638 23.9024C13.3449 24.0382 12.8445 21.6287 12.7647 21.4026C12.2308 19.8898 12.2183 17.9956 11.4621 16.5913C10.8195 15.3978 8.96543 11.5811 10.152 10.3946C10.2812 10.2654 11.008 10.4341 11.3341 10.2891C11.6306 10.1574 11.896 9.61149 12.1473 9.61149C12.3741 9.61149 13.166 9.57481 13.2993 9.4082C13.4793 9.18325 13.5863 10.0798 13.6005 10.1536C13.725 10.8011 14.0995 11.4264 14.3158 12.051C15.3537 15.0495 16.281 17.5385 16.281 20.7852C16.281 22.1123 16.2949 23.316 16.9285 24.5198C17.1532 24.9468 18.0301 24.8441 18.0127 24.821C17.8298 24.577 18.6241 24.5305 18.7205 24.2412C19.2065 22.7831 18.2415 21.2056 17.7567 19.8591C17.0385 17.8639 16.6875 15.7025 16.0777 13.6699C15.784 12.6908 15.609 11.6509 15.7464 10.6204C15.7987 10.2282 15.9229 9.2581 16.281 9.03926C17.524 8.27964 17.6582 9.183 18.4796 10.4548C20.1525 13.0451 21.337 15.6516 22.5304 18.5113C23.209 20.1373 23.9985 21.9542 24.4128 23.6765C24.5323 24.1734 25.0272 25.5081 25.5648 24.8511C26.4336 23.7892 25.6124 21.8701 25.1506 20.7927C23.6314 17.2477 21.8472 14.2427 22.8542 10.3268C23.1591 9.14106 23.4525 8.00565 23.8706 6.85572C24.0966 6.23441 25.1497 8.15921 25.1657 8.19596C25.8326 9.72734 26.4716 11.3226 26.9201 12.932C27.5998 15.3709 28.8359 17.4416 30.2481 19.5127C31.3606 21.1445 32.9186 21.0432 32.793 18.5941C32.631 15.4349 30.0416 12.855 29.9695 9.61149C29.956 9.00591 29.5556 7.73642 30.0448 7.24725C30.8583 6.43371 31.8823 7.93357 32.2584 8.45196C33.304 9.89272 34.1001 11.2554 34.7055 12.947C35.2925 14.5871 35.4743 16.3667 36.234 17.9391C36.7611 19.0299 37.9059 20.936 39.05 21.508C39.5887 21.7774 39.7012 20.4013 39.7277 20.213C39.971 18.4794 39.2773 17.1539 38.5681 15.62C37.6889 13.7184 36.1704 10.8491 36.6858 8.6402C37.0298 7.16585 37.6309 7.09294 38.7187 8.14325C40.5347 9.89662 41.4033 13.7607 42.2952 16.1019C42.7153 17.2046 43.0584 18.4085 44.2002 18.9631C45.456 19.573 45.8708 17.6692 45.7964 16.8096C45.5805 14.3145 43.7022 12.0791 42.6039 9.88255C42.0609 8.79661 40.8322 7.42539 41.6853 6.19312C41.7655 6.07726 48.1981 6.44718 43.6354 8.45196C39.2571 10.3758 34.0817 11.2615 29.4198 12.2543C26.9205 12.7866 24.5296 13.4268 22.1238 14.2948C20.169 15.0002 18.2489 14.9796 16.2283 15.251C13.878 15.5668 11.9312 16.8011 9.65505 17.2614C8.43776 17.5076 7.08697 17.6407 5.98067 18.2553C5.63965 18.4448 4.75168 19.3727 4.7609 19.8064C4.84868 23.9319 11.7616 21.4166 13.9017 20.8003C19.7598 19.1131 25.8247 17.836 31.5507 15.7028C34.0259 14.7807 36.2615 13.2569 38.8317 12.6007C40.1458 12.2652 47.5539 11.7362 44.923 15.0929C42.6652 17.9736 38.2382 17.7782 34.954 18.4511C30.2114 19.4227 25.8243 19.8832 21.2504 21.5984C19.5509 22.2357 17.9267 22.8094 16.2734 23.556C14.9948 24.1335 13.7006 23.8812 12.3506 24.0078C12.0402 24.0369 7.2443 24.5423 8.45033 25.7095C11.3899 28.5542 17.0039 25.4075 19.9704 24.3692C22.1421 23.6091 24.453 23.3866 26.6565 22.7429C28.8456 22.1034 30.9687 21.2587 33.1469 20.5894C36.5723 19.5369 39.9373 17.831 43.387 16.9602C44.0626 16.7897 44.9845 16.5644 45.6835 16.5913C45.8549 16.5979 46.1725 16.5235 45.7437 16.5461C44.2436 16.6251 42.7017 16.9814 41.2185 17.2012" stroke="#00ADB5" stroke-opacity="0.5" stroke-width="1.66333" stroke-linecap="round" stroke-linejoin="round"/>
</svg>
