<svg width="71" height="110" viewBox="0 0 71 110" fill="none" xmlns="http://www.w3.org/2000/svg">
<path fill-rule="evenodd" clip-rule="evenodd" d="M17.16 72.4818C14.7167 71.5904 12.3901 70.2877 10.267 68.479C-5.75962 54.8249 1.11258 34.2247 10.8118 23.4998C20.511 12.775 79.8453 17.0529 51.8552 66.7369C51.7373 66.808 51.617 66.8795 51.4946 66.9514C48.3653 76.909 51.0044 85.4499 54.1709 95.6977C55.4624 99.8773 56.8417 104.341 57.9531 109.3L28.2672 107.173C20.1077 96.0936 17.0142 84.9252 17.16 72.4818Z" fill="#F5B9AB"/>
<path d="M10.267 68.479L9.81335 69.0115L10.267 68.479ZM17.16 72.4818L17.3998 71.8245C17.6787 71.9263 17.863 72.1931 17.8595 72.49L17.16 72.4818ZM10.8118 23.4998L11.3306 23.9691L10.8118 23.4998ZM51.8552 66.7369L52.4648 67.0803C52.4054 67.1856 52.3198 67.2738 52.2162 67.3362L51.8552 66.7369ZM51.4946 66.9514L50.8272 66.7417C50.8792 66.5763 50.9908 66.4361 51.1402 66.3482L51.4946 66.9514ZM54.1709 95.6977L53.5025 95.9042L54.1709 95.6977ZM57.9531 109.3L58.6357 109.147C58.6841 109.363 58.6275 109.589 58.4832 109.757C58.3388 109.925 58.1237 110.014 57.9031 109.998L57.9531 109.3ZM28.2672 107.173L28.2172 107.871C28.0129 107.857 27.8253 107.753 27.7039 107.588L28.2672 107.173ZM10.267 68.479L10.7207 67.9465C12.7765 69.6979 15.0296 70.9599 17.3998 71.8245L17.16 72.4818L16.9202 73.139C14.4038 72.221 12.0037 70.8776 9.81335 69.0115L10.267 68.479ZM10.8118 23.4998L11.3306 23.9691C6.56244 29.2415 2.49542 36.9407 1.58736 44.9696C0.682941 52.9663 2.90663 61.2892 10.7207 67.9465L10.267 68.479L9.81335 69.0115C1.60079 62.0147 -0.75275 53.2105 0.197064 44.8124C1.14323 36.4465 5.36191 28.4831 10.2929 23.0306L10.8118 23.4998ZM51.8552 66.7369L51.2457 66.3936C58.1962 54.0561 59.6544 44.6612 57.9352 37.6798C56.2206 30.7173 51.3073 26.0036 45.1677 23.0974C39.0181 20.1864 31.686 19.1168 25.2884 19.4429C22.0925 19.6059 19.151 20.1161 16.7246 20.9059C14.2852 21.6999 12.4274 22.7564 11.3306 23.9691L10.8118 23.4998L10.2929 23.0306C11.6209 21.5621 13.739 20.4062 16.2916 19.5754C18.8572 18.7404 21.9238 18.2135 25.2171 18.0456C31.7979 17.7101 39.3686 18.8043 45.7663 21.8327C52.1739 24.8658 57.4522 29.8671 59.2937 37.3452C61.1306 44.8044 59.5093 54.5757 52.4648 67.0803L51.8552 66.7369ZM51.4946 66.9514L51.1402 66.3482C51.2605 66.2776 51.3785 66.2074 51.4943 66.1377L51.8552 66.7369L52.2162 67.3362C52.096 67.4086 51.9736 67.4814 51.849 67.5546L51.4946 66.9514ZM54.1709 95.6977L53.5025 95.9042C50.3451 85.6857 47.623 76.9375 50.8272 66.7417L51.4946 66.9514L52.162 67.1612C49.1076 76.8805 51.6637 85.214 54.8393 95.4911L54.1709 95.6977ZM57.9531 109.3L57.2704 109.453C56.1659 104.525 54.7948 100.086 53.5025 95.9042L54.1709 95.6977L54.8393 95.4911C56.1301 99.6685 57.5174 104.157 58.6357 109.147L57.9531 109.3ZM28.2672 107.173L28.3172 106.476L58.0031 108.603L57.9531 109.3L57.9031 109.998L28.2172 107.871L28.2672 107.173ZM17.16 72.4818L17.8595 72.49C17.7154 84.7925 20.7676 95.81 28.8305 106.759L28.2672 107.173L27.7039 107.588C19.4478 96.3773 16.313 85.0578 16.4605 72.4736L17.16 72.4818Z" fill="black"/>
<path d="M57.1814 36.7336C61.8266 43.1964 56.8233 59.1584 53.1317 63.1508C83.7208 46.178 64.3552 7.88311 54.917 14.8664C53.379 0.708271 37.1331 -4.28704 26.0585 7.68698C-1.70775 -14.7359 -3.16838 23.472 6.63195 29.2825C16.4323 35.0931 28.3225 29.5596 34.4932 32.5559C40.6639 35.5523 44.4718 53.702 46.4707 43.6286C48.4695 33.5552 51.3748 28.655 57.1814 36.7336Z" fill="#00ADB5" stroke="black" stroke-width="1.39887"/>
</svg>
