<svg width="36" height="36" viewBox="0 0 36 36" fill="none" xmlns="http://www.w3.org/2000/svg">
<path d="M18 3.99609C20.7614 3.99616 23 6.23471 23 8.99609V10.002H27L27.0957 10.0107C27.3124 10.053 27.4805 10.2361 27.498 10.4639L28.998 29.9639C29.0086 30.1025 28.9615 30.2397 28.8672 30.3418C28.7727 30.4439 28.6391 30.5018 28.5 30.502H7.5C7.36084 30.502 7.22743 30.4438 7.13281 30.3418C7.0383 30.2397 6.99134 30.1026 7.00195 29.9639L8.50195 10.4639L8.51758 10.3691C8.57611 10.1561 8.77135 10.002 9 10.002H13V8.99609C13 6.23467 15.2386 3.99609 18 3.99609ZM8.03906 29.502H27.9609L26.5371 11.002H23V13.4961C23 13.7722 22.7761 13.996 22.5 13.9961C22.2239 13.9961 22 13.7722 22 13.4961V11.002H14V13.4961C14 13.7722 13.7761 13.996 13.5 13.9961C13.2239 13.9961 13 13.7722 13 13.4961V11.002H9.46289L8.03906 29.502ZM18 4.99609C15.7909 4.99609 14 6.78695 14 8.99609V10.002H22V8.99609C22 6.78699 20.2091 4.99616 18 4.99609Z" fill="#5DA96A"/>
</svg>
