<svg width="39" height="48" viewBox="0 0 39 48" fill="none" xmlns="http://www.w3.org/2000/svg">
<path d="M36.7189 9.01345C29.7489 9.01345 25.4159 8.65586 23.557 8.40452C23.3229 8.37287 23.2741 8.07236 23.4812 7.95877L35.8566 1.1743C36.0852 1.049 35.9962 0.701564 35.7355 0.701564H22.8658" stroke="#EEEEEE" stroke-width="1.39887" stroke-linecap="round"/>
<path d="M14.5547 15.8139C7.58476 15.8139 3.25175 15.4563 1.39283 15.205C1.15868 15.1733 1.10986 14.8728 1.31706 14.7592L13.6924 7.97473C13.921 7.84943 13.832 7.502 13.5713 7.502H0.7016" stroke="#EEEEEE" stroke-width="1.39887" stroke-linecap="round"/>
<path d="M38.2314 47.2984C31.2614 47.2984 26.9284 46.9408 25.0695 46.6894C24.8354 46.6578 24.7865 46.3573 24.9937 46.2437L37.3691 39.4592C37.5977 39.3339 37.5087 38.9865 37.248 38.9865H24.3783" stroke="#EEEEEE" stroke-width="1.39887" stroke-linecap="round"/>
</svg>
