<svg width="122" height="261" viewBox="0 0 122 261" fill="none" xmlns="http://www.w3.org/2000/svg">
<path d="M7.31017 11.5321C4.7257 11.9144 1.68476 12.1161 1.06924 15.1938C0.59223 17.5788 0.772778 20.0336 2.20242 22.1028C4.64538 25.6386 8.27496 27.7023 12.6463 26.9737C16.5548 26.3223 21.9231 22.7805 21.9231 18.3819C21.9231 15.9014 20.1369 13.4051 18.6589 11.549C17.0746 9.55953 15.706 7.46767 13.7118 5.84083C11.022 3.64655 8.84923 3.43114 6.43069 6.01842C5.10724 7.4342 3.85565 9.3656 3.2764 11.2192C2.99086 12.1329 3.20029 12.8654 3.20029 13.7815C3.20029 15.0025 2.97374 13.2018 3.20029 12.5976" stroke="#00ADB5" stroke-opacity="0.5" stroke-width="1.66333" stroke-linecap="round" stroke-linejoin="round"/>
<path d="M20.7055 18.5209C22.9049 20.4736 24.7691 22.2398 28.6581 22.3351C31.3813 22.4018 34.1031 21.7221 36.6549 20.9906C38.4817 20.4669 44.339 17.6929 39.5929 17.4686" stroke="#00ADB5" stroke-opacity="0.5" stroke-width="1.66333" stroke-linecap="round" stroke-linejoin="round"/>
<path d="M43.3854 1.48574C40.4831 4.69082 36.4772 10.9714 37.9816 15.7858C38.5107 17.4787 39.2791 18.6185 40.2734 20.0648C42.2744 22.9753 45.3756 22.0682 48.1887 21.3079C50.228 20.7567 52.6511 19.0204 53.4317 17.0458C54.5092 14.3205 52.2638 10.0597 50.3874 8.18332C48.2924 6.08833 46.6328 3.53956 44.2987 1.70561C43.6776 1.21762 43.206 0.688402 42.396 0.868413C41.4853 1.07077 41.1104 1.94239 42.3198 1.94239" stroke="#00ADB5" stroke-opacity="0.5" stroke-width="1.66333" stroke-linecap="round" stroke-linejoin="round"/>
<path d="M73.8951 244.58C71.3106 244.962 68.2697 245.164 67.6542 248.242C67.1772 250.627 67.3577 253.081 68.7873 255.151C71.2303 258.686 74.8599 260.75 79.2312 260.021C83.1397 259.37 88.508 255.828 88.508 251.43C88.508 248.949 86.7218 246.453 85.2438 244.597C83.6596 242.607 82.2909 240.515 80.2967 238.889C77.6069 236.694 75.4342 236.479 73.0156 239.066C71.6922 240.482 70.4406 242.413 69.8613 244.267C69.5758 245.181 69.7852 245.913 69.7852 246.829C69.7852 248.05 69.5587 246.249 69.7852 245.645" stroke="#00ADB5" stroke-opacity="0.5" stroke-width="1.66333" stroke-linecap="round" stroke-linejoin="round"/>
<path d="M87.2905 251.569C89.4898 253.521 91.354 255.288 95.2431 255.383C97.9662 255.45 100.688 254.77 103.24 254.038C105.067 253.515 110.924 250.741 106.178 250.516" stroke="#00ADB5" stroke-opacity="0.5" stroke-width="1.66333" stroke-linecap="round" stroke-linejoin="round"/>
<path d="M109.97 234.533C107.068 237.739 103.062 244.019 104.567 248.834C105.096 250.526 105.864 251.666 106.858 253.113C108.859 256.023 111.961 255.116 114.774 254.356C116.813 253.804 119.236 252.068 120.017 250.094C121.094 247.368 118.849 243.107 116.972 241.231C114.877 239.136 113.218 236.587 110.884 234.753C110.263 234.265 109.791 233.736 108.981 233.916C108.07 234.119 107.695 234.99 108.905 234.99" stroke="#00ADB5" stroke-opacity="0.5" stroke-width="1.66333" stroke-linecap="round" stroke-linejoin="round"/>
<path d="M26.1844 35.4304C26.4444 38.3775 26.7961 41.3973 29.2288 43.3795C31.5558 45.2756 33.6962 43.1542 34.7086 40.8764C35.6663 38.7216 35.5465 36.9514 35.0469 34.7031C34.675 33.0298 35.1474 33.55 33.4909 34.2126" stroke="#00ADB5" stroke-opacity="0.5" stroke-width="1.66333" stroke-linecap="round" stroke-linejoin="round"/>
</svg>
