<svg width="27" height="25" viewBox="0 0 27 25" fill="none" xmlns="http://www.w3.org/2000/svg">
<path d="M9.5067 11.1504C10.5131 8.27248 11.269 5.10688 12.4997 2.33764C12.6083 2.09336 13.2696 0.656368 13.4974 0.656368C14.4838 0.656368 14.3267 6.91947 14.569 8.00961C15.4893 12.1513 14.7787 11.1467 17.8207 8.56388C19.3253 7.28637 29.3152 2.85459 25.4695 6.97499C23.1061 9.50727 19.8858 12.0597 16.6937 13.4784C16.1877 13.7032 17.8083 14.2851 18.0793 14.6238C19.0162 15.7949 19.7957 17.0701 20.6474 18.3005C22.8707 21.5118 18.6749 19.325 17.1371 18.633C15.6409 17.9597 13.7373 17.5911 12.4997 16.4714C12.2869 16.2789 11.502 15.1168 11.502 15.4737C11.502 20.0553 10.8251 20.971 7.51134 23.7877C5.19361 25.7578 5.97396 18.7413 6.10721 18.0603C6.37913 16.6704 6.87203 15.468 7.34506 14.1435C7.53496 13.6118 8.6628 12.5585 8.10256 12.6285C5.10938 13.0026 8.28417 16.4071 3.83472 13.6262C-1.52876 10.274 0.333278 4.07209 6.14416 8.63778C7.81658 9.95183 7.58139 11.9068 9.6545 12.4992C12.1577 13.2144 10.0271 11.1936 9.17414 9.48765" stroke="#00ADB5" stroke-opacity="0.2" stroke-width="1.28667" stroke-linecap="round" stroke-linejoin="round"/>
</svg>
