<svg width="9" height="14" viewBox="0 0 9 14" fill="none" xmlns="http://www.w3.org/2000/svg">
<path d="M7.40651 0.875C5.77998 2.66419 -3.09928 10.4835 2.97334 12.9677C4.42975 13.5635 6.34481 11.6026 6.9632 10.431C8.26311 7.96796 8.45019 2.96712 4.30329 3.55953C1.45322 3.96669 1.23585 11.4111 3.76146 11.3176C8.03857 11.1592 6.63947 2.09595 4.54958 6.46573C0.755248 14.3993 7.51559 10.3168 5.09141 7.62328C3.88866 6.28689 1.78291 16.6163 5.8549 11.687C9.93558 6.74725 2.25932 6.51564 3.95849 11.6131C5.29929 15.6355 7.09769 3.5327 4.10626 10.6034C1.50893 16.7425 6.42136 9.30251 4.94364 9.83987C2.13428 10.8614 1.40228 16.195 4.10626 10.628C5.84015 7.05821 -0.22316 12.352 1.44636 12.352C3.02704 12.352 5.94371 6.96568 2.87482 9.29803C-0.246008 11.6699 4.79533 8.08133 5.1653 6.41647C5.36604 5.51311 2.35445 9.82828 4.30329 6.53961C5.31948 4.82479 4.07178 6.40716 3.63831 7.08145C2.60529 8.68837 3.79659 5.99899 4.057 5.82538C4.56068 5.4896 3.45023 6.92035 3.41666 7.52476C3.32384 9.19541 3.78722 6.6313 3.85997 6.19481" stroke="#00ADB5" stroke-opacity="0.5" stroke-width="1.66333" stroke-linecap="round" stroke-linejoin="round"/>
</svg>
