<svg width="40" height="40" viewBox="0 0 40 40" fill="none" xmlns="http://www.w3.org/2000/svg">
<path d="M20 6C17.0836 6.00331 14.2877 7.1633 12.2255 9.22548C10.1633 11.2877 9.00331 14.0836 9 17C9 26.4125 19 33.5212 19.4263 33.8188C19.5944 33.9365 19.7947 33.9997 20 33.9997C20.2053 33.9997 20.4056 33.9365 20.5737 33.8188C21 33.5212 31 26.4125 31 17C30.9967 14.0836 29.8367 11.2877 27.7745 9.22548C25.7123 7.1633 22.9164 6.00331 20 6ZM20 13C20.7911 13 21.5645 13.2346 22.2223 13.6741C22.8801 14.1136 23.3928 14.7384 23.6955 15.4693C23.9983 16.2002 24.0775 17.0044 23.9231 17.7804C23.7688 18.5563 23.3878 19.269 22.8284 19.8284C22.269 20.3878 21.5563 20.7688 20.7804 20.9231C20.0044 21.0775 19.2002 20.9983 18.4693 20.6955C17.7384 20.3928 17.1136 19.8801 16.6741 19.2223C16.2346 18.5645 16 17.7911 16 17C16 15.9391 16.4214 14.9217 17.1716 14.1716C17.9217 13.4214 18.9391 13 20 13Z" fill="white"/>
</svg>
