<svg width="39" height="29" viewBox="0 0 39 29" fill="none" xmlns="http://www.w3.org/2000/svg">
<path d="M9.17877 2.73079C8.22478 4.0839 6.98237 5.24468 6.31956 6.75967C6.08151 7.30379 6.00245 7.89427 5.74917 8.42032C5.49148 8.95552 5.18223 9.58256 4.99104 10.1387C4.61334 11.2375 3.72739 12.0956 3.12101 13.0485C2.7643 13.609 2.1748 14.4817 1.62642 14.8824C1.34717 15.0865 0.598472 16.0668 0.929671 16.1496C1.70089 16.3424 2.35519 16.7526 3.04158 17.1568C3.98549 17.7126 4.92562 18.132 5.76722 18.8427C6.83127 19.7412 8.0939 20.3813 9.13545 21.312C9.95205 22.0418 10.6614 22.8873 11.4892 23.6117C12.204 24.2371 13.065 24.6982 13.7925 25.312C13.8461 25.3573 14.364 25.7923 14.3015 25.886C14.2371 25.9827 13.465 24.991 13.4026 24.8896" stroke="#00ADB5" stroke-opacity="0.5" stroke-width="1.66333" stroke-linecap="round" stroke-linejoin="round"/>
<path d="M25.6845 1.62608C24.1634 5.24078 22.5003 8.79174 20.9914 12.4131C20.0554 14.6593 19.2686 16.93 18.4715 19.2326C17.845 21.0426 17.0688 22.8088 16.3921 24.5972C16.1571 25.2183 15.9955 25.8525 15.8578 26.4997C15.6324 27.5592 15.6553 26.3255 15.6773 25.8643" stroke="#00ADB5" stroke-opacity="0.5" stroke-width="1.66333" stroke-linecap="round" stroke-linejoin="round"/>
<path d="M29.0642 0.84633C30.3887 2.35513 31.6569 3.87316 33.0642 5.3012C34.2144 6.46827 34.7232 8.1547 35.3675 9.6189C36.036 11.1383 36.7052 12.3965 37.6924 13.7128C37.8092 13.8685 38.1545 14.2541 38.1545 14.4564C38.1545 14.5537 37.6886 14.5511 37.6129 14.5611C37.3556 14.5954 37.0489 14.8135 36.8332 14.9474C32.9203 17.3761 30.2748 20.8864 27.974 24.7741C27.5808 25.4385 27.2896 26.3998 26.7212 26.9113C26.3543 27.2415 26.055 27.6759 25.6202 27.8933C25.2112 28.0978 25.5012 27.3741 25.5552 26.9691" stroke="#00ADB5" stroke-opacity="0.5" stroke-width="1.66333" stroke-linecap="round" stroke-linejoin="round"/>
</svg>
