<svg width="10" height="10" viewBox="0 0 10 10" fill="none" xmlns="http://www.w3.org/2000/svg">
<path d="M9.15144 4.64213L7.39363 6.15893L7.92917 8.42729C7.95872 8.55043 7.95111 8.67956 7.90731 8.79838C7.8635 8.91719 7.78547 9.02036 7.68306 9.09485C7.58065 9.16934 7.45846 9.2118 7.33193 9.21688C7.20539 9.22196 7.08019 9.18942 6.97214 9.12338L4.99949 7.90932L3.02566 9.12338C2.91762 9.18904 2.79257 9.22127 2.66626 9.216C2.53995 9.21074 2.41801 9.16822 2.31582 9.09379C2.21362 9.01937 2.13573 8.91637 2.09195 8.79777C2.04817 8.67917 2.04047 8.55026 2.0698 8.42729L2.6073 6.15893L0.849487 4.64213C0.753901 4.55952 0.684771 4.45058 0.650731 4.32891C0.616691 4.20724 0.619249 4.07824 0.658087 3.95802C0.696925 3.8378 0.770321 3.73168 0.869108 3.65292C0.967896 3.57417 1.0877 3.52626 1.21355 3.51518L3.51824 3.32924L4.4073 1.17768C4.45542 1.06042 4.53733 0.960121 4.6426 0.889531C4.74787 0.818941 4.87176 0.78125 4.99851 0.78125C5.12526 0.78125 5.24915 0.818941 5.35442 0.889531C5.45969 0.960121 5.5416 1.06042 5.58972 1.17768L6.47839 3.32924L8.78308 3.51518C8.90918 3.52585 9.02934 3.57349 9.12848 3.65214C9.22763 3.73078 9.30136 3.83694 9.34044 3.95731C9.37952 4.07768 9.38221 4.2069 9.34817 4.32879C9.31413 4.45068 9.24488 4.55982 9.1491 4.64252L9.15144 4.64213Z" fill="#FBBC04"/>
</svg>
