<svg width="24" height="27" viewBox="0 0 24 27" fill="none" xmlns="http://www.w3.org/2000/svg">
<path d="M5.61445 22.8412C5.73891 20.9291 5.63315 20.0698 3.78773 19.4187C3.09756 19.1752 2.06562 19.3041 1.54723 19.8251C0.48987 20.8877 0.827525 22.104 1.25455 23.37C2.47088 26.9762 8.43818 27.0693 10.2267 23.7225C11.0959 22.0959 11.5411 20.0817 12.1543 18.3464C12.9152 16.1931 14.1532 14.2007 14.8792 12.0301C15.6283 9.79085 16.1534 7.50148 16.9684 5.28303C17.341 4.26868 17.6538 2.08099 18.5226 1.3317C20.4271 -0.310923 22.1072 2.59296 22.2315 4.16177C22.3516 5.67698 22.7816 7.32755 22.7816 8.78879C22.7816 9.34058 22.5527 9.8785 22.3274 10.3703C22.1431 10.7726 21.3153 10.5777 21.2425 10.1891C21.0296 9.05323 22.5425 7.34567 20.2383 7.59409" stroke="#00ADB5" stroke-opacity="0.5" stroke-width="1.66333" stroke-linecap="round" stroke-linejoin="round"/>
</svg>
