<svg width="34" height="18" viewBox="0 0 34 18" fill="none" xmlns="http://www.w3.org/2000/svg">
<path d="M4.64972 7.26235C3.0509 7.49886 1.1697 7.62366 0.788921 9.52757C0.493831 11.003 0.605522 12.5216 1.48993 13.8017C3.00121 15.989 5.24657 17.2657 7.95076 16.815C10.3687 16.412 13.6897 14.2209 13.6897 11.4998C13.6897 9.96531 12.5847 8.42106 11.6703 7.27281C10.6903 6.04208 9.84358 4.748 8.60992 3.74159C6.94597 2.38415 5.60183 2.25089 4.10565 3.85145C3.28694 4.72729 2.51267 5.92211 2.15433 7.06879C1.97769 7.63404 2.10724 8.08718 2.10724 8.65392C2.10724 9.40922 1.96709 8.29525 2.10724 7.92151" stroke="#00ADB5" stroke-opacity="0.2" stroke-width="1.28667" stroke-linecap="round" stroke-linejoin="round"/>
<path d="M12.9355 11.5857C14.2961 12.7937 15.4494 13.8864 17.8552 13.9453C19.5398 13.9866 21.2237 13.5661 22.8022 13.1136C23.9323 12.7896 27.5558 11.0736 24.6198 10.9348" stroke="#00ADB5" stroke-opacity="0.2" stroke-width="1.28667" stroke-linecap="round" stroke-linejoin="round"/>
<path d="M26.9673 1.04746C25.1719 3.03021 22.6937 6.91556 23.6244 9.89383C23.9517 10.9411 24.427 11.6463 25.0421 12.5409C26.28 14.3415 28.1985 13.7803 29.9388 13.31C31.2003 12.969 32.6993 11.8949 33.1822 10.6733C33.8488 8.98735 32.4597 6.35154 31.2989 5.19077C30.0029 3.89475 28.9762 2.31801 27.5323 1.18348C27.1481 0.8816 26.8563 0.554209 26.3552 0.665569C25.7919 0.790753 25.5599 1.32996 26.3081 1.32996" stroke="#00ADB5" stroke-opacity="0.2" stroke-width="1.28667" stroke-linecap="round" stroke-linejoin="round"/>
</svg>
