<svg width="8" height="10" viewBox="0 0 8 10" fill="none" xmlns="http://www.w3.org/2000/svg">
<path d="M4.88744 0.702184C4.86369 0.839757 3.15197 8.09875 4.5318 8.01251C5.57746 7.94716 6.46246 5.68114 6.70515 4.93032C7.64179 2.03258 4.19553 3.05384 3.10925 4.41662C2.84241 4.75138 0.223841 8.68877 0.777851 9.0004C1.53773 9.42783 4.02801 5.74481 4.29471 5.18717C5.5967 2.46484 -0.0860767 10.4354 2.59555 9.15846C4.34373 8.32599 6.14292 5.68837 6.7249 3.94244C7.21576 2.46988 4.92189 6.57082 4.61083 8.09154C4.01312 11.0137 8.67603 2.30167 6.42854 4.49565C5.16748 5.72668 4.82995 7.16476 4.17617 8.72379C3.46153 10.4279 6.98175 5.79034 6.98175 3.94244C6.98175 2.14915 2.60238 9.57931 3.84029 6.17505C4.35424 4.76169 6.55896 0.826991 6.05314 2.24328C5.51913 3.73851 4.87984 5.34067 4.17617 6.74802" stroke="#00ADB5" stroke-opacity="0.2" stroke-width="1.28667" stroke-linecap="round" stroke-linejoin="round"/>
</svg>
