<svg width="162" height="130" viewBox="0 0 162 130" fill="none" xmlns="http://www.w3.org/2000/svg">
<path d="M2.00588 26.9419C8.78978 14.693 15.2023 -1.72911 31.9671 2.76302C39.9334 4.89757 46.1235 16.7727 45.6366 24.323C45.2327 30.586 46.9723 38.4961 40.5087 42.3955C35.4318 45.4583 29.0159 45.0233 25.0124 40.2817C13.6432 26.8164 34.6517 17.3818 45.0692 19.4419C59.2883 22.2537 75.7651 57.6788 63.3803 68.8673C52.7616 78.4603 45.7749 63.7392 53.192 55.0076C63.6257 42.7247 73.2231 42.3352 85.356 55.4722C94.8294 65.7297 91.9803 83.8342 84.3366 93.3582C82.7491 95.3362 76.8073 109.182 75.3726 107.794C61.2158 94.0964 86.2964 73.9158 100.233 76.7851C116.246 80.0819 132.411 83.6004 142.995 96.2745C148.687 103.09 159.192 127.474 157.173 118.827C154.647 108.006 152.222 93.1556 156.707 82.3775C158.042 79.1703 162.056 68.8259 158.667 78.8666C155.177 89.2073 151.861 98.2343 150.441 108.502C150.125 110.787 153.094 114.029 154.108 115.967C154.966 117.608 148.286 115.499 147.488 115.416C140.595 114.701 134.296 117.355 128.391 120.654C123.12 123.599 117.087 129.126 113.112 127.16" stroke="#00ADB5" stroke-opacity="0.2" stroke-width="4" stroke-linecap="round" stroke-linejoin="round"/>
</svg>
