<svg width="19" height="21" viewBox="0 0 19 21" fill="none" xmlns="http://www.w3.org/2000/svg">
<path d="M4.36569 17.7653C4.4625 16.2781 4.38024 15.6098 2.94493 15.1034C2.40813 14.914 1.60552 15.0143 1.20233 15.4195C0.379948 16.2459 0.642566 17.1919 0.974692 18.1766C1.92072 20.9814 6.56191 21.0538 7.95294 18.4508C8.62901 17.1857 8.97529 15.6191 9.4522 14.2694C10.044 12.5947 11.0069 11.045 11.5716 9.35682C12.1542 7.61516 12.5626 5.83456 13.1964 4.10911C13.4862 3.32018 13.7296 1.61867 14.4053 1.03589C15.8865 -0.241696 17.1932 2.01685 17.29 3.23703C17.3834 4.41552 17.7178 5.69928 17.7178 6.83579C17.7178 7.26496 17.5397 7.68334 17.3645 8.06584C17.2212 8.37876 16.5773 8.22715 16.5207 7.92494C16.3552 7.04147 17.5318 5.71338 15.7397 5.90659" stroke="#00ADB5" stroke-opacity="0.2" stroke-width="1.28667" stroke-linecap="round" stroke-linejoin="round"/>
</svg>
