<svg width="60" height="44" viewBox="0 0 60 44" fill="none" xmlns="http://www.w3.org/2000/svg">
<path d="M0.929182 23.5365C1.22517 25.0587 1.97763 26.0477 2.5609 27.433C2.95803 28.3762 3.7005 29.1065 4.11398 30.0319C4.56053 31.0313 5.22919 32.2053 5.85186 33.0948C6.38565 33.8574 6.73544 34.58 7.40887 35.2534C8.59933 36.4439 9.49997 37.8625 10.6959 39.0359C12.4343 40.7415 15.3781 42.9669 17.9108 42.8262C18.7244 42.781 19.6253 43.0331 20.4233 42.9127C21.1078 42.8093 21.9392 42.7747 22.6251 42.893C23.7524 43.0874 24.9754 42.8918 26.0537 43.125C26.6357 43.2508 27.2691 43.067 27.8584 43.1761C28.6224 43.3176 29.5175 43.353 30.2962 43.353C32.8444 43.353 35.3862 43.3376 37.9279 43.0149C39.305 42.84 40.6695 43.2966 42.0327 43.0542C43.3123 42.8267 45.0167 43.0617 46.2202 42.5352C47.6992 41.8881 49.1707 40.8704 50.3132 39.7279C50.8863 39.1548 51.3211 38.4703 51.709 37.7619C52.2186 36.8315 52.5023 35.8278 53.0144 34.8996C54.8005 31.6623 55.8186 28.059 57.2647 24.6846C57.6056 23.8893 58.1658 23.245 58.574 22.5103C58.6773 22.3244 58.7241 22.0871 58.8925 21.9087C59.523 21.2412 58.3152 21.1702 57.7601 20.9179" stroke="#00ADB5" stroke-opacity="0.2" stroke-width="1.28667" stroke-linecap="round" stroke-linejoin="round"/>
<path d="M0.646302 23.678C1.91109 22.0232 2.98401 20.8077 4.82193 19.872C6.36101 19.0885 7.95703 18.1578 9.34748 17.1354C11.4844 15.5642 14.4249 14.864 17.0264 14.391C19.8579 13.8762 22.6449 13.2744 25.527 13.2744C26.4187 13.2744 27.3011 13.5428 28.1928 13.5575C29.2605 13.575 30.3308 13.6086 31.3934 13.699C33.0243 13.8378 34.6983 13.805 36.3318 13.8406C38.6108 13.8901 40.7923 15.0698 43.071 15.2521C44.4264 15.3605 46.0071 15.5632 47.3252 15.9323C47.8189 16.0705 48.3821 16.1646 48.8429 16.3884C49.4162 16.6668 49.8181 17.138 50.3449 17.4657C52.0452 18.5237 53.9459 19.0213 55.7826 19.8248C56.3456 20.0711 57.3138 20.4932 57.9373 20.4932C58.7955 20.4932 58.7512 22.0776 58.7512 20.4932" stroke="#00ADB5" stroke-opacity="0.2" stroke-width="1.28667" stroke-linecap="round" stroke-linejoin="round"/>
<path d="M58.6091 21.484C57.5593 22.8909 56.8112 23.4265 55.322 24.2481C54.1529 24.8931 52.8579 25.3493 51.5474 25.5889C50.3246 25.8124 48.9888 25.9891 47.7493 26.0882C46.7175 26.1708 45.6653 26.0508 44.6117 26.1708C42.229 26.4422 39.8246 27.0564 37.5265 27.7278C34.2455 28.6863 31.0774 28.7866 27.689 28.9703C23.9899 29.1708 20.2808 28.8882 16.6562 28.1367C15.4339 27.8833 14.1417 28.1108 12.8974 28.062C11.5269 28.0083 10.1842 27.6307 8.89475 27.1852C8.35203 26.9977 7.85186 26.7094 7.28269 26.5797C6.6163 26.4279 5.93893 26.4877 5.27744 26.3281C4.35574 26.1056 3.27974 25.703 2.50156 25.1642C2.16296 24.9298 1.65456 24.7361 1.38885 24.3818C1.31133 24.2784 1.21191 24.0486 1.21191 23.9257C1.21191 23.6327 0.971906 23.7067 1.35346 23.9611" stroke="#00ADB5" stroke-opacity="0.2" stroke-width="1.28667" stroke-linecap="round" stroke-linejoin="round"/>
<path d="M28.178 35.8511C29.0393 35.7554 30.1777 35.7718 29.8215 34.6636C29.7071 34.3079 29.4191 34.27 29.1137 34.1682C28.2034 33.8648 26.5738 34.4524 26.2317 35.4028C25.6177 37.1085 26.7797 38.9506 28.6065 38.3596C29.1035 38.1988 29.9852 37.8476 30.3012 37.3963C30.6804 36.8544 30.111 37.0145 29.735 36.488" stroke="#00ADB5" stroke-opacity="0.2" stroke-width="1.28667" stroke-linecap="round" stroke-linejoin="round"/>
<path d="M25.558 34.0109C26.931 33.4601 27.6334 33.2324 29.0219 33.2324C29.5816 33.2324 29.8615 33.193 30.3548 33.5155C31.1698 34.0484 31.4503 35.0613 31.3653 35.9533C31.2936 36.7065 31.0443 37.7389 30.7795 38.4539C30.5825 38.9858 30.0949 39.0776 29.596 39.1774C29.14 39.2686 28.1459 39.0136 27.7873 39.2128C27.4068 39.4242 26.2418 39.4955 25.9472 39.1027C25.6762 38.7413 25.3856 38.5855 25.1884 38.1473C25.0001 37.7288 24.9151 37.329 24.7637 36.9127C24.5558 36.3409 24.1822 34.7797 24.9564 34.4356C25.4102 34.2339 25.6044 34.1132 26.1242 34.1132C26.2717 34.1132 26.398 34.2233 26.5488 34.2233C26.7663 34.2233 26.1293 34.0817 25.9118 34.0817" stroke="#00ADB5" stroke-opacity="0.2" stroke-width="1.28667" stroke-linecap="round" stroke-linejoin="round"/>
<path d="M28.0366 28.349C29.0348 27.0582 29.9458 25.7271 30.9776 24.4722C31.5318 23.7981 32.2203 23.2183 32.8177 22.5731C34.5281 20.7259 36.271 18.7043 37.5752 16.5456C38.86 14.4191 40.6133 12.1034 42.5176 10.5063C43.5234 9.66266 44.4223 8.73026 45.2974 7.75793C46.1464 6.81454 46.5375 5.49518 47.3419 4.49843C47.9649 3.72654 52.0424 -1.52641 52.7522 1.6675C53.031 2.92243 51.8067 3.80036 51.0379 4.5692C50.1654 5.44168 49.2887 6.55016 48.5451 7.54168C47.8282 8.49754 46.9569 9.33784 46.2607 10.3018C45.3134 11.6134 43.5899 12.5516 42.8989 14.0371C42.329 15.2625 41.3833 16.2474 40.6735 17.3831C39.6898 18.957 38.5373 20.2716 37.3786 21.7121C36.4605 22.8535 35.0216 23.7919 34.3708 25.0935C33.8272 26.1807 32.8636 26.6389 31.9841 27.3425C31.6013 27.6488 31.136 27.8188 30.7967 28.2429C30.6839 28.3839 30.4818 28.5471 30.376 28.3883C30.3157 28.2979 30.0855 28.5007 30.1283 28.6007C30.2792 28.9527 29.9122 27.7538 29.8767 27.6413" stroke="#00ADB5" stroke-opacity="0.2" stroke-width="1.28667" stroke-linecap="round" stroke-linejoin="round"/>
<path d="M27.4688 28.7029C27.7401 28.8404 29.4505 30.139 29.4505 29.0922C29.4505 28.7753 29.8575 28.2472 30.0009 27.9244C30.1094 27.6804 29.1321 27.9142 28.9865 28.1014C28.7964 28.3458 28.4279 28.5443 29.0258 28.5614C29.4853 28.5745 29.8443 28.3769 30.1936 28.1053C30.294 28.0272 31.6442 28.2409 30.4413 28.2075C29.8016 28.1897 29.1799 28.2075 28.5658 28.2075C28.0349 28.2075 29.1107 28.066 29.2657 28.066C29.3894 28.066 28.3686 28.6732 28.1923 28.4749C28.1494 28.4266 28.075 28.2937 28.2473 28.2075" stroke="#00ADB5" stroke-opacity="0.2" stroke-width="1.28667" stroke-linecap="round" stroke-linejoin="round"/>
<path d="M4.96415 23.4657C5.04376 23.5079 7.57315 24.8322 7.58276 24.6689C7.59441 24.4709 7.45341 24.2985 7.55131 24.1027C7.97924 23.2468 8.53298 23.6572 9.26953 23.9886C9.84412 24.2472 8.97212 21.3841 10.7047 22.5928C11.5998 23.2174 11.8386 23.1179 11.6915 22.0699C11.5802 21.2763 11.8542 21.2741 12.5369 21.3582C13.001 21.4154 13.3335 21.5167 13.5985 21.0751C13.92 20.5394 14.2822 20.2345 14.9393 20.4657C15.4841 20.6574 15.968 21.1964 16.3429 20.509C16.5079 20.2065 16.3687 19.3013 16.8895 19.4749C17.2159 19.5837 17.6459 20.0098 18.0179 19.8759C18.2998 19.7745 18.5163 18.9003 18.8357 19.0384C19.1689 19.1825 19.5085 19.8149 19.9288 19.6636C20.1317 19.5905 20.5081 18.9273 20.1096 19.007" stroke="#00ADB5" stroke-opacity="0.2" stroke-width="1.28667" stroke-linecap="round" stroke-linejoin="round"/>
<path d="M14.9435 22.1918C15.8208 22.9055 19.1062 26.7182 20.0707 23.8707C20.2434 23.3608 20.2708 22.3506 20.7548 23.1865C21.1537 23.8755 21.7541 24.3537 22.4062 23.7016C22.8383 23.2695 23.0307 22.536 23.6486 22.3097C24.2157 22.1021 24.632 23.1682 25.1034 22.5456C25.4836 22.0436 25.2996 21.1801 24.7417 20.8785C24.5587 20.7796 24.5076 21.1205 24.4272 21.2009" stroke="#00ADB5" stroke-opacity="0.2" stroke-width="1.28667" stroke-linecap="round" stroke-linejoin="round"/>
<path d="M22.5145 17.8038C23.8813 17.569 25.6031 17.091 26.6429 18.3149C27.1249 18.8823 27.0793 19.6066 26.7609 20.2494C26.5282 20.7192 25.9023 20.9535 25.5027 20.4932C25.175 20.1156 25.8508 19.493 26.0925 19.2625C26.9209 18.4727 28.1489 19.7374 28.4083 20.5954C28.6251 21.3122 26.6656 22.9729 26.9024 22.2625" stroke="#00ADB5" stroke-opacity="0.2" stroke-width="1.28667" stroke-linecap="round" stroke-linejoin="round"/>
<path d="M45.5174 20.2101C45.9236 20.0705 48.5351 19.2295 48.0337 20.619C47.7765 21.3319 46.7924 21.7144 46.1465 21.948C45.841 22.0585 45.0521 22.0394 45.5645 21.5941C46.0082 21.2086 46.6333 21.0277 47.2159 21.0751C49.487 21.2597 46.3111 23.8686 45.6589 24.2285C44.3918 24.9275 42.6681 25.663 41.3417 24.8104" stroke="#00ADB5" stroke-opacity="0.2" stroke-width="1.28667" stroke-linecap="round" stroke-linejoin="round"/>
<path d="M31.574 16.0345C32.1127 16.911 32.7611 17.7915 33.2214 18.7121C33.3799 19.029 32.6944 18.2177 32.5334 17.9022C32.4907 17.8186 32.1957 16.8894 32.1677 16.8956C31.823 16.9722 31.742 18.5505 31.6487 18.8419C31.2078 20.2197 30.1183 19.6919 29.0498 19.5889C27.7562 19.4642 27.1776 20.7403 26.4626 21.5549C25.8905 22.2066 25.6657 22.4066 26.0537 23.1826C26.3676 23.8105 26.4982 24.4194 26.0537 24.9874C25.7068 25.4306 25.2726 25.7106 24.8545 26.0765C24.4714 26.4117 25.0207 26.3565 24.9488 26.1551C24.7525 25.6055 23.541 25.72 23.1441 25.7462C21.6713 25.8436 20.1708 25.4741 18.7247 25.5653C17.9564 25.6138 17.2333 26.0423 16.4718 26.1551C15.6984 26.2697 16.7207 26.941 17.0104 27.1341C17.509 27.4665 16.0343 26.4272 15.4927 26.1708C14.5844 25.7409 13.7453 25.408 13.2752 24.4566C12.8039 23.5028 12.389 22.8526 11.5923 22.1525C11.3177 21.9111 11.2852 21.544 11.4193 21.2167C11.7301 20.4585 12.4192 19.8414 13.1022 19.4317" stroke="#00ADB5" stroke-opacity="0.2" stroke-width="1.28667" stroke-linecap="round" stroke-linejoin="round"/>
<path d="M31.4321 18.8655C29.658 17.6273 28.1942 17.0941 26.1084 16.813C25.3752 16.7142 24.5931 16.2066 24.1149 15.6453C23.6907 15.1472 23.9312 15.2789 23.4308 15.9559C22.7474 16.8805 22.2399 16.0505 21.3666 16.294C20.0282 16.6672 18.8794 17.9114 17.5212 18.142C17.1493 18.2052 17.239 17.5829 16.7742 17.851C15.9915 18.3026 15.3929 18.7298 14.478 18.8733C13.9247 18.9601 12.8761 19.3245 12.9603 19.9978" stroke="#00ADB5" stroke-opacity="0.2" stroke-width="1.28667" stroke-linecap="round" stroke-linejoin="round"/>
<path d="M43.4653 18.8654C45.1772 19.0304 46.9117 19.0092 48.616 19.1918C49.2162 19.2561 49.5228 19.4986 49.945 19.8916C50.3258 20.2462 50.9202 21.0807 51.4666 21.1262C52.2545 21.1919 52.6616 20.8646 53.3972 20.6348C53.84 20.4964 55.253 20.6348 54.789 20.6348" stroke="#00ADB5" stroke-opacity="0.2" stroke-width="1.28667" stroke-linecap="round" stroke-linejoin="round"/>
<path d="M42.1901 20.7763C40.3499 21.9889 39.3669 23.8281 37.3972 24.9323C37.0072 25.1509 35.8133 25.5742 35.9031 26.2927C35.9681 26.8127 39.9551 25.1848 40.5623 24.8812" stroke="#00ADB5" stroke-opacity="0.2" stroke-width="1.28667" stroke-linecap="round" stroke-linejoin="round"/>
<path d="M49.0561 22.4748C50.0567 23.2197 50.9194 24.2842 52.1701 23.906C52.5086 23.8037 53.2167 23.7638 53.4441 23.5364" stroke="#00ADB5" stroke-opacity="0.2" stroke-width="1.28667" stroke-linecap="round" stroke-linejoin="round"/>
</svg>
