<svg width="34" height="26" viewBox="0 0 34 26" fill="none" xmlns="http://www.w3.org/2000/svg">
<path d="M6.02361 2.47603C10.9691 2.68457 16.339 2.38112 21.2644 1.77388C23.8999 1.44895 26.5582 1.37962 29.1635 0.978798C29.5307 0.922312 30.7023 0.361826 30.8879 0.844564C31.181 1.60652 31.243 2.69494 31.208 3.49827C31.1066 5.83189 31.3941 8.37821 31.8998 10.654C32.301 12.4592 32.602 13.9639 32.602 15.8168C32.602 16.8303 33.1415 18.4967 32.5194 19.2966C30.7848 21.5267 26.9803 22.4378 24.3414 23.1068C20.4637 24.0899 16.6283 25.1103 12.6217 25.3268C10.1365 25.4612 7.74516 24.9654 5.29049 24.9654C3.02943 24.9654 3.2445 24.919 2.45092 22.7764C1.66929 20.666 1.56291 18.7657 1.56291 16.4983C1.56291 15.318 1.04367 14.0261 0.726525 12.8843C0.486315 12.0196 0.871489 10.9609 0.994994 10.0964C1.12453 9.18965 2.48437 7.10847 2.02756 6.28621C1.57983 5.48028 1.34234 4.10089 2.07919 3.36404C2.68085 2.76239 11.5413 2.03712 3.42154 3.77707" stroke="#00ADB5" stroke-opacity="0.2" stroke-width="1.28667" stroke-linecap="round" stroke-linejoin="round"/>
<path d="M1.93389 4.70644C2.96539 6.09252 3.7831 7.73452 4.82509 9.07422C5.17141 9.51948 5.99982 9.90519 6.20874 10.3753C6.77435 11.6479 10.0308 12.7659 11.227 13.5349C12.5773 14.403 15.3556 18.2348 17.2676 16.3229C20.8616 12.7289 24.5611 9.21523 28.1405 5.63576C28.8168 4.95945 29.0512 4.06423 29.6688 3.44671C31.5486 1.56684 28.4195 1.73264 27.3971 1.73264" stroke="#00ADB5" stroke-opacity="0.2" stroke-width="1.28667" stroke-linecap="round" stroke-linejoin="round"/>
</svg>
