<svg width="147" height="151" viewBox="0 0 147 151" fill="none" xmlns="http://www.w3.org/2000/svg">
<path d="M144.964 129.966C135.465 140.323 125.348 154.839 110.046 146.515C102.775 142.56 99.5262 129.517 101.776 122.265C103.643 116.249 103.805 108.121 111.028 105.836C116.702 104.041 122.86 105.974 125.652 111.541C133.58 127.353 110.863 131.62 101.182 127.161C87.9692 121.075 80.2195 82.6357 94.934 74.63C107.55 67.7659 110.907 83.7722 101.617 90.5484C88.5492 100.081 79.093 98.2047 70.3426 82.5342C63.5102 70.2986 70.5461 53.3031 80.2432 45.8069C82.2572 44.25 91.3095 32.1371 92.3831 33.8288C102.977 50.5216 73.7605 64.317 60.8363 58.2411C45.9867 51.2601 31.0412 44.0271 23.6929 29.1723C19.7414 21.1841 15.2229 -5.07788 15.1601 3.83404C15.0816 14.9868 13.957 30.0467 7.04682 39.5089C4.99063 42.3246 -1.3582 51.4743 4.30911 42.4739C10.1458 33.2046 15.5028 25.1759 19.3024 15.4908C20.1479 13.3355 18.013 9.47447 17.4794 7.3453C17.0275 5.5419 23.0499 9.17035 23.8093 9.43888C30.366 11.7574 37.1366 10.6482 43.6744 8.81698C49.5096 7.18251 56.6953 3.20853 60.1115 6.06037" stroke="#00ADB5" stroke-opacity="0.2" stroke-width="4" stroke-linecap="round" stroke-linejoin="round"/>
</svg>
