<svg width="29" height="33" viewBox="0 0 29 33" fill="none" xmlns="http://www.w3.org/2000/svg">
<path d="M21.5651 3.63548C21.9897 2.34719 22.2244 1.4563 23.4488 0.837064C23.9018 0.607981 24.2319 0.501967 24.4813 0.991023C24.8154 1.64639 24.6819 2.52664 24.5628 3.22795C24.2852 4.86239 24.3301 6.56701 24.1099 8.21801C23.9433 9.46761 23.4784 13.5922 25.1514 14.1499C25.8031 14.3671 27.172 13.425 27.0895 12.6828C27.0518 12.3436 26.8984 10.8379 26.211 11.3153C25.0154 12.1456 26.5173 14.5609 26.9446 15.5537C27.8474 17.6513 28.542 20.9161 28.3121 23.2154C28.194 24.3962 27.589 25.2759 26.845 26.1315C26.3576 26.692 25.6978 28.3964 24.6262 27.8703C23.5788 27.3562 22.6078 25.8889 22.8058 24.7006C22.9271 23.9731 23.2372 24.9282 22.7877 23.8493" stroke="#00ADB5" stroke-opacity="0.2" stroke-width="1.28667" stroke-linecap="round" stroke-linejoin="round"/>
<path d="M8.3613 5.02096C7.9615 4.07744 7.81204 3.29329 6.83982 2.96517C6.28717 2.77865 5.78571 2.63608 5.20062 2.59385C3.9069 2.50049 2.80204 3.54094 3.14483 4.85795C3.68783 6.94423 4.66858 8.64996 4.69347 10.8895C4.70768 12.1684 4.72068 13.462 4.46706 14.7203C4.23545 15.8694 4.13581 17.6091 3.27162 18.5059C2.77526 19.021 1.86577 19.8869 1.08903 19.6108C0.356535 19.3503 0.668888 18.3584 1.02564 17.8629C1.72583 16.8904 2.71547 19.2055 2.8188 19.7738C3.15724 21.6352 3.43945 23.5559 3.6701 25.434C3.83939 26.8126 3.85554 28.2773 4.4897 29.5456C4.9142 30.3946 5.7207 31.9664 6.88058 31.864C7.52375 31.8073 8.53171 31.2096 8.71902 30.5645C9.00159 29.5912 8.62448 29.4555 8.03527 28.9841" stroke="#00ADB5" stroke-opacity="0.2" stroke-width="1.28667" stroke-linecap="round" stroke-linejoin="round"/>
</svg>
