<svg width="462" height="452" viewBox="0 0 462 452" fill="none" xmlns="http://www.w3.org/2000/svg">
<path d="M128.086 380.746C126.776 380.94 125.235 381.042 124.923 382.601C124.682 383.81 124.773 385.054 125.498 386.102C126.735 387.894 128.575 388.94 130.79 388.57C132.77 388.24 135.49 386.446 135.49 384.217C135.49 382.96 134.585 381.695 133.836 380.754C133.034 379.746 132.34 378.686 131.33 377.862C129.967 376.75 128.866 376.641 127.64 377.952C126.969 378.669 126.335 379.648 126.042 380.587C125.897 381.05 126.003 381.421 126.003 381.886C126.003 382.504 125.888 381.592 126.003 381.286" stroke="#00ADB5" stroke-opacity="0.5" stroke-linecap="round" stroke-linejoin="round"/>
<path d="M134.874 384.287C135.988 385.277 136.933 386.172 138.904 386.22C140.284 386.254 141.663 385.909 142.956 385.539C143.881 385.273 146.849 383.868 144.445 383.754" stroke="#00ADB5" stroke-opacity="0.5" stroke-linecap="round" stroke-linejoin="round"/>
<path d="M146.365 375.655C144.895 377.279 142.865 380.462 143.627 382.901C143.895 383.759 144.284 384.337 144.788 385.069C145.802 386.544 147.374 386.085 148.799 385.699C149.832 385.42 151.06 384.54 151.456 383.54C152.002 382.159 150.864 380 149.913 379.049C148.852 377.987 148.011 376.696 146.828 375.767C146.513 375.519 146.274 375.251 145.864 375.342C145.402 375.445 145.212 375.887 145.825 375.887" stroke="#00ADB5" stroke-opacity="0.5" stroke-linecap="round" stroke-linejoin="round"/>
<path d="M250.339 153.101C249.029 153.295 247.488 153.397 247.176 154.956C246.935 156.165 247.026 157.409 247.751 158.457C248.988 160.249 250.828 161.295 253.043 160.926C255.023 160.595 257.743 158.801 257.743 156.572C257.743 155.315 256.838 154.05 256.089 153.11C255.287 152.101 254.593 151.042 253.583 150.217C252.22 149.105 251.119 148.996 249.893 150.307C249.223 151.025 248.588 152.003 248.295 152.942C248.15 153.405 248.256 153.777 248.256 154.241C248.256 154.86 248.141 153.947 248.256 153.641" stroke="#00ADB5" stroke-opacity="0.5" stroke-linecap="round" stroke-linejoin="round"/>
<path d="M257.127 156.642C258.241 157.632 259.186 158.527 261.157 158.575C262.537 158.609 263.916 158.265 265.209 157.894C266.134 157.629 269.102 156.223 266.698 156.109" stroke="#00ADB5" stroke-opacity="0.5" stroke-linecap="round" stroke-linejoin="round"/>
<path d="M268.618 148.01C267.148 149.634 265.118 152.817 265.88 155.256C266.148 156.114 266.538 156.692 267.041 157.425C268.055 158.9 269.627 158.44 271.052 158.055C272.086 157.775 273.313 156.896 273.709 155.895C274.255 154.514 273.117 152.355 272.166 151.404C271.105 150.343 270.264 149.051 269.081 148.122C268.766 147.875 268.527 147.606 268.117 147.698C267.655 147.8 267.465 148.242 268.078 148.242" stroke="#00ADB5" stroke-opacity="0.5" stroke-linecap="round" stroke-linejoin="round"/>
<path d="M137.53 105.886C145.082 102.288 151.186 96.3398 157.324 90.7306C162.148 86.322 167.207 81.9657 172.531 78.1612C173.582 77.4105 175.066 75.8998 176.486 76.5437C177.893 77.1817 178.705 78.9189 179.817 79.9476C182.556 82.4809 185.019 85.5767 187.271 88.5537C189.75 91.8309 186.032 93.6447 183.734 95.7904C181.124 98.2276 178.631 100.741 175.779 102.892C173.069 104.936 170.891 107.754 168.41 110.068C164.629 113.595 161.092 117.35 157.321 120.88C155.077 122.982 152.501 124.698 150.34 126.874C149.583 127.637 148.882 128.645 148.009 129.28C147.307 129.79 146.336 127.828 146.087 127.459C144.104 124.527 141.034 122.522 139.093 119.455C137.873 117.527 137.051 115.148 135.591 113.387C134.893 112.546 133.15 110.655 133.914 109.427C134.694 108.173 136.908 107.572 138.116 106.675C139.057 105.975 140.202 105.111 141.274 104.624C142.052 104.27 142.817 103.643 143.514 103.16C145.347 101.89 143.404 102.433 142.164 102.905" stroke="#00ADB5" stroke-opacity="0.5" stroke-linecap="round" stroke-linejoin="round"/>
<path d="M138.685 111.641C143.282 114.487 147.405 118.606 150.994 122.667C151.085 122.77 151.958 123.379 151.825 123.604C151.568 124.039 148.584 122.075 148.299 121.879" stroke="#00ADB5" stroke-opacity="0.5" stroke-linecap="round" stroke-linejoin="round"/>
<path d="M143.242 107.527C146.969 108.594 149.19 110.625 152.199 112.798C153.54 113.765 154.905 114.639 156.108 115.777C156.673 116.311 157.075 117.015 157.597 117.591C158.313 118.381 155.391 116.674 155.047 116.478" stroke="#00ADB5" stroke-opacity="0.5" stroke-linecap="round" stroke-linejoin="round"/>
<path d="M148.656 104.338C151.264 106.692 153.885 109.013 156.575 111.272C157.597 112.13 158.757 112.918 159.64 113.929C161.206 115.723 159.155 113.395 158.458 112.737" stroke="#00ADB5" stroke-opacity="0.5" stroke-linecap="round" stroke-linejoin="round"/>
<path d="M152.31 102.094C154.245 103.27 156.265 104.41 157.903 105.996C158.575 106.646 159.133 107.413 159.851 108.016C160.736 108.758 161.511 109.624 162.402 110.346C163.671 111.373 163.861 111.673 162.354 110.384" stroke="#00ADB5" stroke-opacity="0.5" stroke-linecap="round" stroke-linejoin="round"/>
<path d="M157.022 98.6402C159.156 100.31 161.132 102.007 162.916 104.044C163.707 104.947 164.343 105.988 165.347 106.68C166.266 107.315 166.91 107.498 165.834 106.467" stroke="#00ADB5" stroke-opacity="0.5" stroke-linecap="round" stroke-linejoin="round"/>
<path d="M161.556 95.1204C163.435 96.5324 165.288 97.8214 166.789 99.6401C167.476 100.473 168.019 101.43 168.786 102.197C170.344 103.757 169.273 102.971 168.145 101.912" stroke="#00ADB5" stroke-opacity="0.5" stroke-linecap="round" stroke-linejoin="round"/>
<path d="M165.74 91.4681C168.378 93.992 170.588 96.9481 173.231 99.4409C175.01 101.119 172.461 98.4297 172.044 97.9519" stroke="#00ADB5" stroke-opacity="0.5" stroke-linecap="round" stroke-linejoin="round"/>
<path d="M170.846 88.5648C173.067 87.6581 175.371 86.5774 176.564 84.3617C176.893 83.7508 177.317 83.2189 177.452 82.5304C177.638 81.5849 177.602 81.9905 176.901 82.6024" stroke="#00ADB5" stroke-opacity="0.5" stroke-linecap="round" stroke-linejoin="round"/>
<path d="M174.422 91.6142C176.182 89.9805 178.15 88.196 179.44 86.1222C180.084 85.0878 181.309 83.8253 179.596 85.3214" stroke="#00ADB5" stroke-opacity="0.5" stroke-linecap="round" stroke-linejoin="round"/>
<path d="M180.066 95.0384C181.67 93.2953 183.098 91.6741 184.574 89.8513C185.051 89.2624 186.505 88.4982 184.756 88.9655" stroke="#00ADB5" stroke-opacity="0.5" stroke-linecap="round" stroke-linejoin="round"/>
<path d="M178.789 94.1577C180.468 92.7189 182.367 91.0437 183.697 89.2269C184.052 88.7422 184.325 88.2024 184.65 87.6988C185.195 86.8553 185.229 87.1401 184.404 87.2267" stroke="#00ADB5" stroke-opacity="0.5" stroke-linecap="round" stroke-linejoin="round"/>
<path d="M143.216 114.548C151.581 111.15 153.645 101.928 160.462 96.7126C161.291 96.0781 161.964 95.3729 162.931 94.9337C163.578 94.6401 164.377 94.4995 164.965 94.1237C165.324 93.8945 168.305 91.6169 166.234 92.5579" stroke="#00ADB5" stroke-opacity="0.5" stroke-linecap="round" stroke-linejoin="round"/>
<path d="M139.322 112.082C140.261 110.94 141.094 109.963 142.285 109.138C142.481 109.003 142.782 108.98 142.943 108.799C143.261 108.441 143.743 107.917 143.866 107.455C144.349 105.635 146.709 105.971 147.962 105.059C149.154 104.191 150.302 103.312 151.517 102.455C152.856 101.51 153.476 100.681 154.551 99.4703C155.539 98.3581 156.498 97.2332 157.544 96.1803C158.399 95.319 159.743 94.5356 160.288 93.4332C160.902 92.1891 162.473 90.7651 163.886 90.9957C164.372 91.0749 167.939 93.1422 165.608 91.8204" stroke="#00ADB5" stroke-opacity="0.5" stroke-linecap="round" stroke-linejoin="round"/>
<path d="M146.893 116.53C153.178 113.214 156.667 105.985 160.913 100.524C162.476 98.5131 164.711 97.1765 166.348 95.2001C167.048 94.3548 168.595 93.4568 166.796 93.4714" stroke="#00ADB5" stroke-opacity="0.5" stroke-linecap="round" stroke-linejoin="round"/>
<path d="M149.137 118.578C154.833 115.076 158.48 108.561 162.624 103.398C164.509 101.05 166.328 98.6517 168.237 96.322C169.107 95.2599 170.624 94.5964 168.677 95.6839" stroke="#00ADB5" stroke-opacity="0.5" stroke-linecap="round" stroke-linejoin="round"/>
<path d="M151.38 122.232C154.935 118.766 157.804 115.026 160.712 111.017C162.481 108.579 164.009 105.839 166.085 103.644C167.277 102.384 168.194 100.909 169.276 99.5742C169.711 99.0363 170.012 98.4096 170.46 97.8762C171.469 96.6747 170.765 97.7617 170.063 98.4135" stroke="#00ADB5" stroke-opacity="0.5" stroke-linecap="round" stroke-linejoin="round"/>
<path d="M152.216 123.751C153.984 122.018 156.576 120.351 157.756 118.103C158.184 117.287 159.244 115.317 159.988 114.818C160.971 114.158 161.439 112.754 162.154 111.87C162.899 110.951 163.628 110.054 164.437 109.179C165.195 108.359 165.437 106.919 166.376 106.213C167.421 105.427 167.93 104.21 168.763 103.271C169.485 102.458 170.859 101.616 171.754 100.996C172.25 100.652 172.597 100.183 173.16 99.9276C174.3 99.4097 173.56 99.6748 172.516 99.6358" stroke="#00ADB5" stroke-opacity="0.5" stroke-linecap="round" stroke-linejoin="round"/>
<path d="M170.704 89.2139C172.167 89.5996 173.971 89.8645 175.305 90.6619C176.165 91.1765 176.914 91.6931 175.347 90.7561" stroke="#00ADB5" stroke-opacity="0.5" stroke-linecap="round" stroke-linejoin="round"/>
<path d="M172.223 86.7715C174.31 87.3167 175.785 87.928 177.487 89.0377C178.6 89.7632 178.421 89.5623 177.262 88.864" stroke="#00ADB5" stroke-opacity="0.5" stroke-linecap="round" stroke-linejoin="round"/>
<path d="M174.755 84.3074C176.548 85.3154 178.286 86.4609 180.14 87.3385C181.23 87.8546 180.658 87.8185 179.816 87.4123" stroke="#00ADB5" stroke-opacity="0.5" stroke-linecap="round" stroke-linejoin="round"/>
<path d="M176.198 82.338C178.082 83.196 179.819 84.0506 181.555 85.13C182.346 85.6222 181.628 85.6541 181.028 85.2557" stroke="#00ADB5" stroke-opacity="0.5" stroke-linecap="round" stroke-linejoin="round"/>
<path d="M171.628 88.3559C173.052 86.6631 174.48 85.0591 175.776 83.324C176.145 82.831 178.388 80.0863 177.418 81.4911" stroke="#00ADB5" stroke-opacity="0.5" stroke-linecap="round" stroke-linejoin="round"/>
<path d="M173.124 91.3276C174.976 89.6898 177.646 87.5061 178.244 85.0592C178.42 84.3391 178.802 83.6194 179.361 83.1241C179.928 82.6217 180.521 82.3948 179.674 83.2415" stroke="#00ADB5" stroke-opacity="0.5" stroke-linecap="round" stroke-linejoin="round"/>
<path d="M171.637 91.2722C173.613 89.1445 175.301 87.7145 176.417 85.0935C176.707 84.4128 177.039 83.8486 177.515 83.313C178.019 82.7454 178.743 82.2138 177.769 83.2299" stroke="#00ADB5" stroke-opacity="0.5" stroke-linecap="round" stroke-linejoin="round"/>
<path d="M178.979 92.32C179.888 92.8967 180.8 93.4312 181.746 93.9111C182.136 94.1093 181.653 93.7257 181.487 93.6634" stroke="#00ADB5" stroke-opacity="0.5" stroke-linecap="round" stroke-linejoin="round"/>
<path d="M180.751 89.4705C180.813 89.5227 184.389 92.5868 183.754 91.9034" stroke="#00ADB5" stroke-opacity="0.5" stroke-linecap="round" stroke-linejoin="round"/>
<path d="M182.875 88.3597C183.664 89.1187 186.08 91.3384 185.23 90.6494" stroke="#00ADB5" stroke-opacity="0.5" stroke-linecap="round" stroke-linejoin="round"/>
<path d="M177.921 93.5302C179.228 92.3128 182.095 89.9008 182.797 88.0296C183.074 87.2922 184.342 86.3446 183.15 87.3584" stroke="#00ADB5" stroke-opacity="0.5" stroke-linecap="round" stroke-linejoin="round"/>
<path d="M178.085 93.8933C178.21 93.9927 180.71 96.6858 181.243 95.3799C181.515 94.7134 181.87 93.8452 182.537 93.4778C183.709 92.8332 183.925 90.8032 185.124 90.2586C186.484 89.6409 186.357 88.6049 185.09 88.2375C184.593 88.0931 184.985 87.1123 184.468 87.1894C183.995 87.2599 183.745 87.0853 183.216 87.1823" stroke="#00ADB5" stroke-opacity="0.5" stroke-linecap="round" stroke-linejoin="round"/>
<path d="M170.538 88.8508C171.395 90.4895 171.557 91.0837 172.941 91.7671C173.315 91.9516 173.802 91.6958 174.086 91.8397C174.646 92.1244 175.755 92.1303 176.173 91.6135C177.015 90.5744 177.325 89.9037 178.615 89.2716C179.428 88.8729 180.083 87.932 180.459 87.1521C180.873 86.2949 181.618 85.6489 182.055 84.7885C182.241 84.4221 180.74 83.4784 180.726 82.8445C180.722 82.6648 178.939 82.6594 178.643 82.5088C178.283 82.3263 178.119 82.0691 177.946 81.6893C177.694 81.1346 177.247 81.8234 176.57 81.876" stroke="#00ADB5" stroke-opacity="0.5" stroke-linecap="round" stroke-linejoin="round"/>
<path d="M140.842 109.639C142.868 110.409 144.634 111.402 146.458 112.501C148.041 113.454 149.83 113.963 151.404 114.887C152.524 115.545 153.686 117.048 154.513 118.035C154.788 118.364 154.994 118.671 155.189 119.042C155.637 119.892 155.171 117.837 155.123 117.611" stroke="#00ADB5" stroke-opacity="0.5" stroke-linecap="round" stroke-linejoin="round"/>
<path d="M160.401 94.1846C160.963 94.7743 163.237 98.0302 162.788 95.5829" stroke="#00ADB5" stroke-opacity="0.5" stroke-linecap="round" stroke-linejoin="round"/>
<path d="M165.082 320.191C165.323 321.431 165.935 322.236 166.41 323.364C166.734 324.132 167.338 324.727 167.675 325.481C168.039 326.295 168.583 327.251 169.09 327.975C169.525 328.596 169.81 329.185 170.358 329.733C171.328 330.703 172.061 331.858 173.035 332.814C174.451 334.203 176.848 336.015 178.911 335.9C179.574 335.863 180.307 336.069 180.957 335.971C181.515 335.887 182.192 335.858 182.75 335.955C183.668 336.113 184.664 335.954 185.542 336.144C186.016 336.246 186.532 336.096 187.012 336.185C187.634 336.3 188.363 336.329 188.997 336.329C191.073 336.329 193.143 336.317 195.213 336.054C196.334 335.912 197.445 336.283 198.556 336.086C199.598 335.901 200.986 336.092 201.966 335.663C203.17 335.136 204.369 334.308 205.299 333.377C205.766 332.91 206.12 332.353 206.436 331.776C206.851 331.018 207.082 330.201 207.499 329.445C208.953 326.809 209.782 323.874 210.96 321.126C211.238 320.478 211.694 319.954 212.026 319.355C212.111 319.204 212.149 319.011 212.286 318.865C212.799 318.322 211.816 318.264 211.364 318.059" stroke="#00ADB5" stroke-opacity="0.5" stroke-linecap="round" stroke-linejoin="round"/>
<path d="M164.851 320.306C165.881 318.959 166.755 317.969 168.251 317.207C169.505 316.569 170.805 315.811 171.937 314.978C173.677 313.699 176.072 313.128 178.191 312.743C180.497 312.324 182.766 311.834 185.113 311.834C185.839 311.834 186.558 312.053 187.284 312.064C188.154 312.079 189.025 312.106 189.891 312.18C191.219 312.293 192.582 312.266 193.913 312.295C195.768 312.335 197.545 313.296 199.401 313.445C200.505 313.533 201.792 313.698 202.865 313.998C203.267 314.111 203.726 314.188 204.101 314.37C204.568 314.597 204.896 314.98 205.325 315.247C206.709 316.109 208.257 316.514 209.753 317.168C210.211 317.369 211 317.713 211.508 317.713C212.207 317.713 212.17 319.003 212.17 317.713" stroke="#00ADB5" stroke-opacity="0.5" stroke-linecap="round" stroke-linejoin="round"/>
<path d="M212.055 318.52C211.201 319.665 210.591 320.102 209.379 320.771C208.426 321.296 207.372 321.668 206.305 321.863C205.309 322.045 204.221 322.189 203.211 322.269C202.371 322.337 201.514 322.239 200.656 322.337C198.716 322.558 196.758 323.058 194.886 323.605C192.214 324.385 189.634 324.467 186.875 324.616C183.862 324.78 180.842 324.55 177.89 323.938C176.894 323.731 175.842 323.916 174.829 323.877C173.713 323.833 172.619 323.525 171.569 323.163C171.127 323.01 170.72 322.775 170.256 322.67C169.713 322.546 169.162 322.595 168.623 322.465C167.872 322.283 166.996 321.956 166.362 321.517C166.087 321.326 165.673 321.168 165.456 320.88C165.393 320.795 165.312 320.608 165.312 320.508C165.312 320.27 165.117 320.33 165.427 320.537" stroke="#00ADB5" stroke-opacity="0.5" stroke-linecap="round" stroke-linejoin="round"/>
<path d="M187.271 330.22C187.972 330.142 188.899 330.155 188.609 329.253C188.516 328.963 188.281 328.932 188.033 328.849C187.291 328.602 185.964 329.081 185.686 329.855C185.186 331.244 186.132 332.744 187.62 332.263C188.024 332.132 188.742 331.846 189 331.478C189.309 331.037 188.845 331.167 188.539 330.739" stroke="#00ADB5" stroke-opacity="0.5" stroke-linecap="round" stroke-linejoin="round"/>
<path d="M185.14 328.721C186.258 328.273 186.83 328.087 187.961 328.087C188.416 328.087 188.644 328.055 189.046 328.318C189.71 328.752 189.938 329.577 189.869 330.303C189.811 330.917 189.608 331.757 189.392 332.34C189.231 332.773 188.834 332.848 188.428 332.929C188.057 333.003 187.247 332.795 186.955 332.958C186.645 333.13 185.696 333.188 185.457 332.868C185.236 332.574 184.999 332.447 184.839 332.09C184.685 331.749 184.616 331.424 184.493 331.084C184.323 330.619 184.019 329.347 184.65 329.067C185.019 328.903 185.177 328.805 185.601 328.805C185.721 328.805 185.824 328.894 185.946 328.894C186.124 328.894 185.605 328.779 185.428 328.779" stroke="#00ADB5" stroke-opacity="0.5" stroke-linecap="round" stroke-linejoin="round"/>
<path d="M187.155 324.11C187.968 323.059 188.71 321.975 189.55 320.953C190.002 320.404 190.563 319.932 191.049 319.407C192.442 317.902 193.861 316.256 194.923 314.498C195.97 312.766 197.398 310.88 198.948 309.58C199.768 308.893 200.5 308.133 201.212 307.341C201.904 306.573 202.222 305.499 202.877 304.687C203.385 304.058 206.705 299.78 207.283 302.382C207.51 303.404 206.513 304.118 205.887 304.745C205.177 305.455 204.463 306.358 203.857 307.165C203.273 307.944 202.564 308.628 201.997 309.413C201.225 310.481 199.822 311.245 199.259 312.455C198.795 313.453 198.025 314.255 197.447 315.18C196.646 316.462 195.707 317.532 194.763 318.705C194.016 319.635 192.844 320.399 192.314 321.459C191.871 322.345 191.086 322.718 190.37 323.291C190.058 323.54 189.679 323.679 189.403 324.024C189.311 324.139 189.147 324.272 189.061 324.143C189.011 324.069 188.824 324.234 188.859 324.315C188.982 324.602 188.683 323.626 188.654 323.534" stroke="#00ADB5" stroke-opacity="0.5" stroke-linecap="round" stroke-linejoin="round"/>
<path d="M186.696 324.399C186.917 324.511 188.31 325.568 188.31 324.716C188.31 324.458 188.641 324.027 188.758 323.765C188.846 323.566 188.051 323.756 187.932 323.909C187.777 324.108 187.477 324.269 187.964 324.283C188.338 324.294 188.631 324.133 188.915 323.912C188.997 323.848 190.096 324.022 189.117 323.995C188.596 323.981 188.09 323.995 187.589 323.995C187.157 323.995 188.033 323.88 188.159 323.88C188.26 323.88 187.429 324.374 187.285 324.213C187.25 324.174 187.19 324.065 187.33 323.995" stroke="#00ADB5" stroke-opacity="0.5" stroke-linecap="round" stroke-linejoin="round"/>
<path d="M168.367 320.134C168.432 320.168 170.491 321.246 170.499 321.113C170.509 320.952 170.394 320.812 170.474 320.652C170.822 319.955 171.273 320.289 171.873 320.559C172.341 320.77 171.631 318.438 173.042 319.423C173.771 319.931 173.965 319.85 173.845 318.997C173.755 318.351 173.978 318.349 174.534 318.417C174.912 318.464 175.183 318.546 175.398 318.187C175.66 317.75 175.955 317.502 176.49 317.69C176.934 317.847 177.328 318.285 177.633 317.726C177.768 317.479 177.654 316.742 178.078 316.883C178.344 316.972 178.694 317.319 178.997 317.21C179.227 317.127 179.403 316.416 179.663 316.528C179.935 316.645 180.211 317.16 180.554 317.037C180.719 316.978 181.025 316.438 180.701 316.502" stroke="#00ADB5" stroke-opacity="0.5" stroke-linecap="round" stroke-linejoin="round"/>
<path d="M176.493 319.096C177.207 319.677 179.883 322.782 180.668 320.463C180.809 320.048 180.831 319.225 181.225 319.906C181.55 320.467 182.039 320.857 182.57 320.326C182.922 319.974 183.079 319.376 183.582 319.192C184.044 319.023 184.383 319.891 184.767 319.384C185.076 318.975 184.926 318.272 184.472 318.027C184.323 317.946 184.281 318.224 184.216 318.289" stroke="#00ADB5" stroke-opacity="0.5" stroke-linecap="round" stroke-linejoin="round"/>
<path d="M182.66 315.523C183.774 315.331 185.176 314.942 186.023 315.939C186.415 316.401 186.378 316.991 186.119 317.514C185.929 317.897 185.419 318.088 185.094 317.713C184.827 317.405 185.377 316.898 185.574 316.711C186.249 316.067 187.249 317.097 187.46 317.796C187.637 318.38 186.041 319.732 186.234 319.154" stroke="#00ADB5" stroke-opacity="0.5" stroke-linecap="round" stroke-linejoin="round"/>
<path d="M201.392 317.482C201.723 317.369 203.85 316.684 203.442 317.815C203.232 318.396 202.431 318.707 201.905 318.898C201.656 318.988 201.014 318.972 201.431 318.609C201.792 318.295 202.301 318.148 202.776 318.187C204.625 318.337 202.039 320.462 201.508 320.755C200.476 321.324 199.072 321.923 197.992 321.229" stroke="#00ADB5" stroke-opacity="0.5" stroke-linecap="round" stroke-linejoin="round"/>
<path d="M190.037 314.082C190.476 314.796 191.004 315.513 191.379 316.262C191.508 316.52 190.95 315.86 190.819 315.603C190.784 315.535 190.544 314.778 190.521 314.783C190.24 314.845 190.174 316.131 190.098 316.368C189.739 317.49 188.852 317.06 187.982 316.976C186.928 316.875 186.457 317.914 185.875 318.577C185.409 319.108 185.226 319.271 185.542 319.903C185.797 320.414 185.904 320.91 185.542 321.373C185.259 321.734 184.905 321.962 184.565 322.26C184.253 322.533 184.7 322.488 184.642 322.324C184.482 321.876 183.495 321.969 183.172 321.991C181.973 322.07 180.751 321.769 179.573 321.843C178.947 321.883 178.358 322.232 177.738 322.324C177.108 322.417 177.941 322.964 178.177 323.121C178.583 323.392 177.382 322.545 176.941 322.337C176.201 321.986 175.518 321.715 175.135 320.941C174.751 320.164 174.413 319.634 173.765 319.064C173.541 318.868 173.514 318.569 173.624 318.302C173.877 317.685 174.438 317.182 174.994 316.848" stroke="#00ADB5" stroke-opacity="0.5" stroke-linecap="round" stroke-linejoin="round"/>
<path d="M189.923 316.387C188.479 315.379 187.287 314.945 185.588 314.716C184.991 314.635 184.354 314.222 183.965 313.765C183.619 313.359 183.815 313.466 183.407 314.018C182.851 314.771 182.437 314.095 181.726 314.293C180.636 314.597 179.701 315.61 178.595 315.798C178.292 315.849 178.365 315.343 177.986 315.561C177.349 315.929 176.861 316.277 176.116 316.394C175.666 316.464 174.812 316.761 174.88 317.309" stroke="#00ADB5" stroke-opacity="0.5" stroke-linecap="round" stroke-linejoin="round"/>
<path d="M199.721 316.387C201.116 316.522 202.528 316.504 203.916 316.653C204.405 316.705 204.655 316.903 204.998 317.223C205.309 317.512 205.793 318.191 206.238 318.228C206.879 318.282 207.211 318.015 207.81 317.828C208.17 317.715 209.321 317.828 208.943 317.828" stroke="#00ADB5" stroke-opacity="0.5" stroke-linecap="round" stroke-linejoin="round"/>
<path d="M198.684 317.943C197.185 318.931 196.384 320.429 194.78 321.328C194.463 321.506 193.49 321.851 193.563 322.436C193.616 322.859 196.863 321.533 197.358 321.286" stroke="#00ADB5" stroke-opacity="0.5" stroke-linecap="round" stroke-linejoin="round"/>
<path d="M204.275 319.327C205.09 319.933 205.792 320.8 206.811 320.492C207.087 320.409 207.663 320.376 207.848 320.191" stroke="#00ADB5" stroke-opacity="0.5" stroke-linecap="round" stroke-linejoin="round"/>
<path d="M405.697 294.2C401.488 295.008 398.428 296.223 395.76 299.653C394.07 301.827 394.44 305.248 395.548 307.553C397.374 311.349 401.861 313.493 405.909 313.68C410.625 313.896 417.181 312.511 418.148 306.886C418.666 303.871 415.786 301.02 414.437 298.547C413.34 296.536 411.687 293.824 409.378 292.973C408.435 292.626 406.247 292.747 405.561 293.685C405.254 294.105 404.86 294.547 404.637 295.018C404.456 295.4 404.65 294.047 404.606 293.655" stroke="#00ADB5" stroke-opacity="0.5" stroke-linecap="round" stroke-linejoin="round"/>
<path d="M407.469 304.561C406.333 305.145 404.49 305.532 405.485 306.81C405.711 307.102 406.035 307.086 406.31 306.81C406.546 306.575 407.733 305.338 406.856 305.046C405.067 304.449 405.721 308.019 407 306.439C407.686 305.591 406.725 304.756 405.864 305.273C404.837 305.889 405.649 306.964 406.454 306.03C407.061 305.326 406.577 304.787 405.917 305.447C405.325 306.038 405.926 306.981 406.507 306.182C407.104 305.362 406.424 304.667 405.704 305.386C404.872 306.219 405.773 306.132 406.363 305.583C406.959 305.031 405.903 305.112 405.561 305.546C404.765 306.552 406.011 306.409 406.212 305.546C406.507 304.278 405.199 307.191 405.833 304.97" stroke="#00ADB5" stroke-opacity="0.5" stroke-linecap="round" stroke-linejoin="round"/>
<path d="M402.834 300.335C404.045 301.933 405.286 303.448 406.302 305.046C406.584 305.488 406.359 305.933 406.514 305.924C407.088 305.892 407.676 305.788 408.287 305.788C409.685 305.788 410.786 305.106 412.134 305.106C413.766 305.106 416.164 304.682 413.467 303.334" stroke="#00ADB5" stroke-opacity="0.5" stroke-linecap="round" stroke-linejoin="round"/>
<path d="M401.471 294.064C401.216 292.775 399.972 289.651 402.289 289.982C403.12 290.101 403.678 290.961 404.167 291.504C405.44 292.918 405.304 294.624 403.243 294.746C402.704 294.777 401.944 295.848 401.335 295.086C400.645 294.225 401.349 294.282 401.471 293.246C401.551 292.568 401.108 292.624 400.918 291.958C400.772 291.448 401.075 290.889 401.198 290.519" stroke="#00ADB5" stroke-opacity="0.5" stroke-linecap="round" stroke-linejoin="round"/>
<path d="M402.289 292.564C402.277 292.89 401.775 295.824 402.842 295.344C403.199 295.183 403.508 294.949 403.652 294.579C403.792 294.22 403.643 294.006 403.485 293.655C403.079 292.751 401.899 291.347 402.259 293.382C402.485 294.666 403.919 294.366 404.031 293.14C404.116 292.203 402.935 290.949 402.183 292.019C401.651 292.776 402.598 294.446 403.152 293.276C403.433 292.682 402.761 291.173 402.046 291.913C401.314 292.672 402.415 294.272 403.137 293.625C403.851 292.984 403.366 291.031 402.592 291.777C401.884 292.458 402.946 293.815 403.485 292.776C404.087 291.618 402.762 290.745 402.349 291.958C401.981 293.042 403.129 294.208 403.395 292.731C403.597 291.607 401.531 291.009 401.531 292.352C401.531 293.59 402.637 293.463 402.637 292.337C402.637 291.164 401.455 291.428 401.948 292.413C402.441 293.398 403.101 291.65 402.546 291.095C401.899 290.448 401.042 291.449 401.804 292.072C402.324 292.497 403.034 290.733 402.16 290.406C401.405 290.123 401.823 291.663 402.084 291.315C402.49 290.774 401.868 290.412 402.296 290.519C402.674 290.614 403.59 290.815 403.849 291.148C404.053 291.41 404.879 292.868 404.879 293.246C404.879 294.404 403.108 295.028 402.092 294.738C401.363 294.53 401.147 295.045 401.403 294.874C402.023 294.461 402.152 293.382 402.152 293.791" stroke="#00ADB5" stroke-opacity="0.5" stroke-linecap="round" stroke-linejoin="round"/>
<path d="M402.153 313.558C401.451 315.048 400.828 316.544 400.002 317.951C399.816 318.268 399.467 318.915 399.426 319.284C399.316 320.279 400.314 316.912 400.517 316.421" stroke="#00ADB5" stroke-opacity="0.5" stroke-linecap="round" stroke-linejoin="round"/>
<path d="M415.922 310.696C417.648 312.876 419.552 314.43 420.897 316.823C421.03 317.058 421.26 317.246 421.443 317.429C422.055 318.041 420.306 316.122 419.739 315.467" stroke="#00ADB5" stroke-opacity="0.5" stroke-linecap="round" stroke-linejoin="round"/>
<path d="M301.568 183.588C302.647 187.662 306.816 202.809 307.813 208.343C310.559 223.58 306.251 202.788 306.24 209.518" stroke="#00ADB5" stroke-opacity="0.5" stroke-width="2" stroke-linecap="round" stroke-linejoin="round"/>
<path d="M294.252 190.175C293.884 183.975 292.493 175.37 301.187 176.256C305.277 176.673 309.782 179.101 312.332 182.348C316.272 187.368 314.193 195.147 309.936 199.142C307.67 201.268 305.472 202.333 302.506 203.137C297.482 204.498 301.447 197.521 302.256 195.608" stroke="#00ADB5" stroke-opacity="0.5" stroke-width="2" stroke-linecap="round" stroke-linejoin="round"/>
<path d="M316.864 197.752C325.502 197.29 333.453 195.59 336.543 204.958C338.339 210.402 340.526 217.017 339.029 222.754C337.676 227.938 334.763 231.179 329.435 228.971C321.823 225.815 321.833 219.874 325.976 213.949C327.502 211.767 333.345 207.399 333.349 204.848" stroke="#00ADB5" stroke-opacity="0.5" stroke-width="2" stroke-linecap="round" stroke-linejoin="round"/>
<path d="M332.433 187.643C332.138 189.916 332.133 205.994 327.782 206.148C326.966 206.177 326.28 206.602 325.568 206.957C322.828 208.321 324.495 207.093 325.517 205.673C327.834 202.458 332.526 203.646 334.875 199.378C337.426 194.743 338.602 192.463 334.944 188.878C332.381 186.365 333.507 182.091 331.489 188.113" stroke="#00ADB5" stroke-opacity="0.5" stroke-width="2" stroke-linecap="round" stroke-linejoin="round"/>
<path d="M345.183 173.052C348.522 180.568 351.573 190.356 356.929 196.899C358.344 198.628 359.138 197.123 359.117 195.776C359.09 194.075 358.609 192.358 358.117 190.747" stroke="#00ADB5" stroke-opacity="0.5" stroke-width="2" stroke-linecap="round" stroke-linejoin="round"/>
<path d="M335.489 192.597C340.786 190.513 353.792 188.404 356.009 181.789" stroke="#00ADB5" stroke-opacity="0.5" stroke-width="2" stroke-linecap="round" stroke-linejoin="round"/>
<path d="M351.78 173.298C374.738 213.457 352.37 185.231 364.04 177.887C371.123 173.429 371.714 194.441 373.677 185.352" stroke="#00ADB5" stroke-opacity="0.5" stroke-width="2" stroke-linecap="round" stroke-linejoin="round"/>
<path d="M372.285 171.917C373.118 174.408 375.916 190.848 381.74 187.093C384.344 185.413 387.378 182.211 387.88 179.064C388.419 175.686 386.309 167.106 381.534 168.03C379.355 168.451 375.712 168.553 374.29 170.624C372.916 172.625 372.049 177.312 373.698 172.39" stroke="#00ADB5" stroke-opacity="0.5" stroke-width="2" stroke-linecap="round" stroke-linejoin="round"/>
<path d="M388.553 167.936C395.064 163.756 402.716 162.384 403.707 172.228C403.831 173.464 403.855 175.02 404.421 176.157C405.078 177.476 403.728 172.933 402.45 172.2" stroke="#00ADB5" stroke-opacity="0.5" stroke-width="2" stroke-linecap="round" stroke-linejoin="round"/>
<path d="M388.075 171.706C388.37 176.852 387.634 183.823 390.038 188.651C390.12 188.815 390.692 190.075 390.404 189.384C389.834 188.019 389.598 187.092 388.524 185.611" stroke="#00ADB5" stroke-opacity="0.5" stroke-width="2" stroke-linecap="round" stroke-linejoin="round"/>
<path d="M223.288 218.291C222.387 226.656 223.959 252.407 209.753 250.805C206.791 250.471 204.101 249.975 202.694 247.185C201.221 244.264 200.002 241.721 199.855 238.402C199.675 234.325 201.298 232.401 204.594 230.562C205.75 229.916 203.266 232.529 203.046 232.782C201.598 234.446 206.513 232.417 208.391 232.001" stroke="#00ADB5" stroke-opacity="0.5" stroke-width="2" stroke-linecap="round" stroke-linejoin="round"/>
<path d="M241.528 222.31C234.342 222.982 224.2 224.345 223.041 233.333C222.412 238.209 229.661 238.802 232.808 240.463C238.214 243.316 242.316 252.621 236.252 256.716C232.035 259.564 228.845 258.051 224.743 258.335C220.577 258.624 223.478 257.088 225.948 256.667" stroke="#00ADB5" stroke-opacity="0.5" stroke-width="2" stroke-linecap="round" stroke-linejoin="round"/>
<path d="M280.463 1.00066C279.887 6.77133 279.537 12.6011 278.825 18.3581C278.757 18.912 278.211 21.0986 278.856 19.3307C279.327 18.0381 279.175 16.6911 279.932 15.4654C280.975 13.7771 285.688 7.3462 287.901 7.9967C292.337 9.30046 287.86 17.5284 286.59 19.886C286.152 20.6992 284.958 22.463 285.576 23.3749C286.4 24.5905 287.924 20.098 287.989 19.9605" stroke="#00ADB5" stroke-opacity="0.5" stroke-width="2" stroke-linecap="round" stroke-linejoin="round"/>
<path d="M297.983 4.7899C297.457 7.36812 293.041 20.0938 297.296 22.2017C298.497 22.7965 301.153 21.6737 301.978 20.7057C302.838 19.6977 302.388 18.1542 302.295 16.9843" stroke="#00ADB5" stroke-opacity="0.5" stroke-width="2" stroke-linecap="round" stroke-linejoin="round"/>
<path d="M289.228 5.06795C293.897 6.45618 298.697 7.38047 303.336 8.81268C304.431 9.15078 304.841 9.30395 305.43 10.2806C306.347 11.7998 303.912 10.4121 303.491 9.95189" stroke="#00ADB5" stroke-opacity="0.5" stroke-width="2" stroke-linecap="round" stroke-linejoin="round"/>
<path d="M310.339 14.0881C309.267 17.3228 308.26 20.5982 307.037 23.7814C306.794 24.4143 306.757 24.6457 306.626 24.1623C306.5 23.6967 306.377 23.4223 306.584 22.9305C307.683 20.317 310.248 16.5608 312.667 15.101C315.279 13.5246 313.854 18.8197 313.503 19.8916C313.109 21.0954 312.047 24.3948 313.254 21.2022C313.972 19.3022 315.621 14.58 318.401 15.2673C320.084 15.6835 319.695 17.9594 319.398 19.1628C318.849 21.3821 318.304 23.5864 317.753 25.813C316.949 29.0667 317.383 27.3096 317.971 24.932" stroke="#00ADB5" stroke-opacity="0.5" stroke-width="2" stroke-linecap="round" stroke-linejoin="round"/>
<path d="M331.089 7.00552C329.412 13.0372 327.355 19.0516 325.91 25.1459C325.74 25.8607 325.37 28.5072 326.508 28.8224C327.59 29.1219 331.861 26.5556 330.817 25.6659" stroke="#00ADB5" stroke-opacity="0.5" stroke-width="2" stroke-linecap="round" stroke-linejoin="round"/>
<path d="M40.7735 253.038C36.8079 260.572 32.855 268.112 28.8786 275.641C27.7453 277.786 25.5083 284.351 25.2313 281.94C24.8558 278.671 26.853 274.095 27.7005 271.032C28.8965 266.709 31.3319 258.072 37.4004 258.104C41.9812 258.128 47.131 264.846 47.8414 269.037C48.343 271.996 49.8015 268.654 51.7811 267.761" stroke="#00ADB5" stroke-opacity="0.5" stroke-width="2" stroke-linecap="round" stroke-linejoin="round"/>
<path d="M53.0656 277.174C55.7305 283.371 59.6589 293.849 67.7485 288.085C71.4656 285.436 69.6184 280.903 65.949 279.464C56.9563 275.936 45.625 285.788 43.3823 293.886C41.1401 301.982 49.9914 304.464 56.0803 305.264C59.4495 305.707 58.6939 302.827 61.5929 301.824" stroke="#00ADB5" stroke-opacity="0.5" stroke-width="2" stroke-linecap="round" stroke-linejoin="round"/>
<path d="M75.4624 298.603C68.4767 295.686 59.2219 293.085 55.2851 302.013C53.3876 306.316 61.8798 306.82 64.3986 306.702C69.2094 306.476 79.9218 295.339 76.3126 298.528C73.1455 301.326 69.9401 304.629 68.6379 308.762C67.7968 311.431 68.7628 317.329 71.8572 313.256" stroke="#00ADB5" stroke-opacity="0.5" stroke-width="2" stroke-linecap="round" stroke-linejoin="round"/>
<path d="M102.628 304.188C92.4891 305.161 80.4727 305.67 76.8755 317.062C75.1072 322.662 79.256 326.556 84.255 328.199C87.7484 329.347 91.3094 326.854 93.4288 324.324" stroke="#00ADB5" stroke-opacity="0.5" stroke-width="2" stroke-linecap="round" stroke-linejoin="round"/>
<path d="M111.837 305.733C111.281 306.409 86.3054 333.631 98.2106 333.841C101.507 333.9 104.89 331.982 107.16 329.825" stroke="#00ADB5" stroke-opacity="0.5" stroke-width="2" stroke-linecap="round" stroke-linejoin="round"/>
<path d="M90.6814 310.686C95.4767 313.994 100.205 317.495 105.465 320.051C106.831 320.715 109.107 321.032 110.048 322.408C110.576 323.182 109.745 321.344 109.653 321.077" stroke="#00ADB5" stroke-opacity="0.5" stroke-width="2" stroke-linecap="round" stroke-linejoin="round"/>
<path d="M37.1926 92.7374C41.2169 99.6197 53.9966 119.698 48.8084 113.645C45.4922 109.775 42.9732 104.64 40.8706 100.063C38.6641 95.2602 36.5923 86.6894 45.0005 87.1244C52.217 87.4978 55.098 94.8673 56.3675 100.908C56.9275 103.573 57.0704 105.643 58.2657 108.067C59.488 110.545 59.5558 100.997 60.0203 98.5191" stroke="#00ADB5" stroke-opacity="0.5" stroke-width="2" stroke-linecap="round" stroke-linejoin="round"/>
<path d="M63.1926 78.7408C63.4171 79.782 66.8957 103.581 71.9447 99.0038C74.0705 97.0765 74.5377 92.3262 74.8107 89.7239C75.6638 81.5898 72.2277 80.5852 66.5174 78.8638C63.7932 78.0426 63.235 78.0798 62.4869 80.884C60.9507 86.6428 63.3722 85.0247 66.475 81.8225" stroke="#00ADB5" stroke-opacity="0.5" stroke-width="2" stroke-linecap="round" stroke-linejoin="round"/>
<path d="M85.1474 72.0272C82.342 76.7547 78.7649 82.3159 80.7383 88.1067C81.5569 90.5087 83.4611 89.8741 84.7947 88.5218C86.8992 86.3879 87.9964 82.8805 87.8794 79.9501C87.655 74.3323 84.136 69.5251 80.4436 65.5336C79.9317 64.9802 75.2683 61.1359 76.1815 64.4366C77.8218 70.3652 82.3869 76.0677 85.5681 81.2205C90.8111 89.713 92.419 86.415 94.7743 78.4432" stroke="#00ADB5" stroke-opacity="0.5" stroke-width="2" stroke-linecap="round" stroke-linejoin="round"/>
<path d="M95.272 73.497C97.013 75.1204 110.751 84.9335 111.177 76.2293C111.216 75.4395 110.21 75.1931 109.878 74.5201C109.022 72.786 107.606 71.6422 106.835 70.7327" stroke="#00ADB5" stroke-opacity="0.5" stroke-width="2" stroke-linecap="round" stroke-linejoin="round"/>
<path d="M96.4181 79.3949C90.9784 72.2519 83.3798 64.8252 91.1693 57.7634C94.4514 54.7879 101.261 57.1407 101.083 62.1123C101 64.4278 100.511 70.1535 97.1857 70.7581C95.4273 71.0778 94.617 69.9263 96.2434 68.3177" stroke="#00ADB5" stroke-opacity="0.5" stroke-width="2" stroke-linecap="round" stroke-linejoin="round"/>
<path d="M108.835 49.7695C112.351 52.0073 137.412 66.8169 124.285 73.2901C122.24 74.299 120.44 71.9477 119.352 70.435C116.901 67.0247 124.042 62.1868 124.34 58.5745" stroke="#00ADB5" stroke-opacity="0.5" stroke-width="2" stroke-linecap="round" stroke-linejoin="round"/>
<path d="M129.405 37.8637C127.359 39.5354 115.617 49.9186 124.85 51.9262C129.95 53.0351 134.77 47.9532 138.646 45.4166C144.89 41.3302 146.208 49.1935 144.492 53.6316C143.442 56.3497 134.67 65.2444 137.07 58.1731" stroke="#00ADB5" stroke-opacity="0.5" stroke-width="2" stroke-linecap="round" stroke-linejoin="round"/>
<path d="M198.703 424.331C190.892 428.262 180.656 435.43 189.101 444.941C193.152 449.503 200.629 447.634 205.963 447.107C207.462 446.959 211.597 448.401 210.472 447.4C208.037 445.236 206.284 445.375 205.553 441.721" stroke="#00ADB5" stroke-opacity="0.5" stroke-width="2" stroke-linecap="round" stroke-linejoin="round"/>
<path d="M221.888 421.696C221.888 427.454 221.835 431.576 227.743 433.816C230.295 434.784 231.897 435.671 232.574 438.53C233.339 441.761 231.085 446.442 228.417 448.249C225.118 450.484 220.974 451.263 217.263 449.742C214.084 448.439 217.598 446.899 219.253 445.409" stroke="#00ADB5" stroke-opacity="0.5" stroke-width="2" stroke-linecap="round" stroke-linejoin="round"/>
<path d="M247.71 415.373C246.674 419.389 242.002 430.128 246.158 434.285C247.836 435.962 251.086 435.031 253.155 435.514C255.214 435.995 256.98 437.572 258.249 439.203C260.258 441.785 258.346 445.7 256.024 447.517C252.422 450.336 247.277 449.098 243.084 449.098C240.796 449.098 242.359 448.936 243.494 447.517" stroke="#00ADB5" stroke-opacity="0.5" stroke-width="2" stroke-linecap="round" stroke-linejoin="round"/>
<path d="M238.626 365.398C242.685 363.849 250.215 361.384 254.142 358.606C258.286 355.674 253.947 354.832 251.741 355.532C248.004 356.719 245.747 360.633 244.481 364.081C241.146 373.158 251.753 383.418 260.67 382.378C268.91 381.417 270.06 377.382 271.297 371.195" stroke="#00ADB5" stroke-opacity="0.5" stroke-width="2" stroke-linecap="round" stroke-linejoin="round"/>
<path d="M276.566 360.656C275.643 362.159 266.873 380.216 264.446 371.722" stroke="#00ADB5" stroke-opacity="0.5" stroke-width="2" stroke-linecap="round" stroke-linejoin="round"/>
<path d="M260.23 361.183C263.93 366.129 272.87 383.813 281.836 383.315C283.136 383.243 281.411 378.237 281.309 377.518" stroke="#00ADB5" stroke-opacity="0.5" stroke-width="2" stroke-linecap="round" stroke-linejoin="round"/>
<path d="M284.47 361.183C286.514 373.157 290.609 409.347 288.276 397.425C287.074 391.279 276.091 358.016 285.759 359.397C289.951 359.996 300.654 366.113 297.849 371.722C296.272 374.876 286.499 375.977 290.794 373.83" stroke="#00ADB5" stroke-opacity="0.5" stroke-width="2" stroke-linecap="round" stroke-linejoin="round"/>
<path d="M304.495 369.614C305.797 376.389 307.051 383.158 308.184 389.96C308.378 391.125 308.118 390.165 307.774 389.521C305.619 385.48 302.667 378.277 302.768 373.742C302.864 369.446 308.774 366.516 311.873 369.614" stroke="#00ADB5" stroke-opacity="0.5" stroke-width="2" stroke-linecap="round" stroke-linejoin="round"/>
<path d="M321.359 377.518C321.222 382.478 324.82 399.838 333.362 394.791C334.585 394.068 337.605 392.3 337.694 390.692C337.742 389.835 336.182 389.638 335.587 389.638C334.021 389.638 333.629 387.696 332.952 386.477" stroke="#00ADB5" stroke-opacity="0.5" stroke-width="2" stroke-linecap="round" stroke-linejoin="round"/>
<path d="M318.723 379.099C323.338 374.324 328.529 367.746 332.628 376.259C333.828 378.752 333.41 381.755 332.423 384.252C330.829 388.285 325.119 389.875 326.627 383.842" stroke="#00ADB5" stroke-opacity="0.5" stroke-width="2" stroke-linecap="round" stroke-linejoin="round"/>
<path d="M347.178 369.614C350.79 375.385 365.396 390.942 355.814 398.04C352.748 400.311 350.747 400.301 347.295 400.177C342.421 400.003 344.997 398.768 346.651 394.908" stroke="#00ADB5" stroke-opacity="0.5" stroke-width="2" stroke-linecap="round" stroke-linejoin="round"/>
<path d="M369.311 367.506C368.22 368.826 354.13 382.449 362.695 383.9C365.852 384.435 368.753 382.523 371.653 384.457C376.885 387.944 375.646 392.672 370.833 395.64C368.429 397.123 365.745 397.9 363.222 399.123C361.796 399.815 363.315 397.812 363.515 397.016" stroke="#00ADB5" stroke-opacity="0.5" stroke-width="2" stroke-linecap="round" stroke-linejoin="round"/>
<path d="M357.191 361.71C355.968 362.608 342.793 369.919 344.661 374.357C347.018 379.954 347.797 373.064 348.233 370.668" stroke="#00ADB5" stroke-opacity="0.5" stroke-width="2" stroke-linecap="round" stroke-linejoin="round"/>
<path d="M33.313 189.334C35.6599 183.8 34.6987 178.978 34.6987 173.243C34.6987 172.127 34.4963 168.729 35.6687 168.12C37.5177 167.161 39.2455 166.521 41.4271 166.521C42.8774 166.521 44.3346 166.563 45.7844 166.521C47.2343 166.479 48.6388 165.889 50.0724 165.714C52.7397 165.387 55.514 165.842 58.148 165.842C60.2393 165.842 62.4028 166.114 64.4144 166.114C64.7716 166.114 66.2276 166.284 66.4622 166.491C67.1802 167.124 66.9746 168.14 67.54 168.694" stroke="#00ADB5" stroke-opacity="0.5" stroke-linecap="round" stroke-linejoin="round"/>
<path d="M67.4007 169.184C67.492 170.817 67.5262 173.109 68.1981 174.705C68.6335 175.739 68.2863 177.115 68.3744 178.216C68.5436 180.33 68.2288 182.391 68.2288 184.442C68.2288 187.194 68.3668 189.91 68.3668 192.646C68.3668 194.995 66.0719 194.602 64.2571 194.272C62.6893 193.987 60.5853 194.558 58.9513 194.578C55.7989 194.617 52.6317 194.854 49.4744 194.854C46.8375 194.854 44.8794 194.089 42.4512 193.168C41.1545 192.676 40.3707 192.784 38.9779 192.784C37.6587 192.784 36.5739 192.578 35.2515 192.991C34.4779 193.233 33.0924 193.024 32.6523 192.232C32.1246 191.282 33.1737 190.87 33.1737 190.093C33.1737 189.44 33.0916 187.573 33.3117 189.334" stroke="#00ADB5" stroke-opacity="0.5" stroke-linecap="round" stroke-linejoin="round"/>
<path d="M49.0464 172.772C49.0464 172.772 49.5984 173.048 50.1505 173.601C50.7025 174.015 51.8646 173.808 52.8417 173.808C53.3558 173.808 53.8988 173.407 54.3598 173.202C55.2938 172.787 54.7367 173.567 54.5132 174.015C54.2657 174.51 54.5483 175.43 54.9962 175.74C55.7352 176.251 56.4663 175.81 57.1891 175.448C57.4891 175.298 57.4068 175.229 57.4996 175.433C57.6255 175.71 57.6031 176.112 57.6031 176.414C57.6031 177.102 57.5579 178.246 57.1891 178.845C56.7038 179.633 56.2136 180.144 55.4333 180.724C54.6624 181.296 53.644 182.295 52.6193 182.295C50.6171 182.295 48.4918 181.859 47.4899 179.911C47.0652 179.085 46.2861 178.409 46.2861 177.465C46.2861 176.677 46.0255 175.733 46.2861 174.981C46.602 174.068 47.3902 173.202 47.1142 173.202C47.2549 173.242 48.4943 172.496 49.0464 172.772Z" stroke="#00ADB5" stroke-opacity="0.5" stroke-linecap="round" stroke-linejoin="round"/>
<path d="M51.323 172.289C52.0994 172.002 53.8728 171.4 54.2903 170.461C54.6128 169.735 53.5466 169.598 52.9791 169.598C52.2909 169.598 51.4754 170.549 51.2923 171.151C51.1905 171.485 51.0938 171.828 50.9933 172.167C50.9449 172.33 51.0095 172.449 51.0431 172.6C51.0687 172.715 52.1216 172.162 52.0821 172.004" stroke="#00ADB5" stroke-opacity="0.5" stroke-linecap="round" stroke-linejoin="round"/>
<path d="M65.2686 187.812L34.712 188.484C31.4796 188.555 28.8963 191.195 28.8963 194.429C28.8963 197.713 31.5585 200.375 34.8426 200.375H65.4004C68.7161 200.375 71.404 197.687 71.404 194.371V193.815C71.404 190.447 68.6351 187.739 65.2686 187.812Z" stroke="#00ADB5" stroke-opacity="0.5"/>
<path d="M41.4057 188.317C41.8641 189.028 42.2598 189.881 42.7857 190.538C43.0503 190.869 43.0078 190.801 43.5207 190.611C44.3767 190.294 45.3467 190.522 46.2399 190.522C47.024 190.522 47.9357 190.112 48.6978 190.318C49.5806 190.555 50.6215 190.101 51.4905 190.081C52.5376 190.056 53.5357 190.154 54.5771 190.154C55.205 190.154 55.817 189.787 56.3981 189.787C56.7352 189.787 57.6962 190.054 57.721 189.436C57.733 189.134 57.868 188.842 57.868 188.537C57.868 188.126 57.6215 188.304 57.2065 188.096" stroke="#00ADB5" stroke-opacity="0.5" stroke-linecap="round" stroke-linejoin="round"/>
<path d="M190.916 37.4555C191.483 36.735 192.568 35.4018 191.047 35.1661C190.702 35.1127 190.381 34.9105 190.043 35.0635C189.003 35.535 188.037 36.5729 188.037 37.8069C188.037 39.778 190.198 40.2048 191.769 40.1793C194.418 40.1363 195.224 37.5548 196.16 35.4638C197.105 33.3516 198.155 31.2736 199.136 29.1765C200.246 26.8036 202.066 24.9133 203.217 22.5622C203.711 21.554 204.355 20.6661 204.991 19.7456C205.977 18.3176 206.68 16.877 207.385 15.2937C207.964 13.9947 208.606 12.8085 209.315 11.579C209.601 11.0817 209.493 10.3201 210.042 10.8516C210.458 11.2552 211.12 11.5203 211.68 11.6229C214.128 12.0713 216.38 12.5458 218.902 12.3453C221.452 12.1426 224.001 11.7772 226.511 11.2909C227.365 11.1257 227.001 11.3246 226.599 11.8425C225.916 12.721 225.333 13.6519 224.679 14.542C223.826 15.7027 223.526 17.1006 223.022 18.4276C222.467 19.8863 221.807 21.2797 221.277 22.7623C220.252 25.6277 218.758 28.2409 216.91 30.6458C215.838 32.0396 214.515 34.4738 212.509 34.3753C209.404 34.2227 211.5 28.1114 212.984 26.9164C213.782 26.2731 214.655 26.9657 214.753 27.8293C214.887 29.0158 214.48 30.6418 213.328 31.2219C212.113 31.8338 211.181 31.7604 212.116 30.1821C212.682 29.2272 213.018 30.2781 213.25 29.8111" stroke="#00ADB5" stroke-opacity="0.5" stroke-width="2" stroke-linecap="round" stroke-linejoin="round"/>
<path d="M424.884 250.346C425.451 249.625 426.537 248.292 425.015 248.056C424.671 248.003 424.35 247.801 424.012 247.954C422.972 248.425 422.005 249.463 422.005 250.697C422.005 252.668 424.167 253.095 425.737 253.069C428.387 253.026 429.193 250.445 430.129 248.354C431.074 246.242 432.124 244.164 433.105 242.067C434.214 239.694 436.034 237.803 437.186 235.452C437.679 234.444 438.324 233.556 438.96 232.636C439.946 231.208 440.649 229.767 441.354 228.184C441.933 226.885 442.574 225.699 443.283 224.469C443.57 223.972 443.462 223.21 444.01 223.742C444.426 224.145 445.088 224.41 445.648 224.513C448.097 224.961 450.349 225.436 452.87 225.235C455.421 225.033 457.969 224.667 460.48 224.181C461.333 224.016 460.97 224.215 460.567 224.733C459.885 225.611 459.302 226.542 458.648 227.432C457.795 228.593 457.495 229.991 456.99 231.318C456.435 232.776 455.775 234.17 455.245 235.652C454.221 238.518 452.727 241.131 450.878 243.536C449.807 244.93 448.483 247.364 446.477 247.265C443.373 247.113 445.469 241.002 446.952 239.807C447.751 239.163 448.624 239.856 448.721 240.719C448.855 241.906 448.448 243.532 447.296 244.112C446.081 244.724 445.149 244.65 446.085 243.072C446.65 242.117 446.987 243.168 447.219 242.701" stroke="#00ADB5" stroke-opacity="0.5" stroke-width="2" stroke-linecap="round" stroke-linejoin="round"/>
<path d="M399.868 126.167C397.27 121.459 397.424 120.114 398.016 115.375C398.342 112.766 398.467 110.216 399.127 107.649C400.308 103.058 400.691 96.8762 396.994 93.1798C389.721 85.9065 376.176 96.2504 380.277 105.478C381.838 108.99 384.535 111.59 386.484 114.903C387.265 116.232 387.703 117.672 388.719 118.913C389.693 120.104 390.903 121.585 390.903 123.064C390.903 124.312 390.53 125.931 391.414 127.035C392.634 128.56 392.2 127.776 394.006 127.776C395.248 127.776 397.079 126.789 398.08 125.988C398.795 125.416 399.178 127.07 399.178 125.477C399.178 124.11 398.738 125.247 399.638 125.247" stroke="#00ADB5" stroke-opacity="0.5" stroke-linecap="round" stroke-linejoin="round"/>
<path d="M394.12 130.534C396.579 129.802 403.383 128.165 401.808 130.19C399.908 132.633 399.096 131.408 396.764 131.926C395.572 132.191 394.409 135.872 395.73 135.949C397.615 136.06 398.866 133.523 400.787 133.523C402.535 133.523 402.41 135.824 401.361 136.639C399.977 137.716 398.385 136.558 397.454 138.235C395.981 140.885 400.003 140.454 401.144 139.832C402.294 139.204 403.388 138.225 404.235 137.661" stroke="#00ADB5" stroke-opacity="0.5" stroke-linecap="round" stroke-linejoin="round"/>
<path d="M399.867 125.42C399.836 125.62 399.803 126.971 399.264 126.971C398.973 126.971 398.839 126.795 398.574 126.943C398.262 127.116 397.969 127.524 397.67 127.763C397.407 127.974 396.626 127.948 396.476 128.21C396.231 128.639 395.734 128.874 395.27 128.925C394.667 128.992 394.445 129.294 393.804 129.152C393.608 129.108 393.588 128.983 393.405 128.983C393.122 128.983 392.999 129.118 392.786 128.881C392.549 128.618 392.162 128.494 392.048 128.095C391.893 127.552 391.324 127.267 392.166 127.604" stroke="#00ADB5" stroke-opacity="0.5" stroke-linecap="round" stroke-linejoin="round"/>
<path d="M388.777 102.662C389.805 102.668 390.655 102.734 391.006 103.824C391.244 104.566 391.248 105.295 391.248 106.066C391.248 106.815 390.788 107.417 390.788 108.122C390.788 109.054 391.534 108.901 392.164 109.185C392.76 109.453 393.192 109.677 393.515 110.277C393.835 110.871 393.593 112.019 393.55 112.665C393.513 113.221 393.249 114.401 393.633 114.871C393.842 115.126 394.983 115.52 394.237 114.96" stroke="#00ADB5" stroke-opacity="0.5" stroke-linecap="round" stroke-linejoin="round"/>
<path d="M380.097 113.064C379.274 113.611 378.435 114.069 377.514 114.414C377.129 114.559 376.62 114.817 376.707 114.213" stroke="#00ADB5" stroke-opacity="0.5" stroke-linecap="round" stroke-linejoin="round"/>
<path d="M377.109 105.133C375.65 105.485 374.201 105.88 372.754 106.27C372.514 106.335 373.066 105.726 373.086 105.708" stroke="#00ADB5" stroke-opacity="0.5" stroke-linecap="round" stroke-linejoin="round"/>
<path d="M376.709 97.6049C375.198 97.3853 373.691 97.1127 372.188 96.845C371.496 96.7218 371.203 96.8125 371.594 96.2256" stroke="#00ADB5" stroke-opacity="0.5" stroke-linecap="round" stroke-linejoin="round"/>
<path d="M384.868 89.6168C383.674 89.407 382.639 89.2048 381.56 88.6653C381.055 88.4128 380.569 88.1093 380.04 87.9055C379.412 87.6633 379.4 87.737 380.098 87.318" stroke="#00ADB5" stroke-opacity="0.5" stroke-linecap="round" stroke-linejoin="round"/>
<path d="M395.271 84.4446C395.445 85.6643 395.388 86.3948 394.894 87.5C394.628 88.0958 394.403 88.8488 394.272 89.4922C394.226 89.7138 394.201 89.8399 394.051 90.0063C393.995 90.0685 394.201 89.3284 394.237 89.2145" stroke="#00ADB5" stroke-opacity="0.5" stroke-linecap="round" stroke-linejoin="round"/>
<path d="M404.063 89.3294C403.681 90.5996 403.138 91.818 402.811 93.0904C402.646 93.7341 402.749 93.7733 403.028 93.1223" stroke="#00ADB5" stroke-opacity="0.5" stroke-linecap="round" stroke-linejoin="round"/>
<path d="M407.741 98.4669C406.435 99.597 405.364 101 404.35 102.388C404.223 102.561 404.076 102.623 403.935 102.764C403.615 103.085 404.168 102.361 404.235 102.26" stroke="#00ADB5" stroke-opacity="0.5" stroke-linecap="round" stroke-linejoin="round"/>
<path d="M115.124 213.744C117.034 222.351 119.186 230.978 120.45 239.715C121.156 244.596 119.606 237.553 119.413 236.557C118.996 234.401 118.517 232.492 118.517 230.288C118.517 225.852 118.399 221.367 118.07 216.926C117.839 213.817 114.021 204.56 118.847 212.283C123.769 220.157 127.243 228.863 130.584 237.452C131.044 238.636 131.682 239.758 132.186 240.893C132.462 241.513 127.296 236.465 125.305 235.379" stroke="#00ADB5" stroke-opacity="0.5" stroke-width="2" stroke-linecap="round" stroke-linejoin="round"/>
<path d="M112.155 232.833C117.67 230.632 129.831 226.482 133.366 220.296C134.846 217.704 134.558 218.903 130.396 219.683" stroke="#00ADB5" stroke-opacity="0.5" stroke-width="2" stroke-linecap="round" stroke-linejoin="round"/>
<path d="M128.7 203.987C132.956 212.413 136.039 221.384 137.208 230.736C137.316 231.602 137.518 232.554 138.127 233.163C138.24 233.276 136.086 229.244 135.488 228.167" stroke="#00ADB5" stroke-opacity="0.5" stroke-width="2" stroke-linecap="round" stroke-linejoin="round"/>
<path d="M128.7 203.563C132.001 205.54 144.122 212.842 136.218 217.491C135.524 217.899 134.711 218.276 134.215 218.929C133.165 220.311 133.038 220.716 133.791 218.835" stroke="#00ADB5" stroke-opacity="0.5" stroke-width="2" stroke-linecap="round" stroke-linejoin="round"/>
<path d="M139.728 199.321C141.134 208.845 143.546 219.31 143.546 229.015C143.546 231.158 143.188 227.19 142.698 226.046" stroke="#00ADB5" stroke-opacity="0.5" stroke-width="2" stroke-linecap="round" stroke-linejoin="round"/>
<path d="M149.486 216.289C151.815 223.232 153.012 227.323 146.186 229.345C143.854 230.036 146.672 226.649 147.27 226.235C149.312 224.821 151.345 220.27 149.061 217.986C148.153 217.077 145.978 218.225 145.338 217.138C144.395 215.535 146.508 212.5 147.789 211.717C151.472 209.466 151.009 212.638 149.486 211.623" stroke="#00ADB5" stroke-opacity="0.5" stroke-width="2" stroke-linecap="round" stroke-linejoin="round"/>
<path d="M276.914 87.4642C278.32 94.8629 284.109 116.467 280.741 109.731C280.379 109.005 280.076 108.39 280.046 107.566C279.933 104.52 279.705 101.335 278.654 98.4429C277.774 96.0242 277.958 93.5169 277.958 90.9434C277.958 90.4278 277.082 86.371 277.166 86.3431C278.051 86.0479 281.705 90.4874 282.365 91.2526C285.705 95.1231 289.082 99.5709 291.469 104.106C292.697 106.441 293.068 107.277 290.135 107.643" stroke="#00ADB5" stroke-opacity="0.5" stroke-width="2" stroke-linecap="round" stroke-linejoin="round"/>
<path d="M276.566 102.425C279.831 100.768 282.941 99.4444 286.308 98.2497" stroke="#00ADB5" stroke-opacity="0.5" stroke-width="2" stroke-linecap="round" stroke-linejoin="round"/>
<path d="M285.961 87.8121C289.304 92.8199 292.487 98.1487 296.379 102.773C296.934 103.432 298.099 104.63 298.099 103.082C298.099 100.969 296.929 98.7862 296.398 96.7807C295.549 93.5728 294.759 90.3501 294.04 87.1163C293.346 83.9946 293.835 85.1602 295.007 87.5029C296.948 91.3851 298.991 94.9212 301.694 98.3657C303.516 100.686 303.705 99.3939 303.705 97.3606C303.705 93.6669 301.901 90.6295 300.573 87.3096C299.155 83.7632 299.25 78.922 297.635 75.693C297.007 74.4372 296.92 78.4169 296.746 79.81" stroke="#00ADB5" stroke-opacity="0.5" stroke-width="2" stroke-linecap="round" stroke-linejoin="round"/>
<path d="M304.747 75.287C304.836 75.6957 306.132 85.825 308.42 84.6808C309.422 84.1796 309.668 82.6456 310.701 82.1294C312.373 81.2931 314.181 82.7743 314.837 84.217C316.571 88.0316 314.575 92.4497 311.435 94.7705C307.085 97.9855 308.575 92.1976 308.575 90.5955" stroke="#00ADB5" stroke-opacity="0.5" stroke-width="2" stroke-linecap="round" stroke-linejoin="round"/>
<path d="M306.835 74.5912C306.209 76.3021 305.07 84.2457 304.728 81.163C304.516 79.2601 304.892 77.8132 305.095 75.9829C305.578 71.6412 308.9 75.1338 307.531 72.8516" stroke="#00ADB5" stroke-opacity="0.5" stroke-width="2" stroke-linecap="round" stroke-linejoin="round"/>
<path d="M283.633 303.117C283.517 302.904 278.498 294.26 278.932 294.012C279.535 293.667 280.658 294.002 281.367 293.736C283.462 292.951 285.149 291.329 286.873 289.988C288.686 288.578 291.17 299.643 291.722 301.973C292.389 304.793 294.128 308.541 290.875 310.168C287.941 311.634 284.082 311.192 280.88 311.121C275.656 311.005 272.046 302.429 271.436 298.162C270.992 295.054 266.689 285.081 271.309 283.086C272.546 282.552 274.647 282.916 275.989 282.916C277.909 282.916 279.584 281.773 281.537 281.773C284.643 281.773 285.582 285.653 282.871 281.392" stroke="#00ADB5" stroke-opacity="0.5" stroke-width="2" stroke-linecap="round" stroke-linejoin="round"/>
<path d="M292.399 284.441C292.94 286.413 294.682 297.368 299.259 294.562C300.13 294.028 300.764 292.734 301.08 291.809C301.923 289.343 302.101 287.283 300.212 285.394C298.797 283.979 296.064 281.09 294.008 281.01C288.909 280.814 293.408 286.526 292.78 285.584" stroke="#00ADB5" stroke-opacity="0.5" stroke-width="2" stroke-linecap="round" stroke-linejoin="round"/>
<path d="M293.16 266.908C296.925 272.86 302.606 279.406 304.891 286.262C305.182 287.136 305.193 287.731 305.738 288.549C306.561 289.783 306.95 291.574 307.728 289.692C308.856 286.967 311.425 284.548 313.446 282.45C315.938 279.862 316.279 280.629 311.836 280.629" stroke="#00ADB5" stroke-opacity="0.5" stroke-width="2" stroke-linecap="round" stroke-linejoin="round"/>
<path d="M319.461 265.002C318.988 266.071 311.808 280.28 318.741 277.051C320.12 276.408 321.528 275.409 321.345 273.769C321.17 272.188 319.849 270.945 319.164 269.576C318.778 268.803 317.231 265.075 317.767 266.146C319.359 269.329 321.497 275 323.865 277.368C326.624 280.127 328.277 277.228 325.559 275.674" stroke="#00ADB5" stroke-opacity="0.5" stroke-width="2" stroke-linecap="round" stroke-linejoin="round"/>
<path d="M323.653 266.527C334.262 283.355 320.838 264.473 323.928 261.17C326.919 257.973 330.453 264.112 331.572 266.061C333.523 269.456 335.442 278.264 332.419 269.195" stroke="#00ADB5" stroke-opacity="0.5" stroke-width="2" stroke-linecap="round" stroke-linejoin="round"/>
<path d="M336.993 252.044C336.812 252.679 331.122 268.693 335.383 267.205C337.194 266.572 339.012 265.141 339.978 263.499C341.093 261.604 341.612 259.005 340.804 256.914C340.253 255.488 339.657 253.965 338.898 252.637C337.094 249.48 341.956 259.235 343.408 262.568C345.536 267.448 350.661 284.556 338.581 281.159C333.312 279.677 338.274 271.482 337.755 271.482" stroke="#00ADB5" stroke-opacity="0.5" stroke-width="2" stroke-linecap="round" stroke-linejoin="round"/>
<path d="M186.983 173.296C188.877 172.775 190.492 172.251 191.824 170.753C192.349 170.162 192.42 169.408 192.689 168.692C193.037 167.762 192.603 166.573 192.306 165.681C192.068 164.967 193.368 164.567 193.833 164.537C194.63 164.485 195.24 164.993 196.007 165.038C196.928 165.092 197.911 165.387 198.55 166.106C198.984 166.594 199.565 166.709 200.044 167.132C200.499 167.533 200.859 168.234 201.188 168.748C202.14 170.236 202.409 171.972 202.686 173.674C202.819 174.49 202.899 175.378 202.762 176.203C202.598 177.187 202.772 178.133 202.384 179.077C202.115 179.729 201.686 180.592 201.074 180.977C200.447 181.372 199.864 181.514 199.704 182.334C199.369 184.046 200.228 185.722 199.897 187.448C199.604 188.982 197.576 189.217 196.324 189.462C195.459 189.632 193.886 189.896 193.053 189.443C191.5 188.599 190.376 187.544 189.224 186.2C188.204 185.01 187.818 183.269 187.683 181.748C187.545 180.194 187.544 178.507 187.579 176.936C187.602 175.893 187.905 174.846 188.004 173.806C188.085 172.956 188.355 172.887 187.919 173.976" stroke="#00ADB5" stroke-opacity="0.5" stroke-linecap="round" stroke-linejoin="round"/>
<path d="M197.959 165.553C198.599 163.903 199.302 162.254 199.793 160.552C200.013 159.787 200.066 158.977 200.341 158.231C200.661 157.363 200.819 156.382 200.956 155.475C201.054 154.824 201.102 153.673 201.698 153.263C202.133 152.964 202.38 152.28 202.846 151.92C203.445 151.459 204.294 151.029 204.718 150.413C205.135 149.807 205.579 148.556 205.229 147.855C205.034 147.466 205.061 147.047 204.87 146.664C204.62 146.166 204.396 145.761 204.208 145.222C204.043 144.75 203.524 143.809 204.127 143.473C205.604 142.653 205.706 143.944 206.165 145.123C206.401 145.732 206.437 146.475 206.656 147.108C206.806 147.542 207.072 147.228 207.276 147.477C207.582 147.852 207.597 148.32 207.829 148.725C208.175 149.331 207.768 150.561 207.592 151.155C207.267 152.253 206.931 153.247 206.448 154.303C205.205 157.02 203.177 159.308 201.788 161.942C201.259 162.944 200.835 163.953 200.577 165.061C200.431 165.692 200.001 166.291 200.001 166.957C200.001 167.564 199.85 167.876 200.171 166.914" stroke="#00ADB5" stroke-opacity="0.5" stroke-linecap="round" stroke-linejoin="round"/>
<path d="M204.597 145.047C203.513 145.213 202.332 145.277 201.363 145.761C201.23 145.828 201.437 145.654 201.534 145.643C202.831 145.49 204.248 144.334 205.429 143.771C206.307 143.353 207.509 142.41 208.511 142.41C208.801 142.41 207.547 143.218 207.405 143.346" stroke="#00ADB5" stroke-opacity="0.5" stroke-linecap="round" stroke-linejoin="round"/>
<path d="M203.489 146.919C204.695 146.218 206.795 145.458 207.677 144.282C207.763 144.167 207.826 144.013 207.952 143.941C208.39 143.691 207.615 143.97 207.488 144.026" stroke="#00ADB5" stroke-opacity="0.5" stroke-linecap="round" stroke-linejoin="round"/>
<path d="M204.341 148.025C205.789 147.471 208.433 146.979 209.229 145.388C209.344 145.158 209.089 145.218 208.936 145.218" stroke="#00ADB5" stroke-opacity="0.5" stroke-linecap="round" stroke-linejoin="round"/>
<path d="M205.872 147.855C205.779 149.806 205.799 151.791 204.685 153.461C204.142 154.277 203.765 154.819 203.574 155.773C203.37 156.793 203.147 157.645 202.681 158.576C202.221 159.495 201.683 160.247 201.23 161.129C200.995 161.586 200.417 162.026 200.53 162.575C200.587 162.852 200.449 163.101 200.36 163.36C200.094 164.128 199.597 164.805 199.131 165.468C198.814 165.918 198.818 166.726 199.235 165.893" stroke="#00ADB5" stroke-opacity="0.5" stroke-linecap="round" stroke-linejoin="round"/>
<path d="M198.981 163.596C199.749 163.763 200.916 164.277 201.704 164.277C201.718 164.277 201.035 163.452 200.938 163.341" stroke="#00ADB5" stroke-opacity="0.5" stroke-linecap="round" stroke-linejoin="round"/>
<path d="M199.491 160.108C200.577 160.571 201.665 161.031 202.743 161.511C202.996 161.624 202.981 161.641 202.894 161.554C202.707 161.367 202.549 161.165 202.384 160.958" stroke="#00ADB5" stroke-opacity="0.5" stroke-linecap="round" stroke-linejoin="round"/>
<path d="M200.511 157.81C201.819 158.217 203.125 158.655 204.449 159.011C204.597 159.051 204.804 159.13 204.661 158.983C204.376 158.687 204.048 158.427 203.744 158.151" stroke="#00ADB5" stroke-opacity="0.5" stroke-linecap="round" stroke-linejoin="round"/>
<path d="M201.193 154.917C202.682 155.645 204.165 156.43 205.693 157.078C205.944 157.184 206.028 157.262 205.977 157.063C205.907 156.793 205.803 156.539 205.703 156.279" stroke="#00ADB5" stroke-opacity="0.5" stroke-linecap="round" stroke-linejoin="round"/>
<path d="M203.065 152.875C203.201 152.94 207.32 155.175 206.979 154.322" stroke="#00ADB5" stroke-opacity="0.5" stroke-linecap="round" stroke-linejoin="round"/>
<path d="M203.915 151.514C205.159 151.806 206.415 152.072 207.659 152.28" stroke="#00ADB5" stroke-opacity="0.5" stroke-linecap="round" stroke-linejoin="round"/>
<path d="M205.278 150.153C205.845 150.18 206.412 150.208 206.979 150.238" stroke="#00ADB5" stroke-opacity="0.5" stroke-linecap="round" stroke-linejoin="round"/>
<path d="M194.045 175.678C193.454 175.913 189.812 176.819 189.791 177.824C189.782 178.217 189.791 178.611 189.838 179.001C189.984 180.213 190.827 180.847 191.861 181.426C193.175 182.162 194.589 182.185 196.021 181.767C197.382 181.369 198.267 179.863 197.722 178.571C197.61 178.303 198 178.249 197.746 177.938C197.499 177.635 197.336 177.811 196.938 177.89" stroke="#00ADB5" stroke-opacity="0.5" stroke-linecap="round" stroke-linejoin="round"/>
<path d="M192.258 178.826C192.935 177.114 193.779 175.402 194.172 173.594C194.275 173.12 194.402 172.722 194.659 172.294C195.202 171.389 195.679 170.425 196.002 169.42C196.308 168.466 196.327 167.526 196.73 166.593C196.873 166.26 197.731 165.263 197.363 165.723" stroke="#00ADB5" stroke-opacity="0.5" stroke-linecap="round" stroke-linejoin="round"/>
<path d="M198.98 166.574C198.664 168.545 198.19 170.431 197.855 172.379C197.669 173.459 197.363 174.361 197.363 175.499C197.363 176.312 197.654 176.99 197.467 177.805C197.253 178.745 197.06 178.282 196.683 177.635" stroke="#00ADB5" stroke-opacity="0.5" stroke-linecap="round" stroke-linejoin="round"/>
<path d="M198.13 166.574C197.539 167.805 196.258 169.827 196.258 171.381C196.258 172.265 196.316 173.203 196.254 174.099C196.18 175.165 195.348 176.548 194.85 177.465C194.684 177.77 194.469 178.005 194.368 178.335C194.241 178.747 194.331 178.772 194.046 178.316" stroke="#00ADB5" stroke-opacity="0.5" stroke-linecap="round" stroke-linejoin="round"/>
<path d="M192.004 177.04C193.453 178.076 196.011 180.191 197.79 178.363C198.067 178.078 198.468 177.47 198.622 177.106C198.832 176.609 198.151 177.031 197.705 177.125" stroke="#00ADB5" stroke-opacity="0.5" stroke-linecap="round" stroke-linejoin="round"/>
<path d="M193.704 175.508C194.53 175.482 196.201 175.705 197.004 175.291C197.03 175.277 196.942 175.3 196.919 175.319C196.839 175.382 196.675 175.279 196.597 175.253" stroke="#00ADB5" stroke-opacity="0.5" stroke-linecap="round" stroke-linejoin="round"/>
<path d="M194.64 172.36C195.247 172.52 197.441 173.455 197.533 172.445" stroke="#00ADB5" stroke-opacity="0.5" stroke-linecap="round" stroke-linejoin="round"/>
<path d="M195.662 169.807C196.414 170.298 199.465 172.571 198.981 170.148" stroke="#00ADB5" stroke-opacity="0.5" stroke-linecap="round" stroke-linejoin="round"/>
<path d="M196.512 168.616C197.278 168.815 198.044 169.013 198.81 169.212" stroke="#00ADB5" stroke-opacity="0.5" stroke-linecap="round" stroke-linejoin="round"/>
<path d="M200.257 168.616C201.204 169.508 203.094 171.584 203.15 173.145C203.195 174.417 203.15 175.648 203.15 176.936C203.15 177.872 203.329 178.872 203.235 179.762C203.112 180.931 201.317 180.946 201.746 182.32C201.889 182.778 201.765 183.049 202.167 183.378C202.514 183.662 202.766 183.992 202.895 184.442C203.195 185.493 202.597 186.442 201.874 187.165C201.421 187.617 200.834 188.527 200.3 188.824C200.036 188.971 199.496 188.866 199.193 188.866C198.913 188.866 198.346 189.049 198.092 189.164C197.719 189.334 197.243 189.034 196.769 189.207" stroke="#00ADB5" stroke-opacity="0.5" stroke-linecap="round" stroke-linejoin="round"/>
<path d="M186.983 173.551C187.326 174.69 187.582 175.638 188.156 176.614C188.392 177.015 188.359 177.379 188.255 177.848C188.134 178.393 187.736 179.67 188.047 180.23C188.525 181.091 188.515 182.001 188.515 182.953C188.515 183.871 189.949 184.269 190.42 184.74C191.119 185.439 190.815 186.331 191.966 186.635C192.217 186.702 192.61 186.706 192.807 186.867C192.956 186.989 193.131 187.295 193.327 187.33C193.732 187.404 194.275 187.323 194.641 187.486C194.947 187.622 195.17 187.818 195.449 187.973C195.757 188.144 196.178 187.952 196.513 188.12C197.657 188.692 197.146 188.148 196.343 187.505" stroke="#00ADB5" stroke-opacity="0.5" stroke-linecap="round" stroke-linejoin="round"/>
<path d="M102.31 130.817C100.036 133.726 90.2742 145.367 98.5922 148.001C101.174 148.819 104.534 146.939 107.316 147.211C111.25 147.595 113.462 150.939 114.43 154.413C115.545 158.412 109.395 165.524 112.352 167.674C117.415 171.357 124.708 165.13 128.892 170.075C131.264 172.878 128.77 176.95 130.239 170.338" stroke="#00ADB5" stroke-opacity="0.5" stroke-linecap="round" stroke-linejoin="round"/>
<path d="M216.493 85.4985C218.685 88.4021 223.9 94.9429 225.861 98.6724C227.531 101.847 225.427 101.72 223.636 100.458C221.496 98.9499 221.796 95.7418 222.407 93.52C224.47 86.0191 237.821 79.1231 239.328 90.651C239.858 94.7002 236.238 101.509 231.307 99.902C224.796 97.7807 225.211 87.8449 230.136 84.1519C235.172 80.3745 243.427 84.715 243.427 90.8852C243.427 97.7355 235.284 99.8564 232.126 93.8127C229.256 88.3197 234.342 82.5737 239.796 81.7513C241.802 81.4488 246.984 83.7661 243.368 84.9716" stroke="#00ADB5" stroke-opacity="0.5" stroke-linecap="round" stroke-linejoin="round"/>
<path d="M326.627 137.667C323.215 141.058 312.431 148.963 321.504 152.041C326.783 153.832 331.67 150.896 334.941 146.889C338.551 142.467 339.163 135.474 333.419 132.603C328.951 130.369 325.102 126.781 321.357 132.398" stroke="#00ADB5" stroke-opacity="0.5" stroke-linecap="round" stroke-linejoin="round"/>
<path d="M443.085 184.039C436.569 187.92 426.676 192.609 436.762 196.276C438.312 196.84 439.321 196.473 440.685 195.515C445.727 191.972 446.023 190.553 445.72 185.093C445.519 181.478 440.233 182.304 437.816 183.512C434.251 185.294 431.765 188.861 430.321 192.47C428.378 197.327 438.421 197.03 439.806 191.182C440.675 187.516 436.481 182.309 433.6 186.791C429.782 192.729 435.608 198.04 439.279 191.826C442.796 185.875 434.579 183.42 432.37 190.363C429.466 199.49 446.73 189.58 440.45 186.44C436.707 184.568 430.387 196.453 437.289 193.495C445.669 189.904 436.293 184.611 436.293 192.997C436.293 199.803 447.55 189.926 440.216 187.259C438.539 186.65 436.884 192.008 438.079 193.202C440.157 195.28 443.767 189.9 443.583 187.962C442.791 179.646 434.65 200.788 444.344 191.095C446.558 188.88 446.467 184.878 442.792 187.23C440.624 188.618 439.251 194.51 443.349 193.144C447.283 191.832 447.283 184.544 443.056 186.235C440.476 187.267 439.542 190.919 436.762 190.363" stroke="#00ADB5" stroke-opacity="0.5" stroke-linecap="round" stroke-linejoin="round"/>
<path d="M386.173 238.316C385.085 239.516 367.722 260.94 376.453 250.026C378.45 247.53 380.285 245.074 383.011 243.322C384.691 242.241 386.31 241.574 387.753 240.131C389.331 238.553 387.094 238.657 386.729 241.946C386.411 244.81 386.655 257.314 386.173 257.286C382.918 257.095 380.784 253.891 377.771 252.836C376.156 252.271 371.371 253.085 372.706 252.016C375.97 249.406 385.966 241.918 383.011 244.873C380.772 247.112 376.17 255.527 377.741 252.778C378.858 250.823 381.88 244.452 381.43 245.517C380.503 247.712 378.891 251.47 379.029 253.89C379.161 256.187 383.722 250.536 384.006 249.967C386.121 245.739 381.746 255.248 383.304 252.983C384.707 250.942 389.45 245.753 386.056 250.845C385.313 251.96 389.572 246.819 388.807 247.918C388.585 248.237 386.655 251.476 387.783 250.348C391.823 246.308 385.87 250.509 385.119 249.382" stroke="#00ADB5" stroke-opacity="0.5" stroke-linecap="round" stroke-linejoin="round"/>
<path d="M350.868 325.79C352.713 323.163 363.254 311.575 354.586 311.065C353.121 310.979 350.101 310.503 348.878 311.504C345.969 313.884 347.23 320.304 351.161 321.018C356.374 321.966 361.259 314.837 355.611 312.089C349.709 309.218 335.779 320.75 341.793 325.498C353.633 334.845 364.34 307.681 349.024 311.592C335.132 315.139 347.37 329.448 353.679 320.228C360.433 310.357 339.606 310.272 343.286 321.311C345.101 326.756 351.057 324.128 352.127 319.73C353.695 313.283 347.283 315.945 347.18 320.404C347.068 325.182 354.43 316.536 350.019 316.92C346.831 317.197 346.517 321.575 344.018 321.575" stroke="#00ADB5" stroke-opacity="0.5" stroke-linecap="round" stroke-linejoin="round"/>
<path d="M141.139 276.256C142.203 281.085 144.301 295.692 144.301 290.748C144.301 287.335 141.693 284.149 141.168 280.736C140.984 279.543 141.363 276.014 140.348 275.203C139.654 274.647 146.216 279.755 147.96 280.736C151.142 282.526 153.423 285.869 156.186 282.316C157.513 280.611 161.416 280.375 161.954 279.945C165.855 276.824 165.497 272.165 166.403 268.089C166.726 266.635 165.906 273.053 165.906 274.939C165.906 277.353 166.341 280.548 166.989 282.814C167.909 286.033 167.54 276.95 166.667 275.203C165.248 272.365 165.379 269.846 165.379 266.771C165.379 265.557 174.188 280.774 172.639 281.936C171.992 282.421 163.366 280.042 160.753 280.882C158.503 281.605 156.447 282.45 154.313 283.517C153.729 283.809 152.766 284.871 153.142 284.571C154.479 283.5 158.573 280.574 156.947 281.116C154.715 281.86 152.522 284.021 150.507 285.215C146.709 287.465 145.48 287.151 143.891 291.011C143.662 291.568 146.497 291.497 147.052 291.655C151.041 292.795 153.547 289.688 157.065 288.259C161.605 286.415 166.826 282.627 171.702 282.053C175.383 281.62 169.786 280.329 169.594 279.945" stroke="#00ADB5" stroke-opacity="0.5" stroke-linecap="round" stroke-linejoin="round"/>
<path d="M342.437 73.3786C352.368 70.1951 368.452 66.5337 377.333 59.2679C378.944 57.9495 381.44 56.6857 380.875 54.1447C378.754 44.5989 374.138 42.3602 365.037 43.3714C359.989 43.9323 355.144 48.5886 350.458 50.4853C345.634 52.438 340.807 55.0035 336.406 57.8041C331.952 60.6387 334.532 62.0427 334.532 66.938C334.532 69.6299 336.14 73.3786 339.011 73.3786C340.32 73.3786 344.071 72.3247 340.358 72.3247C337.444 72.3247 332.92 72.7664 330.317 71.3879C328.328 70.3353 332.253 68.2627 333.186 68.1383C336.516 67.6943 329.369 70.9522 328.648 71.183C327.165 71.6576 334 66.4776 330.199 67.6992C326.08 69.0234 332.194 65.4725 333.478 64.8302C334.928 64.1053 333.663 65.253 334.005 64.6546C334.552 63.6971 337.719 60.1792 334.854 63.0444C333.895 64.0037 337.019 61.4084 338.075 60.556C340.062 58.9507 337.54 61.3863 337.05 61.7856C334.79 63.6254 334.26 62.1408 332.424 62.9566C331.657 63.2976 329.79 64.4286 329.79 63.103C329.79 60.8159 337.86 59.774 339.333 59.707C348.359 59.2968 354.676 55.3152 362.988 53.2372C366.988 52.2372 371.36 50.797 375.108 49.0215C377.888 47.7047 383.457 43.5821 386.408 44.4253C387.568 44.7567 369.674 55.1682 374.815 51.7734C379.068 48.9652 383.944 46.9933 377.567 52.2711C372.458 56.4993 381.446 51.5743 382.163 51.8613C383.452 52.3767 374.229 57.6444 381.256 54.4082C383.943 53.1705 386.174 53.1094 386.174 50.1926C386.174 46.2332 387.257 41.5403 382.222 43.3714C376.411 45.4843 371.748 50.0005 365.74 51.7734C361.598 52.9956 357.563 54.5389 353.503 55.9891C348.791 57.6718 340.263 59.5533 336.904 63.6592C335.113 65.8474 331.925 74.3751 338.514 70.6853C344.558 67.3003 345.52 60.4519 348.76 55.0523C350.369 52.3703 345.956 60.7169 345.306 63.7763C344.558 67.295 347.869 71.3443 351.658 70.6853C355.815 69.9625 360.187 64.2226 361.67 60.7317C368.801 43.953 355.867 60.2267 359.533 63.8934C363.425 67.7847 369.355 57.4764 370.131 54.9352C371.067 51.8733 371.616 48.099 372.737 45.1865C374.189 41.4091 364.913 45.6634 364.042 46.094C359.217 48.4785 355.848 51.6593 352.566 55.872C351.378 57.3968 346.609 64.5742 349.872 66.2062C354.247 68.3932 359.617 61.5953 359.738 58.0676C360.15 46.1174 350.311 52.2419 344.369 56.9259C340.697 59.8202 343.887 65.6048 344.544 64.9473" stroke="#00ADB5" stroke-opacity="0.5" stroke-linecap="round" stroke-linejoin="round"/>
<path d="M209.117 358.988C208.888 359.171 200.217 366.65 200.217 364.522C200.217 363.274 201.177 361.94 202.032 361.126C203.723 359.515 210.404 358.275 208.795 362.209C207.715 364.847 203.305 368.735 202.061 363.76C201.545 361.694 205.091 357.549 207.243 359.311C209.617 361.253 204.513 363.727 202.91 362.853C200.047 361.291 203.486 355.73 206.248 356.881C209.136 358.084 205.164 361.375 203.847 362.033C200.77 363.572 201.2 361.084 199.632 359.515" stroke="#00ADB5" stroke-opacity="0.5" stroke-linecap="round" stroke-linejoin="round"/>
<path d="M66.3117 358.462C69.3493 363.467 75.1347 368.661 69.2392 373.216C67.7186 374.391 58.7483 379.089 59.2856 373.626C59.94 366.973 69.8549 366.825 70.4688 360.862C71.0758 354.965 56.9921 357.187 53.7819 353.192C51.7708 350.689 50.149 345.143 50.6201 341.95C50.8036 340.707 53.9572 338.293 53.6355 340.545C53.0465 344.668 39.7535 355.228 47.634 358.696C52.9176 361.021 54.2807 355.134 58.1732 353.719C66.191 350.803 54.1917 372.427 54.1917 366.893" stroke="#00ADB5" stroke-opacity="0.5" stroke-linecap="round" stroke-linejoin="round"/>
<path d="M324.519 426.966C322.078 432.741 317.142 450.537 317.142 444.267C317.142 443.29 317.331 442.518 317.669 441.603C319.255 437.31 321.092 433.315 323.758 429.542C325.213 427.483 326.947 421.452 329.028 426.029C329.998 428.164 332.775 434.109 331.604 436.451C330.134 439.39 325.572 441.076 322.528 441.194C321.736 441.224 313.423 442.316 316.117 439.847C319.283 436.945 322.346 428.119 327.125 427.522C327.862 427.43 329.404 427.923 330.052 428.283C331.194 428.917 329.803 430.063 329.262 430.947C328.612 432.008 323.475 439.173 323.465 438.852C323.32 434.05 328.246 427.078 330.901 423.453C331.853 422.153 326.788 430.976 325.632 432.967C324.737 434.508 325.904 437.782 321.884 436.978" stroke="#00ADB5" stroke-opacity="0.5" stroke-linecap="round" stroke-linejoin="round"/>
<path d="M161.164 3.29348C158.813 12.4912 156.718 21.2546 155.865 30.6366C155.78 31.5751 155.187 32.1818 155.778 32.9201C156.657 34.0188 158.981 27.0327 159.876 25.1621C162.712 19.2332 165.907 16.8934 165.907 9.61695C165.907 8.56699 165.907 2.52385 165.907 6.51377C165.907 9.90117 166.549 13.2491 166.317 16.643C166.141 19.2083 163.679 26.1313 165.497 24.3132C168.303 21.5068 166.055 7.43609 161.662 7.07C155.666 6.5703 152.774 19.5675 152.089 23.6106C151.292 28.3145 154.608 30.2839 158.266 26.6259C163.259 21.6331 164.342 11.3683 160.052 5.51841C154.158 -2.51837 150.291 11.9827 149.805 15.5306C148.708 23.556 153.19 26.1277 158.5 20.4195C160.453 18.3201 164.391 14.6898 163.565 11.432C162.466 7.09855 156.061 11.3066 154.782 13.1885C152.969 15.8571 152.993 22.5042 155.924 24.401C158.661 26.1719 161.324 18.8337 161.018 16.9943C159.718 9.1933 145.013 21.5771 152.323 26.0111C158.685 29.8703 162.903 12.6052 155.075 14.7401C152.895 15.3347 147.718 21.21 152.206 21.21" stroke="#00ADB5" stroke-opacity="0.5" stroke-linecap="round" stroke-linejoin="round"/>
<path d="M21.5196 153.476C19.1517 160.185 17.4469 164.467 11.4489 168.231C9.94293 169.175 7.95272 170.847 7.64311 172.739C6.98162 176.781 13.358 181.236 16.9819 180.029C24.6177 177.483 13.0631 169.926 11.8295 167.733C9.6816 163.914 17.4446 157.055 21.0219 159.067C23.8065 160.634 25.0409 166.092 23.3932 168.758C20.993 172.64 15.8339 172.794 11.8002 172.183C8.58778 171.696 2.15313 172.358 4.04225 177.13C6.40612 183.102 17.5627 179.972 19.2361 174.905C20.8654 169.972 12.045 168.113 13.9373 163.488C15.2371 160.311 19.3412 156.345 22.9834 156.345C27.3461 156.345 22.9892 164.494 22.3393 165.771C19.4693 171.413 15.078 171.975 9.51673 173.5C-0.950188 176.37 10.3257 176.774 10.9805 173.5" stroke="#00ADB5" stroke-opacity="0.5" stroke-linecap="round" stroke-linejoin="round"/>
<path d="M8.87304 225.669C7.75442 229.881 4.44711 237.07 4.7745 241.653C4.9279 243.801 5.51459 237.409 5.76986 235.271C6.25624 231.198 6.81263 226.597 8.99014 223.034C9.37661 222.402 18.314 233.558 19.1194 235.388C21.275 240.287 18.5763 239.354 15.1965 240.95C13.3181 241.837 0.5003 246.362 0.5003 245.166C0.5003 243.913 2.91676 241.366 3.48638 240.306C5.26928 236.989 7.18219 232.825 7.93623 229.123C9.54664 221.218 8.34609 237.487 8.34609 238.725C8.34609 239.477 8.63836 243.878 6.88232 243.878C4.68461 243.878 8.36808 239.741 9.10724 237.672C9.89111 235.477 13.0113 229.008 12.2397 226.693C11.1469 223.415 10.6003 233.457 10.4832 236.91C10.4038 239.251 9.27109 243.159 11.098 239.37C11.6801 238.162 13.5592 233.212 13.5278 233.573C13.2629 236.62 12.0348 239.76 12.0348 242.824C12.0348 245.96 13.6887 235.866 16.5432 234.568C17.2529 234.246 16.2504 240.196 16.2504 241.068C16.2504 242.654 17.7727 234.973 17.7727 236.559C17.7727 237.001 17.1411 239.673 16.6603 238.843C14.6896 235.439 13.2069 233.335 9.16579 232.109C7.32532 231.551 1.47525 231.934 3.39856 231.934C4.66278 231.934 6.64828 227.534 8.05333 228.684C9.91748 230.209 7.35911 235.078 6.76522 236.735C5.79279 239.447 5.18399 235.633 7.58493 235.915C10.0866 236.209 7.53432 245.447 8.93159 243.351C9.58011 242.378 11.5445 237.579 11.4785 238.14C10.203 248.982 10.4684 235.176 12.5617 238.316" stroke="#00ADB5" stroke-opacity="0.5" stroke-linecap="round" stroke-linejoin="round"/>
<path d="M269.717 82.3368C276.422 82.0057 282.896 84.4843 281.837 76.5403C281.312 72.6039 279.106 66.1686 280.256 62.3125C281.477 58.2186 288.973 48.986 282.569 46.094C277.199 43.6688 270.18 50.5269 269.19 55.1693C268.778 57.1002 268.866 63.1322 272.059 63.1322C274.472 63.1322 276.013 60.7631 278.119 62.8687C280.871 65.6214 281.363 68.1324 279.407 71.5928C274.712 79.899 256.138 70.6214 266.145 60.6145C267.517 59.2429 272.942 52.9525 275.513 54.7595C279.051 57.2455 278.573 63.7179 276.743 66.938C274.918 70.1491 268.222 73.5114 265.589 69.3971C264.288 67.3639 264.911 66.0012 267.082 66.0012" stroke="#00ADB5" stroke-opacity="0.5" stroke-linecap="round" stroke-linejoin="round"/>
<path d="M325.856 131.651C326.474 131.401 345.752 121.885 344.855 127.114C344.374 129.92 344.696 132.537 345.09 135.34C345.24 136.412 347.854 144.767 345.236 144.767C340.359 144.767 335.598 142.317 330.716 143.244C328.691 143.629 324.66 145.016 324.509 141.781C324.396 139.355 322.381 128.449 327.173 129.514C331.123 130.392 331.295 127.257 328.491 134.228C328.092 135.217 325.476 142.652 325.914 142.308C330.298 138.863 332.702 132.241 336.717 128.226C339.224 125.719 334.926 135.781 334.404 137.038C331.737 143.46 338.555 131.596 339.322 130.422C342.692 125.268 340.134 134.495 339.615 136.013C338.056 140.579 342.848 132.054 344.768 130.919C351.127 127.162 345.119 140.141 343.772 137.448" stroke="#00ADB5" stroke-opacity="0.5" stroke-linecap="round" stroke-linejoin="round"/>
<path d="M273.931 230.938C274.234 238.684 274.099 242.909 280.665 238.023C282.527 236.637 281.736 239.917 281.279 240.716C280.516 242.052 276.042 248.765 280.547 246.191C281.688 245.539 284.763 244.238 284.763 246.747C284.763 247.143 283.385 251.99 284.734 250.641C286.946 248.429 286.985 240.092 287.105 236.852C287.131 236.145 287.44 235.322 286.812 235.681C283.582 237.527 282.049 247.19 280.372 250.963C278.924 254.219 274.751 250.382 272.35 248.855C267.8 245.959 270.662 248.016 270.769 247.801" stroke="#00ADB5" stroke-opacity="0.5" stroke-linecap="round" stroke-linejoin="round"/>
<path d="M237.572 299.97C237.552 300.215 236.933 315.342 237.045 307.991C237.079 305.747 237.014 303.502 237.045 301.258C237.132 294.885 238.269 297.842 241.026 300.467C242.29 301.671 246.927 304.269 246.179 306.703C245.958 307.42 238.513 308.716 237.337 309.162C236.455 309.497 231.248 312.775 231.248 312.617C231.248 308.701 232.627 304.464 233.093 300.555C234.078 292.279 239.804 314.434 240.177 308.84C240.265 307.523 240.206 299.684 240.206 301.638C240.206 303.094 241.26 310.855 241.26 305.766C241.26 304.615 241.26 303.463 241.26 302.312C241.26 301.768 241.556 304.368 241.758 303.863C242.488 302.038 241.26 298.368 241.26 302.839C241.26 307.858 239.853 304.244 236.781 304.244C234.153 304.244 232.648 313.875 234 311.621C235.184 309.647 232.851 301.61 233.883 305.737C234.423 307.897 235.721 305.509 236.518 304.712" stroke="#00ADB5" stroke-opacity="0.5" stroke-linecap="round" stroke-linejoin="round"/>
</svg>
