<svg width="233" height="131" viewBox="0 0 233 131" fill="none" xmlns="http://www.w3.org/2000/svg">
<path d="M6.84918 47.4505C18.7826 41.765 28.4294 32.3647 38.1296 23.5002C45.7536 16.5331 53.7488 9.64866 62.1626 3.63631C63.8228 2.44995 66.1682 0.0624502 68.4125 1.08C70.6365 2.08833 71.9186 4.83367 73.6763 6.45937C78.005 10.4629 81.8971 15.3552 85.456 20.06C89.3737 25.2391 83.4987 28.1055 79.8669 31.4964C75.7415 35.3482 71.8016 39.3202 67.2954 42.719C63.0121 45.9496 59.5706 50.4025 55.6494 54.0597C49.6735 59.6336 44.0841 65.5677 38.1254 71.1472C34.5783 74.4686 30.5085 77.1801 27.0927 80.6195C25.8958 81.8247 24.7888 83.4176 23.4084 84.4211C22.2998 85.2271 20.7655 82.1276 20.3708 81.5439C17.2383 76.9107 12.3857 73.7412 9.31833 68.8952C7.38972 65.8482 6.09201 62.0878 3.7835 59.3052C2.68149 57.9769 -0.073615 54.9869 1.13348 53.0465C2.36595 51.0653 5.86551 50.1161 7.77435 48.6972C9.26233 47.5911 11.0712 46.2255 12.7646 45.4564C13.9954 44.8974 15.2037 43.9067 16.3044 43.1436C19.2013 41.1356 16.1315 41.9939 14.1723 42.74" stroke="#00ADB5" stroke-opacity="0.5" stroke-width="1.66333" stroke-linecap="round" stroke-linejoin="round"/>
<path d="M8.67166 56.5466C15.9364 61.0439 22.4529 67.5522 28.1243 73.9709C28.2679 74.1335 29.6482 75.0954 29.4377 75.4515C29.0315 76.1389 24.3163 73.0359 23.8659 72.7251" stroke="#00ADB5" stroke-opacity="0.5" stroke-width="1.66333" stroke-linecap="round" stroke-linejoin="round"/>
<path d="M15.8746 50.0447C21.7644 51.7312 25.2745 54.9403 30.0299 58.3738C32.1481 59.9032 34.3056 61.2835 36.2069 63.082C37.0997 63.9265 37.7355 65.0386 38.5604 65.9493C39.691 67.1975 35.0741 64.5003 34.5302 64.1896" stroke="#00ADB5" stroke-opacity="0.5" stroke-width="1.66333" stroke-linecap="round" stroke-linejoin="round"/>
<path d="M24.4328 45.0043C28.5544 48.724 32.6977 52.3925 36.9486 55.9627C38.5635 57.3191 40.3968 58.5638 41.7915 60.1613C44.2675 62.9971 41.0249 59.3174 39.9236 58.2786" stroke="#00ADB5" stroke-opacity="0.5" stroke-width="1.66333" stroke-linecap="round" stroke-linejoin="round"/>
<path d="M30.2061 41.4585C33.2633 43.3171 36.4567 45.1182 39.0453 47.6245C40.1072 48.6526 40.9882 49.8643 42.1234 50.8167C43.522 51.99 44.7471 53.3587 46.1549 54.4991C48.1596 56.123 48.461 56.5971 46.0796 54.559" stroke="#00ADB5" stroke-opacity="0.5" stroke-width="1.66333" stroke-linecap="round" stroke-linejoin="round"/>
<path d="M37.6515 36.0002C41.0244 38.6397 44.146 41.3202 46.9663 44.5402C48.2154 45.9663 49.222 47.6125 50.8073 48.7066C52.2596 49.7089 53.2776 49.9985 51.5775 48.3696" stroke="#00ADB5" stroke-opacity="0.5" stroke-width="1.66333" stroke-linecap="round" stroke-linejoin="round"/>
<path d="M44.8192 30.4376C47.789 32.6691 50.7169 34.7061 53.0891 37.5802C54.175 38.896 55.0324 40.4082 56.2451 41.6217C58.7078 44.086 57.0142 42.8438 55.2328 41.1712" stroke="#00ADB5" stroke-opacity="0.5" stroke-width="1.66333" stroke-linecap="round" stroke-linejoin="round"/>
<path d="M51.4296 24.6658C55.5989 28.6543 59.0908 33.3259 63.2676 37.2655C66.0799 39.9181 62.0504 35.6674 61.3911 34.9123" stroke="#00ADB5" stroke-opacity="0.5" stroke-width="1.66333" stroke-linecap="round" stroke-linejoin="round"/>
<path d="M59.501 20.0775C63.0104 18.6446 66.6508 16.9367 68.5368 13.4353C69.0568 12.4697 69.7269 11.6292 69.9406 10.5411C70.2341 9.04682 70.1767 9.68783 69.0691 10.6549" stroke="#00ADB5" stroke-opacity="0.5" stroke-width="1.66333" stroke-linecap="round" stroke-linejoin="round"/>
<path d="M65.1502 24.8967C67.9324 22.3149 71.0426 19.4947 73.0813 16.2174C74.0982 14.5828 76.0351 12.5875 73.3271 14.9518" stroke="#00ADB5" stroke-opacity="0.5" stroke-width="1.66333" stroke-linecap="round" stroke-linejoin="round"/>
<path d="M74.0701 30.3081C76.6051 27.5533 78.8609 24.9912 81.1944 22.1107C81.9483 21.18 84.2451 19.9723 81.4818 20.7108" stroke="#00ADB5" stroke-opacity="0.5" stroke-width="1.66333" stroke-linecap="round" stroke-linejoin="round"/>
<path d="M72.0524 28.9162C74.7059 26.6424 77.7066 23.995 79.8093 21.1238C80.3702 20.358 80.8018 19.5048 81.3154 18.709C82.1758 17.3759 82.2302 17.826 80.9253 17.963" stroke="#00ADB5" stroke-opacity="0.5" stroke-width="1.66333" stroke-linecap="round" stroke-linejoin="round"/>
<path d="M15.8352 61.1401C29.0547 55.7701 32.3165 41.196 43.0892 32.9538C44.3997 31.9511 45.4642 30.8366 46.9924 30.1426C48.0143 29.6785 49.2761 29.4564 50.2063 28.8625C50.7737 28.5003 55.4853 24.9009 52.2109 26.3879" stroke="#00ADB5" stroke-opacity="0.5" stroke-width="1.66333" stroke-linecap="round" stroke-linejoin="round"/>
<path d="M9.68139 57.2426C11.1648 55.4387 12.4819 53.8948 14.364 52.5902C14.6726 52.3762 15.1489 52.3401 15.4028 52.0543C15.9056 51.4881 16.6676 50.6604 16.8614 49.9302C17.6247 47.0543 21.3544 47.5861 23.3349 46.144C25.219 44.7722 27.0328 43.3835 28.9535 42.0282C31.0696 40.5349 32.0487 39.2254 33.7482 37.312C35.3093 35.5544 36.8248 33.7766 38.4773 32.1128C39.8292 30.7515 41.9534 29.5135 42.8139 27.7713C43.785 25.8051 46.267 23.5548 48.501 23.9192C49.2684 24.0444 54.9064 27.3115 51.2212 25.2225" stroke="#00ADB5" stroke-opacity="0.5" stroke-width="1.66333" stroke-linecap="round" stroke-linejoin="round"/>
<path d="M189.414 130.167C190.897 128.363 192.215 126.819 194.097 125.515C194.405 125.301 194.882 125.265 195.135 124.979C195.638 124.413 196.4 123.585 196.594 122.855C197.357 119.979 201.087 120.511 203.068 119.069C204.952 117.697 206.765 116.308 208.686 114.953C210.802 113.46 211.781 112.15 213.481 110.237C215.042 108.479 216.557 106.701 218.21 105.037C219.562 103.676 221.686 102.438 222.547 100.696C223.518 98.7298 226 96.4794 228.234 96.8439C229.001 96.9691 234.639 100.236 230.954 98.1472" stroke="#00ADB5" stroke-opacity="0.5" stroke-width="1.66333" stroke-linecap="round" stroke-linejoin="round"/>
<path d="M21.6423 64.2724C31.5762 59.0324 37.0893 47.608 43.7989 38.978C46.2702 35.7993 49.802 33.6871 52.3889 30.5637C53.4953 29.2278 55.9389 27.8087 53.097 27.8317" stroke="#00ADB5" stroke-opacity="0.5" stroke-width="1.66333" stroke-linecap="round" stroke-linejoin="round"/>
<path d="M25.1891 67.5081C34.1902 61.9743 39.9537 51.6787 46.5027 43.5198C49.4821 39.8079 52.3578 36.0182 55.3738 32.3366C56.7489 30.658 59.1464 29.6094 56.0698 31.3281" stroke="#00ADB5" stroke-opacity="0.5" stroke-width="1.66333" stroke-linecap="round" stroke-linejoin="round"/>
<path d="M28.7356 73.2831C34.3524 67.8057 38.8873 61.895 43.483 55.5591C46.2775 51.7065 48.6932 47.3761 51.9746 43.9072C53.8573 41.9168 55.3069 39.5862 57.0162 37.4762C57.7048 36.6261 58.1799 35.6357 58.8876 34.7928C60.4816 32.8941 59.3702 34.6118 58.2602 35.6419" stroke="#00ADB5" stroke-opacity="0.5" stroke-width="1.66333" stroke-linecap="round" stroke-linejoin="round"/>
<path d="M30.057 75.6836C32.8522 72.9455 36.9476 70.31 38.8123 66.7582C39.4893 65.4687 41.1647 62.3554 42.3396 61.5663C43.8926 60.5232 44.6327 58.3042 45.7632 56.9087C46.9405 55.4554 48.0929 54.0372 49.3703 52.6549C50.5682 51.3587 50.9517 49.0837 52.4346 47.9681C54.0865 46.7254 54.8903 44.8019 56.208 43.3183C57.3485 42.0343 59.5197 40.7037 60.9347 39.7229C61.7187 39.1794 62.2662 38.4386 63.1555 38.0348C64.9577 37.2163 63.7881 37.6352 62.1382 37.5736" stroke="#00ADB5" stroke-opacity="0.5" stroke-width="1.66333" stroke-linecap="round" stroke-linejoin="round"/>
<path d="M59.274 21.1033C61.5863 21.7129 64.4373 22.1315 66.5445 23.3917C67.9044 24.2049 69.0884 25.0214 66.6121 23.5405" stroke="#00ADB5" stroke-opacity="0.5" stroke-width="1.66333" stroke-linecap="round" stroke-linejoin="round"/>
<path d="M61.6756 17.2435C64.9741 18.1052 67.3052 19.0712 69.9949 20.8249C71.7536 21.9715 71.4714 21.654 69.6395 20.5504" stroke="#00ADB5" stroke-opacity="0.5" stroke-width="1.66333" stroke-linecap="round" stroke-linejoin="round"/>
<path d="M65.677 13.3494C68.5094 14.9423 71.2574 16.7526 74.1863 18.1395C75.9089 18.9552 75.0048 18.8982 73.6751 18.2562" stroke="#00ADB5" stroke-opacity="0.5" stroke-width="1.66333" stroke-linecap="round" stroke-linejoin="round"/>
<path d="M67.9554 10.237C70.9336 11.593 73.6792 12.9435 76.4213 14.6493C77.6718 15.4272 76.5369 15.4775 75.5884 14.8481" stroke="#00ADB5" stroke-opacity="0.5" stroke-width="1.66333" stroke-linecap="round" stroke-linejoin="round"/>
<path d="M60.734 19.7475C62.9842 17.0723 65.2414 14.5374 67.2901 11.7953C67.8722 11.0162 71.4173 6.67866 69.8852 8.89864" stroke="#00ADB5" stroke-opacity="0.5" stroke-width="1.66333" stroke-linecap="round" stroke-linejoin="round"/>
<path d="M63.0991 24.4438C66.0268 21.8555 70.2461 18.4045 71.191 14.5376C71.4691 13.3996 72.0723 12.2622 72.9562 11.4793C73.8527 10.6854 74.7899 10.3268 73.4508 11.665" stroke="#00ADB5" stroke-opacity="0.5" stroke-width="1.66333" stroke-linecap="round" stroke-linejoin="round"/>
<path d="M60.7513 24.356C63.8732 20.9936 66.5413 18.7337 68.305 14.5916C68.7631 13.5159 69.2883 12.6243 70.0402 11.7778C70.837 10.8807 71.9808 10.0407 70.4422 11.6465" stroke="#00ADB5" stroke-opacity="0.5" stroke-width="1.66333" stroke-linecap="round" stroke-linejoin="round"/>
<path d="M72.3499 26.0121C73.7875 26.9235 75.2289 27.768 76.7229 28.5265C77.3399 28.8397 76.5766 28.2335 76.3143 28.135" stroke="#00ADB5" stroke-opacity="0.5" stroke-width="1.66333" stroke-linecap="round" stroke-linejoin="round"/>
<path d="M75.1505 21.5088C75.2476 21.5913 80.8991 26.4337 79.8969 25.3537" stroke="#00ADB5" stroke-opacity="0.5" stroke-width="1.66333" stroke-linecap="round" stroke-linejoin="round"/>
<path d="M78.5085 19.7533C79.7551 20.9528 83.5732 24.4607 82.2289 23.3718" stroke="#00ADB5" stroke-opacity="0.5" stroke-width="1.66333" stroke-linecap="round" stroke-linejoin="round"/>
<path d="M70.6802 27.9245C72.7462 26.0006 77.2771 22.189 78.3872 19.2317C78.8247 18.0663 80.8286 16.5688 78.9441 18.171" stroke="#00ADB5" stroke-opacity="0.5" stroke-width="1.66333" stroke-linecap="round" stroke-linejoin="round"/>
<path d="M70.9396 28.4983C71.1357 28.6554 75.0873 32.9114 75.93 30.8477C76.3601 29.7944 76.9202 28.4223 77.9753 27.8417C79.8264 26.8231 80.168 23.6149 82.0629 22.7543C84.2125 21.7781 84.0117 20.1409 82.0099 19.5602C81.2233 19.332 81.8438 17.7821 81.0269 17.9039C80.2792 18.0154 79.8832 17.7393 79.0472 17.8926" stroke="#00ADB5" stroke-opacity="0.5" stroke-width="1.66333" stroke-linecap="round" stroke-linejoin="round"/>
<path d="M59.0128 20.5294C60.3681 23.1192 60.6244 24.0582 62.8111 25.1383C63.4013 25.4298 64.1718 25.0255 64.6197 25.2529C65.506 25.7028 67.2577 25.7123 67.9193 24.8956C69.2496 23.2534 69.7392 22.1934 71.7774 21.1945C73.0632 20.5643 74.0974 19.0774 74.6924 17.8449C75.3464 16.4902 76.524 15.4694 77.2144 14.1096C77.5083 13.5305 75.1354 12.0392 75.114 11.0375C75.1079 10.7534 72.2903 10.7449 71.8215 10.5069C71.2535 10.2186 70.9931 9.8121 70.7205 9.21191C70.3224 8.33526 69.6164 9.42373 68.5466 9.50683" stroke="#00ADB5" stroke-opacity="0.5" stroke-width="1.66333" stroke-linecap="round" stroke-linejoin="round"/>
<path d="M12.0824 53.3826C15.2835 54.5993 18.0751 56.168 20.957 57.9043C23.4591 59.4116 26.2867 60.2148 28.7729 61.6758C30.5429 62.716 32.3798 65.0906 33.6861 66.6503C34.1214 67.1699 34.4464 67.6562 34.7551 68.2419C35.4633 69.5856 34.7265 66.3371 34.6515 65.981" stroke="#00ADB5" stroke-opacity="0.5" stroke-width="1.66333" stroke-linecap="round" stroke-linejoin="round"/>
<path d="M42.9926 28.9587C43.8803 29.8907 47.4747 35.0361 46.7657 31.1686" stroke="#00ADB5" stroke-opacity="0.5" stroke-width="1.66333" stroke-linecap="round" stroke-linejoin="round"/>
</svg>
