<svg width="40" height="45" viewBox="0 0 40 45" fill="none" xmlns="http://www.w3.org/2000/svg">
<path d="M29.8631 4.83136C30.4559 3.03283 30.7836 1.78911 32.4929 0.924616C33.1253 0.604803 33.5862 0.456803 33.9342 1.13955C34.4007 2.05448 34.2143 3.28335 34.048 4.26242C33.6606 6.54419 33.7232 8.92393 33.4159 11.2288C33.1833 12.9733 32.5341 18.7315 34.8698 19.5101C35.7796 19.8133 37.6906 18.498 37.5755 17.4619C37.5229 16.9883 37.3087 14.8864 36.3491 15.5528C34.6799 16.7119 36.7767 20.0838 37.3732 21.4698C38.6335 24.3983 39.6033 28.956 39.2823 32.1659C39.1174 33.8145 38.2728 35.0426 37.2341 36.237C36.5537 37.0195 35.6326 39.3989 34.1365 38.6645C32.6744 37.9467 31.3188 35.8984 31.5953 34.2394C31.7645 33.2238 32.1975 34.5571 31.57 33.0509" stroke="#00ADB5" stroke-opacity="0.2" stroke-width="1.28667" stroke-linecap="round" stroke-linejoin="round"/>
<path d="M11.4291 6.76559C10.871 5.44838 10.6623 4.35367 9.30507 3.89559C8.53354 3.6352 7.83347 3.43616 7.01665 3.37722C5.21055 3.24688 3.66811 4.6994 4.14665 6.53801C4.90472 9.45058 6.2739 11.8319 6.30864 14.9584C6.32847 16.7438 6.34663 18.5497 5.99256 20.3064C5.66923 21.9106 5.53011 24.3393 4.32366 25.5913C3.63071 26.3104 2.36102 27.5193 1.27665 27.1338C0.254049 26.7702 0.690111 25.3853 1.18815 24.6936C2.16566 23.336 3.54724 26.5679 3.6915 27.3613C4.16398 29.96 4.55797 32.6414 4.87996 35.2633C5.1163 37.1878 5.13885 39.2327 6.02416 41.0033C6.6168 42.1886 7.74272 44.3828 9.36196 44.24C10.2599 44.1607 11.667 43.3264 11.9285 42.4257C12.323 41.0669 11.7965 40.8775 10.974 40.2194" stroke="#00ADB5" stroke-opacity="0.2" stroke-width="1.28667" stroke-linecap="round" stroke-linejoin="round"/>
</svg>
