<svg width="32" height="32" viewBox="0 0 32 32" fill="none" xmlns="http://www.w3.org/2000/svg">
<path d="M31.3075 8.31424H31.8711V7.9659L31.5595 7.81012L31.3075 8.31424ZM31.3075 23.6858L31.5595 24.1899L31.8711 24.0341V23.6858H31.3075ZM15.936 31.3715L15.6839 31.8756L15.936 32.0017L16.188 31.8756L15.936 31.3715ZM0.564423 23.6858H0.000800588V24.0341L0.312364 24.1899L0.564423 23.6858ZM0.564423 8.31424L0.312364 7.81012L0.000800588 7.9659V8.31424H0.564423ZM15.936 0.628471L16.188 0.124352L15.936 -0.00167802L15.6839 0.124352L15.936 0.628471ZM31.3075 8.31424H30.7439V23.6858H31.3075H31.8711V8.31424H31.3075ZM31.3075 23.6858L31.0554 23.1816L15.6839 30.8674L15.936 31.3715L16.188 31.8756L31.5595 24.1899L31.3075 23.6858ZM15.936 31.3715L16.188 30.8674L0.816483 23.1816L0.564423 23.6858L0.312364 24.1899L15.6839 31.8756L15.936 31.3715ZM0.564423 23.6858H1.12805V8.31424H0.564423H0.000800588V23.6858H0.564423ZM0.564423 8.31424L0.816483 8.81835L16.188 1.13259L15.936 0.628471L15.6839 0.124352L0.312364 7.81012L0.564423 8.31424ZM15.936 0.628471L15.6839 1.13259L31.0554 8.81835L31.3075 8.31424L31.5595 7.81012L16.188 0.124352L15.936 0.628471Z" fill="#5DA96A"/>
</svg>
