<svg width="44" height="23" viewBox="0 0 44 23" fill="none" xmlns="http://www.w3.org/2000/svg">
<path d="M6.01867 9.39857C3.94959 9.70465 1.51508 9.86616 1.0223 12.33C0.640421 14.2395 0.784964 16.2047 1.9295 17.8612C3.88529 20.692 6.79105 22.3441 10.2906 21.7608C13.4197 21.2393 17.7175 18.4038 17.7175 14.8824C17.7175 12.8965 16.2875 10.8981 15.1042 9.41211C13.8359 7.81938 12.7402 6.14468 11.1437 4.84227C8.99029 3.08557 7.25081 2.91312 5.31457 4.98444C4.25505 6.11789 3.25304 7.66413 2.78931 9.14808C2.56071 9.87958 2.72838 10.466 2.72838 11.1994C2.72838 12.1769 2.54701 10.7353 2.72838 10.2516" stroke="#00ADB5" stroke-opacity="0.5" stroke-width="1.66333" stroke-linecap="round" stroke-linejoin="round"/>
<path d="M16.7424 14.9937C18.5032 16.557 19.9956 17.971 23.1091 18.0473C25.2892 18.1007 27.4683 17.5565 29.5112 16.9709C30.9737 16.5517 35.6629 14.3308 31.8633 14.1513" stroke="#00ADB5" stroke-opacity="0.5" stroke-width="1.66333" stroke-linecap="round" stroke-linejoin="round"/>
<path d="M34.8998 1.3557C32.5763 3.92162 29.3692 8.94975 30.5737 12.804C30.9972 14.1593 31.6124 15.0719 32.4084 16.2297C34.0104 18.5598 36.4932 17.8336 38.7452 17.2249C40.3779 16.7836 42.3177 15.3936 42.9427 13.8128C43.8053 11.6309 42.0077 8.21983 40.5055 6.71765C38.8283 5.04044 37.4996 2.99995 35.631 1.53172C35.1338 1.14105 34.7562 0.717365 34.1077 0.861479C33.3787 1.02348 33.0785 1.72129 34.0468 1.72129" stroke="#00ADB5" stroke-opacity="0.5" stroke-width="1.66333" stroke-linecap="round" stroke-linejoin="round"/>
</svg>
