<svg width="33" height="23" viewBox="0 0 33 23" fill="none" xmlns="http://www.w3.org/2000/svg">
<path d="M2.84961 14.5V15.1V14.5ZM4.97168 16L5.53743 15.8002L5.53739 15.8001L4.97168 16ZM5.09961 16.75H5.69961H5.09961ZM0.599609 16.75H-0.000390649H0.599609ZM0.727539 16L0.161832 15.8001L0.161793 15.8002L0.727539 16ZM26.0996 9.78613H26.6996C26.6996 9.63707 26.6441 9.49335 26.544 9.38296L26.0996 9.78613ZM26.0996 16V16.6C26.431 16.6 26.6996 16.3314 26.6996 16H26.0996ZM22.9717 16V15.4C22.7769 15.4 22.5943 15.4945 22.4818 15.6535C22.3694 15.8125 22.3411 16.0162 22.4059 16.1998L22.9717 16ZM23.0996 16.75H23.6996H23.0996ZM18.5996 16.75H17.9996H18.5996ZM18.7275 16L19.2933 16.1998C19.3581 16.0162 19.3298 15.8125 19.2174 15.6535C19.1049 15.4945 18.9223 15.4 18.7275 15.4V16ZM15.5996 16H14.9996C14.9996 16.3314 15.2682 16.6 15.5996 16.6V16ZM15.5996 4V3.4C15.2682 3.4 14.9996 3.66863 14.9996 4H15.5996ZM20.8496 4L21.294 3.59682C21.1802 3.47148 21.0189 3.4 20.8496 3.4V4ZM2.84961 14.5V15.1C3.56714 15.1 4.1792 15.5583 4.40597 16.1999L4.97168 16L5.53739 15.8001C5.14643 14.6939 4.09143 13.9 2.84961 13.9V14.5ZM4.97168 16L4.40593 16.1998C4.46638 16.371 4.49961 16.5562 4.49961 16.75H5.09961H5.69961C5.69961 16.4182 5.64261 16.098 5.53743 15.8002L4.97168 16ZM5.09961 16.75H4.49961C4.49961 17.6613 3.76088 18.4 2.84961 18.4V19V19.6C4.42362 19.6 5.69961 18.324 5.69961 16.75H5.09961ZM2.84961 19V18.4C1.93834 18.4 1.19961 17.6613 1.19961 16.75H0.599609H-0.000390649C-0.000389636 18.324 1.2756 19.6 2.84961 19.6V19ZM0.599609 16.75H1.19961C1.19961 16.5562 1.23284 16.371 1.29328 16.1998L0.727539 16L0.161793 15.8002C0.0566126 16.098 -0.000390649 16.4182 -0.000390649 16.75H0.599609ZM0.727539 16L1.29325 16.1999C1.52002 15.5583 2.13208 15.1 2.84961 15.1V14.5V13.9C1.60779 13.9 0.552793 14.6939 0.161832 15.8001L0.727539 16ZM26.0996 9.78613H25.4996V16H26.0996H26.6996V9.78613H26.0996ZM26.0996 16V15.4H22.9717V16V16.6H26.0996V16ZM22.9717 16L22.4059 16.1998C22.4664 16.371 22.4996 16.5562 22.4996 16.75H23.0996H23.6996C23.6996 16.4182 23.6426 16.098 23.5374 15.8002L22.9717 16ZM23.0996 16.75H22.4996C22.4996 17.6613 21.7609 18.4 20.8496 18.4V19V19.6C22.4236 19.6 23.6996 18.324 23.6996 16.75H23.0996ZM20.8496 19V18.4C19.9383 18.4 19.1996 17.6613 19.1996 16.75H18.5996H17.9996C17.9996 18.324 19.2756 19.6 20.8496 19.6V19ZM18.5996 16.75H19.1996C19.1996 16.5562 19.2328 16.371 19.2933 16.1998L18.7275 16L18.1618 15.8002C18.0566 16.098 17.9996 16.4182 17.9996 16.75H18.5996ZM18.7275 16V15.4H15.5996V16V16.6H18.7275V16ZM15.5996 16H16.1996V4H15.5996H14.9996V16H15.5996ZM15.5996 4V4.6H20.8496V4V3.4H15.5996V4ZM20.8496 4L20.4053 4.40318L25.6553 10.1893L26.0996 9.78613L26.544 9.38296L21.294 3.59682L20.8496 4Z" fill="#5DA96A"/>
</svg>
