<svg width="387" height="302" viewBox="0 0 387 302" fill="none" xmlns="http://www.w3.org/2000/svg">
<path d="M82.2602 145.935L150.323 142.643C150.323 142.643 210.194 118.636 238.063 166.75C265.931 214.864 186.254 275.244 186.254 275.244L158.238 269.304L174.325 208.968C174.325 208.968 105.564 226.022 82.2602 145.935Z" fill="#00ADB5"/>
<path d="M82.2602 145.935L82.2264 145.236C82.0123 145.246 81.8147 145.354 81.6903 145.528C81.5658 145.703 81.5281 145.925 81.588 146.131L82.2602 145.935ZM150.323 142.643L150.356 143.343L150.474 143.337L150.583 143.293L150.323 142.643ZM186.254 275.244L186.109 275.929L186.422 275.995L186.677 275.802L186.254 275.244ZM158.238 269.304L157.562 269.123L157.372 269.836L158.093 269.989L158.238 269.304ZM174.325 208.968L175.001 209.149L175.307 208.003L174.156 208.289L174.325 208.968ZM82.2602 145.935L82.294 146.634L150.356 143.343L150.323 142.643L150.289 141.944L82.2264 145.236L82.2602 145.935ZM186.254 275.244L186.399 274.559L158.384 268.619L158.238 269.304L158.093 269.989L186.109 275.929L186.254 275.244ZM158.238 269.304L158.915 269.484L175.001 209.149L174.325 208.968L173.648 208.788L157.562 269.123L158.238 269.304ZM174.325 208.968C174.156 208.289 174.157 208.289 174.156 208.289C174.156 208.289 174.156 208.289 174.155 208.289C174.153 208.289 174.151 208.29 174.147 208.291C174.14 208.293 174.128 208.295 174.113 208.299C174.082 208.307 174.035 208.318 173.971 208.332C173.845 208.361 173.655 208.403 173.405 208.455C172.905 208.558 172.166 208.7 171.214 208.853C169.309 209.16 166.558 209.51 163.181 209.682C156.426 210.027 147.183 209.658 137.224 206.811C117.351 201.13 94.5167 185.551 82.9324 145.739L82.2602 145.935L81.588 146.131C93.3072 186.406 116.505 202.344 136.839 208.157C146.983 211.058 156.387 211.431 163.253 211.081C166.686 210.905 169.489 210.549 171.436 210.236C172.41 210.079 173.17 209.933 173.689 209.826C173.948 209.772 174.147 209.728 174.283 209.697C174.35 209.682 174.402 209.67 174.437 209.661C174.455 209.657 174.468 209.654 174.478 209.652C174.482 209.65 174.486 209.649 174.489 209.649C174.49 209.649 174.491 209.648 174.492 209.648C174.493 209.648 174.493 209.648 174.325 208.968ZM150.323 142.643C150.583 143.293 150.583 143.293 150.583 143.293C150.584 143.293 150.584 143.293 150.585 143.292C150.586 143.292 150.589 143.291 150.592 143.29C150.598 143.287 150.608 143.283 150.622 143.278C150.65 143.267 150.691 143.251 150.747 143.229C150.858 143.186 151.024 143.123 151.244 143.042C151.683 142.881 152.332 142.649 153.17 142.37C154.847 141.812 157.277 141.068 160.281 140.323C166.292 138.834 174.589 137.348 183.741 137.354C202.036 137.367 223.688 143.33 237.457 167.101L238.063 166.75L238.669 166.4C224.569 142.057 202.35 135.967 183.742 135.954C174.444 135.948 166.03 137.456 159.945 138.964C156.9 139.719 154.435 140.474 152.729 141.041C151.875 141.325 151.212 141.562 150.76 141.728C150.534 141.812 150.361 141.877 150.244 141.923C150.185 141.945 150.14 141.963 150.11 141.974C150.095 141.98 150.083 141.985 150.075 141.988C150.071 141.99 150.068 141.991 150.066 141.992C150.065 141.992 150.064 141.993 150.063 141.993C150.062 141.993 150.062 141.993 150.323 142.643ZM238.063 166.75L237.457 167.101C244.307 178.928 244.563 191.518 241.051 203.808C237.535 216.114 230.247 228.091 222.057 238.61C213.871 249.123 204.813 258.144 197.796 264.54C194.289 267.737 191.295 270.276 189.179 272.014C188.121 272.884 187.282 273.553 186.709 274.004C186.422 274.229 186.202 274.4 186.054 274.515C185.98 274.572 185.924 274.615 185.886 274.644C185.868 274.658 185.854 274.669 185.844 274.676C185.84 274.679 185.836 274.682 185.834 274.683C185.833 274.684 185.832 274.685 185.832 274.685C185.831 274.686 185.831 274.686 186.254 275.244C186.677 275.802 186.677 275.801 186.678 275.801C186.679 275.8 186.68 275.799 186.681 275.798C186.684 275.796 186.687 275.794 186.692 275.79C186.703 275.782 186.717 275.771 186.737 275.756C186.776 275.726 186.834 275.682 186.909 275.623C187.061 275.506 187.285 275.332 187.575 275.104C188.155 274.647 189.001 273.972 190.067 273.096C192.2 271.345 195.212 268.79 198.74 265.575C205.792 259.146 214.911 250.066 223.161 239.47C231.407 228.88 238.813 216.74 242.398 204.193C245.987 191.63 245.753 178.63 238.669 166.4L238.063 166.75Z" fill="black"/>
<path d="M187.539 274.296L159.547 265.419L148.759 289.213C148.759 289.213 172.724 297.485 188.826 298.078L180.982 289.252L187.539 274.296Z" fill="#EEEEEE" stroke="black" stroke-width="1.39887" stroke-linejoin="round"/>
<path d="M79.4946 148.302L169.32 147.543C169.32 147.543 232.492 160.59 229.156 216.092C225.821 271.595 126.052 277.934 126.052 277.934L105.975 257.511L155.542 210.037C155.542 210.037 87.9752 225.319 79.4946 148.302Z" fill="#00ADB5" stroke="black" stroke-width="1.39887"/>
<path d="M127.645 277.853L109.211 254.995L87.0772 268.874C87.0772 268.874 102.489 289.005 115.585 298.391L113.92 286.702L127.645 277.853Z" fill="#EEEEEE" stroke="black" stroke-width="1.39887" stroke-linejoin="round"/>
<path fill-rule="evenodd" clip-rule="evenodd" d="M87.9038 55.2917C89.1946 53.4988 90.2072 51.4727 90.835 49.1882C95.575 31.9421 80.9097 20.7504 68.9739 17.8468C57.0381 14.9432 17.3937 46.2821 60.7841 67.8234C60.9012 67.817 61.0201 67.8098 61.1408 67.8018C68.0933 73.3034 70.3174 80.5639 72.986 89.2754C74.0745 92.8286 75.2369 96.6233 76.8243 100.638L96.6654 84.9685C97.1073 73.2881 93.9478 63.9644 87.9038 55.2917Z" fill="#F5B9AB"/>
<path d="M90.835 49.1882L91.5101 49.3737L90.835 49.1882ZM87.9038 55.2917L87.3356 54.8826C87.162 55.1238 87.1595 55.4482 87.3294 55.692L87.9038 55.2917ZM68.9739 17.8468L69.1394 17.1665L69.1394 17.1665L68.9739 17.8468ZM60.7841 67.8234L60.4728 68.4505C60.5811 68.5043 60.7016 68.5291 60.8224 68.5224L60.7841 67.8234ZM61.1408 67.8018L61.5752 67.2528C61.4391 67.1452 61.2679 67.0918 61.0948 67.1033L61.1408 67.8018ZM72.986 89.2754L73.6554 89.0703L72.986 89.2754ZM76.8243 100.638L76.1733 100.896C76.2547 101.102 76.4286 101.257 76.6424 101.314C76.8562 101.372 77.0845 101.325 77.2582 101.188L76.8243 100.638ZM96.6654 84.9685L97.0993 85.5179C97.2601 85.3908 97.3572 85.1997 97.3649 84.9949L96.6654 84.9685ZM90.835 49.1882L90.16 49.0026C89.5555 51.2019 88.581 53.153 87.3356 54.8826L87.9038 55.2917L88.4719 55.7008C89.8083 53.8447 90.8588 51.7435 91.5101 49.3737L90.835 49.1882ZM68.9739 17.8468L68.8085 18.527C74.6584 19.9501 81.1715 23.4072 85.6268 28.5952C90.0609 33.7584 92.4605 40.6322 90.16 49.0026L90.835 49.1882L91.5101 49.3737C93.9495 40.4981 91.3865 33.1529 86.689 27.6829C82.0127 22.2376 75.2253 18.647 69.1394 17.1665L68.9739 17.8468ZM60.7841 67.8234L61.0954 67.1963C50.3338 61.8537 44.8492 55.9659 42.7363 50.2748C40.6302 44.602 41.8207 38.9776 44.7351 34.0232C47.6551 29.0594 52.2819 24.8184 56.9206 21.9998C59.2375 20.592 61.5392 19.5502 63.6105 18.9494C65.6948 18.3449 67.4841 18.2049 68.8085 18.527L68.9739 17.8468L69.1394 17.1665C67.4798 16.7628 65.4193 16.967 63.2205 17.6047C61.0086 18.2462 58.5939 19.3446 56.1935 20.8032C51.398 23.7171 46.5876 28.1127 43.5283 33.3133C40.4634 38.5234 39.1326 44.5912 41.4237 50.7622C43.708 56.9149 49.5392 63.0225 60.4728 68.4505L60.7841 67.8234ZM61.1408 67.8018L61.0948 67.1033C60.9766 67.111 60.8602 67.1181 60.7457 67.1243L60.7841 67.8234L60.8224 68.5224C60.9421 68.5159 61.0636 68.5085 61.1868 68.5004L61.1408 67.8018ZM72.986 89.2754L73.6554 89.0703C70.9958 80.3882 68.7237 72.9095 61.5752 67.2528L61.1408 67.8018L60.7064 68.3508C67.4629 73.6974 69.639 80.7396 72.3166 89.4804L72.986 89.2754ZM76.8243 100.638L77.4754 100.381C75.8996 96.3953 74.7446 92.6259 73.6554 89.0703L72.986 89.2754L72.3166 89.4804C73.4044 93.0314 74.5743 96.8513 76.1733 100.896L76.8243 100.638ZM96.6654 84.9685L96.2314 84.419L76.3904 100.089L76.8243 100.638L77.2582 101.188L97.0993 85.5179L96.6654 84.9685ZM87.9038 55.2917L87.3294 55.692C93.2928 64.249 96.4015 73.4246 95.9658 84.942L96.6654 84.9685L97.3649 84.9949C97.813 73.1516 94.6028 63.6797 88.4781 54.8914L87.9038 55.2917Z" fill="black"/>
<path d="M42.7141 49.2858C42.5366 56.0447 53.674 64.8701 58.1741 65.9123C28.5779 68.5943 23.8973 32.4417 33.863 32.8411C28.1828 22.1594 37.2115 10.8921 50.7102 14.0165C59.5109 -14.9963 78.7821 11.1503 74.6712 19.9125C70.5603 28.6748 59.5641 30.4649 56.6595 35.5167C53.7549 40.5685 59.7464 55.1385 53.5318 49.0156C47.3171 42.8927 42.936 40.8372 42.7141 49.2858Z" fill="#00ADB5" stroke="black" stroke-width="1.39887"/>
<path d="M171.469 144.484C185.79 111.487 132.458 77.7444 132.458 77.7444C107.781 64.0393 72.5296 62.1559 60.9859 87.9149C42.3889 129.413 93.6537 172.447 112.77 200.008L171.469 144.484Z" fill="#EEEEEE"/>
<path d="M132.458 77.7444L132.832 77.1528L132.815 77.1421L132.798 77.1324L132.458 77.7444ZM171.469 144.484L171.95 144.992L172.055 144.894L172.112 144.762L171.469 144.484ZM112.77 200.008L112.195 200.407C112.311 200.575 112.495 200.684 112.698 200.705C112.901 200.726 113.103 200.657 113.251 200.517L112.77 200.008ZM60.9859 87.9149L60.347 87.6286L60.9859 87.9149ZM132.458 77.7444C132.084 78.336 132.084 78.336 132.084 78.3362C132.084 78.3364 132.085 78.3367 132.085 78.3371C132.087 78.338 132.089 78.3394 132.092 78.3413C132.098 78.3452 132.107 78.351 132.12 78.3589C132.144 78.3747 132.182 78.3986 132.231 78.4304C132.33 78.4941 132.477 78.5896 132.668 78.7159C133.051 78.9686 133.613 79.3444 134.324 79.8349C135.746 80.8161 137.763 82.2559 140.14 84.0869C144.897 87.7506 151.083 92.9726 156.819 99.214C168.346 111.757 177.803 128.131 170.827 144.205L171.469 144.484L172.112 144.762C179.456 127.84 169.408 110.844 157.85 98.2666C152.043 91.9478 145.791 86.6719 140.995 82.9776C138.596 81.1297 136.558 79.6755 135.119 78.6825C134.4 78.186 133.83 77.8046 133.439 77.5469C133.243 77.418 133.093 77.32 132.99 77.254C132.939 77.221 132.9 77.1959 132.874 77.179C132.86 77.1706 132.85 77.1641 132.843 77.1598C132.84 77.1576 132.837 77.1559 132.835 77.1547C132.834 77.1541 132.834 77.1536 132.833 77.1534C132.833 77.153 132.832 77.1528 132.458 77.7444ZM171.469 144.484L170.988 143.975L112.289 199.5L112.77 200.008L113.251 200.517L171.95 144.992L171.469 144.484ZM112.77 200.008L113.345 199.609C108.542 192.685 101.724 184.793 94.5344 176.251C87.3312 167.693 79.7351 158.46 73.3186 148.8C60.4668 129.454 52.4822 108.602 61.6248 88.2013L60.9859 87.9149L60.347 87.6286C50.8926 108.726 59.2418 130.14 72.1523 149.575C78.6169 159.307 86.2589 168.593 93.4631 177.153C100.681 185.728 107.439 193.551 112.195 200.407L112.77 200.008ZM132.458 77.7444L132.798 77.1324C120.362 70.2255 105.244 66.2843 91.7428 67.3326C78.2234 68.3824 66.2518 74.4525 60.347 87.6286L60.9859 87.9149L61.6248 88.2013C67.2637 75.6183 78.6896 69.7506 91.8512 68.7286C105.031 67.7052 119.877 71.5581 132.118 78.3564L132.458 77.7444Z" fill="black"/>
<path d="M187.301 129.264L166.941 105.294L137.351 128.341C132.66 94.5628 95.0803 67.3293 80.5395 71.1C41.4492 81.2379 85.7688 168.971 114.043 181.667C142.318 194.362 187.301 129.264 187.301 129.264Z" fill="#EEEEEE" stroke="black" stroke-width="1.39887"/>
<path d="M168.706 103.354L166.121 105.933L186.81 129.968L191.033 125.767C198.115 118.722 196.974 106.957 188.671 101.404C182.402 97.2117 174.045 98.028 168.706 103.354Z" fill="#F5B9AB" stroke="black" stroke-width="1.39887" stroke-linejoin="round"/>
<path fill-rule="evenodd" clip-rule="evenodd" d="M65.4418 197.424C65.1117 197.339 64.7794 197.581 64.78 197.922L64.939 289.185H46.6768C46.3992 289.185 46.1741 289.41 46.1741 289.688L46.1741 300.797C46.1741 301.075 46.3992 301.3 46.6768 301.3H98.6318C98.9094 301.3 99.1345 301.075 99.1345 300.797V289.688C99.1345 289.41 98.9094 289.185 98.6318 289.185H78.7977V197.447C78.7977 197.148 78.5374 196.915 78.24 196.949C77.2446 197.063 76.3101 197.18 75.4262 197.292C71.3601 197.804 68.3641 198.181 65.4418 197.424Z" fill="#00ADB5"/>
<path d="M64.78 197.922L64.0799 197.924V197.924L64.78 197.922ZM65.4418 197.424L65.6173 196.746V196.746L65.4418 197.424ZM64.939 289.185V289.885H65.6403L65.6391 289.184L64.939 289.185ZM46.1741 289.688H46.8742H46.1741ZM46.1741 300.797H45.474H46.1741ZM78.7977 289.185H78.0976V289.885H78.7977V289.185ZM78.24 196.949L78.1604 196.253V196.253L78.24 196.949ZM75.4262 197.292L75.3387 196.597L75.4262 197.292ZM64.78 197.922L65.4801 197.921C65.4802 197.99 65.4441 198.046 65.4053 198.075C65.3684 198.102 65.3172 198.115 65.2663 198.102L65.4418 197.424L65.6173 196.746C64.8718 196.553 64.0784 197.095 64.0799 197.924L64.78 197.922ZM64.939 289.185L65.6391 289.184L65.4801 197.921L64.78 197.922L64.0799 197.924L64.2389 289.186L64.939 289.185ZM46.6768 289.185V289.885H64.939V289.185V288.485H46.6768V289.185ZM46.1741 289.688H46.8742C46.8742 289.797 46.7858 289.885 46.6768 289.885V289.185V288.485C46.0125 288.485 45.474 289.023 45.474 289.688H46.1741ZM46.1741 300.797H46.8742L46.8742 289.688H46.1741H45.474L45.474 300.797H46.1741ZM46.6768 301.3V300.6C46.7858 300.6 46.8742 300.688 46.8742 300.797H46.1741H45.474C45.474 301.462 46.0125 302 46.6768 302V301.3ZM98.6318 301.3V300.6H46.6768V301.3V302H98.6318V301.3ZM99.1345 300.797H98.4344C98.4344 300.688 98.5228 300.6 98.6318 300.6V301.3V302C99.296 302 99.8345 301.462 99.8345 300.797H99.1345ZM99.1345 289.688H98.4344V300.797H99.1345H99.8345V289.688H99.1345ZM98.6318 289.185V289.885C98.5227 289.885 98.4344 289.797 98.4344 289.688H99.1345H99.8345C99.8345 289.023 99.2961 288.485 98.6318 288.485V289.185ZM78.7977 289.185V289.885H98.6318V289.185V288.485H78.7977V289.185ZM78.7977 197.447H78.0976V289.185H78.7977H79.4978V197.447H78.7977ZM78.24 196.949L78.3195 197.644C78.1999 197.658 78.0976 197.564 78.0976 197.447H78.7977H79.4978C79.4978 196.731 78.8749 196.171 78.1604 196.253L78.24 196.949ZM75.4262 197.292L75.5136 197.986C76.398 197.875 77.3287 197.758 78.3195 197.644L78.24 196.949L78.1604 196.253C77.1605 196.368 76.2222 196.486 75.3387 196.597L75.4262 197.292ZM65.4418 197.424L65.2663 198.102C68.3436 198.899 71.4832 198.494 75.5136 197.986L75.4262 197.292L75.3387 196.597C71.2371 197.114 68.3845 197.463 65.6173 196.746L65.4418 197.424Z" fill="black"/>
<path d="M43.8757 106.462C55.8201 134.932 33.3868 145.364 33.6482 164.289C34.01 190.48 76.724 215.752 103.455 161.028" stroke="black" stroke-width="1.39887"/>
<rect x="-4.18753" y="51.5376" width="32.5377" height="105.228" rx="15.8191" transform="rotate(-22.7603 -4.18753 51.5376)" fill="#00ADB5" stroke="black" stroke-width="1.39887"/>
<rect x="289.907" y="159.033" width="15.5766" height="142.266" rx="0.502194" fill="#00ADB5" stroke="black" stroke-width="1.39887"/>
<rect x="173.466" y="158.386" width="52.1561" height="112.621" rx="24.5617" transform="rotate(88.7489 173.466 158.386)" fill="#00ADB5" stroke="black" stroke-width="1.39887"/>
<rect x="385.775" y="131.749" width="32.5377" height="176.988" rx="15.8191" transform="rotate(88.7489 385.775 131.749)" fill="#00ADB5" stroke="black" stroke-width="1.39887"/>
<rect x="360.21" y="46.5207" width="83.075" height="15.5766" rx="2.00878" transform="rotate(105 360.21 46.5207)" fill="#00ADB5" stroke="black" stroke-width="1.39887"/>
<rect x="258.933" y="118.641" width="83.075" height="15.5766" rx="2.00878" fill="#EEEEEE" stroke="black" stroke-width="1.39887"/>
</svg>
