<svg width="24" height="17" viewBox="0 0 24 17" fill="none" xmlns="http://www.w3.org/2000/svg">
<path d="M15.9043 7.85671L10.7614 4.7658C10.6323 4.68814 10.4822 4.64354 10.3272 4.63677C10.1722 4.63 10.018 4.66131 9.88116 4.72735C9.74432 4.79339 9.62994 4.8917 9.55023 5.01177C9.47052 5.13184 9.42847 5.26916 9.42857 5.40909V11.5909C9.42847 11.7308 9.47052 11.8682 9.55023 11.9882C9.62994 12.1083 9.74432 12.2066 9.88116 12.2727C10.018 12.3387 10.1722 12.37 10.3272 12.3632C10.4822 12.3565 10.6323 12.3119 10.7614 12.2342L15.9043 9.1433C16.0219 9.07276 16.1183 8.97713 16.185 8.8649C16.2517 8.75267 16.2866 8.62732 16.2866 8.5C16.2866 8.37268 16.2517 8.24734 16.185 8.13511C16.1183 8.02288 16.0219 7.92724 15.9043 7.85671ZM11.1429 10.1469V6.85796L13.8836 8.5L11.1429 10.1469ZM23.3925 2.85137C23.2915 2.49528 23.0981 2.16594 22.8282 1.89051C22.5582 1.61508 22.2195 1.40146 21.84 1.26728C18.1671 -0.0115873 12.3214 3.67425e-06 12 3.67425e-06C11.6786 3.67425e-06 5.83286 -0.0115873 2.16 1.26728C1.78046 1.40146 1.44175 1.61508 1.17182 1.89051C0.90188 2.16594 0.708456 2.49528 0.6075 2.85137C0.33 3.81534 0 5.57716 0 8.5C0 11.4228 0.33 13.1847 0.6075 14.1486C0.708305 14.5049 0.901661 14.8344 1.17161 15.11C1.44155 15.3856 1.78034 15.5994 2.16 15.7337C5.67857 16.9575 11.1857 17 11.9293 17H12.0707C12.8143 17 18.3246 16.9575 21.84 15.7337C22.2197 15.5994 22.5585 15.3856 22.8284 15.11C23.0983 14.8344 23.2917 14.5049 23.3925 14.1486C23.67 13.1827 24 11.4228 24 8.5C24 5.57716 23.67 3.81534 23.3925 2.85137ZM21.7329 13.7661C21.7002 13.8846 21.6369 13.9945 21.548 14.0867C21.4592 14.1788 21.3474 14.2507 21.2218 14.2964C17.8307 15.4768 12.0632 15.4555 12.0075 15.4555H12C11.9421 15.4555 6.17893 15.4748 2.78571 14.2964C2.66011 14.2507 2.54831 14.1788 2.45947 14.0867C2.37064 13.9945 2.3073 13.8846 2.27464 13.7661C2.01429 12.8843 1.71429 11.2596 1.71429 8.5C1.71429 5.7404 2.01429 4.11574 2.26714 3.2387C2.29919 3.11948 2.36225 3.00886 2.45112 2.91598C2.53999 2.8231 2.65212 2.75062 2.77821 2.70455C6.04821 1.56574 11.5275 1.54546 11.9764 1.54546H12.0054C12.0632 1.54546 17.8318 1.52807 21.2196 2.70455C21.3452 2.75025 21.457 2.82213 21.5459 2.91431C21.6347 3.00648 21.6981 3.11633 21.7307 3.23483C21.9857 4.11574 22.2857 5.7404 22.2857 8.5C22.2857 11.2596 21.9857 12.8843 21.7329 13.7613V13.7661Z" fill="black"/>
</svg>
