<svg width="32" height="34" viewBox="0 0 32 34" fill="none" xmlns="http://www.w3.org/2000/svg">
<path d="M24.7336 12.4232L15.6431 20.7556C15.5587 20.8331 15.4585 20.8946 15.3481 20.9365C15.2378 20.9784 15.1195 21 15 21C14.8805 21 14.7622 20.9784 14.6519 20.9365C14.5415 20.8946 14.4413 20.8331 14.3568 20.7556L5.2664 12.4232C5.09583 12.2669 5 12.0548 5 11.8337C5 11.6126 5.09583 11.4005 5.2664 11.2442C5.43697 11.0878 5.66832 11 5.90955 11C6.15078 11 6.38213 11.0878 6.5527 11.2442L15 18.9881L23.4473 11.2442C23.5318 11.1668 23.632 11.1054 23.7424 11.0635C23.8527 11.0216 23.971 11 24.0904 11C24.2099 11 24.3282 11.0216 24.4385 11.0635C24.5489 11.1054 24.6491 11.1668 24.7336 11.2442C24.8181 11.3216 24.8851 11.4135 24.9308 11.5147C24.9765 11.6158 25 11.7242 25 11.8337C25 11.9432 24.9765 12.0516 24.9308 12.1527C24.8851 12.2539 24.8181 12.3458 24.7336 12.4232Z" fill="black"/>
</svg>

