<svg width="79" height="45" viewBox="0 0 79 45" fill="none" xmlns="http://www.w3.org/2000/svg">
<path d="M12.7749 42.3415C11.5664 38.7583 10.9866 33.0897 6.10267 33.7409C4.17509 33.9979 2.95746 34.5919 1.80235 36.1321C-2.14999 41.4019 7.09856 48.3888 9.72806 40.876C12.6421 32.5502 8.40272 27.4673 6.00625 19.7986C4.41616 14.7103 8.27157 30.5331 11.3865 34.8594C12.3378 36.1806 15.1738 40.9401 17.3645 40.1817C21.601 38.7153 20.1822 29.1004 15.8989 28.1485C11.4624 27.1626 16.5324 37.9961 17.7888 39.2175C22.5041 43.8019 30.1412 33.3987 27.3536 28.4571C26.3655 26.7054 23.9955 25.5861 22.5712 27.57C20.7919 30.0483 22.4908 33.5781 24.2296 35.5343C25.344 36.788 26.9798 32.9731 27.1222 32.4681C27.776 30.1502 27.2604 28.6393 25.9652 26.7987C24.6106 24.8737 25.7237 27.4518 26.0423 28.1871C26.8758 30.1106 27.7432 32.8457 29.9762 33.4709C33.4598 34.4463 36.8335 29.0574 37.5741 26.2009C38.0396 24.4056 36.0531 20.1052 33.9873 19.8757C31.9999 19.6549 31.7188 25.3395 32.0203 26.5287C32.3456 27.8116 32.8559 30.8869 34.643 30.8869C37.036 30.8869 37.6639 28.1087 37.3813 26.2009C36.588 20.8459 29.9377 16.3772 29.9377 10.6387C29.9377 8.10468 33.2772 14.5472 34.2958 16.8674C35.7484 20.176 37.4464 23.2097 39.0783 26.413C42.1553 32.4531 43.8926 26.389 42.4144 22.4212C40.7935 18.0705 37.5659 11.9413 34.2958 8.47888C33.6939 7.84154 36.882 11.0703 37.3427 11.7957C39.4854 15.1693 40.5122 19.0217 42.2794 22.5562C43.6759 25.3491 48.3136 33.2736 49.723 25.6223C50.6118 20.7974 46.4408 16.6984 46.0976 12.0657C45.9432 9.98098 46.4876 11.7417 47.139 12.9142C48.6384 15.6131 49.7008 18.5721 51.1308 21.322C51.7432 22.4998 52.6294 23.4956 53.5413 24.4074C54.7638 25.6299 52.4644 21.1168 52.0757 19.4322C51.6457 17.5689 53.7058 8.97433 56.4339 13.2613C58.0184 15.7513 58.1218 22.4524 61.0042 16.3275C61.5427 15.1831 61.7597 5.12232 59.2107 5.97196C56.289 6.94587 61.958 16.9446 63.7811 18.198C69.1118 21.8629 69.2423 9.12673 69.007 7.2447C68.8698 6.14729 68.5749 1.05115 66.9051 0.842422C64.4872 0.540194 66.2709 7.7648 66.6544 8.51745C68.5105 12.161 73.5575 5.59988 75.9492 6.45406C79.0672 7.5676 77.7008 14.3505 75.9492 16.3082C72.5957 20.0563 72.3776 11.5038 72.8252 9.71305" stroke="#00ADB5" stroke-opacity="0.5" stroke-width="1.66333" stroke-linecap="round" stroke-linejoin="round"/>
<path d="M41.9332 8.67164C43.5719 8.63168 45.5226 9.01115 46.0986 7.2832" stroke="#00ADB5" stroke-opacity="0.5" stroke-width="1.66333" stroke-linecap="round" stroke-linejoin="round"/>
</svg>
