<svg width="38" height="42" viewBox="0 0 38 42" fill="none" xmlns="http://www.w3.org/2000/svg">
<path d="M27.8598 4.69624C28.4083 3.03205 28.7115 1.88124 30.2931 1.08132C30.8783 0.785399 31.3047 0.648454 31.6268 1.2802C32.0584 2.12679 31.8859 3.26386 31.7321 4.16979C31.3736 6.28112 31.4315 8.4831 31.1472 10.6158C30.9319 12.23 30.3313 17.5581 32.4925 18.2785C33.3343 18.5591 35.1026 17.342 34.996 16.3833C34.9474 15.9451 34.7492 14.0002 33.8613 14.6168C32.3168 15.6893 34.2569 18.8094 34.8089 20.0918C35.9751 22.8015 36.8724 27.0188 36.5754 29.9889C36.4228 31.5144 35.6412 32.6507 34.6802 33.7559C34.0506 34.4799 33.1983 36.6817 31.814 36.0021C30.461 35.3379 29.2067 33.4426 29.4625 31.9075C29.6192 30.9678 30.0198 32.2015 29.4391 30.8078" stroke="#00ADB5" stroke-opacity="0.5" stroke-width="1.66333" stroke-linecap="round" stroke-linejoin="round"/>
<path d="M10.8022 6.48609C10.2858 5.26728 10.0927 4.25433 8.83682 3.83047C8.12292 3.58953 7.47515 3.40537 6.71935 3.35083C5.04816 3.23022 3.62094 4.57424 4.06373 6.27551C4.76517 8.97051 6.03208 11.1739 6.06422 14.0669C6.08258 15.7189 6.09938 17.3899 5.77175 19.0155C5.47257 20.4998 5.34385 22.7471 4.22752 23.9055C3.58634 24.5709 2.41148 25.6895 1.40812 25.3328C0.461903 24.9963 0.865392 23.715 1.32623 23.0749C2.23072 21.8187 3.5091 24.8092 3.64258 25.5434C4.07976 27.9479 4.44432 30.429 4.74226 32.8551C4.96095 34.6358 4.98182 36.5279 5.801 38.1663C6.34936 39.263 7.39118 41.2934 8.88947 41.1612C9.7203 41.0879 11.0224 40.3158 11.2643 39.4824C11.6293 38.2251 11.1422 38.0499 10.3811 37.441" stroke="#00ADB5" stroke-opacity="0.5" stroke-width="1.66333" stroke-linecap="round" stroke-linejoin="round"/>
</svg>
