<svg width="6" height="8" viewBox="0 0 6 8" fill="none" xmlns="http://www.w3.org/2000/svg">
<path d="M1.96285 3.52295C1.94713 3.94465 1.29689 7.74443 2.67884 7.12255C3.14159 6.91432 3.54113 6.6116 3.72832 6.13193C3.9097 5.66714 3.71691 5.38949 3.51254 4.93533C2.98598 3.76521 1.45849 1.94654 1.92361 4.58224C2.21709 6.24525 4.07434 5.85662 4.21873 4.26837C4.32899 3.0555 2.79961 1.43058 1.82553 2.81676C1.13655 3.79724 2.3636 5.95939 3.08098 4.44492C3.44523 3.67596 2.57425 1.72114 1.64899 2.67945C0.700313 3.662 2.12604 5.73466 3.06136 4.8961C3.98619 4.06694 3.35761 1.5376 2.35517 2.5029C1.43823 3.38588 2.81401 5.1429 3.51254 3.79758C4.29171 2.29695 2.57522 1.16623 2.04131 2.7383C1.56466 4.14178 3.051 5.65136 3.39484 3.73873C3.65656 2.28292 0.982029 1.50887 0.982029 3.24832C0.982029 4.85075 2.41402 4.68681 2.41402 3.22871C2.41402 1.70894 0.883608 2.05105 1.52148 3.32679C2.15939 4.6026 3.01448 2.33832 2.29633 1.62017C1.458 0.781845 0.348192 2.07793 1.33512 2.88542C2.00786 3.43584 2.92761 1.15194 1.79611 0.727622C0.818899 0.361169 1.3594 2.35611 1.69803 1.9046C2.22293 1.20473 1.41832 0.736162 1.97266 0.874745C2.46118 0.996875 3.64814 1.25786 3.98333 1.68882C4.24717 2.02805 5.31724 3.91564 5.31724 4.40569C5.31724 5.90535 3.02359 6.71383 1.70783 6.3379C0.763524 6.0681 0.484104 6.73524 0.81529 6.51445C1.61864 5.97888 1.7863 4.58202 1.7863 5.11188" stroke="#00ADB5" stroke-opacity="0.2" stroke-width="1.28667" stroke-linecap="round" stroke-linejoin="round"/>
</svg>
