<svg width="10" height="10" viewBox="0 0 10 10" fill="none" xmlns="http://www.w3.org/2000/svg">
<path d="M5.0228 2.73849C1.89907 17.1076 12.8774 3.6388 7.48816 1.00152C3.66559 -0.869096 -2.58344 5.53592 2.68817 7.70658C6.8051 9.40178 6.40772 1.16786 2.66949 3.50425C-0.534673 5.50685 1.72507 11.7309 4.25704 6.28712C6.1148 2.29294 1.33883 4.75266 2.55743 7.37039C4.79693 12.1812 8.59339 -0.346497 4.35042 3.89646C-0.131986 8.37887 10.8849 7.19148 8.90762 2.8879C7.33263 -0.540022 2.3509 10.5013 6.51696 7.48245C10.9006 4.30592 8.04367 -0.222913 4.94809 4.60619C0.945193 10.8507 13.7638 5.0927 7.65626 3.14938C1.91975 1.32413 3.16359 11.5082 6.36754 8.30424C11.1444 3.52737 4.29502 0.463929 3.75276 5.07312C3.2964 8.95215 8.34843 5.00311 5.17221 3.2988C3.86407 2.59687 1.72115 6.07021 2.29595 5.93226C3.06495 5.7477 5.53895 2.59289 5.20957 2.55172C4.65521 2.48242 3.6983 3.60713 3.21113 3.87779C3.09804 3.94061 3.76857 3.36259 4.53719 3.48557C6.76998 3.84282 4.94997 5.15763 3.34186 4.75561" stroke="#00ADB5" stroke-opacity="0.2" stroke-width="1.28667" stroke-linecap="round" stroke-linejoin="round"/>
</svg>
