<svg width="94" height="202" viewBox="0 0 94 202" fill="none" xmlns="http://www.w3.org/2000/svg">
<path d="M5.65664 8.92518C3.6564 9.22108 1.30288 9.37721 0.826496 11.7591C0.457316 13.605 0.59705 15.5049 1.70351 17.1063C3.59424 19.8429 6.40334 21.4401 9.78648 20.8762C12.8115 20.372 16.9663 17.6308 16.9663 14.2266C16.9663 12.3068 15.5838 10.3748 14.4399 8.93827C13.2138 7.39853 12.1545 5.77954 10.6111 4.52045C8.52941 2.8222 6.84779 2.65548 4.97597 4.6579C3.95169 5.75364 2.98302 7.24844 2.53472 8.68302C2.31373 9.39019 2.47581 9.9571 2.47581 10.6661C2.47581 11.6111 2.30047 10.2174 2.47581 9.74984" stroke="#00ADB5" stroke-opacity="0.2" stroke-width="1.28667" stroke-linecap="round" stroke-linejoin="round"/>
<path d="M16.0246 14.3341C17.7268 15.8454 19.1696 17.2124 22.1795 17.2862C24.2871 17.3378 26.3936 16.8117 28.3686 16.2456C29.7824 15.8403 34.3156 13.6934 30.6425 13.5198" stroke="#00ADB5" stroke-opacity="0.2" stroke-width="1.28667" stroke-linecap="round" stroke-linejoin="round"/>
<path d="M33.5768 1.14989C31.3306 3.63045 28.2302 8.49131 29.3946 12.2173C29.804 13.5276 30.3987 14.4097 31.1682 15.5291C32.7169 17.7817 35.1171 17.0796 37.2943 16.4912C38.8726 16.0646 40.7479 14.7208 41.3521 13.1925C42.186 11.0833 40.4482 7.78567 38.9959 6.33346C37.3745 4.71205 36.0901 2.73944 34.2836 1.32006C33.8029 0.942383 33.4379 0.532792 32.811 0.672112C32.1062 0.828727 31.8161 1.50332 32.7521 1.50332" stroke="#00ADB5" stroke-opacity="0.2" stroke-width="1.28667" stroke-linecap="round" stroke-linejoin="round"/>
<path d="M57.1901 189.292C55.1898 189.588 52.8363 189.744 52.3599 192.126C51.9907 193.972 52.1305 195.871 53.2369 197.473C55.1276 200.209 57.9367 201.807 61.3199 201.243C64.3449 200.739 68.4997 197.997 68.4997 194.593C68.4997 192.673 67.1172 190.741 65.9733 189.305C64.7472 187.765 63.6879 186.146 62.1446 184.887C60.0628 183.189 58.3812 183.022 56.5094 185.024C55.4851 186.12 54.5164 187.615 54.0681 189.05C53.8471 189.757 54.0092 190.324 54.0092 191.033C54.0092 191.978 53.8339 190.584 54.0092 190.116" stroke="#00ADB5" stroke-opacity="0.2" stroke-width="1.28667" stroke-linecap="round" stroke-linejoin="round"/>
<path d="M67.558 194.701C69.2602 196.212 70.703 197.579 73.7129 197.653C75.8205 197.704 77.9271 197.178 79.902 196.612C81.3158 196.207 85.849 194.06 82.1759 193.886" stroke="#00ADB5" stroke-opacity="0.2" stroke-width="1.28667" stroke-linecap="round" stroke-linejoin="round"/>
<path d="M85.1102 181.516C82.864 183.997 79.7636 188.858 80.928 192.584C81.3374 193.894 81.9321 194.776 82.7016 195.896C84.2503 198.148 86.6505 197.446 88.8277 196.858C90.406 196.431 92.2813 195.087 92.8855 193.559C93.7194 191.45 91.9816 188.152 90.5294 186.7C88.9079 185.078 87.6235 183.106 85.817 181.687C85.3363 181.309 84.9714 180.899 84.3444 181.039C83.6396 181.195 83.3495 181.87 84.2855 181.87" stroke="#00ADB5" stroke-opacity="0.2" stroke-width="1.28667" stroke-linecap="round" stroke-linejoin="round"/>
<path d="M20.2645 27.4211C20.4657 29.7021 20.7379 32.0392 22.6206 33.5734C24.4216 35.0408 26.0782 33.399 26.8617 31.6361C27.603 29.9683 27.5102 28.5983 27.1235 26.8583C26.8358 25.5633 27.2014 25.9658 25.9193 26.4787" stroke="#00ADB5" stroke-opacity="0.2" stroke-width="1.28667" stroke-linecap="round" stroke-linejoin="round"/>
</svg>
