<svg width="131" height="106" viewBox="0 0 131 106" fill="none" xmlns="http://www.w3.org/2000/svg">
<path d="M10.347 64.7925C28.5971 56.2134 44.1313 43.6682 59.656 31.74C71.8576 22.3649 84.5849 13.026 97.7781 4.63739C100.381 2.98215 104.175 -0.18707 107.268 0.636247C110.333 1.4521 111.748 4.44942 114.035 6.06199C119.669 10.0332 124.525 15.1132 128.927 20.0284C133.773 25.4391 124.777 29.7414 118.953 34.2915C112.337 39.4599 105.971 44.7386 98.8761 49.4401C92.1321 53.9089 86.4115 59.668 80.1239 64.5761C70.5415 72.0563 61.4616 79.8943 51.9033 87.3783C46.2134 91.8335 39.8637 95.6614 34.3452 100.233C32.4116 101.835 30.5453 103.875 28.3781 105.271C26.6375 106.392 24.9138 103.023 24.4357 102.405C20.641 97.5043 14.1109 94.5923 10.4454 89.4321C8.14068 86.1877 6.86795 82.0076 3.9687 79.1337C2.58469 77.7618 -0.92925 74.7184 1.13877 72.2563C3.25025 69.7425 8.48547 68.0651 11.4875 66.0978C13.8277 64.5643 16.6759 62.6756 19.2597 61.5022C21.1375 60.6494 23.0528 59.2961 24.775 58.2261C29.3073 55.4103 24.7108 56.9116 21.745 58.1015" stroke="#00ADB5" stroke-opacity="0.5" stroke-linecap="round" stroke-linejoin="round"/>
<path d="M11.5158 75.1178C21.332 79.1882 29.7351 85.7285 36.9255 92.3016C37.1077 92.4681 38.9552 93.367 38.5918 93.8169C37.8902 94.6857 31.5489 91.829 30.9455 91.5392" stroke="#00ADB5" stroke-opacity="0.5" stroke-linecap="round" stroke-linejoin="round"/>
<path d="M23.0278 66.3546C31.3048 67.3664 35.8793 70.543 42.2252 73.7792C45.0519 75.2207 47.9599 76.4817 50.4279 78.2727C51.5868 79.1137 52.3292 80.309 53.3788 81.2383C54.8173 82.512 48.5527 80.113 47.8135 79.8387" stroke="#00ADB5" stroke-opacity="0.5" stroke-linecap="round" stroke-linejoin="round"/>
<path d="M36.2736 59.0773C41.6529 62.7507 47.072 66.3608 52.6633 69.8387C54.7874 71.1599 57.2466 72.3154 59.0119 73.954C62.1456 76.8629 58.0361 73.0932 56.606 72.0593" stroke="#00ADB5" stroke-opacity="0.5" stroke-linecap="round" stroke-linejoin="round"/>
<path d="M45.2336 53.9978C49.3701 55.671 53.7137 57.2551 57.0646 59.7608C58.4391 60.7887 59.5211 62.0604 61.0145 62.988C62.8543 64.1306 64.4105 65.5297 66.2691 66.6325C68.9155 68.2028 69.2761 68.7074 66.1499 66.7146" stroke="#00ADB5" stroke-opacity="0.5" stroke-linecap="round" stroke-linejoin="round"/>
<path d="M56.9299 46.414C61.3978 48.9478 65.4941 51.5704 69.0653 54.8718C70.647 56.334 71.8408 58.0926 73.9646 59.1124C75.9102 60.0467 77.341 60.2194 75.1375 58.5938" stroke="#00ADB5" stroke-opacity="0.5" stroke-linecap="round" stroke-linejoin="round"/>
<path d="M68.2398 38.7532C72.1888 40.876 76.1085 42.7787 79.0853 45.7491C80.448 47.109 81.4469 48.7354 83.0104 49.9553C86.1852 52.4325 83.9283 51.2573 81.6138 49.5938" stroke="#00ADB5" stroke-opacity="0.5" stroke-linecap="round" stroke-linejoin="round"/>
<path d="M78.7749 30.9389C84.1798 34.9184 88.49 39.8058 93.9136 43.727C97.5655 46.3673 92.4063 42.0588 91.5718 41.2842" stroke="#00ADB5" stroke-opacity="0.5" stroke-linecap="round" stroke-linejoin="round"/>
<path d="M91.2407 24.2686C96.5688 22.0249 102.132 19.4387 105.439 15.0434C106.351 13.8314 107.461 12.741 107.948 11.4357C108.617 9.64304 108.429 10.4009 106.664 11.7102" stroke="#00ADB5" stroke-opacity="0.5" stroke-linecap="round" stroke-linejoin="round"/>
<path d="M98.6597 28.9774C103.119 25.5103 108.093 21.7115 111.586 17.5531C113.328 15.479 116.464 12.8342 112.148 16.0353" stroke="#00ADB5" stroke-opacity="0.5" stroke-linecap="round" stroke-linejoin="round"/>
<path d="M110.73 33.8463C114.858 30.2174 118.55 26.8589 122.406 23.1159C123.652 21.9065 127.183 20.1229 123.051 21.4345" stroke="#00ADB5" stroke-opacity="0.5" stroke-linecap="round" stroke-linejoin="round"/>
<path d="M108.028 32.5487C112.25 29.4622 117.037 25.8829 120.557 22.1884C121.496 21.2029 122.261 20.1364 123.136 19.1236C124.602 17.4272 124.608 17.9439 122.691 18.3159" stroke="#00ADB5" stroke-opacity="0.5" stroke-linecap="round" stroke-linejoin="round"/>
<path d="M21.1685 79.3167C41.2345 70.8969 48.3396 53.3483 65.3202 41.9724C67.3858 40.5885 69.1126 39.1141 71.4442 38.0552C73.0032 37.3471 74.8714 36.8826 76.3184 36.0379C77.2011 35.5227 84.6268 30.5536 79.6312 32.8224" stroke="#00ADB5" stroke-opacity="0.5" stroke-linecap="round" stroke-linejoin="round"/>
<path d="M12.8675 75.7663C15.3145 73.4188 17.4777 71.4018 20.4223 69.5724C20.9052 69.2723 21.6026 69.1528 22.0176 68.7777C22.8398 68.0349 24.0806 66.9445 24.4807 66.0603C26.0565 62.5779 31.3851 62.5925 34.495 60.5867C37.4534 58.6785 40.3126 56.762 43.3216 54.867C46.6367 52.7793 48.271 51.091 51.0496 48.5804C53.6019 46.2743 56.0912 43.952 58.7609 41.7404C60.945 39.9311 64.2303 38.14 65.7629 35.9658C67.4925 33.512 71.4619 30.4807 74.6461 30.543C75.7399 30.5645 83.3944 33.4628 78.3837 31.6226" stroke="#00ADB5" stroke-opacity="0.5" stroke-linecap="round" stroke-linejoin="round"/>
<path d="M29.0904 82.0302C44.3649 74.2964 54.2266 60.0597 65.3711 48.8916C69.476 44.778 74.9471 41.7373 79.2107 37.6696C81.0343 35.9297 84.8127 33.8754 80.683 34.3642" stroke="#00ADB5" stroke-opacity="0.5" stroke-linecap="round" stroke-linejoin="round"/>
<path d="M33.7137 85.2321C47.6818 77.3069 57.7235 64.3475 68.5583 53.7555C73.4874 48.9367 78.2786 44.044 83.2561 39.2545C85.5254 37.0709 89.1768 35.4567 84.4305 37.9638" stroke="#00ADB5" stroke-opacity="0.5" stroke-linecap="round" stroke-linejoin="round"/>
<path d="M37.9223 91.3991C46.9678 84.0898 54.5127 76.4506 62.2153 68.3049C66.8988 63.352 71.1101 57.9025 76.4382 53.3183C79.4953 50.6881 81.9788 47.731 84.8035 44.9892C85.9415 43.8846 86.7923 42.6509 87.9568 41.5515C90.5798 39.0752 88.6869 41.2617 86.908 42.6449" stroke="#00ADB5" stroke-opacity="0.5" stroke-linecap="round" stroke-linejoin="round"/>
<path d="M39.4504 93.9873C43.9539 90.3356 50.3283 86.5923 53.6131 82.1416C54.8057 80.5258 57.7443 76.6179 59.5783 75.5055C62.0027 74.035 63.4381 71.3235 65.3063 69.5101C67.2518 67.6217 69.1555 65.7783 71.2349 63.9565C73.1848 62.2481 74.1115 59.5293 76.4458 57.9856C79.0462 56.2659 80.5259 53.889 82.6802 51.9424C84.5449 50.2576 87.9135 48.3509 90.1273 46.9756C91.3539 46.2135 92.2693 45.2594 93.626 44.6433C96.3758 43.3945 94.6094 44.0739 92.2242 44.2701" stroke="#00ADB5" stroke-opacity="0.5" stroke-linecap="round" stroke-linejoin="round"/>
<path d="M90.7439 25.5034C94.002 25.8393 98.0732 25.8646 100.928 26.9934C102.77 27.722 104.356 28.4829 101.002 27.1562" stroke="#00ADB5" stroke-opacity="0.5" stroke-linecap="round" stroke-linejoin="round"/>
<path d="M94.859 20.6058C99.5079 21.0758 102.735 21.8248 106.355 23.4353C108.722 24.4883 108.364 24.1634 105.884 23.1725" stroke="#00ADB5" stroke-opacity="0.5" stroke-linecap="round" stroke-linejoin="round"/>
<path d="M101.301 15.4081C105.154 16.8077 108.849 18.4749 112.876 19.6182C115.245 20.2906 113.941 20.371 112.115 19.8376" stroke="#00ADB5" stroke-opacity="0.5" stroke-linecap="round" stroke-linejoin="round"/>
<path d="M105.116 11.4033C109.219 12.5026 112.986 13.6331 116.69 15.1792C118.379 15.8843 116.723 16.1275 115.448 15.5467" stroke="#00ADB5" stroke-opacity="0.5" stroke-linecap="round" stroke-linejoin="round"/>
<path d="M93.0866 23.6827C96.7885 20.193 100.478 16.866 103.898 13.331C104.87 12.3266 110.722 6.68524 108.137 9.52662" stroke="#00ADB5" stroke-opacity="0.5" stroke-linecap="round" stroke-linejoin="round"/>
<path d="M95.7536 28.7823C100.425 25.2839 107.112 20.5682 109.113 15.8991C109.701 14.525 110.762 13.0988 112.173 12.041C113.603 10.9682 115.022 10.3971 112.861 12.1774" stroke="#00ADB5" stroke-opacity="0.5" stroke-linecap="round" stroke-linejoin="round"/>
<path d="M92.3589 29.0617C97.4381 24.6278 101.679 21.5551 104.913 16.4317C105.753 15.101 106.661 13.9745 107.89 12.8638C109.193 11.6868 110.99 10.5199 108.495 12.6452" stroke="#00ADB5" stroke-opacity="0.5" stroke-linecap="round" stroke-linejoin="round"/>
<path d="M108.931 29.1096C110.87 29.9401 112.825 30.692 114.871 31.3347C115.716 31.6002 114.706 31.0164 114.341 30.9441" stroke="#00ADB5" stroke-opacity="0.5" stroke-linecap="round" stroke-linejoin="round"/>
<path d="M113.73 23.3955C113.858 23.4762 121.276 28.2118 119.996 27.1136" stroke="#00ADB5" stroke-opacity="0.5" stroke-linecap="round" stroke-linejoin="round"/>
<path d="M118.889 20.7998C120.504 21.9977 125.477 25.4733 123.702 24.4203" stroke="#00ADB5" stroke-opacity="0.5" stroke-linecap="round" stroke-linejoin="round"/>
<path d="M106.196 31.6141C109.508 29.0316 116.706 23.8441 118.799 20.2104C119.624 18.7785 122.777 16.704 119.78 18.8813" stroke="#00ADB5" stroke-opacity="0.5" stroke-linecap="round" stroke-linejoin="round"/>
<path d="M106.48 32.242C106.739 32.3935 111.785 36.7209 113.344 34.1741C114.139 32.8741 115.176 31.181 116.802 30.3314C119.655 28.841 120.673 25.0392 123.564 23.7263C126.843 22.2368 126.818 20.3577 124.006 20.0051C122.901 19.8665 124.054 17.9558 122.848 18.2308C121.744 18.4825 121.214 18.2246 119.976 18.5395" stroke="#00ADB5" stroke-opacity="0.5" stroke-linecap="round" stroke-linejoin="round"/>
<path d="M90.4599 24.8758C92.0066 27.6795 92.2261 28.7343 95.2253 29.64C96.0348 29.8845 97.2192 29.2871 97.8326 29.4798C99.0462 29.8611 101.588 29.5873 102.681 28.5261C104.88 26.3922 105.763 25.0749 108.884 23.5771C110.854 22.6322 112.597 20.7277 113.661 19.1917C114.831 17.5036 116.707 16.1201 117.93 14.42C118.451 13.6961 115.248 12.3404 115.38 11.1741C115.417 10.8435 111.328 11.2916 110.686 11.0899C109.908 10.8455 109.596 10.4133 109.298 9.75673C108.863 8.79779 107.661 10.1836 106.094 10.4546" stroke="#00ADB5" stroke-opacity="0.5" stroke-linecap="round" stroke-linejoin="round"/>
<path d="M16.9786 70.8687C21.4283 71.769 25.2262 73.147 29.1281 74.7058C32.5158 76.0592 36.4904 76.5373 39.8626 77.8392C42.2633 78.766 44.5441 81.2403 46.1871 82.8491C46.7346 83.3851 47.1275 83.9001 47.4804 84.5338C48.2902 85.9878 47.7486 82.3142 47.6976 81.9107" stroke="#00ADB5" stroke-opacity="0.5" stroke-linecap="round" stroke-linejoin="round"/>
<path d="M65.8292 37.323C66.9664 38.267 71.3485 43.691 70.9479 39.2901" stroke="#00ADB5" stroke-opacity="0.5" stroke-linecap="round" stroke-linejoin="round"/>
</svg>
