<svg width="167" height="251" viewBox="0 0 167 251" fill="none" xmlns="http://www.w3.org/2000/svg">
<path d="M61.5664 118.316L107.945 118.316C107.945 118.316 100.554 185.866 90.4938 196.94C80.4339 208.015 27.7846 238.388 27.7846 238.388L10.0536 227.505L43.1077 175.449C43.1077 175.449 39.4727 155.149 61.5664 118.316Z" fill="#00ADB5" stroke="black" stroke-width="1.39887"/>
<path d="M28.5347 237.778L10.0541 227.508L0.700903 237.578C0.700903 237.578 16.4683 246.717 27.4688 250.299L22.8098 244.154L28.5347 237.778Z" fill="#EEEEEE" stroke="black" stroke-width="1.39887" stroke-linejoin="round"/>
<path d="M61.7636 117.332L112.438 117.265C112.438 117.265 140.608 142.037 144.157 156.572C147.706 171.106 143.659 223.853 143.659 223.853L123.178 232.909L102.034 177.195C102.034 177.195 79.9266 156.253 61.7636 117.332Z" fill="#00ADB5"/>
<path d="M61.7636 117.332L61.7626 116.631C61.5233 116.631 61.3008 116.754 61.1723 116.956C61.0439 117.158 61.0275 117.411 61.1286 117.628L61.7636 117.332ZM112.438 117.265L112.901 116.739L112.702 116.564L112.437 116.564L112.438 117.265ZM143.659 223.853L143.942 224.494L144.325 224.325L144.358 223.907L143.659 223.853ZM123.178 232.909L122.523 233.157L122.785 233.848L123.461 233.549L123.178 232.909ZM102.034 177.195L102.689 176.947L102.632 176.797L102.515 176.687L102.034 177.195ZM61.7636 117.332L61.7645 118.032L112.439 117.966L112.438 117.265L112.437 116.564L61.7626 116.631L61.7636 117.332ZM143.659 223.853L143.376 223.212L122.895 232.268L123.178 232.909L123.461 233.549L143.942 224.494L143.659 223.853ZM123.178 232.909L123.833 232.66L102.689 176.947L102.034 177.195L101.378 177.444L122.523 233.157L123.178 232.909ZM102.034 177.195C102.515 176.687 102.515 176.687 102.515 176.687C102.515 176.686 102.515 176.686 102.515 176.686C102.514 176.686 102.514 176.685 102.512 176.684C102.51 176.681 102.506 176.678 102.501 176.673C102.491 176.664 102.476 176.649 102.456 176.629C102.415 176.59 102.353 176.53 102.271 176.45C102.107 176.29 101.864 176.049 101.547 175.727C100.913 175.084 99.9842 174.121 98.8121 172.842C96.4679 170.283 93.1498 166.464 89.2643 161.431C81.493 151.364 71.4545 136.442 62.3985 117.035L61.7636 117.332L61.1286 117.628C70.2356 137.143 80.3321 152.153 88.1551 162.287C92.0667 167.355 95.4105 171.204 97.779 173.788C98.9632 175.081 99.9037 176.057 100.549 176.711C100.872 177.039 101.121 177.285 101.291 177.451C101.375 177.534 101.44 177.596 101.484 177.639C101.505 177.66 101.522 177.676 101.534 177.687C101.539 177.692 101.544 177.696 101.547 177.699C101.548 177.7 101.549 177.702 101.55 177.702C101.551 177.703 101.551 177.703 101.551 177.703C101.551 177.704 101.552 177.704 102.034 177.195ZM112.438 117.265C111.975 117.791 111.976 117.791 111.976 117.791C111.976 117.791 111.976 117.792 111.977 117.792C111.977 117.793 111.978 117.794 111.98 117.795C111.983 117.798 111.988 117.802 111.995 117.808C112.008 117.82 112.028 117.837 112.054 117.861C112.107 117.908 112.186 117.977 112.289 118.069C112.495 118.253 112.797 118.525 113.184 118.876C113.959 119.579 115.069 120.601 116.414 121.872C119.103 124.415 122.724 127.955 126.455 131.946C130.187 135.939 134.019 140.374 137.135 144.707C140.262 149.055 142.622 153.239 143.477 156.738L144.157 156.572L144.838 156.405C143.918 152.637 141.426 148.274 138.273 143.889C135.109 139.489 131.233 135.006 127.479 130.989C123.723 126.971 120.08 123.41 117.377 120.854C116.024 119.575 114.907 118.548 114.127 117.839C113.736 117.485 113.431 117.21 113.222 117.024C113.118 116.931 113.038 116.86 112.984 116.812C112.957 116.788 112.936 116.77 112.922 116.758C112.915 116.751 112.91 116.747 112.906 116.744C112.905 116.742 112.903 116.741 112.902 116.74C112.902 116.74 112.901 116.739 112.901 116.739C112.901 116.739 112.901 116.739 112.438 117.265ZM144.157 156.572L143.477 156.738C144.343 160.287 144.756 166.237 144.876 173.228C144.995 180.199 144.823 188.141 144.539 195.636C144.255 203.131 143.86 210.172 143.537 215.341C143.375 217.925 143.231 220.04 143.127 221.509C143.075 222.244 143.034 222.817 143.005 223.206C142.99 223.4 142.979 223.549 142.972 223.649C142.968 223.699 142.965 223.737 142.963 223.762C142.962 223.774 142.962 223.784 142.961 223.79C142.961 223.793 142.961 223.796 142.961 223.797C142.96 223.798 142.96 223.799 142.96 223.799C142.96 223.799 142.96 223.8 143.659 223.853C144.358 223.907 144.358 223.907 144.358 223.906C144.358 223.906 144.358 223.905 144.358 223.904C144.358 223.903 144.358 223.9 144.358 223.897C144.359 223.891 144.36 223.881 144.361 223.868C144.362 223.842 144.365 223.804 144.369 223.754C144.377 223.654 144.388 223.504 144.402 223.309C144.431 222.918 144.473 222.344 144.525 221.608C144.629 220.135 144.773 218.016 144.935 215.428C145.259 210.252 145.655 203.199 145.939 195.689C146.223 188.181 146.397 180.211 146.277 173.204C146.158 166.217 145.746 160.124 144.838 156.405L144.157 156.572Z" fill="black"/>
<path fill-rule="evenodd" clip-rule="evenodd" d="M106.211 34.6879C107.364 34.2674 108.461 33.6528 109.463 32.7994C117.024 26.3579 113.782 16.6394 109.206 11.5798C104.63 6.5201 76.6381 8.5383 89.8429 31.9776C89.8985 32.0111 89.9552 32.0448 90.0129 32.0787C91.4891 36.7763 90.2441 40.8056 88.7502 45.6401C88.141 47.612 87.4903 49.7177 86.9659 52.0575L100.971 51.054C104.82 45.827 106.28 40.5582 106.211 34.6879Z" fill="#F5B9AB"/>
<path d="M109.463 32.7994L109.997 33.4265L109.463 32.7994ZM106.211 34.6879L105.928 33.9139C105.6 34.0337 105.383 34.3479 105.387 34.6975L106.211 34.6879ZM109.206 11.5798L108.595 12.1323L109.206 11.5798ZM89.8429 31.9776L89.1251 32.3819C89.195 32.506 89.2959 32.6098 89.4178 32.6833L89.8429 31.9776ZM90.0129 32.0787L90.7988 31.8317C90.7376 31.6369 90.6062 31.4718 90.4302 31.3683L90.0129 32.0787ZM88.7502 45.6401L89.5374 45.8834L88.7502 45.6401ZM86.9659 52.0575L86.162 51.8773C86.1051 52.1315 86.1717 52.3977 86.3417 52.5951C86.5117 52.7925 86.765 52.8978 87.0248 52.8792L86.9659 52.0575ZM100.971 51.054L101.03 51.8757C101.27 51.8585 101.491 51.7367 101.634 51.5425L100.971 51.054ZM109.463 32.7994L108.929 32.1723C108.006 32.9582 106.995 33.5248 105.928 33.9139L106.211 34.6879L106.493 35.4618C107.732 35.0099 108.916 34.3474 109.997 33.4265L109.463 32.7994ZM109.206 11.5798L108.595 12.1323C110.787 14.5562 112.652 18.0951 113.067 21.764C113.478 25.3949 112.474 29.1514 108.929 32.1723L109.463 32.7994L109.997 33.4265C114.012 30.0059 115.168 25.6824 114.704 21.5788C114.244 17.5131 112.201 13.663 109.817 11.0272L109.206 11.5798ZM89.8429 31.9776L90.5607 31.5732C87.3149 25.8118 86.6845 21.5124 87.4541 18.3874C88.2181 15.2847 90.4072 13.1625 93.2092 11.8362C96.0227 10.5044 99.3976 10.0084 102.351 10.159C103.824 10.2341 105.168 10.469 106.264 10.8256C107.374 11.1871 108.159 11.6505 108.595 12.1323L109.206 11.5798L109.817 11.0272C109.109 10.2441 108.018 9.66373 106.773 9.25877C105.514 8.84884 104.023 8.59441 102.435 8.51344C99.2658 8.35188 95.61 8.87676 92.5042 10.3469C89.3867 11.8226 86.7678 14.2836 85.8542 17.9935C84.9461 21.6811 85.7685 26.4237 89.1251 32.3819L89.8429 31.9776ZM90.0129 32.0787L90.4302 31.3683C90.375 31.3359 90.3209 31.3038 90.268 31.2719L89.8429 31.9776L89.4178 32.6833C89.4761 32.7184 89.5353 32.7536 89.5955 32.789L90.0129 32.0787ZM88.7502 45.6401L89.5374 45.8834C91.0206 41.0833 92.3633 36.8099 90.7988 31.8317L90.0129 32.0787L89.2269 32.3257C90.615 36.7428 89.4676 40.5278 87.9631 45.3969L88.7502 45.6401ZM86.9659 52.0575L87.7699 52.2376C88.286 49.9342 88.9272 47.8579 89.5374 45.8834L88.7502 45.6401L87.9631 45.3969C87.3547 47.366 86.6945 49.5013 86.162 51.8773L86.9659 52.0575ZM100.971 51.054L100.912 50.2322L86.9071 51.2357L86.9659 52.0575L87.0248 52.8792L101.03 51.8757L100.971 51.054ZM106.211 34.6879L105.387 34.6975C105.454 40.402 104.043 45.493 100.307 50.5655L100.971 51.054L101.634 51.5425C105.597 46.161 107.105 40.7144 107.035 34.6782L106.211 34.6879Z" fill="black"/>
<path d="M87.3293 17.8236C85.1379 20.8725 87.4983 28.4029 89.2398 30.2864C74.8089 22.2791 83.945 4.21289 88.3976 7.50737C89.1232 0.828037 96.7874 -1.52859 102.012 4.12036C115.111 -6.458 115.8 11.5672 111.177 14.3084C106.553 17.0496 100.944 14.4391 98.0329 15.8527C95.1217 17.2663 93.3253 25.8287 92.3823 21.0764C91.4393 16.3241 90.0687 14.0124 87.3293 17.8236Z" fill="#00ADB5" stroke="black" stroke-width="1.64486"/>
<path d="M114.13 118.412C129.235 108.366 122.931 73.6518 120.782 63.7818C120.396 62.0061 119.823 60.3026 119.129 58.6233C113.419 44.821 99.3333 33.7041 85.8428 40.1156C57.1077 53.7721 61.3796 97.3339 61.6508 118.739L114.13 118.412Z" fill="#EEEEEE" stroke="black" stroke-width="1.64486" stroke-linejoin="round"/>
<path d="M159.563 71.4389L147.439 56.6443L106.59 85.2237L93.3878 58.6486L76.2921 85.2235C76.2921 85.2235 94.8125 113.988 104.221 113.152C121.366 111.629 159.563 71.4389 159.563 71.4389Z" fill="#EEEEEE"/>
<path d="M94.2928 60.5878L106.476 84.4079L147.439 56.6448L159.563 71.4394C159.563 71.4394 123.555 111.381 102.513 113.25C95.8902 113.838 76.5959 84.9358 76.5959 84.9358" stroke="black" stroke-width="1.64486"/>
<path d="M151.471 53.9746L146.669 57.0565L158.722 72.328L162.513 69.2567C166.547 65.989 167.186 60.078 163.944 56.0239C160.924 52.2476 155.54 51.363 151.471 53.9746Z" fill="#F5B9AB" stroke="black" stroke-width="1.64486" stroke-linejoin="round"/>
<path d="M143.908 221.932L123.179 232.739L126.744 246.244L154.423 229.199L146.279 230.305L143.908 221.932Z" fill="#EEEEEE" stroke="black" stroke-width="1.39887" stroke-linejoin="round"/>
</svg>
