<svg width="30" height="35" viewBox="0 0 30 35" fill="none" xmlns="http://www.w3.org/2000/svg">
<path d="M6.84874 29.9378C7.01054 27.3918 6.87305 26.2477 4.47403 25.3807C3.57682 25.0565 2.23532 25.2282 1.56141 25.9218C0.186867 27.3367 0.625813 28.9562 1.18093 30.6419C2.76215 35.4435 10.5195 35.5675 12.8445 31.1113C13.9745 28.9454 14.5533 26.2635 15.3504 23.9529C16.3395 21.0859 17.949 18.433 18.8928 15.5429C19.8666 12.5613 20.5492 9.51297 21.6086 6.5591C22.093 5.20849 22.4997 2.2956 23.6291 1.29792C26.105 -0.889239 28.289 2.97727 28.4507 5.06615C28.6068 7.08365 29.1657 9.28137 29.1657 11.227C29.1657 11.9617 28.8682 12.678 28.5753 13.3328C28.3357 13.8685 27.2596 13.6089 27.1649 13.0916C26.8882 11.5791 28.8549 9.30551 25.8595 9.63627" stroke="#00ADB5" stroke-opacity="0.2" stroke-width="1.28667" stroke-linecap="round" stroke-linejoin="round"/>
</svg>
