<svg width="45" height="49" viewBox="0 0 45 49" fill="none" xmlns="http://www.w3.org/2000/svg">
<path d="M18.6298 7.64653C11.8818 8.9419 6.97598 10.8901 2.69903 16.389C-0.0114182 19.8739 0.582876 25.3591 2.35904 29.0536C5.28563 35.1409 12.4791 38.5783 18.9698 38.8767C26.5308 39.2244 37.042 37.0026 38.5919 27.985C39.4228 23.1509 34.8045 18.5805 32.6422 14.6163C30.8831 11.3912 28.234 7.04369 24.531 5.67946C23.0195 5.12259 19.511 5.31592 18.4113 6.82085C17.92 7.49316 17.2876 8.20277 16.9299 8.95791C16.6401 9.56976 16.9512 7.40094 16.8813 6.77228" stroke="#00ADB5" stroke-opacity="0.5" stroke-width="1.66333" stroke-linecap="round" stroke-linejoin="round"/>
<path d="M21.4703 24.2573C19.6494 25.193 16.6945 25.8134 18.289 27.8636C18.6523 28.3307 19.1709 28.3052 19.6125 27.8636C19.9901 27.486 21.8937 25.5034 20.4868 25.0344C17.6189 24.0784 18.6675 29.8009 20.7175 27.2686C21.8185 25.9085 20.2774 24.5699 18.8961 25.3986C17.2504 26.3861 18.5524 28.1103 19.8432 26.6129C20.8161 25.4844 20.0393 24.6198 18.9811 25.6779C18.0333 26.6257 18.9961 28.1374 19.9282 26.8557C20.8843 25.5412 19.7941 24.4278 18.6411 25.5808C17.3065 26.9154 18.7512 26.7753 19.6975 25.8965C20.6517 25.0105 18.9596 25.1413 18.4104 25.8358C17.1349 27.4489 19.1329 27.2195 19.4547 25.8358C19.9274 23.8031 17.8303 28.4733 18.8476 24.913" stroke="#00ADB5" stroke-opacity="0.5" stroke-width="1.66333" stroke-linecap="round" stroke-linejoin="round"/>
<path d="M14.0392 17.4818C15.9806 20.0436 17.9704 22.4728 19.6004 25.0344C20.0522 25.7443 19.6916 26.4567 19.9404 26.4429C20.8601 26.3918 21.802 26.2243 22.7817 26.2243C25.0236 26.2243 26.7893 25.1315 28.9501 25.1315C31.5667 25.1315 35.4108 24.4521 31.0871 22.2902" stroke="#00ADB5" stroke-opacity="0.5" stroke-width="1.66333" stroke-linecap="round" stroke-linejoin="round"/>
<path d="M11.8551 7.42796C11.4469 5.36151 9.45178 0.352538 13.1665 0.883208C14.4994 1.07362 15.3936 2.45257 16.1778 3.32383C18.2178 5.59055 17.9996 8.32646 14.6964 8.52077C13.8311 8.57167 12.6128 10.2876 11.6365 9.06718C10.5311 7.68538 11.6596 7.77824 11.8551 6.11658C11.983 5.0294 11.2736 5.11963 10.9687 4.05237C10.7348 3.23367 11.2207 2.33722 11.418 1.74532" stroke="#00ADB5" stroke-opacity="0.5" stroke-width="1.66333" stroke-linecap="round" stroke-linejoin="round"/>
<path d="M13.1651 5.02382C13.1457 5.54588 12.3407 10.25 14.0515 9.48008C14.6244 9.22228 15.119 8.84753 15.3507 8.2537C15.5753 7.6783 15.3366 7.33457 15.0836 6.77233C14.4317 5.32373 12.5407 3.07224 13.1165 6.3352C13.4799 8.39399 15.7791 7.91287 15.9579 5.94664C16.0944 4.44513 14.201 2.43349 12.9951 4.14957C12.1422 5.36338 13.6612 8.04009 14.5493 6.16521C15.0003 5.21324 13.922 2.79321 12.7766 3.97958C11.6021 5.19597 13.3671 7.76189 14.5251 6.72376C15.67 5.69727 14.8918 2.56598 13.6508 3.76101C12.5156 4.85413 14.2188 7.0293 15.0836 5.36381C16.0482 3.50605 13.9232 2.10623 13.2623 4.05243C12.6722 5.78992 14.5122 7.65876 14.9379 5.29096C15.2619 3.48868 11.9509 2.53042 11.9509 4.68384C11.9509 6.66762 13.7237 6.46466 13.7237 4.65955C13.7237 2.7781 11.829 3.20162 12.6187 4.78098C13.4084 6.36041 14.467 3.55726 13.578 2.6682C12.5401 1.63037 11.1662 3.23491 12.388 4.23457C13.2208 4.91598 14.3595 2.08854 12.9587 1.56324C11.7489 1.10958 12.4181 3.57928 12.8373 3.02033C13.4871 2.15389 12.491 1.57381 13.1773 1.74538C13.782 1.89657 15.2515 2.21967 15.6664 2.7532C15.9931 3.17315 17.3178 5.50997 17.3178 6.11664C17.3178 7.97319 14.4783 8.97408 12.8494 8.50869C11.6804 8.17468 11.3344 9.00059 11.7445 8.72725C12.739 8.06423 12.9466 6.33493 12.9466 6.99089" stroke="#00ADB5" stroke-opacity="0.5" stroke-width="1.66333" stroke-linecap="round" stroke-linejoin="round"/>
<path d="M12.9481 38.6825C11.8227 41.0701 10.824 43.4689 9.49967 45.7251C9.20142 46.2332 8.64263 47.2701 8.57685 47.8622C8.39968 49.4567 10.0013 44.0593 10.3254 43.2723" stroke="#00ADB5" stroke-opacity="0.5" stroke-width="1.66333" stroke-linecap="round" stroke-linejoin="round"/>
<path d="M35.0227 34.0928C37.7907 37.588 40.8427 40.0804 43.0002 43.9159C43.2127 44.2937 43.5809 44.5938 43.8745 44.8873C44.8564 45.8692 42.0519 42.7918 41.1424 41.7425" stroke="#00ADB5" stroke-opacity="0.5" stroke-width="1.66333" stroke-linecap="round" stroke-linejoin="round"/>
</svg>
