<svg width="12" height="19" viewBox="0 0 12 19" fill="none" xmlns="http://www.w3.org/2000/svg">
<path d="M7.01563 0.646952C6.28635 1.68133 5.3366 2.56869 4.82992 3.72681C4.64794 4.14276 4.5875 4.59415 4.39388 4.99629C4.19689 5.40542 3.96049 5.88476 3.81434 6.30992C3.5256 7.14988 2.84835 7.80583 2.3848 8.53427C2.11212 8.96276 1.66147 9.62987 1.24227 9.93621C1.02879 10.0922 0.456456 10.8416 0.70964 10.9049C1.29919 11.0523 1.79937 11.3658 2.32408 11.6748C3.04565 12.0998 3.76432 12.4204 4.40768 12.9636C5.22109 13.6505 6.18631 14.1398 6.98251 14.8513C7.60676 15.4091 8.14899 16.0555 8.78186 16.6092C9.32828 17.0874 9.98644 17.4398 10.5426 17.9091C10.5836 17.9437 10.9795 18.2762 10.9317 18.3479C10.8824 18.4218 10.2922 17.6637 10.2445 17.5862" stroke="#00ADB5" stroke-opacity="0.2" stroke-width="1.28667" stroke-linecap="round" stroke-linejoin="round"/>
</svg>
