<svg width="59" height="90" viewBox="0 0 59 90" fill="none" xmlns="http://www.w3.org/2000/svg">
<path d="M13.2605 66.6908C17.3605 59.2596 17.1185 57.1367 16.1835 49.6566C15.6686 45.5374 15.4718 41.5129 14.4297 37.4605C12.5663 30.2137 11.9615 20.4553 17.7962 14.6205C29.2773 3.1395 50.6579 19.4675 44.1841 34.0335C41.7203 39.5772 37.4629 43.6816 34.3869 48.9107C33.1534 51.0078 32.4624 53.281 30.8592 55.2406C29.3216 57.1198 27.412 59.4587 27.412 61.7922C27.412 63.7633 27.9997 66.319 26.6056 68.0616C24.6799 70.4688 25.3645 69.2308 22.5134 69.2308C20.5535 69.2308 17.6633 67.673 16.0827 66.4086C14.9543 65.5058 14.3491 68.1169 14.3491 65.6022C14.3491 63.4436 15.0439 65.2393 13.6234 65.2393" stroke="#00ADB5" stroke-opacity="0.5" stroke-width="1.66333" stroke-linecap="round" stroke-linejoin="round"/>
<path d="M22.3321 73.5851C18.4516 72.4282 7.71045 69.8445 10.1965 73.0408C13.1959 76.8973 14.4787 74.9646 18.1592 75.7824C20.0414 76.2007 21.8764 82.0099 19.7921 82.1325C16.8151 82.3076 14.8411 78.3023 11.8092 78.3023C9.04964 78.3023 9.24729 81.934 10.902 83.2211C13.0872 84.9206 15.6 83.0937 17.0706 85.7409C19.3946 89.9241 13.0465 89.2435 11.2447 88.2608C9.42951 87.2706 7.70253 85.7246 6.36629 84.8338" stroke="#00ADB5" stroke-opacity="0.5" stroke-width="1.66333" stroke-linecap="round" stroke-linejoin="round"/>
<path d="M13.26 65.5116C13.3094 65.8275 13.3607 67.9609 14.2125 67.9609C14.6711 67.9609 14.8821 67.6827 15.3011 67.9155C15.7939 68.1893 16.256 68.8337 16.7273 69.2107C17.1427 69.543 18.3754 69.502 18.6122 69.9163C18.999 70.5932 19.7843 70.9637 20.5172 71.0452C21.4675 71.1508 21.8189 71.6278 22.8304 71.403C23.1396 71.3343 23.1708 71.1359 23.4604 71.1359C23.9075 71.1359 24.1005 71.3497 24.4381 70.9746C24.8117 70.5595 25.4222 70.365 25.6022 69.7349C25.847 68.8781 26.7445 68.4273 25.4158 68.9587" stroke="#00ADB5" stroke-opacity="0.5" stroke-width="1.66333" stroke-linecap="round" stroke-linejoin="round"/>
<path d="M30.7685 29.5885C29.1455 29.5973 27.804 29.7019 27.2508 31.423C26.8744 32.594 26.8678 33.7448 26.8678 34.9608C26.8678 36.1431 27.5935 37.0936 27.5935 38.2064C27.5935 39.6774 26.4171 39.4366 25.4214 39.8846C24.4809 40.3079 23.7994 40.6614 23.2896 41.6082C22.7847 42.5458 23.1662 44.3587 23.2342 45.3779C23.2926 46.2549 23.7098 48.1189 23.1031 48.8604C22.7735 49.2632 20.9723 49.8852 22.1506 49.0015" stroke="#00ADB5" stroke-opacity="0.5" stroke-width="1.66333" stroke-linecap="round" stroke-linejoin="round"/>
<path d="M44.4663 46.0079C45.766 46.8713 47.0905 47.5948 48.5435 48.1397C49.1526 48.3681 49.9547 48.7757 49.8185 47.8222" stroke="#00ADB5" stroke-opacity="0.5" stroke-width="1.66333" stroke-linecap="round" stroke-linejoin="round"/>
<path d="M49.1839 33.4892C51.4872 34.0437 53.7748 34.6686 56.0581 35.2833C56.4379 35.3856 55.5663 34.4254 55.534 34.3963" stroke="#00ADB5" stroke-opacity="0.5" stroke-width="1.66333" stroke-linecap="round" stroke-linejoin="round"/>
<path d="M49.8188 21.6057C52.204 21.259 54.5821 20.8288 56.955 20.4062C58.0475 20.2117 58.51 20.3549 57.8924 19.4285" stroke="#00ADB5" stroke-opacity="0.5" stroke-width="1.66333" stroke-linecap="round" stroke-linejoin="round"/>
<path d="M36.9358 8.9963C38.8203 8.66513 40.4538 8.34603 42.1569 7.49447C42.9541 7.09586 43.7217 6.61676 44.5558 6.29502C45.5471 5.91268 45.5674 6.02908 44.4651 5.36771" stroke="#00ADB5" stroke-opacity="0.5" stroke-width="1.66333" stroke-linecap="round" stroke-linejoin="round"/>
<path d="M20.5176 0.831925C20.2425 2.75725 20.3335 3.91038 21.1123 5.65492C21.5321 6.59539 21.8873 7.78409 22.095 8.7997C22.1666 9.14946 22.2065 9.34853 22.4428 9.61109C22.5312 9.70938 22.2066 8.54101 22.1505 8.36125" stroke="#00ADB5" stroke-opacity="0.5" stroke-width="1.66333" stroke-linecap="round" stroke-linejoin="round"/>
<path d="M6.63782 8.54267C7.24003 10.5477 8.09839 12.471 8.61338 14.4794C8.87393 15.4956 8.71104 15.5573 8.27068 14.5298" stroke="#00ADB5" stroke-opacity="0.5" stroke-width="1.66333" stroke-linecap="round" stroke-linejoin="round"/>
<path d="M0.832169 22.9663C2.8932 24.7501 4.58346 26.9644 6.18434 29.1551C6.38496 29.4296 6.61691 29.5272 6.8395 29.7498C7.34516 30.2554 6.47226 29.1132 6.36577 28.9535" stroke="#00ADB5" stroke-opacity="0.5" stroke-width="1.66333" stroke-linecap="round" stroke-linejoin="round"/>
</svg>
