<svg width="28" height="28" viewBox="0 0 28 28" fill="none" xmlns="http://www.w3.org/2000/svg">
<path d="M27.7549 5.55642C27.6575 5.43994 27.5358 5.34626 27.3983 5.28199C27.2608 5.21771 27.1109 5.18441 26.9591 5.18444H6.05024L5.2622 0.851543C5.2188 0.612629 5.09292 0.396525 4.90651 0.240909C4.7201 0.0852927 4.48499 3.5095e-05 4.24216 0H1.03689C0.761888 0 0.498151 0.109243 0.303697 0.303697C0.109243 0.498151 0 0.761888 0 1.03689C0 1.31189 0.109243 1.57562 0.303697 1.77008C0.498151 1.96453 0.761888 2.07377 1.03689 2.07377H3.36988L6.68274 20.2569C6.78032 20.7961 7.01864 21.3 7.37356 21.7176C6.88369 22.1751 6.53012 22.7594 6.35205 23.4057C6.17397 24.0519 6.17835 24.7348 6.36471 25.3787C6.55107 26.0226 6.91211 26.6023 7.40781 27.0535C7.90352 27.5047 8.5145 27.8098 9.17303 27.935C9.83155 28.0602 10.5119 28.0005 11.1386 27.7627C11.7653 27.5248 12.3138 27.118 12.7234 26.5874C13.1331 26.0568 13.3877 25.4231 13.4592 24.7567C13.5306 24.0902 13.4161 23.4169 13.1283 22.8115H19.0152C18.7832 23.2971 18.6632 23.8287 18.664 24.3668C18.664 25.0846 18.8768 25.7863 19.2756 26.3831C19.6744 26.9799 20.2411 27.445 20.9043 27.7197C21.5674 27.9944 22.2971 28.0662 23.0011 27.9262C23.7051 27.7862 24.3517 27.4405 24.8592 26.933C25.3668 26.4255 25.7124 25.7788 25.8524 25.0748C25.9925 24.3709 25.9206 23.6412 25.6459 22.978C25.3712 22.3149 24.9061 21.7481 24.3093 21.3494C23.7125 20.9506 23.0108 20.7377 22.2931 20.7377H9.74285C9.50002 20.7377 9.26491 20.6524 9.0785 20.4968C8.8921 20.3412 8.76622 20.1251 8.72281 19.8862L8.31195 17.6271H23.3468C24.0753 17.627 24.7806 17.3712 25.3398 16.9044C25.8991 16.4375 26.2767 15.7892 26.4069 15.0724L27.983 6.40667C28.0097 6.25689 28.0031 6.10307 27.9636 5.95613C27.9242 5.80919 27.8529 5.67273 27.7549 5.55642ZM11.4058 24.3668C11.4058 24.6745 11.3145 24.9752 11.1436 25.2309C10.9727 25.4867 10.7298 25.6861 10.4456 25.8038C10.1614 25.9215 9.8487 25.9523 9.547 25.8923C9.24529 25.8323 8.96816 25.6841 8.75064 25.4666C8.53312 25.2491 8.38499 24.972 8.32498 24.6703C8.26497 24.3686 8.29577 24.0558 8.41349 23.7716C8.53121 23.4874 8.73056 23.2445 8.98633 23.0736C9.2421 22.9027 9.54281 22.8115 9.85043 22.8115C10.2629 22.8115 10.6585 22.9754 10.9502 23.2671C11.2419 23.5587 11.4058 23.9543 11.4058 24.3668ZM23.8484 24.3668C23.8484 24.6745 23.7572 24.9752 23.5863 25.2309C23.4154 25.4867 23.1725 25.6861 22.8883 25.8038C22.6041 25.9215 22.2913 25.9523 21.9896 25.8923C21.6879 25.8323 21.4108 25.6841 21.1933 25.4666C20.9758 25.2491 20.8276 24.972 20.7676 24.6703C20.7076 24.3686 20.7384 24.0558 20.8561 23.7716C20.9739 23.4874 21.1732 23.2445 21.429 23.0736C21.6847 22.9027 21.9855 22.8115 22.2931 22.8115C22.7056 22.8115 23.1012 22.9754 23.3929 23.2671C23.6845 23.5587 23.8484 23.9543 23.8484 24.3668ZM24.3668 14.7018C24.3233 14.9413 24.1969 15.158 24.0097 15.3136C23.8224 15.4693 23.5864 15.5542 23.3429 15.5533H7.93478L6.4274 7.25821H25.7161L24.3668 14.7018Z" fill="white"/>
</svg>
