<svg width="5" height="5" viewBox="0 0 5 5" fill="none" xmlns="http://www.w3.org/2000/svg">
<path d="M3.97729 0.74963C2.36212 1.57965 -0.258893 2.12994 1.15547 3.94841C1.47775 4.36277 1.93769 4.34015 2.32943 3.94841C2.6643 3.61354 4.35284 1.85491 3.10489 1.43893C0.561078 0.59099 1.49117 5.66687 3.30953 3.42066C4.28611 2.21429 2.91916 1.02693 1.69399 1.76204C0.234259 2.63787 1.38907 4.16726 2.53407 2.83907C3.39697 1.8381 2.70794 1.0712 1.76938 2.00975C0.928687 2.85045 1.78264 4.19135 2.60946 3.05447C3.45749 1.88844 2.49052 0.900882 1.46781 1.92359C0.283975 3.10743 1.5654 2.98309 2.40483 2.20362C3.25113 1.41776 1.75024 1.53377 1.26318 2.14977C0.131796 3.58063 1.90398 3.37717 2.18942 2.14977C2.60873 0.346754 0.748615 4.48924 1.65091 1.33123" stroke="#00ADB5" stroke-opacity="0.2" stroke-width="1.28667" stroke-linecap="round" stroke-linejoin="round"/>
</svg>
