<svg width="7" height="11" viewBox="0 0 7 11" fill="none" xmlns="http://www.w3.org/2000/svg">
<path d="M2.55974 0.882241C-0.146484 20.8099 9.05943 1.63687 2.65481 1.92799C0.873128 2.00898 0.095009 6.34867 1.77542 6.34867C3.90057 6.34867 5.04284 3.2567 4.60371 1.50019C4.0076 -0.884251 1.65816 3.95641 1.56152 4.49484C0.705333 9.26502 4.55899 4.55633 5.41179 3.02128C7.00606 0.151601 3.67038 2.8044 3.03508 3.68676C2.56302 4.3424 1.92312 8.26871 3.43912 6.75271C3.97973 6.21211 5.63533 1.5065 4.50864 2.11813C2.89138 2.99607 0.840575 6.81547 2.39337 8.48771C5.18281 11.4917 8.74037 -2.87338 2.63104 5.37422C1.92626 6.32568 0.885024 9.95214 3.32029 9.34333C4.29668 9.09923 7.25895 4.94487 5.72076 4.58991C2.12237 3.75951 1.68285 12.218 2.55974 3.44909" stroke="#00ADB5" stroke-opacity="0.5" stroke-width="1.66333" stroke-linecap="round" stroke-linejoin="round"/>
</svg>
