<svg width="61" height="35" viewBox="0 0 61 35" fill="none" xmlns="http://www.w3.org/2000/svg">
<path d="M9.9079 32.8425C8.97049 30.0632 8.52077 25.6663 4.73253 26.1714C3.23739 26.3707 2.29293 26.8315 1.39696 28.0261C-1.66869 32.1137 5.505 37.5331 7.54458 31.7057C9.80485 25.2478 6.51658 21.3052 4.65774 15.3569C3.42437 11.4102 6.41485 23.6832 8.83095 27.0389C9.56883 28.0638 11.7686 31.7555 13.4678 31.1673C16.7539 30.0298 15.6534 22.5719 12.3311 21.8336C8.88982 21.0689 12.8224 29.4719 13.7969 30.4194C17.4544 33.9753 23.3782 25.906 21.2159 22.073C20.4495 20.7143 18.6112 19.8461 17.5064 21.3849C16.1263 23.3072 17.4441 26.0451 18.7928 27.5625C19.6572 28.5349 20.926 25.5759 21.0365 25.1842C21.5436 23.3862 21.1437 22.2143 20.139 20.7866C19.0883 19.2935 19.9517 21.2932 20.1988 21.8636C20.8453 23.3555 21.5181 25.477 23.2502 25.962C25.9522 26.7185 28.5691 22.5386 29.1435 20.3229C29.5046 18.9304 27.9638 15.5948 26.3614 15.4168C24.8198 15.2455 24.6019 19.6548 24.8357 20.5772C25.088 21.5723 25.4838 23.9576 26.87 23.9576C28.7261 23.9576 29.2132 21.8027 28.994 20.3229C28.3786 16.1693 23.2203 12.7031 23.2203 8.25203C23.2203 6.28651 25.8106 11.2837 26.6007 13.0834C27.7274 15.6497 29.0445 18.0028 30.3102 20.4874C32.697 25.1725 34.0445 20.4689 32.8979 17.3912C31.6407 14.0165 29.1372 9.26243 26.6007 6.57676C26.1338 6.08241 28.6067 8.58679 28.964 9.14949C30.626 11.7662 31.4224 14.7543 32.7932 17.4959C33.8764 19.6623 37.4737 25.8089 38.5669 19.8742C39.2563 16.1317 36.021 12.9523 35.7549 9.3589C35.6351 7.74188 36.0573 9.10761 36.5626 10.017C37.7256 12.1105 38.5497 14.4057 39.6588 16.5386C40.1339 17.4522 40.8212 18.2245 41.5285 18.9318C42.4768 19.8801 40.6933 16.3794 40.3917 15.0728C40.0582 13.6275 41.6561 6.96106 43.7722 10.2863C45.0012 12.2176 45.0815 17.4154 47.3172 12.6646C47.7349 11.7769 47.9032 3.97323 45.9261 4.63226C43.6598 5.38768 48.057 13.1433 49.4711 14.1155C53.6059 16.9582 53.7071 7.07927 53.5246 5.61947C53.4182 4.76826 53.1894 0.815404 51.8942 0.653503C50.0188 0.419077 51.4024 6.02288 51.6998 6.60668C53.1395 9.43286 57.0543 4.34365 58.9094 5.0062C61.3278 5.86993 60.268 11.1312 58.9094 12.6496C56.3082 15.5568 56.139 8.92303 56.4863 7.53406" stroke="#00ADB5" stroke-opacity="0.2" stroke-width="1.28667" stroke-linecap="round" stroke-linejoin="round"/>
</svg>
