<svg width="7" height="11" viewBox="0 0 7 11" fill="none" xmlns="http://www.w3.org/2000/svg">
<path d="M5.81835 0.687484C4.54034 2.09329 -2.43628 8.23707 2.33511 10.189C3.47945 10.6571 4.98415 9.11642 5.47003 8.19581C6.4914 6.26057 6.63839 2.33131 3.38008 2.79678C1.14071 3.11669 0.969928 8.96595 2.95435 8.89246C6.31497 8.76799 5.21567 1.64681 3.5736 5.08024C0.592306 11.3138 5.90406 8.10613 3.99932 5.98975C3.0543 4.93972 1.39976 13.0558 4.59922 9.18273C7.8055 5.30144 1.77409 5.11946 3.10916 9.12467C4.16266 12.2852 5.57571 2.77569 3.22527 8.33127C1.18449 13.1549 5.04429 7.30917 3.88322 7.73138C1.67585 8.53406 1.10069 12.7248 3.22527 8.35062C4.58763 5.54577 -0.17645 9.70521 1.13532 9.70521C2.3773 9.70521 4.669 5.47306 2.2577 7.30565C-0.194402 9.16925 3.76669 6.34965 4.05738 5.04154C4.21511 4.33175 1.84883 7.72227 3.38008 5.13829C4.17853 3.79092 3.19818 5.03423 2.8576 5.56402C2.04593 6.82662 2.98195 4.71351 3.18657 4.57711C3.58232 4.31327 2.70982 5.43745 2.68343 5.91235C2.61051 7.22501 2.9746 5.21034 3.03176 4.86738" stroke="#00ADB5" stroke-opacity="0.2" stroke-width="1.28667" stroke-linecap="round" stroke-linejoin="round"/>
</svg>
