<svg width="69" height="57" viewBox="0 0 69 57" fill="none" xmlns="http://www.w3.org/2000/svg">
<path d="M7.83089 38.4344C11.5483 29.6689 10.0258 22.031 10.0258 12.9469C10.0258 11.1798 9.70514 5.79689 11.5622 4.83347C14.4909 3.31409 17.2277 2.30025 20.6831 2.30025C22.9804 2.30025 25.2886 2.36643 27.5848 2.30025C29.8814 2.23406 32.1061 1.29984 34.3768 1.02169C38.6017 0.504177 42.996 1.22483 47.1681 1.22483C50.4807 1.22483 53.9075 1.655 57.0938 1.655C57.6595 1.655 59.9658 1.92473 60.3374 2.25246C61.4747 3.25548 61.149 4.86403 62.0445 5.7416" stroke="#00ADB5" stroke-opacity="0.5" stroke-width="1.66333" stroke-linecap="round" stroke-linejoin="round"/>
<path d="M61.8254 6.51831C61.97 9.10502 62.0242 12.7349 63.0885 15.2624C63.7781 16.9003 63.2282 19.0802 63.3678 20.8247C63.6357 24.1734 63.137 27.4373 63.137 30.6861C63.137 35.0442 63.3556 39.3466 63.3556 43.6809C63.3556 47.4011 59.7207 46.7782 56.8461 46.2555C54.3628 45.804 51.0303 46.7094 48.442 46.7413C43.4488 46.803 38.4322 47.1785 33.4313 47.1785C29.2546 47.1785 26.153 45.9656 22.3068 44.5067C20.2529 43.7276 19.0114 43.8995 16.8053 43.8995C14.7158 43.8995 12.9976 43.5728 10.903 44.2274C9.67755 44.6103 7.48299 44.2797 6.78596 43.0251C5.95016 41.5206 7.61179 40.8682 7.61179 39.6367C7.61179 38.6027 7.48183 35.6458 7.8304 38.4344" stroke="#00ADB5" stroke-opacity="0.5" stroke-width="1.66333" stroke-linecap="round" stroke-linejoin="round"/>
<path d="M32.7506 12.202C32.7506 12.202 33.625 12.6392 34.4995 13.5136C35.3739 14.1695 37.2145 13.8416 38.7622 13.8416C39.5766 13.8416 40.4366 13.2067 41.1669 12.8822C42.6461 12.2247 41.7638 13.4613 41.4098 14.1695C41.0178 14.9534 41.4654 16.4109 42.1749 16.9021C43.3454 17.7124 44.5034 17.013 45.6482 16.4406C46.1235 16.2029 45.993 16.0927 46.1401 16.4163C46.3396 16.8551 46.304 17.4919 46.304 17.9708C46.304 19.0606 46.2325 20.8712 45.6482 21.8206C44.8796 23.0695 44.1031 23.8779 42.8671 24.7961C41.6461 25.7031 40.033 27.2857 38.41 27.2857C35.2385 27.2857 31.8723 26.5946 30.2853 23.5087C29.6126 22.2007 28.3786 21.1297 28.3786 19.6345C28.3786 18.387 27.9658 16.8922 28.3786 15.6997C28.8789 14.2542 30.1274 12.8822 29.6902 12.8822C29.9131 12.9459 31.8762 11.7648 32.7506 12.202Z" stroke="#00ADB5" stroke-opacity="0.5" stroke-width="1.66333" stroke-linecap="round" stroke-linejoin="round"/>
<path d="M36.3582 11.437C37.588 10.9818 40.397 10.0281 41.0581 8.5405C41.5691 7.39082 39.8802 7.17423 38.9814 7.17423C37.8913 7.17423 36.5996 8.68076 36.3096 9.63352C36.1483 10.1633 35.9951 10.7056 35.8359 11.2427C35.7592 11.5016 35.8616 11.6893 35.9149 11.9289C35.9554 12.1113 37.6232 11.2357 37.5605 10.9849" stroke="#00ADB5" stroke-opacity="0.5" stroke-width="1.66333" stroke-linecap="round" stroke-linejoin="round"/>
<path d="M58.0011 36.0345L10.0469 37.0877C4.92692 37.2001 0.835033 41.3829 0.835033 46.5041C0.835033 51.7059 5.05191 55.9227 10.2537 55.9227H58.2195C63.7122 55.9227 68.1649 51.4701 68.1649 45.9774C68.1649 40.3993 63.5779 35.912 58.0011 36.0345Z" fill="#00ADB5" fill-opacity="0.5" stroke="#00ADB5" stroke-opacity="0.5" stroke-width="1.66333"/>
<path d="M20.6484 36.8236C21.3745 37.9493 22.0013 39.3004 22.8343 40.3417C23.2534 40.8655 23.1861 40.759 23.9984 40.4581C25.3544 39.9559 26.8908 40.3158 28.3055 40.3158C29.5474 40.3158 30.9915 39.6675 32.1986 39.9925C33.5971 40.369 35.2457 39.6502 36.6221 39.6174C38.2807 39.5779 39.8617 39.7338 41.5112 39.7338C42.5057 39.7338 43.4751 39.1517 44.3955 39.1517C44.9295 39.1517 46.4517 39.575 46.4909 38.5956C46.5099 38.1184 46.7237 37.6551 46.7237 37.1728C46.7237 36.5206 46.3333 36.803 45.676 36.4744" stroke="#00ADB5" stroke-opacity="0.5" stroke-width="1.66333" stroke-linecap="round" stroke-linejoin="round"/>
</svg>
