<svg width="68" height="66" viewBox="0 0 68 66" fill="none" xmlns="http://www.w3.org/2000/svg">
<path d="M5.29368 36.677C14.5176 32.2824 21.9742 25.0164 29.472 18.1646C35.365 12.7793 41.5449 7.45796 48.0484 2.81069C49.3317 1.89369 51.1446 0.0482594 52.8793 0.834779C54.5983 1.61417 55.5893 3.73619 56.948 4.99278C60.2938 8.08732 63.3023 11.8689 66.0531 15.5054C69.0813 19.5086 64.5402 21.7243 61.733 24.3453C58.5442 27.3225 55.4989 30.3927 52.0158 33.0198C48.705 35.5169 46.0449 38.9588 43.014 41.7857C38.3949 46.094 34.0745 50.6808 29.4688 54.9935C26.727 57.5608 23.5813 59.6566 20.941 62.3152C20.0158 63.2467 19.1602 64.4779 18.0932 65.2536C17.2363 65.8766 16.0503 63.4808 15.7453 63.0296C13.324 59.4484 9.57316 56.9986 7.20221 53.2528C5.71149 50.8976 4.70842 47.991 2.92405 45.8402C2.07224 44.8134 -0.0573241 42.5024 0.875707 41.0025C1.82834 39.4711 4.53334 38.7374 6.00879 37.6406C7.15893 36.7857 8.55707 35.7302 9.86606 35.1357C10.8174 34.7036 11.7513 33.9378 12.6022 33.348C14.8413 31.7959 12.4685 32.4593 10.9541 33.0361" stroke="#00ADB5" stroke-opacity="0.2" stroke-width="1.28667" stroke-linecap="round" stroke-linejoin="round"/>
<path d="M6.70298 43.7078C12.3182 47.1841 17.3553 52.2147 21.7389 57.176C21.85 57.3017 22.9168 58.0452 22.7542 58.3205C22.4402 58.8518 18.7956 56.4534 18.4474 56.2131" stroke="#00ADB5" stroke-opacity="0.2" stroke-width="1.28667" stroke-linecap="round" stroke-linejoin="round"/>
<path d="M12.2705 38.6822C16.8231 39.9858 19.5363 42.4663 23.2119 45.1202C24.8492 46.3024 26.5169 47.3693 27.9865 48.7594C28.6766 49.4122 29.1681 50.2718 29.8057 50.9758C30.6796 51.9406 27.1109 49.8557 26.6905 49.6156" stroke="#00ADB5" stroke-opacity="0.2" stroke-width="1.28667" stroke-linecap="round" stroke-linejoin="round"/>
<path d="M18.8836 34.7862C22.0695 37.6614 25.272 40.4969 28.5578 43.2566C29.806 44.305 31.223 45.2671 32.3011 46.5019C34.2149 48.6938 31.7085 45.8495 30.8573 45.0467" stroke="#00ADB5" stroke-opacity="0.2" stroke-width="1.28667" stroke-linecap="round" stroke-linejoin="round"/>
<path d="M23.349 32.0454C25.7121 33.482 28.1804 34.8743 30.1814 36.8115C31.0021 37.6061 31.6831 38.5428 32.5606 39.2789C33.6416 40.1858 34.5886 41.2438 35.6767 42.1253C37.2262 43.3805 37.4592 43.7469 35.6185 42.1715" stroke="#00ADB5" stroke-opacity="0.2" stroke-width="1.28667" stroke-linecap="round" stroke-linejoin="round"/>
<path d="M29.1022 27.8265C31.7093 29.8668 34.1222 31.9387 36.3021 34.4276C37.2676 35.5299 38.0457 36.8023 39.2711 37.648C40.3937 38.4227 41.1804 38.6466 39.8663 37.3875" stroke="#00ADB5" stroke-opacity="0.2" stroke-width="1.28667" stroke-linecap="round" stroke-linejoin="round"/>
<path d="M34.6425 23.5269C36.938 25.2517 39.2011 26.8262 41.0347 29.0478C41.8741 30.0648 42.5368 31.2337 43.4742 32.1717C45.3777 34.0765 44.0686 33.1163 42.6916 31.8234" stroke="#00ADB5" stroke-opacity="0.2" stroke-width="1.28667" stroke-linecap="round" stroke-linejoin="round"/>
<path d="M39.7527 19.0655C42.9754 22.1484 45.6745 25.7594 48.903 28.8045C51.0768 30.8549 47.9622 27.5693 47.4525 26.9856" stroke="#00ADB5" stroke-opacity="0.2" stroke-width="1.28667" stroke-linecap="round" stroke-linejoin="round"/>
<path d="M45.9903 15.519C48.7029 14.4115 51.5167 13.0913 52.9745 10.3849C53.3765 9.63857 53.8944 8.9889 54.0596 8.14784C54.2865 6.9928 54.2421 7.48827 53.386 8.23574" stroke="#00ADB5" stroke-opacity="0.2" stroke-width="1.28667" stroke-linecap="round" stroke-linejoin="round"/>
<path d="M50.359 19.2439C52.5095 17.2483 54.9136 15.0685 56.4894 12.5353C57.2754 11.2718 58.7726 9.72952 56.6794 11.557" stroke="#00ADB5" stroke-opacity="0.2" stroke-width="1.28667" stroke-linecap="round" stroke-linejoin="round"/>
<path d="M57.2527 23.4268C59.2121 21.2975 60.9557 19.3171 62.7594 17.0906C63.3421 16.3712 65.1175 15.4378 62.9815 16.0086" stroke="#00ADB5" stroke-opacity="0.2" stroke-width="1.28667" stroke-linecap="round" stroke-linejoin="round"/>
<path d="M55.6934 22.3508C57.7444 20.5933 60.0639 18.547 61.6892 16.3277C62.1227 15.7357 62.4562 15.0762 62.8533 14.4611C63.5183 13.4307 63.5604 13.7786 62.5518 13.8845" stroke="#00ADB5" stroke-opacity="0.2" stroke-width="1.28667" stroke-linecap="round" stroke-linejoin="round"/>
<path d="M12.2394 47.2585C22.4575 43.1077 24.9786 31.8426 33.3055 25.4718C34.3184 24.6968 35.1412 23.8353 36.3225 23.2989C37.1123 22.9401 38.0877 22.7684 38.8066 22.3094C39.2452 22.0294 42.8871 19.2473 40.3561 20.3967" stroke="#00ADB5" stroke-opacity="0.2" stroke-width="1.28667" stroke-linecap="round" stroke-linejoin="round"/>
<path d="M7.48259 44.2458C8.62923 42.8515 9.64726 41.6581 11.102 40.6497C11.3406 40.4843 11.7087 40.4564 11.9049 40.2355C12.2936 39.7978 12.8826 39.1581 13.0324 38.5936C13.6224 36.3707 16.5053 36.7817 18.0361 35.6671C19.4924 34.6068 20.8944 33.5334 22.379 32.4857C24.0147 31.3315 24.7715 30.3193 26.0851 28.8404C27.2918 27.4818 28.4632 26.1077 29.7405 24.8216C30.7854 23.7694 32.4273 22.8125 33.0925 21.4659C33.8431 19.9461 35.7616 18.2067 37.4883 18.4884C38.0815 18.5851 42.4394 21.1104 39.591 19.4957" stroke="#00ADB5" stroke-opacity="0.2" stroke-width="1.28667" stroke-linecap="round" stroke-linejoin="round"/>
<path d="M16.7287 49.6795C24.4071 45.6292 28.6685 36.7987 33.8547 30.1281C35.765 27.6711 38.4949 26.0385 40.4944 23.6243C41.3496 22.5916 43.2384 21.4948 41.0417 21.5125" stroke="#00ADB5" stroke-opacity="0.2" stroke-width="1.28667" stroke-linecap="round" stroke-linejoin="round"/>
<path d="M19.4701 52.1806C26.4276 47.9033 30.8825 39.9452 35.9446 33.6387C38.2475 30.7696 40.4702 27.8404 42.8015 24.9946C43.8644 23.6972 45.7176 22.8867 43.3395 24.2151" stroke="#00ADB5" stroke-opacity="0.2" stroke-width="1.28667" stroke-linecap="round" stroke-linejoin="round"/>
<path d="M22.2106 56.6445C26.5522 52.4106 30.0574 47.8419 33.6097 42.9446C35.7698 39.9668 37.637 36.6195 40.1733 33.9382C41.6286 32.3998 42.749 30.5983 44.0702 28.9673C44.6025 28.3103 44.9697 27.5448 45.5167 26.8932C46.7489 25.4256 45.8898 26.7534 45.0318 27.5495" stroke="#00ADB5" stroke-opacity="0.2" stroke-width="1.28667" stroke-linecap="round" stroke-linejoin="round"/>
<path d="M23.2328 58.4998C25.3934 56.3834 28.5589 54.3464 30.0003 51.601C30.5236 50.6042 31.8186 48.1978 32.7267 47.5879C33.9271 46.7816 34.4992 45.0664 35.373 43.9877C36.283 42.8644 37.1737 41.7682 38.1611 40.6997C39.087 39.6978 39.3835 37.9394 40.5297 37.0771C41.8065 36.1165 42.4278 34.6297 43.4463 33.483C44.3279 32.4905 46.0061 31.462 47.0998 30.7039C47.7058 30.2838 48.1291 29.7112 48.8164 29.3991C50.2095 28.7664 49.3054 29.0902 48.0301 29.0426" stroke="#00ADB5" stroke-opacity="0.2" stroke-width="1.28667" stroke-linecap="round" stroke-linejoin="round"/>
<path d="M45.8147 16.3119C47.6021 16.7831 49.8058 17.1066 51.4345 18.0807C52.4857 18.7092 53.4009 19.3403 51.4868 18.1957" stroke="#00ADB5" stroke-opacity="0.2" stroke-width="1.28667" stroke-linecap="round" stroke-linejoin="round"/>
<path d="M47.6712 13.3284C50.2208 13.9945 52.0227 14.7411 54.1017 16.0966C55.4611 16.9829 55.243 16.7375 53.827 15.8845" stroke="#00ADB5" stroke-opacity="0.2" stroke-width="1.28667" stroke-linecap="round" stroke-linejoin="round"/>
<path d="M50.7648 10.3184C52.9541 11.5497 55.0782 12.9489 57.3421 14.0209C58.6736 14.6515 57.9748 14.6074 56.947 14.1112" stroke="#00ADB5" stroke-opacity="0.2" stroke-width="1.28667" stroke-linecap="round" stroke-linejoin="round"/>
<path d="M52.5255 7.91276C54.8276 8.96092 56.9497 10.0048 59.0693 11.3233C60.0358 11.9246 59.1587 11.9635 58.4255 11.4769" stroke="#00ADB5" stroke-opacity="0.2" stroke-width="1.28667" stroke-linecap="round" stroke-linejoin="round"/>
<path d="M46.9459 15.2638C48.6852 13.196 50.4299 11.2367 52.0134 9.11715C52.4634 8.51496 55.2036 5.16224 54.0193 6.87818" stroke="#00ADB5" stroke-opacity="0.2" stroke-width="1.28667" stroke-linecap="round" stroke-linejoin="round"/>
<path d="M48.7728 18.8939C51.0358 16.8932 54.2971 14.2258 55.0275 11.2368C55.2425 10.3572 55.7087 9.478 56.3919 8.87292C57.0849 8.25925 57.8093 7.9821 56.7742 9.01644" stroke="#00ADB5" stroke-opacity="0.2" stroke-width="1.28667" stroke-linecap="round" stroke-linejoin="round"/>
<path d="M46.9566 18.8261C49.3696 16.2271 51.432 14.4803 52.7953 11.2787C53.1493 10.4472 53.5553 9.75801 54.1365 9.10371C54.7524 8.41033 55.6364 7.76098 54.4472 9.00225" stroke="#00ADB5" stroke-opacity="0.2" stroke-width="1.28667" stroke-linecap="round" stroke-linejoin="round"/>
<path d="M55.9239 20.1061C57.0351 20.8106 58.1492 21.4634 59.304 22.0496C59.7809 22.2918 59.191 21.8232 58.9882 21.7471" stroke="#00ADB5" stroke-opacity="0.2" stroke-width="1.28667" stroke-linecap="round" stroke-linejoin="round"/>
<path d="M58.0892 16.6253C58.1643 16.6891 62.5326 20.4321 61.758 19.5972" stroke="#00ADB5" stroke-opacity="0.2" stroke-width="1.28667" stroke-linecap="round" stroke-linejoin="round"/>
<path d="M60.6824 15.2683C61.646 16.1955 64.5972 18.907 63.5582 18.0653" stroke="#00ADB5" stroke-opacity="0.2" stroke-width="1.28667" stroke-linecap="round" stroke-linejoin="round"/>
<path d="M54.632 21.5844C56.2289 20.0973 59.7311 17.151 60.5892 14.8652C60.9273 13.9644 62.4763 12.8069 61.0196 14.0454" stroke="#00ADB5" stroke-opacity="0.2" stroke-width="1.28667" stroke-linecap="round" stroke-linejoin="round"/>
<path d="M54.8335 22.0279C54.9851 22.1493 58.0395 25.4391 58.6909 23.8439C59.0233 23.0297 59.4563 21.9692 60.2719 21.5204C61.7026 20.733 61.9667 18.2533 63.4313 17.5881C65.0929 16.8335 64.9377 15.568 63.3903 15.1192C62.7824 14.9428 63.262 13.7448 62.6305 13.8389C62.0526 13.9251 61.7465 13.7117 61.1004 13.8302" stroke="#00ADB5" stroke-opacity="0.2" stroke-width="1.28667" stroke-linecap="round" stroke-linejoin="round"/>
<path d="M45.6148 15.8683C46.6624 17.8701 46.8605 18.5959 48.5507 19.4308C49.0069 19.6561 49.6025 19.3436 49.9487 19.5194C50.6337 19.8671 51.9877 19.8744 52.4991 19.2431C53.5273 17.9738 53.9058 17.1545 55.4812 16.3824C56.4751 15.8953 57.2745 14.746 57.7344 13.7933C58.2399 12.7462 59.1502 11.9572 59.6838 10.9061C59.911 10.4585 58.0768 9.30577 58.0603 8.53149C58.0556 8.31194 55.8777 8.30536 55.5153 8.1214C55.0763 7.89851 54.875 7.58434 54.6643 7.12042C54.3566 6.44281 53.8109 7.28414 52.984 7.34838" stroke="#00ADB5" stroke-opacity="0.2" stroke-width="1.28667" stroke-linecap="round" stroke-linejoin="round"/>
<path d="M9.33922 41.2623C11.8135 42.2027 13.9712 43.4153 16.1989 44.7573C18.1329 45.9224 20.3184 46.5432 22.2402 47.6725C23.6083 48.4765 25.0281 50.312 26.0379 51.5175C26.3743 51.9192 26.6255 52.2951 26.8641 52.7478C27.4116 53.7864 26.8421 51.2755 26.7841 51.0003" stroke="#00ADB5" stroke-opacity="0.2" stroke-width="1.28667" stroke-linecap="round" stroke-linejoin="round"/>
<path d="M33.2315 22.3838C33.9176 23.1042 36.696 27.0813 36.1479 24.0919" stroke="#00ADB5" stroke-opacity="0.2" stroke-width="1.28667" stroke-linecap="round" stroke-linejoin="round"/>
</svg>
