<svg width="16" height="21" viewBox="0 0 16 21" fill="none" xmlns="http://www.w3.org/2000/svg">
<path d="M0.668885 3.55037C1.90097 2.93858 8.28861 -1.67603 6.58757 2.21207C6.0372 3.47006 5.08673 4.86389 4.13716 5.84999C2.58642 7.46037 1.22496 14.3004 4.32565 11.4294C5.52792 10.3162 8.48137 3.66593 10.5082 5.5861C13.3885 8.3148 10.141 9.48456 8.30285 10.5058C5.64042 11.9849 6.15024 16.7244 9.49036 14.5772C10.7317 13.7792 13.4163 10.1421 14.7493 12.5415C16.1533 15.0687 11.2274 16.6359 11.5449 19.1764C11.7868 21.1116 13.5858 20.1569 14.5797 19.5723C15.208 19.2027 14.3743 17.6903 14.919 16.7826" stroke="#00ADB5" stroke-opacity="0.2" stroke-width="1.28667" stroke-linecap="round" stroke-linejoin="round"/>
</svg>
