<svg width="16" height="14" viewBox="0 0 16 14" fill="none" xmlns="http://www.w3.org/2000/svg">
<path d="M4.14135 0.507874C5.10551 0.507286 6.03023 0.889951 6.71246 1.57123L6.71841 1.57719L6.72536 1.58314L7.65381 2.45108L8 2.77446L8.34619 2.45108L9.28159 1.58115L9.29349 1.56925C9.8026 1.06267 10.4507 0.718013 11.1554 0.579293C11.8598 0.440701 12.5894 0.513943 13.2523 0.789585C13.9154 1.06538 14.4827 1.53122 14.8811 2.1287C15.2795 2.72625 15.4915 3.42911 15.4911 4.1473V4.1483C15.4922 4.62515 15.399 5.0975 15.2164 5.538C15.0337 5.9786 14.765 6.37917 14.4268 6.71544L14.4238 6.7194L8.04563 13.1908C8.03976 13.1968 8.03251 13.2015 8.0248 13.2047C8.01703 13.208 8.00842 13.2097 8 13.2097C7.99176 13.2096 7.98381 13.2079 7.97619 13.2047C7.96843 13.2015 7.96127 13.1968 7.95536 13.1908L1.57719 6.7194L1.57421 6.71643L1.45022 6.58549C0.845936 5.91901 0.508538 5.05021 0.507874 4.14631C0.507286 3.18205 0.889811 2.25646 1.57123 1.57421C2.25263 0.892022 3.17715 0.50848 4.14135 0.507874Z" fill="#F45E0C" stroke="#0C0C0C"/>
</svg>
