<svg width="43" height="59" viewBox="0 0 43 59" fill="none" xmlns="http://www.w3.org/2000/svg">
<path d="M0.83186 51.8741C6.70052 45.7337 7.00981 43.6178 8.01961 36.1414C8.57569 32.0244 9.41524 28.0802 9.44421 23.8927C9.49602 16.4045 11.4084 6.80835 18.547 2.65649C32.5934 -5.51309 49.1004 15.7565 39.109 28.1924C35.3063 32.9253 30.1368 35.8068 25.8225 40.0787C24.0923 41.792 22.842 43.8145 20.7893 45.3001C18.8207 46.7247 16.3745 48.4989 15.7773 50.7566C15.2728 52.6636 15.1873 55.2867 13.3926 56.6159C10.9133 58.452 11.8925 57.4294 9.13405 56.6997C7.23783 56.1981 4.84023 53.9513 3.63463 52.3234C2.77388 51.1611 1.52008 53.5325 2.16368 51.0995C2.71614 49.011 2.92878 50.9263 1.55441 50.5627" stroke="#00ADB5" stroke-opacity="0.5" stroke-width="1.66333" stroke-linecap="round" stroke-linejoin="round"/>
</svg>
