<svg width="43" height="34" viewBox="0 0 43 34" fill="none" xmlns="http://www.w3.org/2000/svg">
<path d="M7.74014 3.18096C14.0938 3.44889 20.9927 3.05903 27.3206 2.27888C30.7065 1.86143 34.1218 1.77236 37.469 1.25741C37.9407 1.18484 39.4458 0.464759 39.6844 1.08495C40.0609 2.06387 40.1405 3.4622 40.0956 4.49428C39.9653 7.49238 40.3347 10.7637 40.9844 13.6875C41.4998 16.0068 41.8865 17.94 41.8865 20.3205C41.8865 21.6225 42.5797 23.7634 41.7804 24.7911C39.5519 27.6562 34.6641 28.8267 31.2738 29.6862C26.2919 30.9492 21.3645 32.2601 16.217 32.5383C13.0241 32.7109 9.95188 32.074 6.79826 32.074C3.89339 32.074 4.16969 32.0144 3.15015 29.2617C2.14596 26.5504 2.00928 24.109 2.00928 21.196C2.00928 19.6796 1.3422 18.0198 0.934744 16.553C0.626136 15.442 1.12099 14.0819 1.27966 12.9712C1.44608 11.8062 3.19313 9.13246 2.60624 8.07607C2.03102 7.04066 1.72591 5.26849 2.67257 4.32183C3.44554 3.54886 14.8289 2.61708 4.39714 4.85246" stroke="#00ADB5" stroke-opacity="0.5" stroke-width="1.66333" stroke-linecap="round" stroke-linejoin="round"/>
<path d="M2.48673 6.04636C3.81194 7.82711 4.86249 9.93665 6.20117 11.6578C6.6461 12.2299 7.71039 12.7254 7.9788 13.3293C8.70547 14.9643 12.8892 16.4007 14.426 17.3887C16.1608 18.5039 19.7302 23.4268 22.1866 20.9705C26.8039 16.3531 31.5568 11.839 36.1555 7.24028C37.0244 6.37141 37.3255 5.22128 38.1189 4.42792C40.534 2.01278 36.514 2.22578 35.2004 2.22578" stroke="#00ADB5" stroke-opacity="0.5" stroke-width="1.66333" stroke-linecap="round" stroke-linejoin="round"/>
</svg>
