<svg width="20" height="22" viewBox="0 0 20 22" fill="none" xmlns="http://www.w3.org/2000/svg">
<path d="M19.8583 20.5788L12.7472 9.31319L19.764 1.53216C19.9227 1.35183 20.0045 1.11572 19.9916 0.875005C19.9788 0.634294 19.8723 0.408387 19.6954 0.246263C19.5184 0.0841389 19.2852 -0.00113577 19.0462 0.00892707C18.8073 0.0189899 18.582 0.123579 18.419 0.300019L11.735 7.71118L7.1355 0.424836C7.05348 0.2947 6.9402 0.187536 6.80617 0.113272C6.67213 0.0390084 6.52167 4.77858e-05 6.36872 1.08368e-07H0.916099C0.753157 -7.97725e-05 0.593192 0.0440036 0.452952 0.127634C0.312713 0.211264 0.197358 0.331365 0.118968 0.475361C0.0405769 0.619357 0.00203402 0.78195 0.00737454 0.946115C0.0127151 1.11028 0.0617426 1.26998 0.149324 1.40849L7.26045 12.673L0.243609 20.4597C0.161668 20.5484 0.0980122 20.6527 0.0563311 20.7664C0.01465 20.8801 -0.00422791 21.001 0.000792176 21.1222C0.00581227 21.2433 0.0346305 21.3622 0.085576 21.472C0.136521 21.5818 0.208581 21.6803 0.297578 21.7619C0.386576 21.8434 0.490742 21.9063 0.604037 21.947C0.717333 21.9876 0.837505 22.0052 0.95759 21.9987C1.07767 21.9922 1.19528 21.9617 1.3036 21.909C1.41191 21.8564 1.50878 21.7825 1.58859 21.6919L8.2726 14.2807L12.8721 21.567C12.9548 21.6961 13.0684 21.8021 13.2024 21.8754C13.3364 21.9486 13.4865 21.9867 13.6389 21.9861H19.0915C19.2543 21.9861 19.414 21.942 19.5541 21.8584C19.6942 21.7748 19.8094 21.6549 19.8878 21.5111C19.9661 21.3672 20.0047 21.2049 19.9995 21.0409C19.9944 20.8769 19.9456 20.7173 19.8583 20.5788ZM14.1376 20.154L2.5712 1.83218H5.86549L17.4364 20.154H14.1376Z" fill="black"/>
</svg>
