<svg width="78" height="234" viewBox="0 0 78 234" fill="none" xmlns="http://www.w3.org/2000/svg">
<path d="M75.1939 2.51521C49.5444 3.23458 54.2707 2.26139 33.5189 22.2413C28.7794 26.8045 21.6131 32.3546 19.989 40.4617C17.5924 52.4254 32.2627 88.6202 41.8673 75.2992C48.0745 66.6902 46.8789 51.9031 37.4364 47.9923C21.9513 41.5788 9.50132 60.541 4.68739 76.9262C-0.612488 94.9655 3.83849 114.7 16.3292 126.745C22.0354 132.247 31.2397 129.756 26.1909 118.07C15.8064 94.0347 3.79598 123.192 5.42209 139.16C8.35101 167.921 33.055 205.706 56.1679 199.714C63.3943 197.84 61.0323 193.661 57.9997 190.569C54.9225 187.432 47.1849 175.975 49.2622 180.325C52.8939 187.93 57.5013 190.99 62.6483 195.456C69.2869 201.216 55.0474 213.803 50.9223 218.295C48.7568 220.654 45.6104 225.936 45.0247 229.782C43.868 237.377 52.2174 217.533 53.7116 210.074" stroke="#00ADB5" stroke-opacity="0.2" stroke-width="5" stroke-linecap="round" stroke-linejoin="round"/>
</svg>
