<svg width="20" height="27" viewBox="0 0 20 27" fill="none" xmlns="http://www.w3.org/2000/svg">
<path d="M0.854992 4.5308C2.42735 3.75004 10.5791 -2.13901 8.40826 2.8229C7.7059 4.4283 6.49293 6.20708 5.28111 7.46551C3.3021 9.52064 1.56464 18.2497 5.52166 14.5858C7.05598 13.1651 10.8251 4.67827 13.4117 7.12874C17.0875 10.611 12.9431 12.1039 10.5973 13.4071C7.19954 15.2947 7.85016 21.3432 12.1127 18.603C13.6969 17.5846 17.1229 12.943 18.8241 16.005C20.6159 19.2302 14.3295 21.2302 14.7347 24.4724C15.0434 26.942 17.3393 25.7236 18.6076 24.9776C19.4095 24.5059 18.3455 22.5759 19.0406 21.4174" stroke="#00ADB5" stroke-opacity="0.5" stroke-width="1.66333" stroke-linecap="round" stroke-linejoin="round"/>
</svg>
