<svg width="30" height="22" viewBox="0 0 30 22" fill="none" xmlns="http://www.w3.org/2000/svg">
<path d="M7.01656 2.08771C6.28718 3.12222 5.33731 4.0097 4.83056 5.16798C4.64856 5.58398 4.58811 6.03543 4.39446 6.43762C4.19745 6.8468 3.96101 7.32621 3.81484 7.75143C3.52607 8.5915 2.84872 9.24753 2.38511 9.97606C2.1124 10.4046 1.66169 11.0718 1.24243 11.3782C1.02893 11.5342 0.456516 12.2837 0.709734 12.347C1.29936 12.4944 1.79961 12.808 2.32439 13.1171C3.04605 13.542 3.76482 13.8627 4.40826 14.406C5.22178 15.093 6.18712 15.5823 6.98343 16.2939C7.60776 16.8518 8.15007 17.4983 8.78302 18.0521C9.32951 18.5303 9.98776 18.8828 10.544 19.3521C10.585 19.3867 10.9809 19.7193 10.9331 19.791C10.8838 19.8649 10.2936 19.1067 10.2459 19.0292" stroke="#00ADB5" stroke-opacity="0.2" stroke-width="1.28667" stroke-linecap="round" stroke-linejoin="round"/>
<path d="M19.6364 1.24324C18.4734 4.00685 17.2019 6.72173 16.0483 9.49041C15.3327 11.2078 14.7311 12.9438 14.1217 14.7042C13.6427 16.088 13.0493 17.4384 12.5319 18.8057C12.3522 19.2806 12.2287 19.7655 12.1234 20.2603C11.9511 21.0703 11.9686 20.1271 11.9854 19.7745" stroke="#00ADB5" stroke-opacity="0.2" stroke-width="1.28667" stroke-linecap="round" stroke-linejoin="round"/>
<path d="M22.218 0.647037C23.2307 1.80058 24.2002 2.96119 25.2762 4.053C26.1556 4.94527 26.5446 6.23463 27.0372 7.35407C27.5483 8.51573 28.0599 9.4777 28.8147 10.484C28.904 10.6031 29.168 10.8979 29.168 11.0526C29.168 11.127 28.8118 11.1249 28.7539 11.1326C28.5572 11.1589 28.3227 11.3256 28.1578 11.428C25.1662 13.2848 23.1436 15.9686 21.3845 18.941C21.0839 19.4489 20.8613 20.1839 20.4267 20.5749C20.1462 20.8274 19.9174 21.1595 19.5849 21.3257C19.2722 21.482 19.4939 20.9288 19.5352 20.6191" stroke="#00ADB5" stroke-opacity="0.2" stroke-width="1.28667" stroke-linecap="round" stroke-linejoin="round"/>
</svg>
