<svg width="14" height="10" viewBox="0 0 14 10" fill="none" xmlns="http://www.w3.org/2000/svg">
<path d="M1.0173 0.837996C0.983988 1.15839 0.484453 3.24908 1.31391 3.4685C1.76052 3.58664 2.0376 3.37014 2.38565 3.70475C2.795 4.09828 3.07905 4.84485 3.44088 5.33342C3.75976 5.764 4.97077 6.04158 5.0946 6.50604C5.29691 7.26489 5.96616 7.82799 6.65889 8.09609C7.55709 8.44371 7.77643 8.99875 8.81934 9.04043C9.13812 9.05317 9.2196 8.868 9.50161 8.9426C9.93703 9.05778 10.0699 9.31573 10.4952 9.03741C10.9661 8.72937 11.6106 8.6973 11.9483 8.13002C12.4074 7.35873 13.3974 7.15092 11.9666 7.3262" stroke="#00ADB5" stroke-opacity="0.5" stroke-width="1.66333" stroke-linecap="round" stroke-linejoin="round"/>
</svg>
