<svg width="88" height="86" viewBox="0 0 88 86" fill="none" xmlns="http://www.w3.org/2000/svg">
<path d="M6.88164 47.6754C18.8716 41.9629 28.5641 32.5181 38.3103 23.6116C45.9704 16.6115 54.0035 9.69439 62.4572 3.65354C64.1252 2.46156 66.4818 0.0627461 68.7367 1.08512C70.9712 2.09823 72.2594 4.85658 74.0254 6.48998C78.3746 10.5125 82.2852 15.428 85.8609 20.155C89.7972 25.3587 83.8944 28.2387 80.2453 31.6457C76.1004 35.5157 72.1418 39.5065 67.6143 42.9214C63.3107 46.1674 59.8528 50.6413 55.9131 54.3159C49.9089 59.9162 44.293 65.8784 38.3061 71.4843C34.7422 74.8215 30.6531 77.5458 27.221 81.0016C26.0185 82.2124 24.9063 83.8129 23.5193 84.8212C22.4055 85.6309 20.8639 82.5168 20.4673 81.9303C17.32 77.2751 12.4444 74.0907 9.36248 69.2216C7.42474 66.1602 6.12088 62.382 3.80143 59.5862C2.69419 58.2516 -0.0739638 55.2475 1.13885 53.2979C2.37716 51.3073 5.8933 50.3536 7.81119 48.9279C9.30622 47.8166 11.1236 46.4445 12.8251 45.6718C14.0618 45.1102 15.2757 44.1147 16.3817 43.3481C19.2922 41.3305 16.2079 42.1929 14.2394 42.9426" stroke="#00ADB5" stroke-opacity="0.5" stroke-width="1.66333" stroke-linecap="round" stroke-linejoin="round"/>
<path d="M8.71275 56.8145C16.0119 61.3332 22.5593 67.8723 28.2575 74.3214C28.4019 74.4848 29.7887 75.4513 29.5772 75.809C29.169 76.4997 24.4315 73.382 23.9789 73.0697" stroke="#00ADB5" stroke-opacity="0.5" stroke-width="1.66333" stroke-linecap="round" stroke-linejoin="round"/>
<path d="M15.9498 50.2818C21.8675 51.9764 25.3943 55.2006 30.1722 58.6504C32.3004 60.187 34.4682 61.5739 36.3784 63.3809C37.2755 64.2294 37.9144 65.3468 38.7432 66.2618C39.8791 67.516 35.2403 64.8059 34.6938 64.4938" stroke="#00ADB5" stroke-opacity="0.5" stroke-width="1.66333" stroke-linecap="round" stroke-linejoin="round"/>
<path d="M24.5486 45.2176C28.6898 48.9549 32.8527 52.6407 37.1237 56.2279C38.7463 57.5907 40.5882 58.8413 41.9896 60.4464C44.4772 63.2956 41.2193 59.5984 40.1128 58.5548" stroke="#00ADB5" stroke-opacity="0.5" stroke-width="1.66333" stroke-linecap="round" stroke-linejoin="round"/>
<path d="M30.3492 41.6549C33.4209 43.5223 36.6294 45.332 39.2304 47.8502C40.2973 48.8831 41.1824 50.1006 42.323 51.0575C43.7282 52.2364 44.9592 53.6115 46.3736 54.7574C48.3878 56.389 48.6906 56.8653 46.2979 54.8175" stroke="#00ADB5" stroke-opacity="0.5" stroke-width="1.66333" stroke-linecap="round" stroke-linejoin="round"/>
<path d="M37.8299 36.1709C41.2188 38.8229 44.3552 41.5162 47.1889 44.7514C48.4439 46.1842 49.4553 47.8382 51.0481 48.9375C52.5073 49.9446 53.53 50.2355 51.8219 48.599" stroke="#00ADB5" stroke-opacity="0.5" stroke-width="1.66333" stroke-linecap="round" stroke-linejoin="round"/>
<path d="M45.0316 30.5818C48.0155 32.8239 50.9573 34.8706 53.3407 37.7583C54.4317 39.0803 55.2932 40.5997 56.5117 41.819C58.986 44.295 57.2844 43.0468 55.4945 41.3663" stroke="#00ADB5" stroke-opacity="0.5" stroke-width="1.66333" stroke-linecap="round" stroke-linejoin="round"/>
<path d="M51.6733 24.7828C55.8624 28.7902 59.3708 33.484 63.5674 37.4422C66.3931 40.1074 62.3445 35.8366 61.682 35.0778" stroke="#00ADB5" stroke-opacity="0.5" stroke-width="1.66333" stroke-linecap="round" stroke-linejoin="round"/>
<path d="M59.783 20.1726C63.309 18.733 66.9666 17.017 68.8615 13.4989C69.3841 12.5288 70.0573 11.6843 70.272 10.5911C70.5669 9.08969 70.5092 9.73373 69.3964 10.7053" stroke="#00ADB5" stroke-opacity="0.5" stroke-width="1.66333" stroke-linecap="round" stroke-linejoin="round"/>
<path d="M65.4589 25.0146C68.2543 22.4206 71.3792 19.5871 73.4276 16.2943C74.4493 14.6519 76.3954 12.6471 73.6746 15.0227" stroke="#00ADB5" stroke-opacity="0.5" stroke-width="1.66333" stroke-linecap="round" stroke-linejoin="round"/>
<path d="M74.4211 30.4517C76.9681 27.6839 79.2346 25.1097 81.5791 22.2155C82.3366 21.2804 84.6443 20.067 81.8679 20.809" stroke="#00ADB5" stroke-opacity="0.5" stroke-width="1.66333" stroke-linecap="round" stroke-linejoin="round"/>
<path d="M72.3958 29.0532C75.0618 26.7686 78.0768 24.1087 80.1895 21.2239C80.753 20.4544 81.1866 19.5972 81.7027 18.7976C82.5672 17.4583 82.6218 17.9105 81.3108 18.0481" stroke="#00ADB5" stroke-opacity="0.5" stroke-width="1.66333" stroke-linecap="round" stroke-linejoin="round"/>
<path d="M15.9103 61.4298C29.1924 56.0343 32.4696 41.3912 43.2934 33.1099C44.6101 32.1025 45.6797 30.9828 47.2151 30.2854C48.2418 29.8192 49.5096 29.596 50.4442 28.9993C51.0143 28.6354 55.7482 25.0189 52.4583 26.513" stroke="#00ADB5" stroke-opacity="0.5" stroke-width="1.66333" stroke-linecap="round" stroke-linejoin="round"/>
<path d="M9.72727 57.5138C11.2178 55.7014 12.5411 54.1502 14.432 52.8394C14.7421 52.6244 15.2207 52.5881 15.4757 52.301C15.981 51.7321 16.7466 50.9005 16.9413 50.1668C17.7082 47.2773 21.4556 47.8116 23.4455 46.3627C25.3385 44.9844 27.1609 43.5891 29.0907 42.2273C31.2169 40.727 32.2005 39.4112 33.9081 37.4888C35.4766 35.7229 36.9993 33.9367 38.6596 32.2649C40.0179 30.8973 42.1522 29.6534 43.0168 27.9029C43.9925 25.9274 46.4862 23.6664 48.7308 24.0326C49.5018 24.1583 55.1666 27.4409 51.464 25.342" stroke="#00ADB5" stroke-opacity="0.5" stroke-width="1.66333" stroke-linecap="round" stroke-linejoin="round"/>
<path d="M21.7469 64.5769C31.7278 59.3121 37.267 47.8336 44.0084 39.1627C46.4915 35.969 50.04 33.8467 52.6391 30.7086C53.7508 29.3663 56.2059 27.9405 53.3506 27.9636" stroke="#00ADB5" stroke-opacity="0.5" stroke-width="1.66333" stroke-linecap="round" stroke-linejoin="round"/>
<path d="M25.3085 67.828C34.3522 62.268 40.1431 51.9236 46.7231 43.726C49.7166 39.9965 52.6059 36.1889 55.6362 32.4898C57.0178 30.8033 59.4267 29.7498 56.3355 31.4766" stroke="#00ADB5" stroke-opacity="0.5" stroke-width="1.66333" stroke-linecap="round" stroke-linejoin="round"/>
<path d="M28.8717 73.6304C34.5152 68.127 39.0715 62.1883 43.6891 55.8223C46.4968 51.9516 48.924 47.6006 52.2209 44.1152C54.1125 42.1155 55.569 39.7738 57.2864 37.6538C57.9782 36.7997 58.4556 35.8046 59.1666 34.9577C60.7682 33.05 59.6515 34.7759 58.5363 35.8107" stroke="#00ADB5" stroke-opacity="0.5" stroke-width="1.66333" stroke-linecap="round" stroke-linejoin="round"/>
<path d="M30.1994 76.0422C33.0079 73.2912 37.1227 70.6432 38.9963 67.0746C39.6765 65.779 41.3598 62.6509 42.5402 61.8581C44.1006 60.81 44.8442 58.5805 45.9801 57.1783C47.1629 55.7181 48.3208 54.2933 49.6043 52.9044C50.8078 51.602 51.1931 49.3163 52.6831 48.1954C54.3428 46.9468 55.1504 45.0142 56.4744 43.5236C57.6203 42.2335 59.8018 40.8966 61.2234 39.9111C62.0111 39.3651 62.5613 38.6208 63.4547 38.215C65.2655 37.3926 64.0903 37.8136 62.4327 37.7516" stroke="#00ADB5" stroke-opacity="0.5" stroke-width="1.66333" stroke-linecap="round" stroke-linejoin="round"/>
<path d="M59.5548 21.2033C61.8781 21.8158 64.7426 22.2364 66.8598 23.5025C68.2262 24.3196 69.4158 25.1399 66.9277 23.652" stroke="#00ADB5" stroke-opacity="0.5" stroke-width="1.66333" stroke-linecap="round" stroke-linejoin="round"/>
<path d="M61.9678 17.3252C65.282 18.191 67.6241 19.1616 70.3266 20.9235C72.0936 22.0756 71.8101 21.7566 69.9695 20.6477" stroke="#00ADB5" stroke-opacity="0.5" stroke-width="1.66333" stroke-linecap="round" stroke-linejoin="round"/>
<path d="M65.9882 13.4126C68.8341 15.0131 71.5951 16.832 74.5378 18.2255C76.2686 19.045 75.3603 18.9877 74.0243 18.3427" stroke="#00ADB5" stroke-opacity="0.5" stroke-width="1.66333" stroke-linecap="round" stroke-linejoin="round"/>
<path d="M68.2774 10.2856C71.2698 11.6481 74.0283 13.0049 76.7835 14.7189C78.0398 15.5004 76.8996 15.551 75.9466 14.9185" stroke="#00ADB5" stroke-opacity="0.5" stroke-width="1.66333" stroke-linecap="round" stroke-linejoin="round"/>
<path d="M61.0238 19.841C63.2846 17.1532 65.5525 14.6063 67.6109 11.8512C68.1957 11.0684 71.7577 6.71031 70.2183 8.94081" stroke="#00ADB5" stroke-opacity="0.5" stroke-width="1.66333" stroke-linecap="round" stroke-linejoin="round"/>
<path d="M63.3981 24.5596C66.3397 21.9591 70.5789 18.4918 71.5284 14.6065C71.8078 13.4631 72.4138 12.3203 73.3019 11.5337C74.2027 10.736 75.1443 10.3758 73.7989 11.7203" stroke="#00ADB5" stroke-opacity="0.5" stroke-width="1.66333" stroke-linecap="round" stroke-linejoin="round"/>
<path d="M61.0392 24.4714C64.1758 21.0931 66.8567 18.8224 68.6287 14.6608C69.0889 13.5799 69.6167 12.6841 70.3721 11.8336C71.1727 10.9323 72.3218 10.0882 70.776 11.7017" stroke="#00ADB5" stroke-opacity="0.5" stroke-width="1.66333" stroke-linecap="round" stroke-linejoin="round"/>
<path d="M72.6927 26.1353C74.1371 27.051 75.5854 27.8996 77.0864 28.6617C77.7064 28.9764 76.9395 28.3673 76.6759 28.2684" stroke="#00ADB5" stroke-opacity="0.5" stroke-width="1.66333" stroke-linecap="round" stroke-linejoin="round"/>
<path d="M75.5066 21.6107C75.6042 21.6937 81.2825 26.559 80.2755 25.4738" stroke="#00ADB5" stroke-opacity="0.5" stroke-width="1.66333" stroke-linecap="round" stroke-linejoin="round"/>
<path d="M78.8805 19.8469C80.133 21.052 83.9692 24.5766 82.6186 23.4825" stroke="#00ADB5" stroke-opacity="0.5" stroke-width="1.66333" stroke-linecap="round" stroke-linejoin="round"/>
<path d="M71.0151 28.0569C73.0909 26.1238 77.6433 22.2941 78.7586 19.3228C79.1982 18.1519 81.2116 16.6473 79.3181 18.2571" stroke="#00ADB5" stroke-opacity="0.5" stroke-width="1.66333" stroke-linecap="round" stroke-linejoin="round"/>
<path d="M71.2777 28.6335C71.4748 28.7913 75.445 33.0675 76.2917 30.994C76.7239 29.9357 77.2867 28.5572 78.3468 27.9738C80.2066 26.9503 80.5498 23.7269 82.4537 22.8623C84.6136 21.8814 84.4118 20.2365 82.4004 19.653C81.6101 19.4238 82.2336 17.8665 81.4128 17.9888C80.6615 18.1008 80.2637 17.8235 79.4237 17.9775" stroke="#00ADB5" stroke-opacity="0.5" stroke-width="1.66333" stroke-linecap="round" stroke-linejoin="round"/>
<path d="M59.2924 20.6267C60.6541 23.2288 60.9117 24.1722 63.1088 25.2574C63.7018 25.5503 64.4759 25.1441 64.9259 25.3726C65.8164 25.8246 67.5764 25.8341 68.2411 25.0135C69.5777 23.3635 70.0697 22.2986 72.1175 21.295C73.4094 20.6618 74.4485 19.1678 75.0464 17.9294C75.7034 16.5683 76.8866 15.5427 77.5802 14.1764C77.8756 13.5947 75.4915 12.0962 75.4699 11.0898C75.4638 10.8044 72.6329 10.7958 72.1618 10.5567C71.5911 10.267 71.3295 9.8586 71.0556 9.25556C70.6556 8.37476 69.9463 9.46839 68.8714 9.55188" stroke="#00ADB5" stroke-opacity="0.5" stroke-width="1.66333" stroke-linecap="round" stroke-linejoin="round"/>
<path d="M12.1397 53.6356C15.3559 54.858 18.1607 56.4342 21.0563 58.1786C23.5703 59.6932 26.4112 60.5001 28.9093 61.9681C30.6876 63.0131 32.5332 65.3991 33.8457 66.9661C34.2831 67.4882 34.6097 67.9768 34.9198 68.5652C35.6314 69.9154 34.8911 66.6514 34.8157 66.2937" stroke="#00ADB5" stroke-opacity="0.5" stroke-width="1.66333" stroke-linecap="round" stroke-linejoin="round"/>
<path d="M43.1963 29.0959C44.0882 30.0324 47.6997 35.2022 46.9873 31.3163" stroke="#00ADB5" stroke-opacity="0.5" stroke-width="1.66333" stroke-linecap="round" stroke-linejoin="round"/>
</svg>
