<svg width="11" height="20" viewBox="0 0 11 20" fill="none" xmlns="http://www.w3.org/2000/svg">
<path d="M10.6437 10.6437L1.55278 19.7346C1.46831 19.8191 1.36804 19.8861 1.25768 19.9318C1.14733 19.9775 1.02905 20.001 0.909596 20.001C0.790146 20.001 0.671866 19.9775 0.561509 19.9318C0.451151 19.8861 0.350878 19.8191 0.266414 19.7346C0.18195 19.6501 0.11495 19.5499 0.0692385 19.4395C0.023527 19.3291 0 19.2109 0 19.0914C0 18.972 0.023527 18.8537 0.0692385 18.7433C0.11495 18.633 0.18195 18.5327 0.266414 18.4482L8.71528 10.0005L0.266414 1.55278C0.0958317 1.3822 -1.79738e-09 1.15084 0 0.909596C1.79738e-09 0.668356 0.0958317 0.436997 0.266414 0.266415C0.436997 0.0958321 0.668356 1.79738e-09 0.909596 0C1.15084 -1.79738e-09 1.3822 0.0958321 1.55278 0.266415L10.6437 9.35732C10.7282 9.44175 10.7953 9.54202 10.841 9.65238C10.8868 9.76274 10.9103 9.88104 10.9103 10.0005C10.9103 10.12 10.8868 10.2383 10.841 10.3486C10.7953 10.459 10.7282 10.5593 10.6437 10.6437Z" fill="#5DA96A"/>
</svg>
