<svg width="46" height="70" viewBox="0 0 46 70" fill="none" xmlns="http://www.w3.org/2000/svg">
<path d="M10.3307 51.966C13.5254 46.1756 13.3369 44.5213 12.6083 38.6928C12.2071 35.4832 12.0537 32.3472 11.2417 29.1895C9.78972 23.5428 9.31846 15.939 13.8649 11.3925C22.811 2.44641 39.471 15.1693 34.4266 26.5192C32.5067 30.8389 29.1893 34.0371 26.7925 38.1116C25.8313 39.7457 25.2929 41.517 24.0437 43.0439C22.8456 44.5082 21.3576 46.3307 21.3576 48.149C21.3576 49.6849 21.8155 51.6763 20.7293 53.0341C19.2287 54.9098 19.7622 53.9452 17.5406 53.9452C16.0134 53.9452 13.7614 52.7313 12.5298 51.7461C11.6505 51.0426 11.1789 53.0772 11.1789 51.1177C11.1789 49.4358 11.7203 50.835 10.6134 50.835" stroke="#00ADB5" stroke-opacity="0.2" stroke-width="1.28667" stroke-linecap="round" stroke-linejoin="round"/>
<path d="M17.3993 57.338C14.3757 56.4365 6.00609 54.4233 7.9432 56.9139C10.2804 59.9189 11.28 58.4129 14.1478 59.0502C15.6144 59.3761 17.0443 63.9026 15.4202 63.9982C13.1005 64.1346 11.5623 61.0137 9.19983 61.0137C7.04959 61.0137 7.2036 63.8435 8.49298 64.8464C10.1957 66.1707 12.1536 64.7472 13.2996 66.8099C15.1105 70.0695 10.1639 69.5391 8.76001 68.7734C7.34558 68.0019 5.99991 66.7972 4.9587 66.103" stroke="#00ADB5" stroke-opacity="0.2" stroke-width="1.28667" stroke-linecap="round" stroke-linejoin="round"/>
<path d="M10.3306 51.047C10.3691 51.2932 10.4091 52.9555 11.0728 52.9555C11.4302 52.9555 11.5946 52.7388 11.9211 52.9201C12.305 53.1335 12.6652 53.6356 13.0324 53.9294C13.356 54.1883 14.3166 54.1563 14.5011 54.4792C14.8025 55.0066 15.4144 55.2953 15.9855 55.3588C16.7259 55.4411 16.9998 55.8128 17.788 55.6376C18.0289 55.5841 18.0532 55.4295 18.2788 55.4295C18.6272 55.4295 18.7776 55.5961 19.0407 55.3038C19.3318 54.9803 19.8075 54.8288 19.9478 54.3378C20.1385 53.6702 20.8378 53.3189 19.8025 53.733" stroke="#00ADB5" stroke-opacity="0.2" stroke-width="1.28667" stroke-linecap="round" stroke-linejoin="round"/>
<path d="M23.9731 23.0555C22.7084 23.0623 21.6631 23.1438 21.2321 24.4849C20.9388 25.3974 20.9336 26.2941 20.9336 27.2417C20.9336 28.1629 21.4991 28.9035 21.4991 29.7706C21.4991 30.9169 20.5824 30.7292 19.8066 31.0783C19.0737 31.4081 18.5427 31.6836 18.1455 32.4213C17.7521 33.1519 18.0493 34.5645 18.1023 35.3587C18.1478 36.0421 18.4728 37.4945 18.0002 38.0723C17.7433 38.3862 16.3398 38.8708 17.258 38.1822" stroke="#00ADB5" stroke-opacity="0.2" stroke-width="1.28667" stroke-linecap="round" stroke-linejoin="round"/>
<path d="M34.646 35.8496C35.6587 36.5225 36.6908 37.0862 37.8229 37.5107C38.2976 37.6887 38.9226 38.0064 38.8164 37.2633" stroke="#00ADB5" stroke-opacity="0.2" stroke-width="1.28667" stroke-linecap="round" stroke-linejoin="round"/>
<path d="M38.3237 26.0951C40.1184 26.5271 41.901 27.0141 43.6801 27.4931C43.976 27.5727 43.2969 26.8246 43.2717 26.8019" stroke="#00ADB5" stroke-opacity="0.2" stroke-width="1.28667" stroke-linecap="round" stroke-linejoin="round"/>
<path d="M38.8176 16.8353C40.6762 16.5651 42.5292 16.2299 44.3782 15.9006C45.2294 15.749 45.5898 15.8607 45.1086 15.1388" stroke="#00ADB5" stroke-opacity="0.2" stroke-width="1.28667" stroke-linecap="round" stroke-linejoin="round"/>
<path d="M28.7802 7.00997C30.2486 6.75193 31.5214 6.50328 32.8485 5.83974C33.4697 5.52914 34.0678 5.15582 34.7177 4.90512C35.4901 4.6072 35.506 4.6979 34.6471 4.18255" stroke="#00ADB5" stroke-opacity="0.2" stroke-width="1.28667" stroke-linecap="round" stroke-linejoin="round"/>
<path d="M15.9857 0.648247C15.7714 2.14847 15.8423 3.047 16.4491 4.40636C16.7763 5.13918 17.053 6.06541 17.2149 6.85679C17.2706 7.12932 17.3017 7.28444 17.4858 7.48903C17.5548 7.56561 17.3018 6.65522 17.2581 6.51514" stroke="#00ADB5" stroke-opacity="0.2" stroke-width="1.28667" stroke-linecap="round" stroke-linejoin="round"/>
<path d="M5.17122 6.65649C5.64047 8.21881 6.30931 9.71746 6.71059 11.2825C6.91361 12.0742 6.78669 12.1224 6.44356 11.3217" stroke="#00ADB5" stroke-opacity="0.2" stroke-width="1.28667" stroke-linecap="round" stroke-linejoin="round"/>
<path d="M0.647386 17.8955C2.25336 19.2854 3.57042 21.0108 4.81783 22.7178C4.97416 22.9317 5.15489 23.0077 5.32834 23.1812C5.72235 23.5752 5.04218 22.6852 4.9592 22.5607" stroke="#00ADB5" stroke-opacity="0.2" stroke-width="1.28667" stroke-linecap="round" stroke-linejoin="round"/>
</svg>
