<svg width="35" height="32" viewBox="0 0 35 32" fill="none" xmlns="http://www.w3.org/2000/svg">
<path d="M12.2722 14.3925C13.5712 10.6777 14.5468 6.59175 16.1354 3.01734C16.2756 2.70204 17.1291 0.847237 17.4232 0.847237C18.6964 0.847237 18.4936 8.93135 18.8063 10.3385C19.9943 15.6843 19.0771 14.3876 23.0034 11.0539C24.9455 9.40493 37.8401 3.6846 32.8762 9.00301C29.8256 12.2716 25.669 15.5661 21.5488 17.3973C20.8956 17.6875 22.9875 18.4385 23.3373 18.8758C24.5466 20.3874 25.5527 22.0333 26.6521 23.6214C29.5217 27.7665 24.106 24.9439 22.1211 24.0507C20.1899 23.1816 17.7329 22.7058 16.1354 21.2605C15.8607 21.012 14.8477 19.5121 14.8477 19.9728C14.8477 25.8864 13.9739 27.0684 9.69665 30.704C6.70504 33.2469 7.71227 24.1904 7.88426 23.3114C8.23525 21.5174 8.87146 19.9653 9.48203 18.2558C9.72714 17.5695 11.1829 16.2099 10.4598 16.3003C6.59631 16.7832 10.6942 21.1775 4.95104 17.588C-1.97189 13.2612 0.431546 5.25609 7.93195 11.1493C10.0906 12.8454 9.78706 15.3688 12.4629 16.1334C15.694 17.0565 12.9439 14.4482 11.8429 12.2462" stroke="#00ADB5" stroke-opacity="0.5" stroke-width="1.66333" stroke-linecap="round" stroke-linejoin="round"/>
</svg>
